<svg id="Layer_1" data-name="Layer 1" xmlns="http://www.w3.org/2000/svg" viewBox="0 0 48 48"><defs><style>.cls-1{fill:#d1e5a8;}.cls-2{fill:#202c43;}.cls-3{fill:#fff;}</style></defs><title>Voice</title><rect class="cls-1" width="48" height="48" rx="19.72" ry="19.72"/><path class="cls-2" d="M25,29.51A5.51,5.51,0,0,0,30.5,24V15.44a5.5,5.5,0,0,0-11,0V24A5.51,5.51,0,0,0,25,29.51Z" transform="translate(-1 -1)"/><path class="cls-3" d="M25,29.42a4.63,4.63,0,0,0,2.91-1,5,5,0,0,0,1.6-2.49,6.45,6.45,0,0,0,.21-1.4L29.66,23c0-1.08,0-2.15,0-3.23s.17-2.15.26-3.23c0-.54.1-1.09.11-1.57a5.09,5.09,0,0,0-.29-1.48,4.77,4.77,0,0,0-1.92-2.31A4.83,4.83,0,0,0,25,10.47,4.91,4.91,0,0,0,20.47,15c0,.41,0,1,0,1.52,0,1.08,0,2.15,0,3.23s0,2.15-.1,3.23l-.09,1.53a6.34,6.34,0,0,0,.18,1.4,4.74,4.74,0,0,0,2.94,3.25A5.53,5.53,0,0,0,25,29.42Zm0,.19a6.42,6.42,0,0,1-5.65-3.24,6,6,0,0,1-.62-1.72A15.11,15.11,0,0,1,18.58,23c-.07-1.08-.06-2.15-.1-3.23s0-2.15,0-3.23c0-.54,0-1,.08-1.71A7,7,0,0,1,19.1,13a6.15,6.15,0,0,1,2.43-2.74A6,6,0,0,1,25,9.42a6.44,6.44,0,0,1,5.36,3.79,7.1,7.1,0,0,1,.5,1.64c.09.59.12,1.11.17,1.65.09,1.08.2,2.15.26,3.23s.08,2.15,0,3.23a13.21,13.21,0,0,1-.11,1.69,5.9,5.9,0,0,1-.59,1.72A6.45,6.45,0,0,1,25,29.61Z" transform="translate(-1 -1)"/><path class="cls-2" d="M33.37,24.89c-1,4.06-4.08,7-7.63,7H24.26c-3.56,0-6.59-3-7.64-7H14a10.13,10.13,0,0,0,8.76,10v3a2.15,2.15,0,0,0,2.14,2.14h.25a2.15,2.15,0,0,0,2.14-2.14v-3a10.13,10.13,0,0,0,8.76-10Z" transform="translate(-1 -1)"/><path class="cls-3" d="M33.43,25a9.51,9.51,0,0,1-2.58,5.45,7.82,7.82,0,0,1-2.67,1.8,7.3,7.3,0,0,1-1.6.43c-.27,0-.55.06-.83.07H24.26c-.28,0-.56,0-.84,0a6.53,6.53,0,0,1-1.63-.38A7.65,7.65,0,0,1,19,30.56,10.85,10.85,0,0,1,16.21,25l.42.33c-.88-.07-1.77-.08-2.65-.12l.31-.31a8.88,8.88,0,0,0,.63,3.43,8.74,8.74,0,0,0,1.9,2.91,9.61,9.61,0,0,0,6,2.84l.68.06,0,.73L23.63,38a1.24,1.24,0,0,0,1.37,1A1.19,1.19,0,0,0,26.24,38V36.5c0-.54,0-1.09,0-1.63l0-.9.85-.1A9.66,9.66,0,0,0,32.91,31a9.9,9.9,0,0,0,2.77-6.1l.35.35Zm-.12-.15c.84-.09,1.76-.19,2.71-.27l.31,0,0,.37a9.79,9.79,0,0,1-.44,3.75A10.06,10.06,0,0,1,34.11,32a10.63,10.63,0,0,1-6.71,3.82l.87-1c0,.54,0,1.09,0,1.63v1.44l0,.3a3.08,3.08,0,0,1-1.11,2.06A3.17,3.17,0,0,1,25,41a3.37,3.37,0,0,1-1.11-.18,3.07,3.07,0,0,1-2-2.61v-.91l0-.82.05-1.63.7.8a10.62,10.62,0,0,1-6.46-3.87,11.59,11.59,0,0,1-2.51-6.91v-.3H14c.88,0,1.77-.06,2.65-.12l.31,0,.11.35a9.9,9.9,0,0,0,3,4.61,7.59,7.59,0,0,0,2.27,1.32,6.89,6.89,0,0,0,1.25.31c.21,0,.43,0,.64.05h1.49c.22,0,.43,0,.65,0a5.77,5.77,0,0,0,1.28-.26A7.26,7.26,0,0,0,30,29.53a9.88,9.88,0,0,0,1.9-2.08A14.06,14.06,0,0,0,33.32,24.82Z" transform="translate(-1 -1)"/></svg>