<svg id="Layer_1" data-name="Layer 1" xmlns="http://www.w3.org/2000/svg" viewBox="0 0 376.94 197.6"><title>Oak New logo - EPS Color</title><path d="M23.165,205.2c.014-7.216.016-8.512-.081-9.992-.094-1.573-.488-2.314-2.117-2.641a9.859,9.859,0,0,0-1.679-.143c-.2,0-.394-.092-.393-.277,0-.277.247-.37.79-.369,2.222,0,5.333.15,5.579.15.988,0,11.011.021,12.147-.023a11.683,11.683,0,0,0,2.173-.181c.3-.092.5-.276.692-.276s.3.185.3.416c0,.325-.249.88-.4,2.175-.05.462-.153,2.5-.253,3.051-.05.231-.149.509-.4.508s-.345-.23-.344-.556a4.727,4.727,0,0,0-.441-1.758c-.3-.6-1.43-1.436-3.355-1.486l-7.6-.154c-.3,0-.444.139-.445.508l-.024,12.767c0,.277.049.415.345.416l6.319-.034c.839,0,1.53,0,2.222-.041,1.186-.09,1.827-.227,2.273-.828.2-.23.347-.463.545-.462s.246.141.246.371c0,.278-.249,1.064-.4,2.59-.1.925-.19,2.251-.191,2.576,0,.416-.11.586-.326.585s-.365-.139-.384-.46a2.416,2.416,0,0,0-.39-1.067,3.188,3.188,0,0,0-2.462-1.411c-1.234-.14-6.616-.15-7.455-.152-.247,0-.346.091-.347.416l-.007,3.931c-.009,4.441-.016,8.095.227,10.037.146,1.342.44,2.359,1.921,2.548.691.094,1.777.189,2.222.19.3,0,.394.14.394.278,0,.231-.247.37-.791.369-2.716-.005-5.826-.15-6.073-.151s-3.358.133-4.839.13c-.543,0-.789-.095-.789-.372,0-.139.1-.277.4-.277a8.064,8.064,0,0,0,1.481-.183c.988-.184,1.238-1.2,1.437-2.541.251-1.942.257-5.6.266-10.037Z" transform="translate(-18.894 -30.39)" fill="#002d56"/><path d="M66.128,191.224c11.11.021,19.392,6.6,19.371,17.383-.02,10.362-7.836,18.9-19.736,18.88-13.528-.026-19.138-9.889-19.123-18.213C46.655,201.78,52.5,191.2,66.128,191.224Zm.972,34.509c4.444.009,13.632-2.38,13.657-15.839.021-11.1-7.176-17.083-14.977-17.1-8.246-.016-14.427,5.06-14.446,15.191C51.313,218.765,58.213,225.717,67.1,225.733Z" transform="translate(-18.894 -30.39)" fill="#002d56"/><path d="M94.179,205.339c.013-7.216.016-8.512-.08-9.992-.1-1.573-.49-2.314-2.118-2.641a9.87,9.87,0,0,0-1.678-.143c-.2,0-.395-.092-.395-.277,0-.277.249-.37.792-.369,2.221,0,5.233.149,5.677.15s3.407-.133,4.889-.13c.543,0,.789.095.789.372,0,.185-.2.276-.4.276a7.815,7.815,0,0,0-1.234.137c-1.334.183-1.73,1.015-1.832,2.633-.1,1.479-.1,2.776-.118,9.992l-.012,6.475c-.013,6.661,1.561,9.532,3.681,11.433a10.055,10.055,0,0,0,7.451,2.558,10.678,10.678,0,0,0,7.758-3.316c2.276-2.633,2.876-6.564,2.885-11.327l.011-5.783c.013-7.216.016-8.512-.079-9.992-.1-1.573-.49-2.314-2.118-2.641a9.914,9.914,0,0,0-1.679-.143c-.2,0-.395-.092-.394-.277,0-.277.248-.37.79-.369,2.222,0,4.938.149,5.234.149.345,0,2.666-.135,4.148-.132.543,0,.789.094.789.372,0,.185-.2.276-.4.276a4.558,4.558,0,0,0-1.234.137c-1.334.229-1.73,1.016-1.832,2.633-.1,1.48-.1,2.776-.118,9.992l-.009,4.95c-.009,4.995-.613,10.544-4.569,13.822a15.08,15.08,0,0,1-10.178,3.4c-1.678,0-6.665-.2-10.165-3.3-2.415-2.178-4.285-5.42-4.272-12.174Z" transform="translate(-18.894 -30.39)" fill="#002d56"/><path d="M138.463,220.687c.091,3.794.583,5,1.916,5.37a11.507,11.507,0,0,0,2.467.283c.247,0,.394.093.394.278,0,.277-.3.37-.889.369-2.814-.005-4.789-.148-5.234-.149s-2.518.135-4.74.13c-.494,0-.79-.048-.789-.372,0-.185.148-.277.4-.277a7.511,7.511,0,0,0,2.025-.274c1.235-.322,1.485-1.66,1.492-5.872l.1-26.5c0-1.8.152-2.312.547-2.312s1.233,1.02,1.725,1.483c.739.788,8.082,8.248,15.671,15.9,4.879,4.913,10.25,10.566,11.827,12.1l-.5-23.5c-.043-3.007-.387-4.025-1.917-4.4a13.991,13.991,0,0,0-2.418-.237c-.346,0-.395-.139-.394-.324,0-.278.4-.323.987-.322,2.222,0,4.592.148,5.136.149s2.172-.136,4.2-.132c.543,0,.889.047.888.326,0,.185-.2.323-.544.322a4.616,4.616,0,0,0-1.186.137c-1.63.321-1.829,1.339-1.835,4.113l-.15,27.106c-.006,3.054-.105,3.284-.451,3.284-.395,0-.986-.51-3.6-2.967-.542-.463-7.639-7.278-12.863-12.559-5.717-5.794-11.285-11.633-12.862-13.3Z" transform="translate(-18.894 -30.39)" fill="#002d56"/><path d="M182.682,205.507c.014-7.216.016-8.512-.079-9.992-.1-1.573-.489-2.314-2.118-2.641a9.861,9.861,0,0,0-1.678-.143c-.2,0-.395-.092-.395-.277,0-.277.247-.37.79-.369,2.222,0,5.332.15,5.58.15.592,0,3.7-.133,6.665-.127,4.889.01,13.925-.39,19.79,5.311A15.989,15.989,0,0,1,216,209.178a18.289,18.289,0,0,1-5.357,13.036c-2.127,2.076-6.576,5.306-14.971,5.29-4.246-.008-10.466-.576-10.96-.576-.247,0-3.358.133-4.839.13-.543,0-.79-.094-.789-.372,0-.139.1-.277.4-.277a8.057,8.057,0,0,0,1.481-.182c.988-.184,1.238-1.2,1.437-2.542.251-1.942.257-5.6.266-10.037Zm4.139,5c-.009,4.9.031,9.158.079,10.037.048,1.156.143,3.006.537,3.516.64.88,2.563,1.855,8.39,1.866a17.19,17.19,0,0,0,11.76-4.28c2.572-2.354,3.963-6.792,3.971-11.048a16.02,16.02,0,0,0-4.718-11.665c-4.633-4.588-10.261-5.247-16.136-5.258a14.076,14.076,0,0,0-3.209.318.836.836,0,0,0-.6.924c-.052,1.571-.061,6.291-.068,9.851Z" transform="translate(-18.894 -30.39)" fill="#002d56"/><path d="M234.564,193.347c.6-1.524.795-1.8,1.09-1.8s.495.232,1.084,1.667c.737,1.759,8.452,20.877,11.451,27.914,1.769,4.12,3.2,4.863,4.235,5.143a6.774,6.774,0,0,0,1.975.282c.3,0,.493.047.493.278,0,.277-.444.37-.987.369-.742,0-4.344-.008-7.753-.108-.937-.048-1.481-.05-1.48-.327,0-.184.15-.277.347-.322.3-.093.594-.509.3-1.249l-4.569-11.388a.434.434,0,0,0-.445-.279l-10.616-.02a.514.514,0,0,0-.494.37l-2.978,8.182a9.215,9.215,0,0,0-.7,3.1c0,.925,1.033,1.343,1.875,1.345h.492c.347,0,.494.093.494.278,0,.277-.3.37-.742.369-1.185,0-3.309-.146-3.852-.147s-3.259.133-5.578.129c-.642,0-.939-.095-.938-.372,0-.185.2-.277.445-.277.346,0,1.039-.045,1.432-.09,2.272-.275,3.264-2.029,4.158-4.34Zm5.1,18.513c.248,0,.248-.138.2-.323l-4.666-12.5q-.367-1.042-.741,0l-4.367,12.482c-.1.23,0,.323.147.323Z" transform="translate(-18.894 -30.39)" fill="#002d56"/><path d="M271.44,213.817c-.009,4.441-.016,8.095.228,10.037.146,1.342.44,2.359,1.922,2.548.689.094,1.774.188,2.221.189.294,0,.395.14.394.278,0,.231-.247.37-.79.369-2.717-.005-5.827-.151-6.074-.151s-3.358.133-4.838.13c-.544,0-.79-.095-.79-.372,0-.139.1-.277.394-.277a8.077,8.077,0,0,0,1.483-.182c.988-.184,1.236-1.2,1.436-2.542.251-1.942.258-5.6.267-10.037l.037-19.566-7.308.078c-3.062.041-4.246.362-5.038,1.47a7.874,7.874,0,0,0-.842,1.432c-.151.371-.3.462-.5.461-.147,0-.247-.139-.246-.415,0-.463,1-4.44,1.095-4.81.1-.278.3-.878.5-.878a9.694,9.694,0,0,0,2.172.559c1.43.141,3.307.238,3.9.239l18.516.035a27.867,27.867,0,0,0,3.507-.225,12.569,12.569,0,0,1,1.383-.228c.246,0,.246.277.245.555,0,1.388-.156,4.579-.158,5.087,0,.418-.149.6-.346.6-.246,0-.346-.139-.394-.786l-.05-.508c-.194-1.388-1.327-2.455-6.066-2.556l-6.222-.1Z" transform="translate(-18.894 -30.39)" fill="#002d56"/><path d="M300.792,213.873c-.009,4.441-.016,8.095.228,10.037.146,1.342.441,2.359,1.92,2.548.692.094,1.778.189,2.221.19.3,0,.4.14.4.278,0,.231-.247.37-.792.369-2.717,0-5.826-.15-6.073-.151s-3.358.133-4.84.13c-.542,0-.789-.095-.788-.372,0-.139.1-.277.4-.277a8.049,8.049,0,0,0,1.48-.182c.988-.184,1.237-1.2,1.438-2.542.25-1.942.256-5.6.265-10.037l.015-8.141c.013-7.216.015-8.512-.08-9.992-.1-1.573-.589-2.361-1.675-2.594a6.9,6.9,0,0,0-1.53-.189c-.2,0-.4-.092-.395-.277,0-.277.248-.37.792-.369,1.628,0,4.738.149,4.985.149s3.357-.133,4.839-.13c.543,0,.789.095.788.372,0,.185-.2.276-.394.276a7.862,7.862,0,0,0-1.236.137c-1.334.229-1.731,1.016-1.832,2.634-.1,1.479-.1,2.776-.118,9.992Z" transform="translate(-18.894 -30.39)" fill="#002d56"/><path d="M330.821,191.727c11.11.021,19.392,6.6,19.371,17.382-.02,10.362-7.837,18.9-19.735,18.88-13.53-.026-19.14-9.889-19.124-18.212C311.347,202.282,317.2,191.7,330.821,191.727Zm.971,34.509c4.444.009,13.634-2.38,13.659-15.839.021-11.1-7.176-17.083-14.978-17.1-8.246-.016-14.426,5.06-14.445,15.191C316.008,219.267,322.906,226.219,331.792,226.236Z" transform="translate(-18.894 -30.39)" fill="#002d56"/><path d="M362.676,221.113c.092,3.794.583,5,1.915,5.369a11.528,11.528,0,0,0,2.469.283c.247,0,.395.093.394.278,0,.277-.3.37-.888.369-2.814-.006-4.789-.149-5.233-.149s-2.519.135-4.742.13c-.493,0-.79-.048-.789-.372,0-.185.149-.277.394-.277a7.524,7.524,0,0,0,2.025-.275c1.237-.321,1.485-1.66,1.493-5.872l.1-26.5c0-1.8.153-2.312.547-2.312s1.231,1.019,1.724,1.483c.739.788,8.084,8.248,15.671,15.9,4.88,4.913,10.252,10.566,11.827,12.1l-.5-23.5c-.045-3.006-.388-4.025-1.918-4.4a14.08,14.08,0,0,0-2.418-.237c-.346,0-.4-.139-.395-.324,0-.278.4-.323.988-.322,2.222,0,4.591.148,5.134.149s2.173-.136,4.2-.132c.543,0,.887.047.887.326,0,.185-.2.323-.543.322a4.6,4.6,0,0,0-1.186.137c-1.629.32-1.829,1.339-1.834,4.113l-.15,27.106c-.006,3.054-.106,3.284-.452,3.284-.394,0-.986-.51-3.6-2.967-.542-.463-7.639-7.278-12.863-12.559-5.717-5.794-11.284-11.633-12.863-13.3Z" transform="translate(-18.894 -30.39)" fill="#002d56"/><path d="M201.894,37c1.934-5.319,2.579-6.287,3.547-6.287s1.612.806,3.546,5.8c2.417,6.125,27.724,72.694,37.555,97.194,5.8,14.346,10.477,16.925,13.862,17.891a20.815,20.815,0,0,0,6.447.969c.967,0,1.612.16,1.612.966,0,.967-1.451,1.29-3.225,1.29-2.417,0-14.184,0-25.306-.323-3.062-.161-4.835-.161-4.835-1.128,0-.645.483-.968,1.128-1.128.967-.323,1.934-1.774.967-4.353l-14.99-39.65a1.41,1.41,0,0,0-1.451-.968H186.1a1.7,1.7,0,0,0-1.611,1.29L174.815,137.1a34.048,34.048,0,0,0-2.257,10.8c0,3.225,3.385,4.676,6.125,4.676H180.3c1.129,0,1.612.322,1.612.966,0,.967-.967,1.29-2.418,1.29-3.869,0-10.8-.484-12.572-.484s-10.638.484-18.214.484c-2.1,0-3.063-.323-3.063-1.29,0-.644.644-.966,1.451-.966,1.128,0,3.385-.163,4.674-.323,7.415-.968,10.638-7.093,13.539-15.152Zm16.764,64.474c.806,0,.806-.484.645-1.128L203.99,56.83q-1.209-3.626-2.418,0l-14.184,43.52c-.323.806,0,1.128.484,1.128Z" transform="translate(-18.894 -30.39)" fill="#002d56"/><path d="M290.576,79.718c0-25.145,0-29.658-.323-34.816-.322-5.48-1.611-8.059-6.93-9.187a30.14,30.14,0,0,0-5.48-.483c-.645,0-1.289-.323-1.289-.967,0-.967.8-1.29,2.578-1.289,7.254,0,16.763.483,17.73.483,1.451,0,10.8-.483,15.635-.484,1.773,0,2.579.322,2.579,1.29,0,.644-.645.967-1.29.967a23.933,23.933,0,0,0-4.029.483c-4.351.806-5.641,3.546-5.963,9.187-.323,5.158-.323,9.671-.323,34.816v9.671h.645c2.74-3.062,31.916-32.72,37.718-39.006,4.512-4.675,8.7-8.866,8.7-11.606,0-1.934-.806-2.9-2.095-3.385-.806-.322-1.451-.644-1.451-1.289,0-.806.806-1.128,1.934-1.128,3.223,0,8.221.483,12.089.483.806,0,11.447-.483,15.477-.484,1.773,0,2.418.322,2.418,1.128s-.323,1.128-1.612,1.128a23.853,23.853,0,0,0-9.028,2.256c-6.61,2.9-10.156,6.931-17.41,13.862-4.029,3.868-32.075,31.27-35.46,35.3,4.192,4.674,37.718,39.329,44.326,45.454,13.542,12.572,16.282,15.152,24.02,18.375a29.72,29.72,0,0,0,9.994,2.1c1.129,0,2.1.322,2.1.966,0,.806-.806,1.29-3.546,1.29h-8.221c-4.515,0-7.577,0-11.125-.323-8.543-.805-12.573-4.353-19.5-9.832-7.252-5.964-41.425-42.875-49.161-52.385h-.806v15.8c0,15.473,0,28.206.806,34.976.484,4.674,1.451,8.221,6.287,8.866a55.288,55.288,0,0,0,6.287.645c.967,0,1.289.482,1.289.966,0,.806-.806,1.29-2.579,1.29-7.9,0-17.246-.484-18.536-.484s-10.637.484-15.473.484c-1.773,0-2.579-.323-2.579-1.29,0-.484.322-.966,1.29-.966a24.88,24.88,0,0,0,4.835-.645c3.223-.645,4.029-4.192,4.674-8.866.806-6.77.806-19.5.806-34.976Z" transform="translate(-18.894 -30.39)" fill="#002d56"/><path d="M57.718,59.111c-.128-.173-.17.245,0,0ZM57.25,99.19c-.049.006-.2-.05-.192.109.011.492.887.325,1.013.291C57.88,99.352,57.482,99.058,57.25,99.19ZM56.958,62.2c0,.252.23.252.459.252a4.194,4.194,0,0,0,.625-.814C57.645,61.694,57.417,61.442,56.958,62.2Zm2.076-.17c-.435-.049-.263.649-.166.78C58.81,62.732,59.5,62.083,59.034,62.03Zm-4.62,34.125a1.752,1.752,0,0,0-.207.128C54.356,96.283,54.4,96.226,54.414,96.155Zm5.262,3.283a.172.172,0,0,0,.136-.053.288.288,0,0,0-.161.028Zm-5.24-3.661c-.155,0,0,.228-.022.377,1.284-.7,2.362.923,3.232,1.643l-.229.252a3.479,3.479,0,0,1,.944.09h0a1.621,1.621,0,0,1,.661-.09C57.875,96.788,56.27,94.768,54.436,95.777Zm46.771-52.766s-.23,0-.28-.045c.433.469,1,.173,1.579.231-.282.034-.5.319-.842.319,1.147.5,2.981,1.01,3.9-.505-.688.252-1.145-.252-1.6-.5-.229,0-.229.252-.229.5,0-.252-.459-.5-.459-.757-.229,0-.229.252-.229.5-.4.221-.8-.138-1.2-.231-.44.183-.87-.253-1.089.231C100.977,42.759,101.207,42.759,101.207,43.011Zm2.282,2.381.222-.224-1.376-.052c.237.24.466.249.474.48.246.472-.689-.026-.443.444.23.009.682-.2.911-.194.008.231.008.231.017.462.213-.453.671-.435,1.062-.485C104.185,45.651,103.735,45.865,103.488,45.392Zm-1.824-2.886a.791.791,0,0,1,.173.021c.018-.008.037-.011.057-.021Zm-2.149,3.027a.3.3,0,0,0-.089-.039l.01.01C99.462,45.513,99.489,45.527,99.515,45.533Zm-38.36,2.611c-.308-.011-.318.226-.328.463C61.052,48.6,61.062,48.36,61.155,48.144Zm36.233-3.792c.016.1.528.315.582.337a1.529,1.529,0,0,0-.338-.433c.15.058.626-.061.307.254a2.167,2.167,0,0,0,1.163.264c-.007-.229-.007-.229-.013-.46.231.007.461.014.455-.216.006.23.013.461.244.469a.821.821,0,0,0,.355-.036c.061.126.7-.064.345.288a2.4,2.4,0,0,0-1.834.4c.693.022,1.155.037,1.848.061-.405-.014-.622.332-.986.252.092.07.147.179.307.185a.551.551,0,0,1-.386-.214.56.56,0,0,1-.082-.031.239.239,0,0,1,.073.022c-.149-.16-.264-.305-.536-.037,0,0,.006.23.013.459.246.467.7.253,1.164.269.007.23-.223.221-.455.213l.462.016s.009.229.016.459c-.007-.23.223-.221.455-.213-.009-.23-.016-.46-.016-.46a2.143,2.143,0,0,0,.87-1.58c.267.009.536.094.8.077a1.035,1.035,0,0,0-.241.071,2.328,2.328,0,0,1,.316.316c.035,0,.7.026.7.026.132-.441-.255-.485-.588-.444a.84.84,0,0,0,.382-.23c-.918-.032-1.4-.743-2.094-1,.452-.217-.237-.239-.013-.463-.223.225-.695-.252-.92-.027-.218.456.48.707.493,1.169-.237-.238-.705-.482-.717-.945-.213-.006-.622-.207-.675.125a.46.46,0,0,0-.3-.207.668.668,0,0,0,.275-.168c-.466-.244-.686.212-1.152-.03-.231-.006-.457.219-.4.35a.634.634,0,0,0,.648.347c.006.23-.457.217-.22.453-.084.084-.113.136-.106.17-.122-.114-.248-.217-.342-.293C97.087,44.176,97.346,44.08,97.387,44.353ZM48.373,51.869a.625.625,0,0,0-.681.329c.324.016.558.363.73.656a1.405,1.405,0,0,0,.38-.577C48.9,52,48.624,51.653,48.373,51.869Zm2.086-3.5c.19.074.459-.12.641-.2A.636.636,0,0,0,50.458,48.369Zm9.193,51.043a.767.767,0,0,0-.659-.261C59.159,99.734,59.427,99.5,59.651,99.413ZM81.627,38.642c-.3-.053-.638-.379-.913-.191a.816.816,0,0,1,.472.147A.959.959,0,0,0,81.627,38.642Zm9.764,1.841c.231,0,.233.233.406.224C91.854,40.488,91.623,40.485,91.392,40.483Zm.778,7.673c.255-.133.5.327.49-.128l-.472-.008.232-.223-.705-.012C91.718,48.011,91.722,48.239,92.169,48.156ZM91.655,46.3a.7.7,0,0,0,.163.61l.119.26C91.945,46.876,91.983,46.44,91.655,46.3Zm-17.19-6.128h0c.281-.084.543.156.846.075-.14-.136-.618-.183-.665-.364C74.555,39.532,74.013,40.311,74.465,40.176Zm4.043-1.2a.794.794,0,0,0-.688-.252s-.229.252-.156.254C77.821,38.972,78.279,38.972,78.509,38.972Zm2.322-.306c-.006.163.42.141.494.052C81.28,38.694,80.836,38.53,80.831,38.666ZM85.8,58.557a1.293,1.293,0,0,0-.255.034A.867.867,0,0,0,85.8,58.557Zm2.549.422c.38-.619,1.361-.372,2.088-.837.72-.7-.013-.944-.506-1.42-.143-.138-.118-.2-.026-.217-.125.02-.218.071-.217.213-.486-.005.235-.7-.733-.476l.245.237c-.241.233-.728-.006-.725.463l-.49-.473c0,.235.245.47.248.706,0-.235-.49-.472-.491-.707-.242,0-.242.234-.241.468-.243,0-.243,0-.244-.235l-.73.7-.487-.47c.244,0,.244,0,.244-.235-.244-.235-.243-.468-.486-.468s-.485-.231-.487.237c.244,0,.486,0,.485.232-.727-.465-.729,0-1.219.476.486.232.732-.24,1.219-.007.339,0-.032.343-.041.471l-.938.005c.241.472.976.231,1.219.467,0,.185,0,.368-.236.442C86.656,58.513,87.356,59.275,88.346,58.979Zm4.25,9.54c-.5-.011.488-.756-.267-.773l.252.006c-.508-.265-.707-.9-.967-1.443-.223-.465-.493-.856-1.04-.885.123-.023.211-.081.208-.23-.256-.5.738-.733.48-1.235l-1.495-.022c.5-.241.489-.733.734-.976a.825.825,0,0,1-1.243-.016c.254.495-.242.736-.488,1.229.25,0,.25,0,.21.217-.39.453.3.893.021,1.322a.858.858,0,0,1,.532-.286c.256.5-.243.751-.24,1.255.5.006.749-.5,1.256-.237L90.3,66.7a2.341,2.341,0,0,1,.268,1.275l-.76-.01c-.252,0-.249.253-.247.51l.506.005c-.251.254-.248.512-.756.506,0,.258,0,.258,0,.517.506-.253,1.02.271,1.525.019-.5.512-1.268.243-1.771,1.018,0,.523.254,0,.513.266l.252-.258.258.264c.5-1.034,1.779-.234,2.789-.474.254.006.506.012.5-.508l-.5-.011c.242-.512.746-.5.477-1.277ZM62.983,99.476h0c-.315.013-.315.013-.312.291l.7.013C63.369,99.5,63.135,99.5,62.983,99.476Zm-1.716-.843c-.468-.838-1.143.261-1.607-.574l-.224.273c0,.276.23.279.46.558a.784.784,0,0,1-.084.495.157.157,0,0,1,.091.058c.23.279.464.56.692.564.226-.273-.236-.557.162-.5a10.471,10.471,0,0,1,1.212-.028C61.734,99.2,61.729,98.639,61.267,98.633ZM89,65.714c-.073.066-.145.136-.218.209A.716.716,0,0,0,89,65.714Zm.054.525c-.917,0-1.6-.505-2.064.5h.46c-.46,0-.46.252-.689.5,0-.5-.229,0-.459-.252V67.5c.459.251.459.756.23,1.262,0,.252-.458-.252-.458.252h.458a.972.972,0,0,0-.486.091,1.575,1.575,0,0,0,.943.414c.46,0,.689-.757,1.376-.757l.229.252a3.484,3.484,0,0,1,.23-1.514l-.23-.253c0-.252.23-.252.459-.252,0-.252,0-.252-.23-.252C88.826,66.491,88.826,66.239,89.055,66.239ZM48.766,50.2a.461.461,0,0,0,.637-.041C49.332,49.632,48.954,49.88,48.766,50.2ZM98.012,78.944c.151.111.4.118.41.394q-.02-.826-.043-1.647C98.394,78.237,97.894,78.5,98.012,78.944Zm4.046,4.878a.328.328,0,0,1,.14-.308.811.811,0,0,1,.059-.959l.025-.21c-.262.141-.893.393-1.163.16-.218-.187-.94-.034-.543.456C101.068,82.824,101.573,83.745,102.058,83.822Zm-4.092-2.276a.847.847,0,0,0,.757-.259c-.267-.564.22-1.381-.3-1.949a.853.853,0,0,1-.636.277C98.189,80.16,97.7,80.981,97.965,81.546Zm10.455,4.217c-.483-.293-.961-.308-1.5-.681C107.234,86,107.944,85.748,108.42,85.762Zm14.247,8.292a1.211,1.211,0,0,0,.09-.549A2,2,0,0,0,122.667,94.055ZM109.018,54.644l.213.234C109.231,54.722,109.139,54.667,109.018,54.644Zm-5.977-1.281h.159C103.16,53.308,103.111,53.284,103.04,53.363ZM112.746,85.5c-.373-.155-.588.384-1.048.369.005.274.005.274.013.549C112.172,86.432,112.387,85.891,112.746,85.5Zm-6.465-40.831a.392.392,0,0,0,.4.039c-.143-.018-.839-.274-.872-.008C105.888,44.7,106.254,44.625,106.282,44.668ZM62.671,39.415a.492.492,0,0,0-.211.061C62.6,39.476,62.649,39.469,62.671,39.415ZM113.128,77.6v-.505c-.23,0-.459,0-.459.253S112.9,77.6,113.128,77.6Zm-3.439,3.03a1.318,1.318,0,0,0,.2.03C109.855,80.631,109.8,80.629,109.689,80.629Zm-8.712-4.292a1.049,1.049,0,0,0,.036-.206C100.935,76.182,100.889,76.241,100.977,76.337Zm7.565,6.565v-.033a.219.219,0,0,0-.115-.005A.193.193,0,0,0,108.542,82.9Zm-.23,0a.351.351,0,0,1,.114-.038c-.11-.076-.114-.27-.114-.467Zm3.669-5.05c-.039-.086-.079-.155-.12-.228C111.56,77.686,110.866,77.852,111.981,77.852ZM62.754,143.658c-.02-.055-.04-.109-.065-.163A.215.215,0,0,0,62.754,143.658ZM98.329,65.041c.106-.362.106-.362-.139-.373a.691.691,0,0,1-.283.175C98.079,64.892,98.242,65.131,98.329,65.041Zm-.594-.16a.837.837,0,0,0,.172-.038A.179.179,0,0,0,97.735,64.881Zm-.025.015a.124.124,0,0,1,.025-.015,1.876,1.876,0,0,1-.271,0c-.244-.009-.235.239-.226.489Zm23.924-8.409c.248.47.626-.125.107-.285l-.432-.416C120.779,56.15,121.541,56.311,121.634,56.487Zm-14.1-13.134c.294-.017.676.047.917-.127C108.227,43.2,107.649,43.147,107.533,43.353Zm9.152,13.569c.457.27.43-.21.815-.294a.615.615,0,0,0-1.064-.2C116.658,56.442,116.671,56.682,116.685,56.922Zm-61.1,4.52c.229,0,.458-.252.687-.505v.758c.688-.252.917-.758,1.376-1.262,0,.757.688.5.917.757.23,0,.23-.253.216-.489-.216-.017-.446-.017-.675-.017l.229-.252c-.229-1.01-1.146-1.01-1.834-1.263C56.27,59.927,56.27,60.937,55.583,61.442Zm18.274,72.335c-.183.162-.371.319-.541.495-.024.081-.05.16-.077.239A1.827,1.827,0,0,0,73.856,133.777ZM53.978,52.857c0-.137-.018-.2-.047-.22A2.087,2.087,0,0,0,55.4,51.379a1.938,1.938,0,0,0-2.337-.036c.228,0,.228,0,.228.253h-.458c-.229.758.23,1.262.23,2.02C53.289,53.11,53.748,53.11,53.978,52.857Zm-.19-.2a.213.213,0,0,1-.268-.049A.826.826,0,0,0,53.787,52.655Zm5.126-7.923a1.08,1.08,0,0,1-.121-.205A.2.2,0,0,0,58.914,44.732Zm-1.5-1.468h-.688c0,.253.229.253.458.253S57.417,43.517,57.417,43.264ZM52.8,99.109c.009.067.015.134.031.2C52.918,99.219,52.875,99.159,52.8,99.109Zm6.874-54.049c-.03-.028-.084-.03-.194-.03A1.082,1.082,0,0,1,59.674,45.061Zm5.144,31.364a.217.217,0,0,0-.065.165A.239.239,0,0,0,64.819,76.425ZM52.118,51.19a.517.517,0,0,0-.386.119,1.224,1.224,0,0,0-.4.138C51.487,51.57,52.046,51.572,52.118,51.19ZM91.2,44.143s.233,0,.245-.1c.221.1.221.1.218-.124C91.428,43.918,91.195,43.916,91.2,44.143Zm-1.335,6.8c.24.231.238,0,.282-.279a.416.416,0,0,0-.247-.36.643.643,0,0,0,.228-.062c-.275-.439-.747-.216-1.223-.22a1.375,1.375,0,0,1,.588.2c-.242-.006-.482.032-.585.032C89.146,50.707,89.622,50.713,89.863,50.944Zm.325-2.117c.05.3.826.116.954.09a2.234,2.234,0,0,0-.475-.234A.4.4,0,0,0,90.188,48.826Zm-3.2,3.465-.031.106c.064.105,2.048.173,1.228-.484C87.815,52.056,87.36,52.189,86.99,52.291ZM35.411,73.16a1.5,1.5,0,0,1-.069-.639l-.21,0a.164.164,0,0,0,.032-.041c0-.005.17-.674.186-.646-.071-.123-.379.319-.374.3.052-.14.192-.129.117-.349-.607-.309-.36.553-.115.734H34.9c.219.248.209,1,.654.743C35.552,73.272,35.332,73.276,35.411,73.16ZM81.26,56.392h.458l-.229.252c1.375.253,1.834-1.515,3.21-1.766v-.506a1.16,1.16,0,0,1,.917.506c.229,0,.229-.253.229-.506a1.284,1.284,0,0,0,.917.252c.689-.252,1.146-1.01,2.032-.961A2.873,2.873,0,0,1,90.2,53.11c-.917-.505-2.063-1.01-2.979,0,0-.253-.23-.253-.459-.253.459,0,.459-.252.917-.252h-.917v-.5c.409,0,1.18,0,1.342-.543a11.408,11.408,0,0,0,1.639,1.048l.229-.252c0,.252.229.252.458.252.23-1.514-1.375-2.02-2.522-2.272.229,0,.459,0,.459-.252a.8.8,0,0,0-.688-.252l1.376-.758v.455a2.334,2.334,0,0,0-.629.038c.241.684.711.005.952.211a.6.6,0,0,0-.1-.127,2,2,0,0,0,1.837-.325.8.8,0,0,0-.689-.252v.252l-.458-.5c.688-.758,1.147,0,1.834,0l-.458-.5c-.229,0-.229,0-.229.252-.459,0-.23-.757-.689-.757h1.147c0-.253,0-.5-.23-.5l.23-.253c-.688-.5-1.376,0-1.834-.758.868,0,1.532-.442,2.378-.062a.7.7,0,0,1-.086-.442c-.458.252-.917-.253-1.376-.5h.917a.535.535,0,0,0-.183-.229h.047l-.05,0a.475.475,0,0,0-.238-.078c.037-1.261-.185-1.284-.179,0-.172.015-.357.056-.544.056l-.23.253a2.156,2.156,0,0,1,1.376-1.767h-.458c.229,0,.229-.253.229-.505h.917v-.5a4.153,4.153,0,0,0-.624.035c-.011-.215-.235-.219-.453-.153,0,.235.081.243.2.215a.775.775,0,0,0-.5.408.988.988,0,0,1,.23-.757c.687-.252,1.376.252,1.834-.252H91.806a4.063,4.063,0,0,0,3.21-1.262,2.571,2.571,0,0,0-2.981.253.793.793,0,0,1-.688-.253c-.229-.252-.229,0-.229.253-.23,0-.23,0-.23-.253-.23,0-.689.253-.917.253a1.249,1.249,0,0,1-1.146.756c.458-.505,1.146-.505,1.146-1.515a11.158,11.158,0,0,0-2.75.758c.23-.506.687-.506,1.146-.506a5.266,5.266,0,0,0-2.549-.337,20.852,20.852,0,0,1,3.236-.168c.458-.253.917,0,1.375-.506a1.3,1.3,0,0,0-1.834-.252c-.229,0-.229-.253-.458-.253.23-.252.458.253.458-.252h-.458c-.229-.5-.687-.5-1.147-.5l-.229.253a13.755,13.755,0,0,0-3.21-.253v-.253c-.689,0-.689.506-1.376.253,0,.5-.459,0-.459.253,0,.5.459,0,.689.252a2.717,2.717,0,0,1-1.439.118c-.185-.125-.353-.268-.585-.223a1.165,1.165,0,0,0,.177.1,2.045,2.045,0,0,1-.446-.242c-.688-.253-1.146.5-1.835.252.689.757,1.147.252,2.064.252.229,0,.458.253.688.5a.794.794,0,0,1-.688-.252l-.229.252c-.688-.5-1.146-.252-1.835-.252a.912.912,0,0,1,.125.189,3.1,3.1,0,0,0-1.329-.025c.23,0,.46-.007.495.373.392.074.813.478,1.063-.041a.383.383,0,0,0,.106.052v.714a2,2,0,0,1-1.605-.758H75.528c.23.253.459.253.689.5-.689.758-1.6-.252-2.063.505a.987.987,0,0,0-.23-.757c-.9-.495-1.576-.021-2.465.473-.8-.142-1.189.352-.974,1.294-.23-.505-.688-.252-1.146-.252v.252a9.108,9.108,0,0,0-2.293,1.01c.459.5.917.252,1.376.252l.229-.252c0,.5-.687.758-.687,1.262-1.146.505-2.751.252-3.669,1.514.459.505.917,0,1.376.253l-.23.252c.688.505,1.376-.757,2.064.252-.688-.252-1.605.253-2.293.253,0,.252,0,.5.229.5h.917c-.23,0-.688,0-.458.5.2.432.728.127,1.164.187a.607.607,0,0,1-.017-.187c1.376,0,3.669-1.01,4.356,1.01h.457c0,.689.536,1.262.655,2.038l-.2.13-.154.069a.538.538,0,0,0,.367-.074,1.957,1.957,0,0,1,0,.384.388.388,0,0,0-.342.2.523.523,0,0,0,.342-.2,2.352,2.352,0,0,1-.205.73l.229.253c.459-.253.917-.253,1.146-.5,0,.252,0,.5-.229.5a1.677,1.677,0,0,1,1.147.5v.505c-.459-.757-1.376-.505-2.064-.505a1.291,1.291,0,0,0,.57.49c-.245-.045-.6-.161-.8.268,0,.252.229.252.158.447a12.856,12.856,0,0,0,1.447.057c.222-.732-.627-.286-.682-.714a4.5,4.5,0,0,0,1.6.209c-.009.023-.02.043-.031.065-.207-.036-.414-.174-.385.144a.651.651,0,0,0,.318,0c-.594,1.085-2.4,1.393-1.966,2.819h.249c-.054.134.075.505-.249.505.459.5.23,1.261.917,1.767v-.506h.459v.758h-.459v.5l.23-.253a2.272,2.272,0,0,0,.689,1.515L76.675,62.2c1.146.757,1.146-.5,1.834-1.01a1.634,1.634,0,0,0,.23-1.01l-.23-.252a1.749,1.749,0,0,0,1.146-2.02l-.229-.253h.458c.459-.252.23-1.01,1.376-.757Zm-9.629-15.4v-.433a3.23,3.23,0,0,1,.513.48A2.4,2.4,0,0,0,71.631,40.992ZM55.676,47.223c.426.17.654-.359.17-.458C55.525,46.745,55.337,47.088,55.676,47.223Zm11.6.586a.61.61,0,0,0-.212-.066C67.085,47.8,67.135,47.809,67.275,47.809ZM71.1,73.027c.01-.263.022-.525.266-.538a.894.894,0,0,0-.981.006c.009-.07.014-.144.017-.219-.255.274-.486.025-.474-.236l.254-.273a.923.923,0,0,0-.738.3,13.512,13.512,0,0,0,.745-1.4c.062-.455-.2.074-.432-.172a9.057,9.057,0,0,0-.927,1.865,9.45,9.45,0,0,1-.925,1.882,5.155,5.155,0,0,0,1.943-.366c-.011.265-.011.265-.254.277l.729-.036c-.254.276-.508.554-.752.566.476.242.752-.566,1.251-.855q-.017.4-.032.8l.255-.277c-.009.266-.009.266-.02.531.255-.277.255-.277.511-.554.009-.265.02-.531-.225-.52.244-.011.255-.275.265-.54-.01.264-.265.54-.521.817-.478-.242.266-.541.032-.793.244-.011.256-.275.5-.287Zm21.023-26.8a.179.179,0,0,0,.143.062C92.215,46.267,92.169,46.253,92.121,46.231Zm45.287,56.21a2.9,2.9,0,0,0-.094,1.126C137.309,103.4,137.632,102.521,137.408,102.441Zm-20.383,19.846c-.689-.252-.458.5-.917.758v-.254c-.458.254-1.146.506-1.376,1.01s.458,1.01.23,1.516c-.688,1.009-.459,2.271-.917,3.281.917.757,1.6-.253,2.063-1.01a9.333,9.333,0,0,1,1.376-3.535c0-.5-.23-1.263.229-1.767,0,.252,0,.252.23.252a5.577,5.577,0,0,1,.027-.7c-.027-.06.2-.311.2-.311-.229-.506-.229-1.01-.458-1.264C117.484,121.024,116.8,121.531,117.026,122.287Zm15.026-17.344a12.233,12.233,0,0,0-.163,1.864c.071,1.207,1.117.227.652-.857C132.4,105.621,132.31,105.067,132.052,104.943ZM62.392,56.3c-.144-.083-.4.149-.117.309h0C62.7,56.852,62.993,56.109,62.392,56.3ZM84.4,32.569c-31.733,0-57.459,25.465-57.459,60.887S52.665,154.25,84.4,154.25s57.459-25.373,57.459-60.795S116.132,32.569,84.4,32.569Zm47.275,46.073h0c-.39.72-1.049-.322-1.668-.1-.409.235.025.763-.384,1a1.133,1.133,0,0,1-.234-.774C129.77,77.775,130.834,78.33,131.674,78.642ZM127.657,57.85l.207.308h-.293C127.6,58.064,127.629,57.959,127.657,57.85Zm-.773,2.582c.688,0,.688-1.01,1.146-1.01V58.41q.343.512.674,1.033a.819.819,0,0,1-.215.483c-.687,1.01-1.6,1.262-2.521.252C126.2,60.179,126.654,59.927,126.884,60.432ZM60.808,40.156a.235.235,0,0,0,.047.078.7.7,0,0,0-.075-.063Zm-.609.334a1.355,1.355,0,0,1,1.344.754,1.528,1.528,0,0,0-1.359-.747ZM62,42c.23.5.688.252.917.252-.458.252-1.146-.252-1.6.252H62c-.414.151-.909.214-1.389.347.677-.4,1.071-1.29,2.077-1.105-.458,0-.688,0-.917.505Zm-.688,1.767a.649.649,0,0,1-.271.165C61.117,43.86,61.174,43.769,61.314,43.769ZM60.1,40.541a.713.713,0,0,1,.293.2,1.98,1.98,0,0,1-.65.006C59.866,40.677,59.985,40.608,60.1,40.541ZM57.192,42.3c.086,0,.172.011.257.011-.143.028-.287.063-.43.1Zm-17.2,18.379h.688a1.077,1.077,0,0,0-.9-.313c.086-.14.174-.28.26-.418a3.173,3.173,0,0,1,1.481-.314c-.129.011-.259.113-.388.54.458,0,.917-.252,1.093.293-.405-.04.053.464-.177.464s-.458,0-.458-.252a.52.52,0,0,0-.458.505h.1c-.256.133-.465.5-.789.5.23-.252.459-.5.688-.5-.688-.505-.688.757-1.376.5,0-.5.23-.5.458-.758C40.221,60.684,40.221,60.684,39.993,60.684Zm3.439,3.535c-.393.216-.45-.306-.6-.62.694,1.059,1.776.337,2.435-.39.229.252.46-.252.51.263-.28-.01-.51.495-.968.243v.5c-.917.5-1.834,1.768-2.98.758h.917C42.515,64.471,43.2,64.471,43.432,64.219ZM37.7,73.813h-.3C37.5,73.739,37.6,73.7,37.7,73.813Zm100.317,27.013c-3.3,29.3-25.983,51.978-53.482,51.978-29.765,0-53.895-26.57-53.895-59.349A64.4,64.4,0,0,1,34.7,70.822a.954.954,0,0,0,.1.347c.043.055.043.114.116.1a1.734,1.734,0,0,0-.175-.485.034.034,0,0,0-.02-.013c.03-.078.058-.156.087-.234.25.123-.073.736.329.73.361-.409-.139-.644-.233-.982.025-.066.052-.131.078-.2.056.078.157.116.175.027.013-.067-.054-.163-.1-.218l.135-.338a.263.263,0,0,1-.013.212c.229.252-.23.5,0,.757.229-.253.229-.505.458-.505l.229.252a.988.988,0,0,1-.229.758c.229.252.458-.252.688,0-.417.461-.076.92.163,1.381a.7.7,0,0,0-.049.334c.158,0,.2,0,.2.051.019-.14.023-.306.023-.306a.326.326,0,0,0-.1-.088,1.21,1.21,0,0,1,.036-.264,2.544,2.544,0,0,1,.191,1.164l.229-.252c0,.252.229.252.459.252a.792.792,0,0,0-.688.253c.457,0,0,.5.229.5a.166.166,0,0,0,.027-.005c.146.673.934.307,1.349.764a.294.294,0,0,0,.23.5c.229.757.229-.5.459,0-.353.581.237,1.309.118,1.731-.114-.075-.118-.269-.118-.469a.794.794,0,0,1-.689-.253l-.23.253c0,.252.23.252.23.5,0,2.272-.458,4.293-.23,6.313.23.252,0,1.01.688,1.01a8.141,8.141,0,0,0,.459,2.524c.688-.252.917.758,1.376,1.009.458,1.263.458,2.778,1.375,4.04-.229,0-.458,0-.458-.253-.229.758.688.505.918,1.01-.23,1.01.457,1.767.917,2.525a1.643,1.643,0,0,0,.229-1.01H43.2c-.229-1.011-.687-2.273-.917-3.283a1.775,1.775,0,0,1-.688-2.019l.23-.252c.689,1.01.689,2.272,1.376,3.282.23,0,.458,0,.458.252V93c.688,1.263,1.6,2.273,1.834,3.788h-.229c-.229.757.689,1.01.689,1.514a11.349,11.349,0,0,1,2.522,2.272c.229.253.229,0,.229-.252,0,.252.23.505.459.252a.947.947,0,0,1,1.146,0c.23,1.515,1.835,1.767,2.752,2.525h-.23a.777.777,0,0,1,.458.252,3.832,3.832,0,0,1,.459,1.515,2.347,2.347,0,0,1,1.146,1.01.989.989,0,0,1,.23.758h.688c0,.5.23.5.458.757a.988.988,0,0,0,.229-.757c0-.252,0-.758.458-.505.23,0,.23.253.459.505v-.252a21.991,21.991,0,0,1,.687,3.787c-.458,1.262-1.6,2.272-1.375,3.788.229,0,.229.252.458.252,0,.757-.917,1.263-.23,2.272a32.192,32.192,0,0,1,3.21,6.312l2.063,1.516c.917.5.458,1.766,1.146,2.272a20.86,20.86,0,0,0,0,3.786c-.459.759,0,1.768-.459,2.525a.756.756,0,0,1,.23,1.263l.23.252c-.23.757-.459,1.767-.688,2.525.688.757-.23,1.767,0,2.524h.688a3.491,3.491,0,0,0-.23,1.514c.23,0,.23,0,.23.253,0,.39-.272.782-.289,1.174-.082-.184-.24-.241-.4-.416-.458.252-.458.5-.458,1.01,0-.5.229,0,.458-.252.458.252.229.757.458,1.009a.57.57,0,0,1-.394-.088c.348.98-.016,2.149.852,2.866.229-.253-.229-.506.229-.506v.506c0,.252-.229.252-.458.252-.23.757.458.757.917,1.262h.459v-.756c.458.252.687-.253.917-.506l.229.252c.229-.5-.459-.757-.459-1.262.23,0,.23-.252.23-.506.229.758.229-.5.458,0-.229-.758.459-1.009.917-1.514-.458-.5-1.146-.757-.917-1.515.917,0,.917-.756,1.147-1.514h.459v-.756c-.23,0-.23.252-.23.5,0-.253-.229-.253-.459-.253-.229-1.262.689-.757,1.376-.757v-1.262c.459.5,1.147.253,1.605.253.689,0,.458-1.01,1.146-1.01a5.029,5.029,0,0,0-1.376-1.768c.458-.252.918.252,1.376.5,1.068.2,1.72-.673,2.066-1.662a2.476,2.476,0,0,1-.231.147,2.179,2.179,0,0,1,.308-.386,6.071,6.071,0,0,0,.15-.624h.458c-.022.049-.045.084-.067.129a2.106,2.106,0,0,0,.756-1.139c-.459-1.514,1.145-2.524,2.291-2.777l-.229-.252c2.98.5,3.21-3.788,3.21-6.059a6.279,6.279,0,0,0,1.376-1.263,3.287,3.287,0,0,0,.449-3.8c-1.137-.242-1.824-1.252-2.97-1.757-.842.232-1.682-.8-2.523-.007-.007-1.008-1.606-2.263-2.522-1.507,0-.5-.229-.5-.458-.758h-.688c-.229-.5.229-.757.459-1.01,0-.5-.688-.252-.688-.757a3.569,3.569,0,0,0-3.9-3.03c0-.5-.23-.5-.458-.757l-.229.252a1.9,1.9,0,0,0-1.147-1.768c0,.5-.23,0-.459.253-.229-.506.23-.506.23-.758-.23-.5-.917-.5-1.146-1.01,0-.5.229,0,.458-.252H64.524l.229.252c-.917.252-1.605-.252-2.522-.252l.229-.252c-.229-.506-.688-.506-.917-.758-1.146.252-.688,1.01-.688,2.02-.917-.505-.458-1.767-.23-2.524h-.458c-.229,0-.229.253-.229.5H59.48c-.23,0-.23.252-.458.5,0-.252,0-.252-.23-.252a.989.989,0,0,0-.23.758l.23.252c-.353.194-.7.391-.742.813a.8.8,0,0,0-.175-.308c-.23-.253-.917-.253-1.146-.757-.23.5-.688.5-1.146.5-1.147-1.262-.917-3.029-.689-4.544,0-.252-.229-.252-.229-.5a2.3,2.3,0,0,1-1.835-.505c0,.505-.229,0-.458.253.422-.465.263-1.144.235-1.839.052.044.132.08.192.121a17.666,17.666,0,0,1,.261-2.574c-.46,0-1.147.5-1.605.253a1.644,1.644,0,0,0,.229,1.01c-.229.252-.229.756-.688,1.01-1.834.758-2.293-1.515-2.522-3.03a12.012,12.012,0,0,1,.229-4.04l1.376-1.514H51q0,.378.688.757c.23-.252-.229-.5.23-.5v.5c.23.253.23,0,.23-.252-.459,0,0-.758-.459-.5v-.505a.8.8,0,0,0,.688.252l.229-.252.229.252c.689-.757.689.505,1.376.505V89.97c1.146.505.688,2.02.917,2.778l.229-.252c-.229.5.23.757.459,1.01v.505c1.146-1.515-.459-3.282-.229-5.049A1.414,1.414,0,0,0,56.27,87.7l1.834-2.02-.229-.253h.458c0-.252-.229-.758.23-1.01-.23,0-.459,0-.459-.253.613-.224.136-.649.185-.917a.286.286,0,0,1,.044.16c.23-.505-.229-1.01.23-1.515v2.272c0-.757.687-1.262.459-2.02.228.506.228-.252.458,0,.229-.252-.23-.5.229-.5-.229-.252.23-.5-.229-.5.229-1.009,1.146-.5,1.605-1.262,0,.5.229,0,.458.252,0-.252,0-.252.229-.252h-.458c-.229-.758.23-1.263.458-1.768v.252c.688,0,.688-.758.917-1.263v.253a10.244,10.244,0,0,0,2.089-1.124.762.762,0,0,1,.04.2.578.578,0,0,1,.393-.088c-.458.505-1.145.757-1.376,1.262V78.1c.689.252.917-.505,1.147-1.01.229,0,.229,0,.229.253.688,0,.688-1.01,1.376-1.01v-.368c.172.28.65.017.877-.233-.222-.182-.439-.418-.185-.8-.188-.084-.842.6-.757.808a.584.584,0,0,0,.027.126l-.192.21c-.23-.5-.688-.253-1.146,0a3.929,3.929,0,0,1-.458-1.767v.252a1.794,1.794,0,0,1-.226-.342.893.893,0,0,0,.456-1.173,4.927,4.927,0,0,0-3.21,2.272c0-.758.688-1.01.917-1.767a3.348,3.348,0,0,0,2.063-1.515c1.375,0,2.981.253,4.127-1.262h.458c.23-.252.688-.505.917-.758-.229-.5.23-1.01-.229-1.262a.794.794,0,0,0-.688.252c0-.252,0-.252.23-.252,0-.252,0-.505-.23-.505-.458.253-.917.758-1.376.758v-.5c.687,0,.917-.505,1.605-.505-.459-.253-.918-.757-1.605-.757l-.458-.5c-.459-.757-.229-2.02-.688-2.778-.459-.252-.689-.5-.459-1.262a5.6,5.6,0,0,0-1.146,2.02c-.458,1.01-.917,0-1.605,0a2.968,2.968,0,0,0-1.375-3.029c-.688,0-1.605.5-2.293,0,.229.252-.23.757.229.757l-.459.5a4.06,4.06,0,0,1-.459,2.272c1.376,1.263.23,3.03-.917,3.787a6.807,6.807,0,0,1-.229,3.029c0-.252,0-.252-.229-.252.229.252-.458.252-.23.505a3.254,3.254,0,0,1-.688-3.535,2.668,2.668,0,0,0-1.375.252v-.5c-1.214-.223-1.893-1.23-2.982-.769a1.716,1.716,0,0,0-.917-1.755c0-1.263.917-2.272,1.376-3.282h.458c.229-.252,0-.252-.23-.252h.459c.23,0,.23-.252.458-.505-.229-.5-.687-.252-.917-.252.459-.758.689-.252,1.147,0v-.758c.229,0,.458.505.688.253q0-.379.688-.757a.914.914,0,0,0,.23-.505c-.458,0-1.147,0-1.376-.505.458-.253.917.505,1.376.253,0-.253,0-.506.458-.506v-.5c.458-.252.688.253,1.146,0a.443.443,0,0,0-.117-.371c.483.207,1.13-.545,1.493-1.144-.386,0-.289-.53-.521-.549.3-.162.357-.749.749-.965h-.457V55.13H57.187v.505c0,.253.23.253.458.253-.688.252-.458,1.01-1.146,1.262v.5c-.229,0-.458,0-.458.253-.458-.253-.23-.758-.23-1.01.458,0,0-.253.23-.505-.689-.757-.689.252-1.147.505a.991.991,0,0,1-.229-.758l.229-.252c-.458,0-.688-.253-1.146-.253.23,0,.458,0,.458-.252-.229,0-.229,0-.229-.253h.458c-.23-.252-.458-.5-.458-.757l.229-.252c-.229-.5-.687-.253-.917-.253l.23-.252h-.689v.757L52.6,54.12c-.457.252-.457.758-.457,1.262.229.505.687.505,1.376.505a3.482,3.482,0,0,1-.689,1.01c.23,0,.458,0,.458-.505V56.9a3.335,3.335,0,0,0-.935,1.245c-.209-.216-.211.024-.211.27l-.23-.254a.985.985,0,0,0,.23-.756c-.459,0-.688-.5-1.147-.253v.5a.793.793,0,0,1,.688.253c-.458.252-.458-.758-1.146.252a3.391,3.391,0,0,1-2.98-1.009c-.23.5-.689.5-1.147.758a.839.839,0,0,0,.932-.107,1.866,1.866,0,0,0-.474.612c-.229.252.229.5.229.757,0,.223-.17.258-.212.435a2.249,2.249,0,0,1-.476-.435c.458,0,0-.252.23-.5h-.458c-.23,0-.23-.252-.458-.506a2.615,2.615,0,0,1-2.293.506c-.23-.506.457-.506.688-.757-.23-.253-.459-.5-.688-.5s-.23,0-.23.252a2.1,2.1,0,0,1-1.283-.53c.347-.492.7-.979,1.058-1.459.832.1,1.812-.361,2.518.223-.229,0-.458,0-.458.252a2.9,2.9,0,0,0-2.521.252c.457,1.01,1.833.252,2.291,1.515.918-.5,2.293-.253,2.752-1.515V56.9c.687,0,1.375.757,2.063,0v-.505c-.229,0-.458,0-.458.252,0-.252,0-.252-.229-.252.459,0,.688-.5,1.257-.355-.11-.4-.57-.654-.8-.907s-.23,0-.23.253c-.229-.253-.459-.5-.688-.758H48.7c0-1.01-.458-2.524-1.6-2.272.23.5,0,1.262.459,1.767-.23,0-.23,0-.23.252-.459,0-.459-.505-.459-1.01-.229-.252-.229-.758-.917-.506l.458.506c-.229,0-.687.252-.917.252-.229-.252.459-.5,0-.758a.822.822,0,0,0-.2-.077q1.026-1.2,2.109-2.338a2.1,2.1,0,0,1,.846-.11c.379-.209.289-.59.246-1,.208-.205.416-.41.627-.613.032.043.1.07.249.069-.226,0-.226,0-.229.252l.452-.008-.23.252a2.485,2.485,0,0,0,.358-.024.635.635,0,0,0-.123.143c.265.073.394-.236.6-.222-.068.045-.113.158-.113.395h-.23l.23.252c.458-.252.688-.505,1.376-.252H51v.757c.459-.252.917-.252,1.376-.5-.229,0-.458.252-.458-.252.458,0,.23-.505.458-.758-.229-.252-.229-.5-.683-.411A1.771,1.771,0,0,0,51,48.314c0,.5.23.5.459.757-.459.252-.688-.5-1.147-.5v.5c.23,0,.459,0,.459.252-.155,0-.417-.232-.569-.144a.339.339,0,0,0-.252-.032.58.58,0,0,0,.1-.371c-.306.172-.4-.217-.546-.418q.9-.847,1.829-1.652a1.039,1.039,0,0,0,.331.059A1.251,1.251,0,0,0,51.7,46.4c.166-.14.332-.282.5-.421.057.282.413.278.606.274-.226,0-.23.252-.457.256.226,0,.457-.256.449.238.457-.256,1.134-.272.921-1.005-.274.155-.627-.138-.95-.224q.488-.392.983-.772v.037c.214,0,.228-.008.228-.213l.05-.039c.171,0,.18.023.18.251.23,0,.23,0,.23-.252.229,0,.688-.254.917.252h.689c-.458.505-1.376-.252-1.835.505.135.295.424.247.688.255v.5c.23,0,.458.252.689.252s.436.223.454-.2c.155-.055.308-.224.462-.054l.688-.757a6.7,6.7,0,0,1,.7-.289c0,.014-.01.021-.01.036.229,0,.458,0,.528-.169a1.349,1.349,0,0,0-.185-.039,1.774,1.774,0,0,0,.345-.3c-.194-.214-.554-.255-.937-.413-.017-.218-.114-.45.02-.6h-.917v-.505A.614.614,0,0,1,56.15,43c.211-.145.423-.289.637-.431.21.23.42.442.63.442a2.685,2.685,0,0,1,.8-.788A2.4,2.4,0,0,0,58.792,42c-.118.043-.234.071-.351.1a2.144,2.144,0,0,1,1.5-.1c-.458.5-1.376,0-1.835.5,0,.252-.229.252-.229.5a2.937,2.937,0,0,0,1.918-.3.5.5,0,0,0-.084.3,1.356,1.356,0,0,0,.433.011,2.228,2.228,0,0,0-.433.242c.221.486.653.506,1.095.732a2.81,2.81,0,0,1-.406.026c-.689-.253-1.605-1.262-2.522-.5v.5c.229.505,1.147.252,1.375.757a.829.829,0,0,1-.336-.047c.452.6,1.063-.416,1.484.047-.176.386-.485.33-.723.282.032.029.035.091.035.223a1.952,1.952,0,0,0-2.292.252v.505c.229,0,.229,0,.458-.252s.229.5.458.252l.065-.071a2.659,2.659,0,0,1-.294.576c.335-.185.427.165.629.272a.945.945,0,0,1-.629-.02c-.229,0-.229-.252-.229-.505-.458,0-.917-.252-1.146.253,0,.5.688.252.688.758a2.673,2.673,0,0,0-1.376.252v.1a.183.183,0,0,0-.118-.034s-.231.25-.131.16c-.109.331.116.323.34.314,0-.024,0-.047,0-.07.4-.111.628.516,1.054.282-.23,0-.23-.253-.23-.5l.459.5a3.237,3.237,0,0,0,.53-.028,4.758,4.758,0,0,0,.616.028c-.136,0-.187-.093-.21-.218.136-.039.439-.37.439-.035.23,0,.23,0,.23-.252.228,0,.228,0,.228.252.23,0,.459,0,.459-.252.23.252.689.252,1.147.252-.23-.757,1.146,0,.917-1.01-.633.232-1.266-.389-1.9-.1a.838.838,0,0,0,.066-.41,2.3,2.3,0,0,0,1.834,0c-.229-.253.229-.505-.229-.505.458-.252.917.252,1.375-.252H62.46c0-.5.688,0,.688-.5h.23v-.505H62a.8.8,0,0,1,.688-.252h-.458c.458-.254.917.252,1.375-.254h-1.1a1.435,1.435,0,0,1,.638-.252l.23.252c.229-.5.689-.252.917-.252a1.243,1.243,0,0,0-.032-.353,1.967,1.967,0,0,0,1.407-.4l-.223-.247c.084,0,.163-.006.223-.006v-.5c1.147.252,2.064-1.01,3.21-1.263a2.359,2.359,0,0,0-1.163.013c.006-.005.011-.007.017-.013-.459-.251-.917.253-1.147-.251,1.376,0,2.751,0,3.9-1.01-.23-.506-.688-.253-1.146-.253v-.5c-.5.367-1.243.2-1.876.279a.78.78,0,0,1,.5-.279c-.458,0-.917-.253-1.146.252-.689-.5-1.376-.252-2.063-.252-.227,0-.231.245-.454.25-.391-.206-.827-.355-1.152,0,0-.252-.23-.252-.458-.252a.565.565,0,0,1-.019.191c.323-.023.516.357.707.567,0,.252-.23.252-.459.252l.23-.252c-.23-.253-.688-.253-.917-.506-.061.132-.151.125-.257.067a49.586,49.586,0,0,1,22.561-5.438,51.112,51.112,0,0,1,36.54,15.729,6.924,6.924,0,0,0-1.527.751l.229.252c0,.5-.688.5-.688,1.009h-.458c-.23.253,0,.253.229.253,0,.5-.688.253-.688.757a.991.991,0,0,1-.229.758c0,.252-.23.5.155.627.3.131.3.383.532.383h.458l-.23.253c.23.757.917.5,1.605.5-1.376-1.01-.688-3.029.458-3.787l-.229-.253c.229.253.457-.252.687,0a2.221,2.221,0,0,1,.552-.618q1.839,1.953,3.505,4.088a7.107,7.107,0,0,1-.618.822,3.488,3.488,0,0,1,.23,1.514h.458v.758c.23,0,.23,0,.459.252.23.506-.459.254-.23.506a5.5,5.5,0,0,0-3.669-2.02c0,.253-.229.5.459.758-.459,0-.459.5-.917.5v-.5c-.917.5-1.835,0-2.752.5-.229-.253.458-.5.23-.758-.689,0-1.376.5-2.063.5v.5c0-.252-.23-.252-.458-.252,0,.252.458.757-.23.757-.229-.252-.687-.252-1.146-.506v-.5h.688c0-1.01-.917-.757-1.6-1.01,0,.253.229.253.458.253,0,.757.458,1.767.23,2.524,0-.5-.23-.5-.459-.758h-.688c-.458.253-1.146.758-.458,1.515-.458.253-.917-.252-1.376-.252v-.505h-.458v.505c.229.505.688.505.688,1.01a2.413,2.413,0,0,1-1.779-1.772c.374-.022.173-.26.173-.5-.559-.205-.969-.906-1.471-1.3,1.066.6,2.277.872,3.306,1.551.458-.253.917-.253,1.146-.758-.458-1.514-2.063-1.766-3.21-2.776l-.229.252c-.458,0-.917-.505-1.375-1.01a1.328,1.328,0,0,1,.245.019c-.062-.07-.121-.133-.245-.271-.689.757-1.146-.252-1.606-.252.23,0,.688.252.917-.253-.412,0-.641-.607-1.014-.73.023-.08-.047-.113-.361-.026h-.687v.5c-.23,0-.23-.252-.23-.5-.23.252-.23.5-.457.757v-1.01h-.46c-.229.253-.687.506-.687,1.01a.937.937,0,0,0-.987-.5c.073.1.119.306.216.3-.709.4-1.972-.243-1.752,1.214-.229,0-.457-.253-.687-.253,0,.253,0,.253.23.253,0,.252,0,.5-.23.5s-.229,0-.229-.253c-.458,0-.458.253-.688.505A4.55,4.55,0,0,1,98.914,57.4c.229,0,.229,0,.229.252h-.689c-.229.253.23.5.23.758h-.458c-.688.5-1.147,1.01-2.064,1.01.23,0,.23,0,.23.253h-.458c0,.5-.688.5-.688,1.01V62.2h.46c0,.252,0,.5-.23.5,0,.252.687,0,.458.5h-.458a.911.911,0,0,0,.23.505c1.145.757,2.292-.253,2.75-1.262A5.015,5.015,0,0,0,99.6,64.977c.229.252,0,.757.229,1.01l-.229.252c.229.5.688.5,1.146.5v-.5c.229,0,.459,0,.459-.252l.229.252a6.449,6.449,0,0,0,.458-2.02c.689,0,.689-.758.917-1.262,0-.757-.917-.5-.917-1.01V60.432l1.376-.758c.917-.253.459-1.262.917-2.02.23.253.687.253,1.147.253,1.145,1.01-.689,1.515-.917,2.272h-.459a4.942,4.942,0,0,0,.459,2.525h.688c0,.252,0,.5.23.5.917.252,1.833-.5,2.75-.252v.5a2.031,2.031,0,0,1,.218.012l-.448.493c0-.252-.228-.252-.458-.252l-.23.252c-.688-.757-1.145.253-1.833,0v.505c.688,0,.457.757.917,1.262-.459.758-1.146-.252-1.376-.505,0,.253-.229.253-.457.253a2.063,2.063,0,0,0,.229,2.02,2.019,2.019,0,0,1-2.063,0,6.873,6.873,0,0,1-2.063.756v-.505c-.459,0-1.147-.251-1.605.253.229-.253-.23-.5.229-.5h-.917c-.688-.758,0-1.515.458-2.02-.458.252-.458-.5-.917-.253-.688.253-.688.505-.688,1.263h.459c-.229.757.459,1.262,0,2.02-.229-.253-.229-.505-.459-.505-1.374-.5-2.063.758-2.521,2.02a.812.812,0,0,0-1.147.505v.5h-.458c-.23,0-.23.252-.23.5-.459,0-.917.252-1.376-.5,0,.252-.229.757.23,1.01l-.23.253c-.688-.505-1.147-.253-1.834,0,.229,1.262,2.063.505,1.834,1.766,0,.506.917,0,.688.758h-.458c0,.252.229.252.458.252a6.079,6.079,0,0,0-.229,2.019,33.82,33.82,0,0,0-5.044-.252v.505c.917,1.01-.459,2.525-.229,4.04h.457c-.457.5-.229,1.009-.229,1.514.917,0,1.834,0,2.293,1.01l.458-.5c1.146-.253,2.522-.253,2.981-1.768-.459-1.514.917-2.524,2.063-3.029V77.094c.917,0,1.375.505,2.291.505a5.648,5.648,0,0,1,1.605-1.01c.689.252.689,1.01,1.147,1.515v.5a4.8,4.8,0,0,0,1.376,1.01c.23.758,1.147,1.01,1.605,1.768V82.9c.229-.758.687-1.514.458-2.272h.458c0,.252,0,.5.458.5-.229-1.009-1.6-1.262-1.833-2.272h-.46c-.687-.505-.917-1.768-1.6-2.272,0-.253.23-.253.459-.253-.23-.252-.459-.252-.459-.757a.605.605,0,0,1,.954.551c.125-.083.334-.142.193-.3.457.253.687,1.01.917,1.516a.794.794,0,0,1,.687.252,11.278,11.278,0,0,1,1.605,1.767c-.23,1.011.457,1.768.457,2.525h.46c.228.252-.46.252-.23.5l.638.235c-.014,0-.028-.007-.043-.007.017.553.039,1.385.53,1.68l.233-.27.249.286a1.9,1.9,0,0,0-.226-.957.607.607,0,0,0,.443.134,3.6,3.6,0,0,0-.781-.717l1.018.373v-.3c.075.078.148.155.218.226a2.031,2.031,0,0,1-.143-.379h0c-.041-.407-.5-.459-.646-.468-.263-.492.042-1.126-.575-1.352a1.16,1.16,0,0,1,.917.506c.229.252.229-.506.458-.253-.23-.252-.458-.252-.458-.757a5.159,5.159,0,0,0,2.751.252c-.23-.757-1.147-1.263-.917-2.272h.687c0-.252-.229-.252-.229-.506.458-.757.687-1.767,1.375-2.271,0,.5.229,0,.459.252h-.459c.229.505.688.505,1.146.505,0,.253,0,.505-.687.505a1.826,1.826,0,0,1,.8.782l.12-.024a.794.794,0,0,1,.688.252l-.229-.252.229-.252c-.458-.253-.229-.758-.229-1.01a2.869,2.869,0,0,1,1.8-.5c-.121.134-.106.5-.428.5,0,.253,0,.253.23.253-.23.5-.459.758-.917.758a7.694,7.694,0,0,1,2.292,2.525l.458.252v.757c-.688,1.01-1.833,0-2.75-.252v-.5l-.23.252c-.23,0-.23-.252-.23-.5,0,.5-.229,0-.458.252l-.229-.252c-.637.234-1.277.891-2.1.786.032.03.033.091.033.223a3.572,3.572,0,0,1-1.605.252v.758l.23-.253v1.23c.237.081.278.59.459.79,0,.252,0,.5-.229.5h.458c-.23,0-.458,0-.458.253.687,0,1.145-.253,1.833.5a.991.991,0,0,1,.229-.758,4.8,4.8,0,0,0,1.376,1.01c0-.253.23-.253.23-.506h1.146c0,.506-.458.758-.23,1.262l.23.253c-.688,1.009-.458,2.524-1.605,3.282-.458-1.01-1.376-.5-2.063,0a6.816,6.816,0,0,0-2.063-.757V88.2c-.917.252-1.146-.5-1.833-.758-.23.253-.688.253-.917.5v1.011c-.459,0,0,.757-.459.757-.688-1.263-2.063-.757-2.521-2.272-.917-.252-2.064,0-2.523-1.01,0,.5-.23,0-.458.252l-.229-.252c.229-.757,1.146-1.515.458-2.272-.229-.252.458-.252.23-.5-.458,0-.688-.505-.917-.757-.23.252-.458.505-.687.505-.689-.505-1.376,0-2.064,0-.228,0-.228-.253-.458-.253a5.332,5.332,0,0,0-3.669,1.515c-.917.253-1.605-.5-2.522-.252-.229,0-.229-.253-.229-.505-.459.252-.459,1.01-.688,1.515-.459.758-1.146,1.01-1.834,1.515,0,.758-.458,1.514-.23,2.272-.228.253-.228.505-.458.757a3.125,3.125,0,0,1-1.834,1.263c-.458,2.019-1.834,3.534-2.522,5.3,0,2.019,1.375,4.545-.458,6.059.229.5.458,1.263.917,1.515h-.458c.458,1.767,2.293,3.029,2.751,4.8a2.921,2.921,0,0,1,1.146,1.262c.23.758,1.147.5,1.6,1.01,1.376-.252,2.752-.757,4.128-.252a3.561,3.561,0,0,1,4.586-.506v.506h.457v.5c0-.252.23-.252.23-.5a.8.8,0,0,1,.688.252c.23,0,.23-.252.23-.5,1.376.5.917,1.767.458,2.777h.459c-1.147,1.514,0,3.029.917,4.293v.758c.687,1.766,1.146,4.039-.459,5.3-.458.757,0,1.516-.458,2.272a6.422,6.422,0,0,1,1.146,5.051c.917,1.009.917,2.523,1.605,3.534-.229.252-.458.252-.458.5v.5h.458c.23,0,.23.252.458.5,0-.5.689,0,.689-.5.917,0,1.6-.5,2.521-.252a15.542,15.542,0,0,0,3.9-4.04c-.23-.5.23-.757.23-1.261h-.23c.689-.5,1.834-1.262,1.834-2.526v.253c.229-.506-.229-1.262-.229-1.768,1.146-1.261,2.522-1.766,3.439-3.282.229-1.767-.458-3.533,0-5.3l-.23-.252a9.73,9.73,0,0,1,1.605-3.535c1.834-1.263,2.522-3.535,3.9-5.049l1.376-3.787a.987.987,0,0,1-.23-.757c-1.146.757-2.522,1.767-3.9.5,0-.252.229-.252.459-.252V103.6h.917c.229,0,.229-.252.229-.5.458.252.917-.252,1.376-.252,0-.252,0-.505.688-.505a2.344,2.344,0,0,0,1.146-1.01v-.5c.917,0,1.376-1.262,2.293-1.767-.229-1.01.688-1.768,1.145-2.525-.6-.877-1.71-1.374-1.694-2.48a.874.874,0,0,1-.139.209,3.671,3.671,0,0,1-.917,1.01h-.917V93.758c-.459.253,0,.757-.459,1.01a3.42,3.42,0,0,0-.917-2.525c0-.505-.458-1.262-.229-1.767,0,.253.229.253.459.253v-.5c0,.5.457,0,.687.252a2.525,2.525,0,0,0,2.208,2.772.268.268,0,0,0-.1.144c0,.015.472-.282.4-.316a.238.238,0,0,0-.058,0l.069-.077c.23,1.515,2.063,1.768,3.21,1.263l.23.252c.229-.5.687-.252.917-.252,0,.757.458,2.019,1.375,1.766-.229.253-.229.505-.687.505.229.253.229.757.687,1.01.689.253.689-.5.689-1.01.457,1.263,0,2.777.228,4.039.458,1.01.458,2.272.917,3.283v1.262c0,.505.458.757.689,1.01-.23-.252.457-.5.229-.757h.457v-.506a.519.519,0,0,0,.459-.5c-.229-1.01.23-2.02,0-3.03,1.146-1.515,2.751-2.778,3.21-4.544.23.5.689.252.917.252v-.5c0,.253,0,.253.23.253v-1.01a.991.991,0,0,1,.229.758c0-.252,0-.252.229-.252,0,.252.46.505.23,1.01a5.034,5.034,0,0,1,.957,2.161c-.03.327-.066.654-.1.98a2.411,2.411,0,0,1-.168.394ZM39.139,77.169a.516.516,0,0,1-.293.178C38.846,76.966,38.977,77.16,39.139,77.169ZM56.958,58.159l.23-.252a.836.836,0,0,0,.241.326A1.179,1.179,0,0,0,56.958,58.159Zm-1.605-12.37c-.228,0-.455,0-.457-.25A.448.448,0,0,1,55.352,45.789Zm4.356.252c-.127.14-.256.279-.388.4C59.4,46.236,59.424,46.041,59.709,46.041Zm5.044-2.777a1,1,0,0,1,.679-.245A.8.8,0,0,1,64.753,43.264Zm1.375-1.515a.939.939,0,0,1,.78-.252C66.649,41.586,66.388,41.677,66.128,41.749ZM124.2,78.164c-.279.063-.292-.191-.3-.445.212.012.424.024.435.281C124.334,78,124.233,78.122,124.2,78.164Zm.007,0h0Zm-.225,1.618c-.211-.011-.422-.022-.432-.281-.215-.261.147-.729-.221-1.015a.55.55,0,0,0-.045-.288c.211.013.211.013.222.27a.16.16,0,0,0,.175-.141,1.02,1.02,0,0,0,.037.153C124.366,78.771,123.752,79.253,123.984,79.781Zm-.856-.3c-.137-.307.017-.512.125-.732C123.288,79,123.415,79.313,123.128,79.477Zm.572-1.247a2.512,2.512,0,0,0,0-.266c.011.258.223.269.36.373C124.308,78.88,123.808,78.177,123.7,78.23Zm-2.072,6.926c-.42.248-.841.5-1.279.216s-.453-.814-.885-.832c-.233-.541.184-1.053-.051-1.593-.019-.53.854-.224.4-.773a11.924,11.924,0,0,1-1.223-2.2,3.9,3.9,0,0,1-.264-2.334l.23.274c.41-.494,1.049-.713,1.457-1.2.241.53.648.04.875.312a4.119,4.119,0,0,0,.285,1.566,1.786,1.786,0,0,0-1.086-.323q.017.39.034.781c-.012-.261-.012-.261-.227-.273l-.205.248c.443.286.465.808.7,1.344l.429.024c.245.8-.349,2.078.516,2.382.009.263-.41.508-.188.78l.206-.254c.435.282.239.8.188,1.131h0A2.664,2.664,0,0,1,121.628,85.155Zm-7.583,14.157c.457-1.262-.459-2.777-.917-4.039.229,0,.229,0,.229-.253-.229,0-.458,0-.458-.252a11.914,11.914,0,0,0-.871-3.7,5.518,5.518,0,0,1,.641,1.172c0-.505-.229-1.262.23-1.767,0,.5.23,1.01-.23,1.515,1.146.758,1.376,2.777,2.293,4.039v1.515c1.531,1.445,1.393,3.809,1.577,5.777-.913-.995-2.033-1.752-1.806-3.252Zm-5.273-35.6c-.224,0-.446,0-.456-.239A.694.694,0,0,1,108.772,63.714Zm-1.835-10.369v.27C106.745,53.615,106.837,53.482,106.938,53.345Zm-.267,29,.05.049h-.013C106.694,82.381,106.684,82.364,106.671,82.348Zm7.22,34.2c.1-.25-.073-.334,0,0Zm-17.479-3.352c0,.026,0,.051,0,0Zm-28.236,35.54c-.086-.4-.531.058-.764-.185.233.244.684.019.924.5C68.33,148.81,68.33,148.81,68.176,148.733Zm-2.113-1.264c-.049-.149-.277-.157-.5-.164.233.244.468.49.689.259C66.248,147.564,66.021,147.557,66.063,147.469ZM38.148,76.228h0a.758.758,0,0,0,.469.109c-.23-1.01-.688-1.767-1.834-1.767.229.758.917.758.917,1.515,0-.253.23-.253.458-.253C38.158,76.085,38.158,76.085,38.148,76.228Zm31.3,72a4.138,4.138,0,0,1-1.633-1.552c-.463-.252-.677.211-.9.2.006.237.013.473.241.48-.006-.236.222-.228.45-.22l-.443.456c-.215.468.685.022.47.488-.439-.456-.85.125-1.279,0a3.415,3.415,0,0,0,1.4.243,3.232,3.232,0,0,1,1.489.28c-.006-.237.222-.23.451-.223C69.683,148.141,69.683,148.141,69.449,148.225Zm-33.8-78.02,0-.015c-.467.008-.084.686,0,.575A.616.616,0,0,0,35.645,70.205Zm24.18-15.121a.41.41,0,0,0,.273-.07c.089-.116-.553,0-.575.008C59.565,55.094,59.8,55.358,59.825,55.084Zm.788.273c.06-.243-.584.265-.61.463C59.989,55.924,60.576,55.509,60.613,55.356Zm-4.519-5c.416-.353.407-.112.621.116.692-.511,1.791-.091,2.485-.6.2.463.663.2.889.19.45-.024-.193-.7.7-.51.256-.721-.461.26-.44-.213a.56.56,0,0,0,.471-.5l-.279.014-.622.031.235-.248a3.292,3.292,0,0,0-2.491.595l.225-.01c-.459.26-.664-.209-1.113-.188-.01.24-.233.25-.457.26-.207-.471-.656-.453-.872-.686.224-.009.665.214.906-.277-.69.509-.644-.942-1.332-.434a.832.832,0,0,1-.681.267c-.205-.724-1.112-.454-1.563-.441-.006.245-.006.245.219.239-.225.007-.225.007-.23.252.45-.014.437.475.894.216l-.232.252c.442.228.68-.267,1.13-.282.434.468.185,1.2.168,1.686C55.15,50.551,55.606,50.29,56.094,50.36Zm5.22,5.528c.458.252,0-.505.458-.505h-.458Zm0,4.039c-.152,0-.305,0-.457-.013v.013ZM59.94,60.942c-.226-.086-.21.319-.016.293C60.267,61.189,60.152,60.8,59.94,60.942ZM61.209,55.1c-.124.033-.353.033-.353.286C61.085,55.13,61.314,55.635,61.209,55.1Zm-6.773-8.3a2.806,2.806,0,0,1-.972-.122c-.175.375-.4-.13-.4.375C53.519,46.8,53.978,47.556,54.436,46.8ZM50.6,57.392c.26-.054-.092-.548,0,0Zm.857-1.5c.688.757-.917.252-.459,1.01.459,0,.688.5,1.147.252.229,0,.229-.252.457-.5a.49.49,0,0,1-.33-.123c.1-.382-.128-.382-.357-.634Zm1.32-6.365c.054.008.25.057.275-.063.053-.249-.5.07-.525.089C52.649,49.837,52.7,49.512,52.776,49.523Zm-.633,3.335v-.5c-.051,0-.1,0-.149,0a.92.92,0,0,0,.149-1.013c-.23.5-.688,0-1.147.253-.458,0-.458.252-.458.758,0-.253.229-.253.458-.253,0,.253-.458.5-.229.757-.459.253-.688-.5-1.147-.5v.757c.688.5,1.376.5,1.835,1.262l.229-.252-.229-.253h.917a3.853,3.853,0,0,1,.114-1.176C52.372,52.605,52.144,52.857,52.144,52.857Zm1.923-3.225c-.434-.469-1.114-.2-1.36.537,0,0,.157-.006.18-.01.254.477.708.218,1.155.2l.232-.252C54.05,50.117,54.058,49.875,54.067,49.632Zm14.125,7.012c-.229,0-.457,0-.457.253,0-.253,0-.505.229-.505h-.688v-.5c-.688.252-1.147-.253-1.835-.505a.988.988,0,0,0,.23-.758c0,.5.229,0,.458.253l.23-.253c-.23-.252-.688.5-.688-.252,0-.252,0-.252.229-.252,0-.253,0-.5-.229-.5l-.458.5c-.114,0-.2,0-.283-.005-.054,0-.115.005-.175.005l.019-.015c-.517-.051.322-.215.427-.235.207-.1.371-.222.241-.507-.229-.252-.687.252-.916-.252l-.23.252a1.56,1.56,0,0,1,.025-.4c-.253-.615-.713-.363-.942-.363l-.23.252v-.5c-.23.757-.458.252-.688,0v-.506h-1.6l.23.253c0,.253-.23.253-.459.253L60.4,52.1c0,.471-.6.065-.679.417.05-.447.435-.7.22-1.174-.458.253,0-.757-.458-.5s-1.376,0-1.605.758l.229.252h-.458c-.229.506.23.758.23,1.01-.23-.252-.458.253-.688.253h.688c.181.4-.2.485-.263.749-.389-.045.02-.741-.424-.5V52.1c0-.758.917-.5.917-1.262-.458-.252-.917.253-1.375.253-.459.252-.688.757-1.146,1.01,0,.5.229,1.262-.23,1.767.459.253.917-.252,1.147.253-.229,0-.688-.253-.917.252.917.757,2.292.252,3.439.757l-.23-.252H60.4c-.23-.253.229-.506-.23-.506h.688c.23,0,.23.252.23.506h.687v.5l.229.252.23-.252v.505h.458c1.376.757-.23,1.766-.688,2.524h.458c0,.5-.229.5-.458.5-.688-.253-1.376.5-2.063.758a2.106,2.106,0,0,0,.918.239c0-.484.23-.239.457-.239,0,.5.23,0,.458.252,0-.505.229,0,.459-.252a1.668,1.668,0,0,0,1.146.5c0,.253-.23.253-.459.253,0,.252.23.252.23.5h.918v.505a2.664,2.664,0,0,1,1.374.252l.23-.252c-.23-.505-.687-.758-1.145-1.263.687.253,1.375,0,1.833.758v-.5c0-.253.23-.253.459-.505-.459-.505-.689-1.01-1.376-1.263,0-.252,0-.252.23-.252-.23,0-.458-.505-.687-.505h.457v-.5c.175,0,.348,0,.42-.112.039.205.454.411.267.617a1.128,1.128,0,0,1,.459-.253c-.23.253,0,.758.23,1.01h.458c0-.757.459-.506.917-1.01-.229-.5.689-.252.23-.757C68.191,56.9,68.191,56.9,68.191,56.645ZM57.606,53.9c-.076-.082-.248.153-.419-.036h.423A.252.252,0,0,0,57.606,53.9ZM60.4,51.847c.458,0,1.146-.5,1.6-.252,0-1.01-1.146-.758-1.7-.713a1.529,1.529,0,0,0-.367-.044v.5C60.4,51.091,59.938,51.847,60.4,51.847Zm.477,5.253c.213.351.782.067,1.085-.256a1.2,1.2,0,0,1,.024-.612s-.323-.179-.426-.049C61.22,56.124,60.711,56.8,60.875,57.1Zm4.054-2.985c.159-.013.283-.062.283-.248l-.013,0a1.713,1.713,0,0,0-.427.235C64.815,54.109,64.867,54.112,64.928,54.115Z" transform="translate(-18.894 -30.39)" fill="#afbed3"/><path d="M84.08,30.39c36.266,0,63.345,22.888,63.345,60.444,0,36.1-25.467,65.925-64.312,65.925-44.165,0-62.54-34.332-62.54-63.346C20.573,67.3,39.593,30.39,84.08,30.39Zm3.385,120.243c14.506,0,44.487-8.382,44.487-55.286,0-38.684-23.533-59.477-49-59.477C56.033,35.87,35.885,53.6,35.885,88.9,35.885,126.455,58.452,150.633,87.464,150.633Z" transform="translate(-18.894 -30.39)" fill="#002d56"/></svg>