<svg xmlns="http://www.w3.org/2000/svg" viewBox="0 0 214.97 55.043"><g data-name="Group 78" fill="#ff0"><path data-name="Path 524" d="M54.3 10.55a1.86 1.86 0 0 1 .14-.75 1.36 1.36 0 0 1 .39-.5 1.49 1.49 0 0 1 .58-.26 3.33 3.33 0 0 1 1.4 0 1.48 1.48 0 0 1 .57.26 1.34 1.34 0 0 1 .4.5 1.8 1.8 0 0 1 .14.75 1.85 1.85 0 0 1-.15.75 1.38 1.38 0 0 1-.39.51 1.48 1.48 0 0 1-.57.27 3.02 3.02 0 0 1-1.4 0 1.49 1.49 0 0 1-.58-.27 1.36 1.36 0 0 1-.39-.51 1.85 1.85 0 0 1-.14-.75zm3.47 15.33h-3.33V13.7h3.33z"/><path data-name="Path 525" d="M71.4 25.88h-3.34v-7.11a3.87 3.87 0 0 0-.37-1.98 1.38 1.38 0 0 0-1.28-.66 2.11 2.11 0 0 0-1.08.26 1.87 1.87 0 0 0-.7.74 4.12 4.12 0 0 0-.36 1.26 11.96 11.96 0 0 0-.11 1.72v5.73h-3.35V13.7h2.54l.45 1.56h.17a3.08 3.08 0 0 1 .63-.8 3.59 3.59 0 0 1 .86-.56 3.83 3.83 0 0 1 .94-.32 4.71 4.71 0 0 1 1.03-.1 4.86 4.86 0 0 1 1.62.26 3.15 3.15 0 0 1 1.26.8 3.59 3.59 0 0 1 .8 1.39 6.22 6.22 0 0 1 .3 2.01z"/><path data-name="Path 526" d="M79.48 26.1a7.3 7.3 0 0 1-2.36-.36 4.53 4.53 0 0 1-1.8-1.12 4.9 4.9 0 0 1-1.14-1.94 8.81 8.81 0 0 1-.4-2.83 9.86 9.86 0 0 1 .41-3.04 4.96 4.96 0 0 1 1.15-1.93 4.35 4.35 0 0 1 1.8-1.06 8.19 8.19 0 0 1 2.34-.31 7.6 7.6 0 0 1 1.87.23 7.97 7.97 0 0 1 1.74.64l-.96 2.53a10.95 10.95 0 0 0-1.38-.52 4.37 4.37 0 0 0-1.27-.2 1.87 1.87 0 0 0-1.75.92 5.5 5.5 0 0 0-.55 2.76 5.2 5.2 0 0 0 .55 2.7 1.85 1.85 0 0 0 1.71.88 5.63 5.63 0 0 0 1.72-.25 11.78 11.78 0 0 0 1.58-.63v2.72l-.75.35a7.63 7.63 0 0 1-.74.25 5.65 5.65 0 0 1-.81.15 8.63 8.63 0 0 1-.96.06z"/><path data-name="Path 527" d="M88.52 25.88h-3.33V8.93h3.33z"/><path data-name="Path 528" d="M99.53 25.88l-.44-1.55h-.16a3.29 3.29 0 0 1-.65.8 3.58 3.58 0 0 1-.82.55 4.17 4.17 0 0 1-.95.32 5.23 5.23 0 0 1-1.02.1 4.85 4.85 0 0 1-1.63-.26 3.15 3.15 0 0 1-1.25-.8 3.5 3.5 0 0 1-.8-1.38 6.2 6.2 0 0 1-.29-2.02V13.7h3.32v7.13a3.88 3.88 0 0 0 .4 1.98 1.36 1.36 0 0 0 1.27.66 2.05 2.05 0 0 0 1.09-.27 1.81 1.81 0 0 0 .7-.74 4.19 4.19 0 0 0 .36-1.27 11.75 11.75 0 0 0 .1-1.72v-5.72h3.32v12.13z"/><path data-name="Path 529" d="M113.44 22.26a3.85 3.85 0 0 1-.35 1.68 3.28 3.28 0 0 1-1 1.2 4.46 4.46 0 0 1-1.56.75 7.93 7.93 0 0 1-2.04.24q-.6 0-1.12-.04a9.38 9.38 0 0 1-.97-.12 8.24 8.24 0 0 1-.88-.22 6.25 6.25 0 0 1-.86-.33v-2.78a9.4 9.4 0 0 0 .96.42q.5.18 1.02.32a9.69 9.69 0 0 0 .97.22 5.34 5.34 0 0 0 .88.07 3.17 3.17 0 0 0 .74-.08 1.54 1.54 0 0 0 .52-.23.86.86 0 0 0 .3-.35 1.04 1.04 0 0 0 .1-.43 1.01 1.01 0 0 0-.08-.4 1.03 1.03 0 0 0-.32-.4 5.38 5.38 0 0 0-.74-.45 21.6 21.6 0 0 0-1.3-.62 15.51 15.51 0 0 1-1.38-.75 3.86 3.86 0 0 1-.96-.8 2.87 2.87 0 0 1-.57-1 4.38 4.38 0 0 1-.18-1.33 3.25 3.25 0 0 1 .33-1.49 2.98 2.98 0 0 1 .93-1.06 4.07 4.07 0 0 1 1.44-.63 7.33 7.33 0 0 1 1.87-.22 8.2 8.2 0 0 1 2.08.26 10.52 10.52 0 0 1 2.01.74l-.96 2.39a13.8 13.8 0 0 0-1.57-.64 4.67 4.67 0 0 0-1.5-.26 1.6 1.6 0 0 0-.97.24.8.8 0 0 0-.3.66.9.9 0 0 0 .08.38 1.05 1.05 0 0 0 .3.35 4.38 4.38 0 0 0 .65.4c.27.14.63.31 1.07.51s.99.46 1.4.67a4.91 4.91 0 0 1 1.07.74 2.88 2.88 0 0 1 .68 1 3.42 3.42 0 0 1 .2 1.4z"/><path data-name="Path 530" d="M115.56 10.55a1.98 1.98 0 0 1 .14-.75 1.49 1.49 0 0 1 .38-.5 1.54 1.54 0 0 1 .58-.26 3.06 3.06 0 0 1 .71-.08 2.96 2.96 0 0 1 .7.07 1.48 1.48 0 0 1 .57.27 1.39 1.39 0 0 1 .39.5 2.1 2.1 0 0 1 0 1.56 1.3 1.3 0 0 1-.4.5 1.49 1.49 0 0 1-.57.28 2.97 2.97 0 0 1-.69.08 3.1 3.1 0 0 1-.7-.08 1.4 1.4 0 0 1-.59-.28 1.34 1.34 0 0 1-.38-.5 1.98 1.98 0 0 1-.14-.81zM119 25.88h-3.32V13.7H119z"/><path data-name="Path 531" d="M124.96 25.88l-4.3-12.18h3.48l2.01 6.94a12.95 12.95 0 0 1 .32 1.3 9.27 9.27 0 0 1 .18 1.2h.06a7.68 7.68 0 0 1 .17-1.23c.1-.43.2-.86.32-1.27l2-6.94h3.5l-4.31 12.18z"/><path data-name="Path 532" d="M139.25 26.1a7.38 7.38 0 0 1-2.4-.39 4.94 4.94 0 0 1-3.14-3.08 7.88 7.88 0 0 1-.44-2.75 8.8 8.8 0 0 1 .4-2.8 5.57 5.57 0 0 1 1.13-2 4.54 4.54 0 0 1 1.74-1.21 6.12 6.12 0 0 1 2.24-.4 6.19 6.19 0 0 1 2.18.36 4.46 4.46 0 0 1 1.68 1.04 4.81 4.81 0 0 1 1.05 1.75 6.98 6.98 0 0 1 .37 2.35v1.62h-7.44a4.11 4.11 0 0 0 .22 1.26 2.7 2.7 0 0 0 .57.94 2.42 2.42 0 0 0 .88.6 3.07 3.07 0 0 0 1.19.2 9.32 9.32 0 0 0 1.04-.05 7.9 7.9 0 0 0 .97-.18 7.05 7.05 0 0 0 .92-.3 10.04 10.04 0 0 0 .94-.42v2.58a6.99 6.99 0 0 1-.88.38 8.04 8.04 0 0 1-.93.27 8.43 8.43 0 0 1-1.05.16 7.94 7.94 0 0 1-1.24.07zm-.42-10.26a1.91 1.91 0 0 0-1.49.61 3.07 3.07 0 0 0-.67 1.95h4.24a4.37 4.37 0 0 0-.14-1.02 2.43 2.43 0 0 0-.4-.8 1.93 1.93 0 0 0-.65-.55 1.98 1.98 0 0 0-.9-.2z"/><path data-name="Path 533" d="M153.27 26.1a3.6 3.6 0 0 1-3.02-1.6 6.14 6.14 0 0 1-.87-1.96 10.71 10.71 0 0 1-.3-2.73 10.76 10.76 0 0 1 .3-2.75 6.04 6.04 0 0 1 .87-1.98 3.72 3.72 0 0 1 1.37-1.2 3.83 3.83 0 0 1 1.76-.4 4.12 4.12 0 0 1 1.08.12 3.1 3.1 0 0 1 .87.4 3.48 3.48 0 0 1 .71.56 4.67 4.67 0 0 1 .55.7h.1l-.12-.87-.09-.78a7.3 7.3 0 0 1 0-.75V8.93h3.32v16.95h-2.53l-.64-1.58h-.14a4.77 4.77 0 0 1-.53.7 2.97 2.97 0 0 1-.68.57 3.55 3.55 0 0 1-.87.4 4.14 4.14 0 0 1-1.14.13zm1.22-2.65a2.29 2.29 0 0 0 1-.2 1.7 1.7 0 0 0 .66-.6 3.1 3.1 0 0 0 .38-1.03 7.93 7.93 0 0 0 .14-1.42v-.37a9.99 9.99 0 0 0-.1-1.57 3.72 3.72 0 0 0-.37-1.16 1.77 1.77 0 0 0-.67-.74 2.23 2.23 0 0 0-1.07-.24 1.61 1.61 0 0 0-1.53.98 6.07 6.07 0 0 0-.49 2.74 5.8 5.8 0 0 0 .5 2.7 1.67 1.67 0 0 0 1.55.91z"/><path data-name="Path 534" d="M168.22 26.1a7.29 7.29 0 0 1-2.4-.39 5.01 5.01 0 0 1-1.9-1.16 5.2 5.2 0 0 1-1.24-1.94 7.7 7.7 0 0 1-.44-2.76 8.57 8.57 0 0 1 .4-2.8 5.55 5.55 0 0 1 1.13-2 4.55 4.55 0 0 1 1.75-1.2 6.62 6.62 0 0 1 4.46 0 4.47 4.47 0 0 1 1.64 1.03 4.81 4.81 0 0 1 1.04 1.74 7.17 7.17 0 0 1 .37 2.35v1.62h-7.44a3.9 3.9 0 0 0 .22 1.26 2.6 2.6 0 0 0 .57.94 2.33 2.33 0 0 0 .88.6 3.13 3.13 0 0 0 1.18.2 9.46 9.46 0 0 0 1.06-.05 8.1 8.1 0 0 0 .96-.18 7.15 7.15 0 0 0 .93-.3 10.04 10.04 0 0 0 .93-.42v2.58a6.99 6.99 0 0 1-.88.38 7.63 7.63 0 0 1-1.98.43 7.97 7.97 0 0 1-1.24.07zm-.43-10.26a1.92 1.92 0 0 0-1.48.61 3.1 3.1 0 0 0-.67 1.95h4.24a4 4 0 0 0-.14-1.02 2.3 2.3 0 0 0-.4-.8 1.83 1.83 0 0 0-.65-.55 2.03 2.03 0 0 0-.9-.2z"/><path data-name="Path 535" d="M183.73 22.26a3.86 3.86 0 0 1-.35 1.68 3.3 3.3 0 0 1-1 1.2 4.34 4.34 0 0 1-1.55.75 7.93 7.93 0 0 1-2.05.24 8.96 8.96 0 0 1-1.11-.04 9.38 9.38 0 0 1-.97-.12 8.24 8.24 0 0 1-.88-.22 6.26 6.26 0 0 1-.87-.33v-2.78a8.95 8.95 0 0 0 .97.42 10.5 10.5 0 0 0 1 .32c.34.09.66.16.98.22a5.25 5.25 0 0 0 .87.07 3.25 3.25 0 0 0 .75-.08 1.61 1.61 0 0 0 .52-.23.93.93 0 0 0 .29-.35 1.03 1.03 0 0 0 .09-.43 1.16 1.16 0 0 0-.07-.4 1.03 1.03 0 0 0-.32-.4 5.34 5.34 0 0 0-.75-.45 21.6 21.6 0 0 0-1.3-.62 9.06 9.06 0 0 1-1.38-.75 3.96 3.96 0 0 1-.95-.8 2.87 2.87 0 0 1-.57-1 4.16 4.16 0 0 1-.18-1.33 3.25 3.25 0 0 1 .32-1.49 2.9 2.9 0 0 1 .93-1.06 4.06 4.06 0 0 1 1.45-.63 7.33 7.33 0 0 1 1.87-.22 8.2 8.2 0 0 1 2.08.26 10.62 10.62 0 0 1 2.01.74l-1 2.35a13.33 13.33 0 0 0-1.58-.64 4.58 4.58 0 0 0-1.49-.25 1.6 1.6 0 0 0-.97.23.8.8 0 0 0-.3.66.9.9 0 0 0 .07.39 1.05 1.05 0 0 0 .3.35 4.08 4.08 0 0 0 .65.4l1.08.5c.45.2.97.46 1.39.67a4.91 4.91 0 0 1 1.07.75 2.98 2.98 0 0 1 .68 1 3.54 3.54 0 0 1 .27 1.42z"/><path data-name="Path 536" d="M185.87 10.55a1.98 1.98 0 0 1 .14-.75 1.36 1.36 0 0 1 .39-.5 1.49 1.49 0 0 1 .58-.26 3.07 3.07 0 0 1 .7-.08 2.99 2.99 0 0 1 .7.07 1.48 1.48 0 0 1 .57.27 1.39 1.39 0 0 1 .4.5 2.1 2.1 0 0 1 0 1.56 1.3 1.3 0 0 1-.4.5 1.49 1.49 0 0 1-.57.28 2.95 2.95 0 0 1-.7.08 3.03 3.03 0 0 1-.7-.08 1.4 1.4 0 0 1-.58-.28 1.27 1.27 0 0 1-.39-.5 1.98 1.98 0 0 1-.14-.81zm3.47 15.33H186V13.7h3.33z"/><path data-name="Path 537" d="M202.54 13.72v1.81l-1.78.55a2.86 2.86 0 0 1 .3.75 3.84 3.84 0 0 1 .09.85 4.7 4.7 0 0 1-.3 1.69 3.46 3.46 0 0 1-.87 1.32 3.87 3.87 0 0 1-1.45.88 6.21 6.21 0 0 1-2.03.3h-.55a2.9 2.9 0 0 1-.43-.06 1.63 1.63 0 0 0-.34.39.86.86 0 0 0-.12.48.47.47 0 0 0 .14.37 1.1 1.1 0 0 0 .36.22 2.22 2.22 0 0 0 .54.1 5.97 5.97 0 0 0 .63 0h1.87a5.78 5.78 0 0 1 1.58.2 3.2 3.2 0 0 1 1.18.62 2.77 2.77 0 0 1 .75 1.04 4.05 4.05 0 0 1 .26 1.5 4.18 4.18 0 0 1-.42 1.87 3.78 3.78 0 0 1-1.23 1.4 6.16 6.16 0 0 1-2.05.9 11.38 11.38 0 0 1-2.82.31 8.93 8.93 0 0 1-2.17-.23 4.7 4.7 0 0 1-1.55-.67 2.98 2.98 0 0 1-.93-1.07 3.1 3.1 0 0 1-.31-1.4 2.79 2.79 0 0 1 .27-1.15 2.65 2.65 0 0 1 .6-.83 3.16 3.16 0 0 1 .89-.58 5.82 5.82 0 0 1 1-.34 1.95 1.95 0 0 1-.46-.27 2.06 2.06 0 0 1-.4-.4 2.23 2.23 0 0 1-.3-.5 1.54 1.54 0 0 1-.11-.59 1.89 1.89 0 0 1 .1-.63 1.85 1.85 0 0 1 .3-.53 2.99 2.99 0 0 1 .5-.47c.18-.14.4-.29.65-.44a3.27 3.27 0 0 1-1.49-1.33 4.07 4.07 0 0 1-.55-2.15 4.65 4.65 0 0 1 .3-1.76 3.5 3.5 0 0 1 .89-1.32 3.86 3.86 0 0 1 1.49-.81 6.36 6.36 0 0 1 2-.29h.49l.54.07.5.08.36.08zm-8.72 13.88a1.33 1.33 0 0 0 .11.53 1.08 1.08 0 0 0 .38.45 1.89 1.89 0 0 0 .69.31 4.15 4.15 0 0 0 1.04.12 5.38 5.38 0 0 0 2.56-.48 1.44 1.44 0 0 0 .86-1.3.9.9 0 0 0-.53-.9 4.57 4.57 0 0 0-1.66-.24h-1.54a2.87 2.87 0 0 0-.63.08 1.78 1.78 0 0 0-.62.24 1.5 1.5 0 0 0-.47.46 1.31 1.31 0 0 0-.19.73zm1.2-9.91a2.66 2.66 0 0 0 .37 1.53 1.26 1.26 0 0 0 1.13.54 1.23 1.23 0 0 0 1.13-.54 2.84 2.84 0 0 0 .35-1.53 3.12 3.12 0 0 0-.35-1.56 1.21 1.21 0 0 0-1.13-.58c-1 0-1.5.71-1.5 2.14z"/><path data-name="Path 538" d="M214.97 25.88h-3.33v-7.11a3.96 3.96 0 0 0-.4-1.98 1.38 1.38 0 0 0-1.26-.66 2.11 2.11 0 0 0-1.09.26 1.87 1.87 0 0 0-.7.74 3.93 3.93 0 0 0-.36 1.26 11.95 11.95 0 0 0-.1 1.72v5.73h-3.33V13.7h2.53l.46 1.56h.18a3.27 3.27 0 0 1 .64-.8 3.59 3.59 0 0 1 .82-.56 3.72 3.72 0 0 1 .95-.32 4.71 4.71 0 0 1 1.02-.1 4.86 4.86 0 0 1 1.62.25 3.2 3.2 0 0 1 1.26.8 3.72 3.72 0 0 1 .8 1.4 6.42 6.42 0 0 1 .29 2v7.95z"/><path data-name="Path 539" d="M59.59 38.92h.74a5.07 5.07 0 0 1 .68.09l-.26 1.83-.63-.1a6.04 6.04 0 0 0-.6-.04 2.76 2.76 0 0 0-2.24 1.07 3.9 3.9 0 0 0-.63 1.24 5.46 5.46 0 0 0-.22 1.61v6.46h-2.02V39.14h1.62l.23 2.23h.08c.19-.31.38-.61.6-.9a4.58 4.58 0 0 1 .68-.75 3.27 3.27 0 0 1 .87-.53 2.82 2.82 0 0 1 1.1-.26z"/><path data-name="Path 540" d="M67.49 51.32a5.74 5.74 0 0 1-2.19-.4 4.73 4.73 0 0 1-1.71-1.17 5.4 5.4 0 0 1-1.1-1.92 8.12 8.12 0 0 1-.4-2.62 9.05 9.05 0 0 1 .4-2.65 6 6 0 0 1 1.01-1.97 4.34 4.34 0 0 1 1.56-1.24 5.01 5.01 0 0 1 3.95 0 4.22 4.22 0 0 1 1.5 1.09 4.97 4.97 0 0 1 .91 1.7 6.96 6.96 0 0 1 .32 2.18v1.23h-7.6a4.96 4.96 0 0 0 .9 3.1 3.04 3.04 0 0 0 2.47.99 8.76 8.76 0 0 0 1.03-.06 8.28 8.28 0 0 0 .91-.15 6.4 6.4 0 0 0 .86-.33c.27-.1.56-.22.84-.35v1.76a7.41 7.41 0 0 1-.85.36 6.71 6.71 0 0 1-.86.25 7.31 7.31 0 0 1-.92.15 5.1 5.1 0 0 1-1.03.05zm-.5-10.75a2.45 2.45 0 0 0-1.96.85 4.26 4.26 0 0 0-.84 2.47h5.36a5.88 5.88 0 0 0-.15-1.36 3.03 3.03 0 0 0-.46-1.05 2.19 2.19 0 0 0-.8-.68 2.58 2.58 0 0 0-1.14-.23z"/><path data-name="Path 541" d="M81.52 47.83a3.51 3.51 0 0 1-.3 1.49 2.9 2.9 0 0 1-.89 1.13 4.08 4.08 0 0 1-1.42.66 7.77 7.77 0 0 1-1.9.22 9.47 9.47 0 0 1-2.03-.2 5.25 5.25 0 0 1-1.49-.56v-1.8c.22.1.48.23.75.34a9 9 0 0 0 1.81.51 6.01 6.01 0 0 0 .96.08 5.46 5.46 0 0 0 1.2-.12 2.33 2.33 0 0 0 .82-.35 1.3 1.3 0 0 0 .44-.54 1.73 1.73 0 0 0 .14-.74 1.78 1.78 0 0 0-.1-.61 1.58 1.58 0 0 0-.4-.54 4.1 4.1 0 0 0-.78-.54 13.68 13.68 0 0 0-1.3-.61 16.96 16.96 0 0 1-1.4-.66 4.93 4.93 0 0 1-1.06-.75 2.78 2.78 0 0 1-.68-.93 3.33 3.33 0 0 1 .06-2.61 2.81 2.81 0 0 1 .85-1 3.8 3.8 0 0 1 1.3-.61 6.3 6.3 0 0 1 1.7-.2 7.43 7.43 0 0 1 1.94.22 9.46 9.46 0 0 1 1.67.6l-.7 1.6a12.18 12.18 0 0 0-1.48-.54 5.05 5.05 0 0 0-1.49-.24 3.02 3.02 0 0 0-1.65.37 1.2 1.2 0 0 0-.53 1.04 1.7 1.7 0 0 0 .12.67 1.55 1.55 0 0 0 .43.52 4.34 4.34 0 0 0 .82.52c.34.17.74.35 1.28.57a14.86 14.86 0 0 1 1.4.65 5.21 5.21 0 0 1 1.05.74 2.97 2.97 0 0 1 .67.93 3.2 3.2 0 0 1 .2 1.29z"/><path data-name="Path 542" d="M88.83 51.32a5.77 5.77 0 0 1-2.19-.4 4.73 4.73 0 0 1-1.71-1.17 5.4 5.4 0 0 1-1.1-1.92 8.12 8.12 0 0 1-.4-2.62 9.06 9.06 0 0 1 .36-2.65 6 6 0 0 1 1-1.98 4.34 4.34 0 0 1 1.57-1.23 5.02 5.02 0 0 1 3.95-.04 4.22 4.22 0 0 1 1.49 1.09 4.97 4.97 0 0 1 .92 1.7 6.96 6.96 0 0 1 .32 2.17v1.24h-7.56a4.96 4.96 0 0 0 .9 3.1 3.04 3.04 0 0 0 2.47.98 8.76 8.76 0 0 0 1.03-.05 8.28 8.28 0 0 0 .91-.16 6.37 6.37 0 0 0 .86-.26c.27-.1.55-.23.84-.35v1.76a7.41 7.41 0 0 1-.86.36 6.72 6.72 0 0 1-.85.25 7.31 7.31 0 0 1-.92.14 7.62 7.62 0 0 1-1.03.04zm-.5-10.75a2.45 2.45 0 0 0-1.96.85 4.26 4.26 0 0 0-.83 2.47h5.36a5.88 5.88 0 0 0-.15-1.36 3.03 3.03 0 0 0-.45-1.05 2.19 2.19 0 0 0-.8-.68 2.59 2.59 0 0 0-1.16-.23z"/><path data-name="Path 543" d="M102.3 51.1l-.4-1.65h-.08a6.5 6.5 0 0 1-.75.85 3.68 3.68 0 0 1-.78.58 3.46 3.46 0 0 1-.94.33 5.84 5.84 0 0 1-1.16.12 4.37 4.37 0 0 1-1.39-.22 2.88 2.88 0 0 1-1.09-.65 3.1 3.1 0 0 1-.74-1.11 4.42 4.42 0 0 1-.26-1.59 3.24 3.24 0 0 1 1.25-2.74 6.7 6.7 0 0 1 3.83-1.05l2-.08v-.75a4.03 4.03 0 0 0-.16-1.22 1.85 1.85 0 0 0-.47-.78 1.65 1.65 0 0 0-.74-.44 3.45 3.45 0 0 0-1-.13 5.38 5.38 0 0 0-1.7.26 11.23 11.23 0 0 0-1.48.63l-.7-1.49a9.2 9.2 0 0 1 1.8-.74 7.1 7.1 0 0 1 2.08-.3 7.29 7.29 0 0 1 1.92.22 3.2 3.2 0 0 1 1.34.71 2.97 2.97 0 0 1 .8 1.24 5.69 5.69 0 0 1 .26 1.82v8.18zm-3.64-1.37a3.61 3.61 0 0 0 1.23-.21 2.71 2.71 0 0 0 .98-.63 2.98 2.98 0 0 0 .65-1.05 4.36 4.36 0 0 0 .24-1.5v-1.08l-1.57.07a7.86 7.86 0 0 0-1.64.22 2.83 2.83 0 0 0-1.06.49 1.82 1.82 0 0 0-.58.74 2.81 2.81 0 0 0-.17 1 1.85 1.85 0 0 0 .53 1.49 2.02 2.02 0 0 0 1.4.45z"/><path data-name="Path 544" d="M112.1 38.92h.74a5.05 5.05 0 0 1 .68.09l-.26 1.83-.63-.1a5.96 5.96 0 0 0-.6-.04 2.9 2.9 0 0 0-1.26.27 2.79 2.79 0 0 0-.97.8 3.76 3.76 0 0 0-.63 1.25 5.2 5.2 0 0 0-.27 1.61v6.46h-1.98V39.14h1.61l.24 2.23h.09a10.42 10.42 0 0 1 .58-.9 4.33 4.33 0 0 1 .7-.75 3.12 3.12 0 0 1 .86-.53 2.82 2.82 0 0 1 1.1-.27z"/><path data-name="Path 545" d="M119.87 51.33a6.01 6.01 0 0 1-2.06-.35 4.22 4.22 0 0 1-1.67-1.09 5.2 5.2 0 0 1-1.1-1.9 8.57 8.57 0 0 1-.41-2.8 8.92 8.92 0 0 1 .41-2.9 5.16 5.16 0 0 1 1.14-1.94 4.27 4.27 0 0 1 1.7-1.08 6.14 6.14 0 0 1 2.08-.34 7.24 7.24 0 0 1 1.66.18 6.25 6.25 0 0 1 1.36.46l-.6 1.68-.54-.22a9.26 9.26 0 0 0-1.28-.3 4.31 4.31 0 0 0-.6-.06 2.85 2.85 0 0 0-2.5 1.1 5.9 5.9 0 0 0-.74 3.4 5.65 5.65 0 0 0 .78 3.36 2.78 2.78 0 0 0 2.4 1.07 5.84 5.84 0 0 0 1.6-.2 8.09 8.09 0 0 0 1.3-.48v1.77a5.4 5.4 0 0 1-1.26.48 6.88 6.88 0 0 1-1.67.16z"/><path data-name="Path 546" d="M132.65 51.1v-7.7a3.32 3.32 0 0 0-.58-2.13 2.17 2.17 0 0 0-1.79-.74 3.5 3.5 0 0 0-1.49.28 2.33 2.33 0 0 0-.96.84 3.72 3.72 0 0 0-.52 1.37 9.91 9.91 0 0 0-.16 1.85v6.2h-1.99V34.15h2.03v5.04l-.08 1.56h.08a3.3 3.3 0 0 1 .65-.8 3.9 3.9 0 0 1 .83-.58 3.49 3.49 0 0 1 .94-.33 4.72 4.72 0 0 1 1.03-.12 4 4 0 0 1 2.97 1.04 4.62 4.62 0 0 1 1.02 3.33v7.82z"/><path data-name="Path 547" d="M146.83 51.38a6.2 6.2 0 0 1-2.06-.35 4.22 4.22 0 0 1-1.66-1.09 5.25 5.25 0 0 1-1.12-1.9 8.6 8.6 0 0 1-.4-2.8 8.94 8.94 0 0 1 .42-2.9 5.16 5.16 0 0 1 1.14-1.94 4.36 4.36 0 0 1 1.7-1.08 6.3 6.3 0 0 1 2.07-.34 7.3 7.3 0 0 1 1.67.19 6 6 0 0 1 1.35.45l-.59 1.68-.56-.21-.63-.2a5.39 5.39 0 0 0-.64-.12 3.4 3.4 0 0 0-.6-.05 2.84 2.84 0 0 0-2.49 1.1 5.9 5.9 0 0 0-.79 3.4 5.67 5.67 0 0 0 .8 3.36 2.79 2.79 0 0 0 2.4 1.07 5.84 5.84 0 0 0 1.6-.2 8.09 8.09 0 0 0 1.3-.48v1.76a5.12 5.12 0 0 1-1.26.49 6.88 6.88 0 0 1-1.65.16z"/><path data-name="Path 548" d="M156.71 51.38a5.8 5.8 0 0 1-2.23-.4 4.63 4.63 0 0 1-1.7-1.19 5.3 5.3 0 0 1-1.03-1.9 8.12 8.12 0 0 1-.4-2.63 9 9 0 0 1 .37-2.64 5.85 5.85 0 0 1 1-1.98 4.38 4.38 0 0 1 1.57-1.24 4.7 4.7 0 0 1 2-.42 4.64 4.64 0 0 1 1.95.39 4.08 4.08 0 0 1 1.49 1.08 4.93 4.93 0 0 1 .92 1.69 7.03 7.03 0 0 1 .32 2.19v1.23h-7.6a4.96 4.96 0 0 0 .88 3.1 3.08 3.08 0 0 0 2.48.98 6.36 6.36 0 0 0 1.03-.05 7.34 7.34 0 0 0 .92-.16 6.71 6.71 0 0 0 .85-.26c.28-.1.55-.23.85-.36v1.77c-.3.13-.58.26-.86.35a7.12 7.12 0 0 1-.86.26 7.3 7.3 0 0 1-.92.14q-.48.05-1.03.05zm-.5-10.76a2.46 2.46 0 0 0-1.98.85 4.17 4.17 0 0 0-.84 2.48h5.36a5.99 5.99 0 0 0-.14-1.37 3.08 3.08 0 0 0-.46-1.04 2.16 2.16 0 0 0-.8-.68 2.61 2.61 0 0 0-1.15-.24z"/><path data-name="Path 549" d="M171 51.16v-7.7a3.36 3.36 0 0 0-.57-2.13 2.19 2.19 0 0 0-1.8-.75 3.48 3.48 0 0 0-1.48.28 2.35 2.35 0 0 0-.97.84 3.71 3.71 0 0 0-.52 1.36 9.15 9.15 0 0 0-.17 1.86v6.2h-1.97V39.19h1.61l.28 1.62h.1a3.74 3.74 0 0 1 .65-.82 3.63 3.63 0 0 1 .83-.57 3.78 3.78 0 0 1 .94-.34 5.23 5.23 0 0 1 1.03-.1 3.99 3.99 0 0 1 2.97 1.04 4.66 4.66 0 0 1 1 3.33v7.8z"/><path data-name="Path 550" d="M179.9 49.76h.44l.48-.06a2.92 2.92 0 0 0 .42-.08l.29-.07v1.49a2.54 2.54 0 0 1-.36.13 3.83 3.83 0 0 1-.48.11c-.18 0-.35.06-.55.08a4.53 4.53 0 0 1-.55 0 4.26 4.26 0 0 1-1.25-.18 2.28 2.28 0 0 1-1-.6 2.92 2.92 0 0 1-.67-1.16 5.95 5.95 0 0 1-.23-1.82v-6.9h-1.7v-.89l1.7-.84.85-2.51h1.14v2.74h3.01v1.5h-3v6.92a2.97 2.97 0 0 0 .34 1.59 1.23 1.23 0 0 0 1.12.55z"/><path data-name="Path 551" d="M188.74 38.98h.7a4.18 4.18 0 0 1 .68.07l-.26 1.86-.63-.1-.6-.04a2.8 2.8 0 0 0-1.26.28 2.94 2.94 0 0 0-.97.8 3.9 3.9 0 0 0-.63 1.24 5.46 5.46 0 0 0-.23 1.6v6.46h-1.98V39.19h1.61l.24 2.23h.09c.18-.3.38-.61.58-.9a4.05 4.05 0 0 1 .7-.75 3.27 3.27 0 0 1 .87-.53 2.82 2.82 0 0 1 1.09-.26z"/><path data-name="Path 552" d="M196.64 51.38a5.74 5.74 0 0 1-2.19-.4 4.65 4.65 0 0 1-1.71-1.19 5.3 5.3 0 0 1-1.1-1.9 8.12 8.12 0 0 1-.4-2.63 9 9 0 0 1 .36-2.64 5.94 5.94 0 0 1 1.05-1.98 4.34 4.34 0 0 1 1.53-1.22 5.01 5.01 0 0 1 3.95 0 4.14 4.14 0 0 1 1.5 1.1 4.93 4.93 0 0 1 .91 1.68 7.24 7.24 0 0 1 .32 2.19v1.23h-7.57a4.96 4.96 0 0 0 .9 3.1 3.06 3.06 0 0 0 2.47.98 6.21 6.21 0 0 0 1.03-.05 6.95 6.95 0 0 0 .91-.16 6.26 6.26 0 0 0 .86-.26c.27-.1.55-.23.84-.36v1.71a9.14 9.14 0 0 1-.86.36 6.72 6.72 0 0 1-.85.25 7.29 7.29 0 0 1-.92.14q-.47.05-1.03.05zm-.5-10.76a2.45 2.45 0 0 0-1.96.85 4.22 4.22 0 0 0-.85 2.48h5.37a5.94 5.94 0 0 0-.15-1.37 3.07 3.07 0 0 0-.46-1.04 2.19 2.19 0 0 0-.8-.68 2.59 2.59 0 0 0-1.15-.24z"/><path data-name="Path 553" d="M15.11 8.67c4.74 7.75 10.67 17.48 14.31 25.75a173.5 173.5 0 0 1 7.77-8.44V6.7H13.91z"/><path data-name="Path 554" d="M30.4 36.72a33.54 33.54 0 0 1 2.23 7.77c.34 2.57-.15 4.82-1.33 6.16a3.5 3.5 0 0 1-2.68 1.25 3.72 3.72 0 0 1-2.65-1.32 7.18 7.18 0 0 1-1.7-5.45 17.04 17.04 0 0 1 3.56-8.78c-3.5-8.28-9.71-18.5-14.63-26.52L11.3 6.7H0v48.34h37.2V29.18a174.78 174.78 0 0 0-6.8 7.54z"/><path data-name="Path 555" d="M27.6 49.1a1.67 1.67 0 0 0 1.03.61 1.31 1.31 0 0 0 1-.5c.74-.83 1.03-2.52.79-4.4a28.61 28.61 0 0 0-1.6-5.95 14.07 14.07 0 0 0-2.33 6.46 5.06 5.06 0 0 0 1.11 3.77z"/><ellipse data-name="Ellipse 2" cx="1.86" cy="1.86" rx="1.86" ry="1.86" transform="translate(39.42 23.8)"/><path data-name="Path 556" d="M13.39 2.23A2.23 2.23 0 1 1 11.16 0a2.23 2.23 0 0 1 2.23 2.23z"/></g></svg>
