<svg data-name="Layer 1" xmlns="http://www.w3.org/2000/svg" viewBox="0 0 376.94 197.6"><path d="M4.27 174.81c.02-7.22.02-8.51-.08-10-.1-1.56-.49-2.3-2.12-2.63a9.86 9.86 0 0 0-1.68-.15c-.2 0-.39-.09-.39-.27 0-.28.25-.37.8-.37 2.21 0 5.32.15 5.57.15.99 0 11.01.02 12.15-.02a11.68 11.68 0 0 0 2.17-.19c.3-.09.5-.27.7-.27s.3.18.3.41c0 .33-.26.88-.4 2.18-.06.46-.16 2.5-.26 3.05-.05.23-.15.5-.4.5s-.35-.22-.34-.55a4.73 4.73 0 0 0-.45-1.76c-.3-.6-1.43-1.43-3.35-1.48l-7.6-.16c-.3 0-.44.14-.45.51l-.02 12.77c0 .28.05.41.35.42l6.31-.04c.84 0 1.53 0 2.23-.04 1.18-.09 1.82-.23 2.27-.83.2-.23.35-.46.54-.46s.25.14.25.37c0 .28-.25 1.07-.4 2.6-.1.92-.19 2.24-.2 2.57 0 .41-.1.58-.32.58s-.36-.14-.38-.46a2.42 2.42 0 0 0-.4-1.06 3.19 3.19 0 0 0-2.45-1.42c-1.24-.14-6.62-.15-7.46-.15-.24 0-.34.1-.34.42l-.01 3.93c-.01 4.44-.02 8.1.23 10.04.14 1.34.44 2.36 1.92 2.54.69.1 1.77.2 2.22.2.3 0 .4.13.4.27 0 .23-.25.37-.8.37-2.71 0-5.82-.15-6.07-.15s-3.36.13-4.84.13c-.54 0-.79-.1-.79-.37 0-.14.1-.28.4-.28a8.06 8.06 0 0 0 1.48-.18c.99-.19 1.24-1.2 1.44-2.54.25-1.94.26-5.6.26-10.04zm42.96-13.98c11.11.02 19.4 6.6 19.38 17.39-.02 10.36-7.84 18.9-19.74 18.88-13.53-.03-19.14-9.9-19.12-18.22.01-7.49 5.86-18.07 19.48-18.05zm.98 34.51c4.44.01 13.63-2.38 13.65-15.84.02-11.1-7.17-17.08-14.97-17.1-8.25-.01-14.43 5.06-14.45 15.2-.02 10.78 6.88 17.73 15.77 17.74zm27.07-20.4c.02-7.2.02-8.5-.08-9.98-.1-1.58-.49-2.32-2.11-2.64a9.87 9.87 0 0 0-1.68-.15c-.2 0-.4-.09-.4-.27 0-.28.25-.37.8-.37 2.22 0 5.23.15 5.67.15s3.41-.14 4.9-.13c.54 0 .78.1.78.37 0 .18-.2.28-.4.28a7.82 7.82 0 0 0-1.23.13c-1.34.19-1.73 1.02-1.84 2.64-.1 1.47-.1 2.77-.11 9.99l-.01 6.47c-.02 6.66 1.56 9.53 3.68 11.44a10.05 10.05 0 0 0 7.45 2.55 10.68 10.68 0 0 0 7.75-3.31c2.28-2.64 2.88-6.57 2.89-11.33l.01-5.78c.01-7.22.02-8.51-.08-10-.1-1.57-.49-2.3-2.12-2.64a9.91 9.91 0 0 0-1.67-.14c-.2 0-.4-.1-.4-.28 0-.27.25-.37.8-.36 2.21 0 4.93.14 5.23.14.34 0 2.66-.13 4.14-.13.55 0 .8.1.8.37 0 .19-.2.28-.4.28a4.56 4.56 0 0 0-1.24.14c-1.34.23-1.73 1.01-1.83 2.63-.1 1.48-.1 2.78-.12 10l-.01 4.94c-.01 5-.61 10.55-4.57 13.82a15.08 15.08 0 0 1-10.18 3.4c-1.68 0-6.66-.2-10.16-3.3-2.42-2.17-4.29-5.42-4.28-12.17zm44.29 15.36c.09 3.8.58 5 1.92 5.37a11.5 11.5 0 0 0 2.46.28c.25 0 .4.1.4.28 0 .27-.3.37-.9.37-2.8 0-4.78-.15-5.23-.15s-2.51.13-4.74.13c-.5 0-.79-.05-.79-.37 0-.19.15-.28.4-.28a7.51 7.51 0 0 0 2.03-.28c1.23-.32 1.48-1.66 1.5-5.87l.1-26.5c0-1.8.14-2.3.54-2.3s1.23 1.01 1.72 1.47c.74.8 8.09 8.25 15.67 15.9 4.88 4.92 10.25 10.57 11.83 12.1l-.5-23.5c-.04-3-.39-4.02-1.92-4.4a14 14 0 0 0-2.41-.23c-.35 0-.4-.14-.4-.33 0-.28.4-.32.99-.32 2.22 0 4.6.15 5.13.15s2.18-.14 4.2-.13c.55 0 .9.04.9.32 0 .19-.2.33-.55.33a4.62 4.62 0 0 0-1.19.13c-1.63.32-1.83 1.34-1.83 4.12l-.15 27.1c0 3.06-.1 3.29-.45 3.29-.4 0-.99-.51-3.6-2.97-.55-.46-7.64-7.28-12.87-12.56a1006.17 1006.17 0 0 1-12.86-13.3zm44.22-15.18c.01-7.22.01-8.52-.08-10-.1-1.57-.49-2.3-2.12-2.64a9.86 9.86 0 0 0-1.68-.14c-.2 0-.4-.1-.4-.28 0-.27.26-.37.8-.36 2.22 0 5.33.15 5.58.15.59 0 3.7-.14 6.66-.13 4.9 0 13.93-.4 19.8 5.3a15.99 15.99 0 0 1 4.76 11.77 18.29 18.29 0 0 1-5.36 13.03c-2.13 2.08-6.58 5.31-14.97 5.3-4.25-.01-10.47-.58-10.96-.58-.25 0-3.36.13-4.84.13-.54 0-.8-.1-.79-.37 0-.14.1-.28.4-.28a8.06 8.06 0 0 0 1.48-.18c.99-.19 1.24-1.2 1.44-2.54.25-1.95.26-5.6.26-10.04zm4.14 5c-.01 4.9.03 9.15.08 10.03.04 1.16.14 3.01.53 3.52.64.88 2.57 1.85 8.4 1.87a17.19 17.19 0 0 0 11.75-4.28c2.58-2.36 3.97-6.8 3.97-11.05a16.02 16.02 0 0 0-4.71-11.67c-4.64-4.58-10.26-5.24-16.14-5.25a14.08 14.08 0 0 0-3.2.31.84.84 0 0 0-.6.93c-.06 1.57-.07 6.29-.08 9.85zm47.74-17.16c.6-1.53.8-1.8 1.09-1.8s.5.23 1.08 1.66c.74 1.76 8.46 20.88 11.45 27.92 1.77 4.12 3.2 4.86 4.24 5.14a6.77 6.77 0 0 0 1.98.28c.3 0 .49.05.49.28 0 .28-.45.37-.99.37-.74 0-4.34 0-7.75-.1-.94-.06-1.48-.06-1.48-.34 0-.18.15-.27.34-.32.3-.09.6-.5.3-1.25l-4.56-11.38a.43.43 0 0 0-.45-.28l-10.61-.02a.51.51 0 0 0-.5.37l-2.98 8.18a9.21 9.21 0 0 0-.7 3.1c0 .92 1.04 1.34 1.88 1.34h.49c.35 0 .5.1.5.28 0 .28-.3.37-.75.37-1.18 0-3.3-.15-3.85-.15s-3.26.14-5.58.13c-.64 0-.94-.1-.94-.37 0-.18.2-.28.45-.28.35 0 1.04-.04 1.43-.09 2.27-.27 3.27-2.03 4.16-4.34zm5.1 18.51c.25 0 .25-.14.2-.32l-4.67-12.5q-.36-1.05-.74 0l-4.36 12.48c-.1.23 0 .32.14.32zm31.78 1.96c-.01 4.44-.02 8.1.22 10.03.15 1.35.44 2.36 1.93 2.55.69.1 1.77.19 2.22.2.3 0 .4.13.4.27 0 .23-.26.37-.8.37-2.72 0-5.83-.15-6.07-.15s-3.36.13-4.84.13c-.55 0-.8-.1-.8-.38 0-.13.1-.27.4-.27a8.08 8.08 0 0 0 1.49-.18c.98-.19 1.23-1.2 1.43-2.55.25-1.94.26-5.6.27-10.03l.04-19.57-7.31.08c-3.06.04-4.25.36-5.04 1.47a7.87 7.87 0 0 0-.84 1.43c-.15.37-.3.46-.5.46-.15 0-.25-.14-.25-.41 0-.47 1-4.44 1.1-4.81.1-.28.3-.88.5-.88a9.7 9.7 0 0 0 2.17.56c1.43.14 3.3.24 3.9.24l18.51.03a27.87 27.87 0 0 0 3.51-.22 12.57 12.57 0 0 1 1.38-.23c.25 0 .25.28.25.55 0 1.4-.16 4.58-.16 5.1 0 .4-.15.6-.34.6-.25 0-.35-.15-.4-.8l-.05-.5c-.2-1.4-1.33-2.46-6.06-2.56l-6.23-.1zm29.35.05c-.01 4.44-.02 8.1.23 10.04.14 1.34.44 2.36 1.92 2.55.69.1 1.77.19 2.22.19.3 0 .4.14.4.28 0 .23-.25.37-.8.37-2.71 0-5.82-.15-6.07-.16s-3.36.14-4.84.13c-.54 0-.79-.1-.79-.37 0-.14.1-.28.4-.28a8.05 8.05 0 0 0 1.48-.18c1-.18 1.24-1.2 1.44-2.54.25-1.94.26-5.6.27-10.04l.01-8.14c.02-7.21.02-8.5-.08-9.99-.1-1.57-.59-2.36-1.67-2.6a6.9 6.9 0 0 0-1.53-.18c-.2 0-.4-.1-.4-.28 0-.28.25-.37.8-.37 1.62 0 4.73.15 4.98.15s3.36-.13 4.84-.13c.54 0 .79.1.79.37 0 .19-.2.28-.4.28a7.86 7.86 0 0 0-1.23.14c-1.34.23-1.73 1.01-1.84 2.63-.1 1.48-.1 2.78-.11 10zm30.03-22.14c11.1.02 19.39 6.6 19.37 17.38-.02 10.36-7.84 18.9-19.74 18.88-13.53-.03-19.14-9.89-19.12-18.21.01-7.5 5.87-18.08 19.49-18.05zm.97 34.5c4.44.02 13.63-2.37 13.66-15.83.02-11.1-7.18-17.09-14.98-17.1-8.25-.02-14.43 5.06-14.45 15.19-.02 10.78 6.88 17.73 15.77 17.75zm30.88-5.12c.1 3.8.59 5 1.92 5.37a11.53 11.53 0 0 0 2.47.29c.24 0 .4.09.39.27 0 .28-.3.37-.89.37-2.81 0-4.79-.15-5.23-.15s-2.52.14-4.74.13c-.5 0-.8-.05-.8-.37 0-.18.16-.28.4-.28a7.52 7.52 0 0 0 2.03-.27c1.23-.32 1.48-1.66 1.49-5.87l.1-26.5c0-1.8.15-2.32.55-2.32s1.23 1.02 1.72 1.49c.74.79 8.09 8.25 15.67 15.9 4.88 4.91 10.25 10.56 11.83 12.1l-.5-23.5c-.05-3-.39-4.03-1.92-4.4a14.08 14.08 0 0 0-2.42-.24c-.34 0-.4-.14-.4-.32 0-.28.4-.33 1-.33 2.22 0 4.59.15 5.13.15s2.17-.13 4.2-.13c.54 0 .89.05.89.33 0 .18-.2.32-.55.32a4.6 4.6 0 0 0-1.18.14c-1.63.32-1.83 1.34-1.84 4.11l-.15 27.1c0 3.06-.1 3.29-.45 3.29-.4 0-.98-.51-3.6-2.97-.54-.46-7.64-7.28-12.86-12.56a1022.17 1022.17 0 0 1-12.86-13.3zM183 6.61c1.93-5.32 2.58-6.29 3.55-6.29s1.6.8 3.54 5.8c2.42 6.13 27.73 72.7 37.56 97.2 5.8 14.34 10.47 16.92 13.86 17.89a20.82 20.82 0 0 0 6.45.97c.96 0 1.6.16 1.6.96 0 .97-1.44 1.3-3.22 1.3-2.41 0-14.18 0-25.3-.33-3.06-.16-4.84-.16-4.84-1.13 0-.64.49-.97 1.13-1.13.97-.32 1.93-1.77.97-4.35l-15-39.65a1.41 1.41 0 0 0-1.44-.97H167.2a1.7 1.7 0 0 0-1.62 1.3l-9.67 28.53a34.05 34.05 0 0 0-2.26 10.8c0 3.23 3.39 4.68 6.13 4.68h1.62c1.12 0 1.6.32 1.6.96 0 .97-.96 1.3-2.41 1.3-3.87 0-10.8-.5-12.57-.5s-10.64.5-18.22.5c-2.1 0-3.06-.33-3.06-1.3 0-.64.64-.96 1.45-.96 1.13 0 3.39-.17 4.68-.33 7.41-.96 10.63-7.09 13.53-15.15zm16.76 64.47c.81 0 .81-.48.65-1.12L185.1 26.44q-1.21-3.63-2.42 0l-14.19 43.52c-.32.8 0 1.13.49 1.13zm71.92-21.75c0-25.15 0-29.66-.32-34.82-.32-5.48-1.61-8.06-6.93-9.18a30.14 30.14 0 0 0-5.48-.49c-.65 0-1.29-.32-1.29-.96 0-.97.8-1.3 2.58-1.3 7.25 0 16.76.49 17.73.49 1.45 0 10.8-.48 15.63-.48 1.78 0 2.58.32 2.58 1.29 0 .64-.64.96-1.29.96a23.93 23.93 0 0 0-4.03.49c-4.35.8-5.64 3.54-5.96 9.18-.32 5.16-.32 9.67-.32 34.82V59h.64c2.74-3.06 31.92-32.72 37.72-39 4.51-4.68 8.7-8.87 8.7-11.61 0-1.94-.8-2.9-2.1-3.39-.8-.32-1.45-.64-1.45-1.29 0-.8.81-1.12 1.94-1.12 3.22 0 8.22.48 12.09.48.8 0 11.44-.48 15.47-.49 1.78 0 2.42.33 2.42 1.13s-.32 1.13-1.61 1.13a23.85 23.85 0 0 0-9.03 2.26c-6.6 2.9-10.15 6.93-17.4 13.86-4.04 3.87-32.08 31.27-35.47 35.3 4.2 4.67 37.72 39.33 44.33 45.45 13.54 12.57 16.28 15.15 24.02 18.38a29.72 29.72 0 0 0 10 2.1c1.12 0 2.1.32 2.1.96 0 .8-.81 1.3-3.55 1.3h-8.23c-4.51 0-7.57 0-11.12-.33-8.54-.8-12.57-4.35-19.5-9.83-7.25-5.97-41.43-42.88-49.16-52.39h-.8v15.8c0 15.48 0 28.2.8 34.98.48 4.67 1.45 8.22 6.29 8.86a55.29 55.29 0 0 0 6.28.65c.97 0 1.3.48 1.3.97 0 .8-.81 1.29-2.59 1.29-7.9 0-17.24-.49-18.53-.49s-10.64.49-15.48.49c-1.77 0-2.58-.33-2.58-1.3 0-.48.33-.96 1.3-.96a24.88 24.88 0 0 0 4.83-.65c3.22-.64 4.03-4.19 4.67-8.86.81-6.77.81-19.5.81-34.98z" fill="#bdbdbb"/><path d="M38.82 28.72c-.12-.17-.17.25 0 0zm-.46 40.08c-.05 0-.2-.05-.2.1.02.5.9.33 1.02.3-.2-.24-.6-.53-.82-.4zm-.3-36.99c0 .25.23.25.46.25a4.2 4.2 0 0 0 .63-.81c-.4.05-.63-.2-1.09.56zm2.08-.17c-.43-.05-.26.65-.17.78-.05-.08.64-.73.17-.78zm-4.62 34.12a1.75 1.75 0 0 0-.2.13c.14 0 .19-.05.2-.13zm5.26 3.29a.17.17 0 0 0 .14-.06.29.29 0 0 0-.16.03zm-5.24-3.66c-.15 0 0 .22-.02.37 1.28-.7 2.36.93 3.23 1.65l-.23.25a3.48 3.48 0 0 1 .95.09 1.62 1.62 0 0 1 .66-.1c-1.15-1.25-2.75-3.27-4.59-2.26zm46.77-52.77s-.23 0-.28-.04c.44.46 1 .17 1.58.23-.28.03-.5.32-.84.32 1.15.5 2.98 1 3.9-.5-.69.24-1.15-.26-1.6-.5-.23 0-.23.24-.23.5 0-.26-.46-.5-.46-.77-.23 0-.23.26-.23.5-.4.22-.8-.13-1.2-.23-.44.19-.87-.25-1.09.23.22 0 .45 0 .45.26zM84.6 15l.22-.22-1.38-.05c.24.24.47.24.47.48.25.47-.68-.03-.44.44.23 0 .68-.2.91-.2l.02.47c.21-.46.67-.44 1.06-.49-.17-.17-.62.04-.87-.43zm-1.83-2.88a.8.8 0 0 1 .17.02l.06-.02zm-2.15 3.02a.3.3 0 0 0-.09-.04l.01.01.08.03zm-38.36 2.61c-.3 0-.32.23-.33.47.23-.01.24-.25.33-.47zm36.23-3.79c.02.1.53.32.59.34a1.53 1.53 0 0 0-.34-.43c.15.05.63-.07.3.25a2.17 2.17 0 0 0 1.17.26l-.01-.46c.23.01.46.02.45-.21 0 .23.01.46.24.47a.82.82 0 0 0 .36-.04c.06.13.7-.06.34.29a2.4 2.4 0 0 0-1.83.4l1.85.06c-.4-.01-.62.33-.99.25.1.07.15.18.31.19a.55.55 0 0 1-.39-.22.56.56 0 0 1-.08-.03.24.24 0 0 1 .08.02c-.15-.16-.27-.3-.54-.03l.01.46c.25.46.7.25 1.17.26 0 .23-.23.23-.46.22l.46.01.02.46c0-.23.22-.22.45-.21l-.01-.46a2.14 2.14 0 0 0 .87-1.58c.27 0 .53.1.8.08a1.03 1.03 0 0 0-.24.07 2.33 2.33 0 0 1 .31.31l.7.03c.14-.44-.25-.49-.58-.44a.84.84 0 0 0 .38-.23c-.92-.04-1.4-.75-2.1-1 .46-.22-.23-.24-.01-.47-.22.23-.7-.25-.92-.02-.22.45.48.7.5 1.16-.24-.23-.71-.48-.72-.94-.22 0-.63-.2-.68.12a.46.46 0 0 0-.3-.2.67.67 0 0 0 .28-.17c-.47-.24-.69.21-1.16-.03-.23 0-.45.22-.4.35a.63.63 0 0 0 .65.35c0 .23-.45.21-.22.45-.08.08-.11.14-.1.17a6.32 6.32 0 0 0-.35-.3c-.16.27.1.17.14.44zm-49.01 7.52a.63.63 0 0 0-.68.33c.32.01.56.36.73.65a1.4 1.4 0 0 0 .38-.57c.1-.28-.18-.63-.43-.41zm2.09-3.5c.19.07.45-.12.64-.2a.64.64 0 0 0-.65.2zm9.19 51.04a.77.77 0 0 0-.66-.26c.17.58.43.35.66.26zM62.73 8.25c-.3-.05-.63-.38-.91-.19a.82.82 0 0 1 .47.15.96.96 0 0 0 .44.04zm9.77 1.84c.23 0 .23.24.4.23.06-.22-.17-.23-.4-.23zm.77 7.68c.26-.14.5.32.5-.13l-.48-.01.24-.22-.71-.02c0 .23 0 .46.46.38zm-.5-1.86a.7.7 0 0 0 .15.61l.12.26c.01-.3.05-.73-.28-.87zm-17.2-6.13c.28-.08.54.16.85.08-.14-.14-.62-.19-.67-.37-.09-.35-.63.43-.18.3zm4.04-1.2a.8.8 0 0 0-.68-.25s-.23.25-.16.25h.85zm2.33-.3c-.01.16.42.14.49.05-.04-.03-.49-.19-.5-.05zm4.97 19.89a1.3 1.3 0 0 0-.26.03.87.87 0 0 0 .26-.03zm2.55.42c.38-.62 1.36-.37 2.08-.84.72-.7-.01-.94-.5-1.42-.15-.14-.12-.2-.03-.22-.12.02-.22.08-.22.22-.48 0 .24-.7-.73-.48l.25.24c-.24.23-.73 0-.73.46l-.49-.47c0 .23.25.47.25.7 0-.23-.5-.47-.5-.7-.23 0-.23.23-.23.47-.25 0-.25 0-.25-.24l-.73.7-.48-.47c.24 0 .24 0 .24-.23-.24-.24-.24-.47-.49-.47s-.48-.23-.48.23c.24 0 .48 0 .48.24-.72-.47-.73 0-1.22.47.49.23.74-.24 1.22 0 .34 0-.03.34-.04.47h-.94c.24.47.98.23 1.22.47 0 .18 0 .37-.23.44.85-.04 1.55.72 2.54.43zm4.25 9.54c-.5-.01.48-.76-.27-.77h.25c-.5-.26-.7-.9-.97-1.44-.22-.47-.49-.86-1.04-.89.13-.02.21-.08.21-.23-.25-.5.74-.73.48-1.23l-1.5-.02c.5-.24.5-.74.74-.98a.82.82 0 0 1-1.24-.02c.25.5-.24.74-.5 1.23.26 0 .26 0 .22.22-.4.45.3.9.02 1.32a.86.86 0 0 1 .53-.28c.26.5-.24.75-.24 1.25.5 0 .75-.5 1.26-.23l-.25.25a2.34 2.34 0 0 1 .26 1.27h-.76c-.25 0-.24.25-.24.5l.5.01c-.25.25-.24.51-.75.5v.52c.5-.25 1.02.27 1.52.02-.5.51-1.27.25-1.77 1.02 0 .52.26 0 .51.27l.26-.26.25.26c.5-1.03 1.78-.23 2.8-.47.25 0 .5.01.5-.51l-.5-.01c.24-.51.74-.5.47-1.28zM44.09 69.09c-.32 0-.32 0-.31.29l.7.01c0-.28-.24-.28-.4-.3zm-1.72-.85c-.46-.83-1.14.26-1.6-.57l-.23.27c0 .28.23.28.46.56a.78.78 0 0 1-.08.5.16.16 0 0 1 .09.05c.23.28.46.56.7.57.22-.28-.25-.56.15-.5a10.47 10.47 0 0 1 1.22-.03c-.24-.28-.24-.84-.7-.85zm27.74-32.92a6.02 6.02 0 0 0-.22.21.72.72 0 0 0 .22-.2zm.05.53c-.92 0-1.6-.5-2.06.5h.46c-.46 0-.46.25-.7.5 0-.5-.22 0-.45-.25v.51c.46.25.46.76.23 1.26 0 .25-.46-.25-.46.25h.46a.97.97 0 0 0-.49.1 1.57 1.57 0 0 0 .94.4c.46 0 .7-.75 1.38-.75l.23.25a3.48 3.48 0 0 1 .23-1.51l-.23-.25c0-.26.23-.26.46-.26 0-.25 0-.25-.23-.25 0-.25 0-.5.23-.5zM29.87 19.8a.46.46 0 0 0 .64-.04c-.07-.53-.45-.28-.64.04zm49.25 28.74c.15.12.4.12.4.4q-.01-.83-.04-1.65c.02.55-.48.81-.36 1.25zm4.04 4.88a.33.33 0 0 1 .14-.3.81.81 0 0 1 .06-.97l.03-.2c-.26.14-.9.39-1.16.15-.22-.18-.94-.03-.55.46.5-.14 1 .78 1.48.86zm-4.09-2.27a.85.85 0 0 0 .76-.26c-.27-.57.22-1.38-.3-1.95a.85.85 0 0 1-.64.28c.4.54-.08 1.36.18 1.93zm10.46 4.21c-.49-.29-.96-.3-1.5-.68.31.92 1.02.67 1.5.68zm14.24 8.3a1.21 1.21 0 0 0 .1-.55 2 2 0 0 0-.1.55zM90.12 24.25l.22.24c0-.16-.1-.21-.22-.24zm-5.97-1.28h.16c-.04-.05-.1-.08-.16 0zm9.7 32.14c-.37-.15-.59.38-1.05.37l.02.55c.46.01.67-.53 1.03-.92zM87.4 14.28a.4.4 0 0 0 .4.04c-.15-.02-.84-.28-.88-.01.08 0 .45-.07.48-.03zM43.78 9.03a.5.5 0 0 0-.21.06c.14 0 .18-.01.2-.06zM94.23 47.2v-.5c-.23 0-.46 0-.46.25s.24.25.46.25zm-3.44 3.03a1.32 1.32 0 0 0 .2.03c-.03-.03-.08-.03-.2-.03zm-8.7-4.3a1.05 1.05 0 0 0 .03-.2c-.08.05-.13.11-.04.2zm7.56 6.57v-.03a.22.22 0 0 0-.12 0 .2.2 0 0 0 .12.03zm-.23 0a.35.35 0 0 1 .11-.03c-.1-.08-.11-.27-.11-.47zm3.67-5.05l-.12-.22c-.3.06-1 .22.12.22zm-49.23 65.8a2.05 2.05 0 0 0-.07-.16.21.21 0 0 0 .07.17zm35.58-78.6c.1-.37.1-.37-.14-.38a.7.7 0 0 1-.29.17c.18.05.34.3.43.2zm-.6-.17a.84.84 0 0 0 .17-.04.18.18 0 0 0-.17.04zm-.02.02a.12.12 0 0 1 .02-.02 1.88 1.88 0 0 1-.27 0c-.24 0-.23.24-.23.49zm23.92-8.41c.25.47.63-.13.1-.29l-.42-.41c-.53.36.23.52.32.7zm-14.1-13.14c.3-.01.68.05.92-.12-.23-.03-.8-.08-.92.12zm9.15 13.57c.46.27.43-.2.82-.3a.61.61 0 0 0-1.07-.2c.22.02.24.26.25.5zm-61.1 4.52c.23 0 .46-.25.69-.5v.76c.69-.26.92-.76 1.38-1.27 0 .76.68.5.91.76.23 0 .23-.25.22-.49-.22-.02-.45-.02-.68-.02l.23-.25c-.23-1-1.14-1-1.83-1.26-.23.76-.23 1.77-.92 2.27zm18.28 72.34a6.4 6.4 0 0 0-.54.5 6.06 6.06 0 0 1-.08.23 1.83 1.83 0 0 0 .61-.73zM35.08 22.47c0-.14-.01-.2-.04-.22a2.09 2.09 0 0 0 1.47-1.26 1.94 1.94 0 0 0-2.34-.04c.23 0 .23 0 .23.26h-.46c-.23.75.23 1.26.23 2.02.23-.51.68-.51.91-.76zm-.19-.2a.21.21 0 0 1-.26-.05.83.83 0 0 0 .26.05zm5.13-7.93a1.08 1.08 0 0 1-.12-.2.2.2 0 0 0 .12.2zm-1.5-1.46h-.69c0 .25.23.25.46.25s.23 0 .23-.26zm-4.61 55.84c0 .07.01.13.03.2.08-.1.04-.15-.03-.2zm6.87-54.05c-.03-.03-.08-.03-.2-.03a1.08 1.08 0 0 1 .2.03zm5.14 31.36a.22.22 0 0 0-.06.17.24.24 0 0 0 .07-.16zM33.22 20.8a.52.52 0 0 0-.38.12 1.22 1.22 0 0 0-.4.14c.15.12.71.12.78-.26zm39.09-7.05s.23 0 .24-.1c.22.1.22.1.22-.12-.24 0-.47 0-.46.22zm-1.34 6.8c.24.23.24 0 .28-.28a.42.42 0 0 0-.24-.36.64.64 0 0 0 .22-.06c-.27-.44-.74-.21-1.22-.22a1.38 1.38 0 0 1 .59.2c-.24 0-.48.03-.59.03.24.46.72.46.96.7zm.33-2.11c.05.3.82.11.95.09a2.23 2.23 0 0 0-.47-.24.4.4 0 0 0-.49.15zm-3.2 3.46l-.03.1c.06.11 2.04.18 1.22-.48a13.65 13.65 0 0 1-1.2.38zM16.52 42.77a1.5 1.5 0 0 1-.07-.64h-.21a.16.16 0 0 0 .03-.04s.17-.67.19-.65c-.08-.12-.38.32-.38.3.05-.14.2-.13.12-.35-.6-.3-.36.56-.12.74h-.07c.21.25.2 1 .65.74 0 .01-.22.02-.14-.1zM62.37 26h.45l-.23.25c1.38.26 1.84-1.51 3.21-1.76v-.5a1.16 1.16 0 0 1 .92.5c.23 0 .23-.25.23-.5a1.28 1.28 0 0 0 .92.24c.69-.25 1.14-1 2.03-.96a2.87 2.87 0 0 1 1.4-.55c-.91-.5-2.06-1.01-2.97 0 0-.25-.23-.25-.46-.25.46 0 .46-.26.91-.26h-.91v-.5c.4 0 1.18 0 1.34-.54a11.4 11.4 0 0 0 1.64 1.05l.23-.25c0 .25.23.25.46.25.23-1.51-1.38-2.02-2.53-2.27.23 0 .46 0 .46-.25a.8.8 0 0 0-.69-.26l1.38-.75v.45a2.33 2.33 0 0 0-.63.04c.24.68.71 0 .95.21a.6.6 0 0 0-.1-.13 2 2 0 0 0 1.84-.32.8.8 0 0 0-.69-.25v.25l-.46-.5c.7-.76 1.15 0 1.84 0l-.46-.5c-.23 0-.23 0-.23.25-.46 0-.23-.76-.69-.76h1.15c0-.25 0-.5-.23-.5l.23-.25c-.69-.5-1.38 0-1.83-.76.86 0 1.53-.44 2.37-.06a.7.7 0 0 1-.08-.44c-.46.25-.92-.25-1.38-.5h.92a.54.54 0 0 0-.18-.23h.04-.05a.47.47 0 0 0-.24-.08c.04-1.26-.18-1.28-.17 0-.18.02-.36.06-.55.06l-.23.25a2.16 2.16 0 0 1 1.38-1.77h-.46c.23 0 .23-.25.23-.5h.92v-.5a4.15 4.15 0 0 0-.63.03c-.01-.21-.23-.22-.45-.15 0 .24.08.24.2.22a.78.78 0 0 0-.5.4.99.99 0 0 1 .23-.75c.69-.26 1.37.25 1.83-.26h-1.14a4.06 4.06 0 0 0 3.21-1.26 2.57 2.57 0 0 0-2.98.25.8.8 0 0 1-.69-.25c-.23-.25-.23 0-.23.25-.23 0-.23 0-.23-.25-.23 0-.68.25-.91.25a1.25 1.25 0 0 1-1.15.76c.46-.5 1.15-.5 1.15-1.51a11.16 11.16 0 0 0-2.75.75c.23-.5.68-.5 1.14-.5a5.27 5.27 0 0 0-2.55-.34 20.85 20.85 0 0 1 3.24-.17c.46-.25.92 0 1.38-.5a1.3 1.3 0 0 0-1.84-.25c-.23 0-.23-.26-.46-.26.23-.25.46.26.46-.25h-.46c-.23-.5-.68-.5-1.14-.5l-.23.25a13.76 13.76 0 0 0-3.21-.25v-.25c-.7 0-.7.5-1.38.25 0 .5-.46 0-.46.25 0 .5.46 0 .7.26a2.72 2.72 0 0 1-1.45.11c-.18-.12-.35-.26-.58-.22a1.17 1.17 0 0 0 .17.1 2.04 2.04 0 0 1-.44-.24c-.69-.26-1.15.5-1.84.25.7.76 1.15.25 2.07.25.23 0 .46.26.69.5a.8.8 0 0 1-.7-.25l-.22.25c-.69-.5-1.15-.25-1.84-.25a.91.91 0 0 1 .13.19 3.1 3.1 0 0 0-1.33-.03c.23 0 .46 0 .5.38.39.07.8.47 1.06-.04a.38.38 0 0 0 .1.05v.71a2 2 0 0 1-1.6-.76h-1.6c.22.26.45.26.68.5-.69.76-1.6-.25-2.06.5a.99.99 0 0 0-.23-.75c-.9-.5-1.58-.02-2.46.48-.8-.15-1.2.35-.98 1.29-.23-.5-.69-.25-1.14-.25v.25a9.1 9.1 0 0 0-2.3 1c.46.5.92.26 1.38.26l.23-.25c0 .5-.69.76-.69 1.26-1.15.5-2.75.25-3.67 1.52.46.5.92 0 1.38.25l-.23.25c.69.5 1.37-.76 2.06.25-.69-.25-1.6.26-2.3.26 0 .25 0 .5.24.5h.91c-.23 0-.68 0-.45.5.2.43.72.12 1.16.18a.6.6 0 0 1-.02-.18c1.38 0 3.67-1.01 4.36 1h.46c0 .7.53 1.27.65 2.04l-.2.13-.15.07a.54.54 0 0 0 .36-.07 1.96 1.96 0 0 1 0 .38.39.39 0 0 0-.34.2.52.52 0 0 0 .34-.2 2.35 2.35 0 0 1-.2.73l.23.26c.46-.26.92-.26 1.14-.5 0 .25 0 .5-.22.5a1.68 1.68 0 0 1 1.14.5v.5c-.46-.76-1.37-.5-2.06-.5a1.3 1.3 0 0 0 .57.49c-.25-.05-.6-.17-.8.26 0 .26.23.26.16.45a12.86 12.86 0 0 0 1.44.06c.23-.74-.62-.29-.68-.72a4.5 4.5 0 0 0 1.6.21l-.03.07c-.2-.04-.41-.18-.38.14a.65.65 0 0 0 .31 0c-.6 1.09-2.4 1.4-1.96 2.82h.25c-.06.13.07.5-.25.5.46.5.23 1.27.91 1.77v-.5h.46v.75h-.46v.5l.23-.25a2.27 2.27 0 0 0 .7 1.52l2.05 1.51c1.15.76 1.15-.5 1.84-1.01a1.63 1.63 0 0 0 .23-1.01l-.23-.25a1.75 1.75 0 0 0 1.14-2.02l-.23-.26H61c.46-.25.23-1 1.38-.75zm-9.63-15.4v-.43a3.23 3.23 0 0 1 .51.48 2.4 2.4 0 0 0-.51-.05zm-15.96 6.23c.43.17.66-.36.17-.45-.32-.02-.5.32-.17.45zm11.6.59a.61.61 0 0 0-.21-.07c.02.06.07.07.21.07zm3.83 25.22c0-.27.02-.53.26-.54a.9.9 0 0 0-.98 0l.02-.21c-.26.27-.49.02-.48-.24l.26-.27a.92.92 0 0 0-.74.3 13.51 13.51 0 0 0 .74-1.4c.07-.46-.2.07-.43-.18a9.06 9.06 0 0 0-.92 1.87 9.45 9.45 0 0 1-.93 1.88 5.16 5.16 0 0 0 1.94-.36c0 .26 0 .26-.25.27l.73-.03c-.26.27-.5.55-.75.56.47.25.75-.56 1.25-.85l-.03.8.25-.28c0 .27 0 .27-.02.53l.51-.55c.01-.27.02-.53-.22-.52.24-.01.25-.28.26-.54 0 .26-.26.54-.52.81-.48-.24.27-.54.03-.79.25 0 .26-.27.5-.28zm21.02-26.8a.18.18 0 0 0 .14.06l-.14-.06zm45.29 56.2a2.9 2.9 0 0 0-.1 1.13c0-.16.32-1.04.1-1.12zM98.13 91.9c-.69-.25-.45.5-.91.76v-.25c-.46.25-1.15.5-1.38 1s.46 1.02.23 1.52c-.69 1.01-.46 2.27-.92 3.28.92.76 1.6-.25 2.07-1a9.33 9.33 0 0 1 1.37-3.54c0-.5-.23-1.26.23-1.77 0 .25 0 .25.23.25a5.58 5.58 0 0 1 .03-.7c-.03-.06.2-.3.2-.3-.23-.51-.23-1.02-.46-1.27-.23.76-.91 1.27-.69 2.03zm15.03-17.34a12.23 12.23 0 0 0-.16 1.86c.07 1.21 1.11.23.65-.85-.14-.33-.23-.88-.5-1zM43.5 25.9c-.15-.08-.4.15-.12.3.43.25.72-.5.12-.3zm22-23.73c-31.73 0-57.45 25.46-57.45 60.89s25.72 60.79 57.46 60.79 57.45-25.37 57.45-60.8S97.25 2.18 65.52 2.18zm47.28 46.07c-.39.72-1.05-.32-1.67-.1-.4.24.03.76-.38 1a1.13 1.13 0 0 1-.24-.77c.39-1 1.45-.44 2.29-.13zm-4.02-20.79l.21.3h-.3l.1-.3zm-.77 2.58c.69 0 .69-1 1.15-1v-1.02l.67 1.03a.82.82 0 0 1-.21.49c-.7 1-1.6 1.26-2.53.25.24 0 .69-.25.92.25zM41.91 9.77a.23.23 0 0 0 .05.07.7.7 0 0 0-.07-.06zm-.6.33a1.35 1.35 0 0 1 1.34.75 1.53 1.53 0 0 0-1.36-.74zm1.8 1.51c.23.5.68.25.91.25-.45.25-1.14-.25-1.6.25h.69c-.42.15-.91.22-1.4.35.68-.4 1.08-1.29 2.08-1.1-.45 0-.68 0-.91.5zm-.7 1.77a.65.65 0 0 1-.26.16c.07-.07.13-.16.27-.16zm-1.2-3.23a.71.71 0 0 1 .29.2 1.98 1.98 0 0 1-.65 0l.36-.2zm-2.91 1.76l.25.01a7.41 7.41 0 0 0-.43.1zM21.1 30.29h.69a1.08 1.08 0 0 0-.9-.31l.26-.42a3.17 3.17 0 0 1 1.48-.32c-.13.02-.26.12-.4.54.47 0 .93-.25 1.1.3-.4-.04.05.46-.18.46s-.45 0-.45-.25a.52.52 0 0 0-.46.5h.1c-.26.14-.47.5-.79.5.23-.25.46-.5.69-.5-.69-.5-.69.76-1.38.5 0-.5.23-.5.46-.75 0-.25 0-.25-.22-.25zm3.44 3.53c-.4.22-.45-.3-.6-.62.7 1.06 1.77.34 2.43-.39.23.26.46-.25.51.27-.28-.01-.5.5-.97.24v.5c-.91.5-1.83 1.77-2.98.76h.92c-.23-.5.46-.5.69-.75zm-5.73 9.6h-.3c.1-.07.2-.11.3 0zm100.31 27.02c-3.3 29.3-25.98 51.97-53.48 51.97-29.76 0-53.9-26.57-53.9-59.34a64.4 64.4 0 0 1 4.07-22.64.95.95 0 0 0 .1.35c.04.05.04.11.11.1a1.73 1.73 0 0 0-.17-.49.03.03 0 0 0-.02 0l.08-.24c.25.12-.07.73.33.73.36-.41-.14-.65-.23-.98l.08-.2c.05.07.15.11.17.02.02-.06-.05-.16-.1-.22l.14-.33a.26.26 0 0 1-.02.2c.23.26-.23.5 0 .77.23-.26.23-.51.46-.51l.23.25a.99.99 0 0 1-.23.76c.23.25.46-.25.7 0-.43.46-.09.92.15 1.38a.7.7 0 0 0-.05.34c.16 0 .2 0 .2.05l.03-.31a.33.33 0 0 0-.1-.09 1.21 1.21 0 0 1 .03-.26 2.54 2.54 0 0 1 .2 1.16l.22-.25c0 .25.23.25.46.25a.8.8 0 0 0-.69.26c.46 0 0 .5.23.5a.17.17 0 0 0 .03-.01c.15.67.93.3 1.35.76a.3.3 0 0 0 .23.5c.23.76.23-.5.46 0-.35.59.24 1.31.12 1.74-.12-.08-.12-.27-.12-.47a.8.8 0 0 1-.69-.26l-.23.26c0 .25.23.25.23.5 0 2.27-.46 4.29-.23 6.3.23.26 0 1.02.69 1.02a8.14 8.14 0 0 0 .46 2.52c.68-.25.91.76 1.37 1.01.46 1.27.46 2.78 1.38 4.04-.23 0-.46 0-.46-.25-.23.76.69.5.92 1-.23 1.02.45 1.78.91 2.53a1.64 1.64 0 0 0 .23-1h-.46c-.23-1.02-.7-2.28-.92-3.29a1.77 1.77 0 0 1-.69-2.02l.23-.25c.69 1.01.69 2.27 1.38 3.28.23 0 .45 0 .45.25v.78c.7 1.26 1.6 2.27 1.84 3.79h-.23c-.23.76.69 1 .69 1.51a11.35 11.35 0 0 1 2.52 2.27c.23.26.23 0 .23-.25 0 .25.23.5.46.25a.95.95 0 0 1 1.14 0c.23 1.52 1.84 1.77 2.76 2.53h-.23a.78.78 0 0 1 .45.25 3.83 3.83 0 0 1 .46 1.52 2.35 2.35 0 0 1 1.15 1 .99.99 0 0 1 .23.76h.69c0 .5.23.5.46.76a.99.99 0 0 0 .22-.76c0-.25 0-.75.46-.5.23 0 .23.25.46.5V76a22 22 0 0 1 .69 3.79c-.46 1.26-1.6 2.27-1.38 3.79.23 0 .23.25.46.25 0 .76-.92 1.26-.23 2.27a32.2 32.2 0 0 1 3.21 6.31l2.06 1.52c.92.5.46 1.77 1.15 2.27a20.86 20.86 0 0 0 0 3.79c-.46.76 0 1.77-.46 2.52a.76.76 0 0 1 .23 1.27l.23.25c-.23.75-.46 1.76-.69 2.52.7.76-.23 1.77 0 2.53h.7a3.5 3.5 0 0 0-.24 1.51c.23 0 .23 0 .23.25 0 .4-.27.79-.29 1.18-.08-.19-.24-.24-.4-.42-.46.25-.46.5-.46 1.01 0-.5.23 0 .46-.25.46.25.23.76.46 1a.57.57 0 0 1-.4-.08c.35.98 0 2.15.86 2.87.23-.26-.23-.51.23-.51v.5c0 .26-.23.26-.46.26-.23.76.46.76.92 1.26h.46v-.76c.45.26.68-.25.91-.5l.23.25c.23-.5-.46-.76-.46-1.26.23 0 .23-.25.23-.5.23.75.23-.5.46 0-.23-.77.46-1.02.92-1.52-.46-.5-1.15-.76-.92-1.52.92 0 .92-.75 1.15-1.51h.46v-.76c-.23 0-.23.26-.23.5 0-.25-.23-.25-.46-.25-.23-1.26.69-.76 1.37-.76v-1.26c.46.5 1.15.25 1.6.25.7 0 .47-1 1.15-1a5.03 5.03 0 0 0-1.37-1.77c.46-.26.92.25 1.37.5 1.07.2 1.72-.68 2.07-1.67a2.48 2.48 0 0 1-.23.15 2.18 2.18 0 0 1 .3-.38 6.07 6.07 0 0 0 .16-.63h.46l-.07.13a2.1 2.1 0 0 0 .75-1.14c-.45-1.51 1.15-2.52 2.3-2.78l-.23-.25c2.98.5 3.2-3.79 3.2-6.06a6.28 6.28 0 0 0 1.38-1.26 3.29 3.29 0 0 0 .45-3.8c-1.14-.24-1.82-1.25-2.97-1.76-.84.24-1.68-.8-2.52 0 0-1.01-1.6-2.27-2.52-1.51 0-.5-.23-.5-.46-.76h-.69c-.23-.5.23-.76.46-1 0-.5-.69-.26-.69-.77a3.57 3.57 0 0 0-3.9-3.03c0-.5-.23-.5-.46-.75l-.23.25A1.9 1.9 0 0 0 47.69 77c0 .5-.23 0-.46.25-.23-.5.23-.5.23-.75-.23-.5-.92-.5-1.15-1.01 0-.5.23 0 .46-.26h-1.14l.23.26c-.92.25-1.6-.26-2.52-.26l.23-.25c-.23-.5-.7-.5-.92-.76-1.15.26-.69 1.01-.69 2.02-.92-.5-.46-1.76-.23-2.52h-.46c-.23 0-.23.25-.23.5h-.45c-.23 0-.23.25-.46.5 0-.25 0-.25-.23-.25a.99.99 0 0 0-.23.76l.23.25c-.35.2-.7.39-.74.81a.8.8 0 0 0-.18-.3c-.23-.26-.92-.26-1.14-.76-.23.5-.7.5-1.15.5-1.15-1.27-.92-3.03-.69-4.55 0-.25-.23-.25-.23-.5a2.3 2.3 0 0 1-1.83-.5c0 .5-.23 0-.46.25.42-.46.26-1.14.23-1.84.06.05.14.08.2.12a17.67 17.67 0 0 1 .26-2.57c-.46 0-1.15.5-1.6.25a1.64 1.64 0 0 0 .22 1.01c-.23.25-.23.76-.69 1.01-1.83.76-2.3-1.51-2.52-3.03a12.01 12.01 0 0 1 .23-4.04l1.38-1.51h.92q0 .38.68.75c.23-.25-.22-.5.23-.5v.5c.23.26.23 0 .23-.25-.45 0 0-.76-.45-.5v-.5a.8.8 0 0 0 .68.25l.23-.25.23.25c.69-.76.69.5 1.38.5v-.49c1.14.5.69 2.02.91 2.78l.23-.25c-.23.5.23.75.46 1v.51c1.15-1.51-.46-3.28-.23-5.05a1.41 1.41 0 0 0 .69-1.26l1.83-2.02-.23-.25h.46c0-.25-.23-.76.23-1.01-.23 0-.46 0-.46-.26.61-.22.14-.64.19-.91a.29.29 0 0 1 .04.16c.23-.5-.23-1.01.23-1.52v2.27c0-.75.69-1.26.46-2.02.23.51.23-.25.46 0 .23-.25-.23-.5.23-.5-.23-.25.23-.5-.23-.5.23-1 1.14-.5 1.6-1.26 0 .5.23 0 .46.25 0-.25 0-.25.23-.25h-.46c-.23-.76.23-1.26.46-1.77v.26c.69 0 .69-.76.92-1.27v.26a10.24 10.24 0 0 0 2.08-1.13.76.76 0 0 1 .04.2.58.58 0 0 1 .4-.09c-.46.5-1.15.76-1.38 1.27v.49c.69.25.92-.5 1.15-1.01.23 0 .23 0 .23.25.69 0 .69-1 1.37-1v-.37c.18.28.65.01.88-.24-.22-.18-.44-.42-.18-.8-.2-.08-.85.6-.76.81a.58.58 0 0 0 .03.13l-.2.2c-.23-.5-.68-.25-1.14 0a3.93 3.93 0 0 1-.46-1.76v.25a1.8 1.8 0 0 1-.23-.34.9.9 0 0 0 .46-1.17 4.93 4.93 0 0 0-3.21 2.27c0-.76.69-1.01.92-1.77a3.35 3.35 0 0 0 2.06-1.51c1.37 0 2.98.25 4.13-1.27h.45c.23-.25.7-.5.92-.75-.23-.5.23-1.01-.23-1.27a.8.8 0 0 0-.69.26c0-.26 0-.26.23-.26 0-.25 0-.5-.23-.5-.45.25-.91.76-1.37.76v-.5c.69 0 .92-.5 1.6-.5-.46-.26-.91-.76-1.6-.76l-.46-.5c-.46-.76-.23-2.02-.69-2.78-.46-.25-.69-.5-.46-1.26a5.6 5.6 0 0 0-1.14 2.02c-.46 1-.92 0-1.6 0a2.97 2.97 0 0 0-1.38-3.03c-.7 0-1.6.5-2.3 0 .23.25-.23.75.23.75l-.46.5a4.06 4.06 0 0 1-.45 2.28c1.37 1.26.23 3.03-.92 3.78a6.8 6.8 0 0 1-.23 3.03c0-.25 0-.25-.23-.25.23.25-.46.25-.23.5a3.25 3.25 0 0 1-.69-3.53 2.67 2.67 0 0 0-1.37.25v-.5c-1.22-.22-1.9-1.23-2.98-.77a1.72 1.72 0 0 0-.92-1.75c0-1.27.92-2.27 1.37-3.28h.46c.23-.26 0-.26-.23-.26h.46c.23 0 .23-.25.46-.5-.23-.5-.69-.25-.92-.25.46-.76.7-.26 1.15 0v-.76c.23 0 .46.5.69.25q0-.38.69-.76a.91.91 0 0 0 .23-.5c-.46 0-1.15 0-1.38-.5.46-.26.92.5 1.38.25 0-.26 0-.5.45-.5v-.5c.46-.26.7.24 1.15 0a.44.44 0 0 0-.12-.38c.49.2 1.13-.54 1.5-1.14-.4 0-.3-.53-.53-.55.3-.16.36-.75.75-.97h-.45v-.51h-1.6v.5c0 .26.22.26.45.26-.69.25-.46 1-1.14 1.26v.5c-.23 0-.46 0-.46.25-.46-.25-.23-.75-.23-1 .46 0 0-.26.23-.51-.7-.76-.7.25-1.15.5a1 1 0 0 1-.23-.75l.23-.26c-.46 0-.69-.25-1.15-.25.23 0 .46 0 .46-.25-.23 0-.23 0-.23-.25h.46c-.23-.26-.46-.5-.46-.76l.23-.25c-.23-.5-.68-.26-.91-.26l.23-.25h-.7v.76l-.22-.25c-.46.25-.46.76-.46 1.26.23.5.69.5 1.38.5a3.48 3.48 0 0 1-.7 1.02c.24 0 .46 0 .46-.5v.5a3.33 3.33 0 0 0-.93 1.25c-.21-.22-.21.02-.21.27l-.23-.26a.98.98 0 0 0 .23-.75c-.46 0-.69-.5-1.15-.26v.5a.8.8 0 0 1 .69.26c-.46.25-.46-.76-1.15.25a3.4 3.4 0 0 1-2.98-1.01c-.23.5-.69.5-1.14.76a.84.84 0 0 0 .93-.11 1.87 1.87 0 0 0-.48.61c-.22.25.23.5.23.76 0 .22-.17.26-.2.43a2.25 2.25 0 0 1-.48-.43c.45 0 0-.25.23-.5h-.46c-.23 0-.23-.25-.46-.5a2.62 2.62 0 0 1-2.3.5c-.22-.5.46-.5.7-.76-.24-.25-.46-.5-.7-.5s-.22 0-.22.25a2.1 2.1 0 0 1-1.29-.53l1.06-1.46c.83.1 1.81-.36 2.52.23-.23 0-.46 0-.46.25a2.9 2.9 0 0 0-2.52.25c.46 1.01 1.83.25 2.3 1.52.9-.5 2.28-.26 2.74-1.52v.5c.69 0 1.38.76 2.07 0v-.5c-.23 0-.46 0-.46.25 0-.25 0-.25-.23-.25.46 0 .69-.5 1.26-.36-.11-.4-.57-.65-.8-.9s-.23 0-.23.25l-.7-.76h.24c0-1.01-.46-2.53-1.6-2.27.23.5 0 1.26.46 1.76-.23 0-.23 0-.23.26-.46 0-.46-.51-.46-1.01-.23-.26-.23-.76-.92-.51l.46.5c-.23 0-.69.26-.92.26-.23-.25.46-.5 0-.76a.82.82 0 0 0-.2-.08q1.03-1.2 2.1-2.34a2.1 2.1 0 0 1 .86-.1c.37-.21.28-.6.24-1l.63-.62c.03.04.1.07.25.07-.23 0-.23 0-.23.25h.45l-.23.25a2.48 2.48 0 0 0 .36-.03.64.64 0 0 0-.12.15c.26.07.39-.24.6-.23-.07.05-.12.16-.12.4h-.23l.23.25c.46-.25.69-.5 1.38-.25h-.46v.76c.46-.26.91-.26 1.37-.5-.23 0-.46.25-.46-.26.46 0 .23-.5.46-.75-.23-.26-.23-.5-.68-.42a1.77 1.77 0 0 0-.7-.1c0 .5.24.5.47.76-.46.25-.7-.5-1.15-.5v.5c.23 0 .46 0 .46.25-.16 0-.42-.23-.57-.14a.34.34 0 0 0-.25-.03.58.58 0 0 0 .1-.37c-.31.17-.4-.22-.55-.42q.9-.85 1.83-1.65a1.04 1.04 0 0 0 .33.06 1.25 1.25 0 0 0 .04-.37l.5-.42c.05.28.4.28.6.27-.22 0-.23.26-.45.26.22 0 .45-.26.44.24.46-.26 1.14-.27.93-1-.28.15-.63-.15-.95-.23q.48-.4.98-.77v.03c.21 0 .23 0 .23-.21l.05-.04c.17 0 .18.02.18.25.23 0 .23 0 .23-.25.23 0 .68-.25.91.25h.7c-.47.5-1.38-.25-1.84.5.13.3.42.25.68.26v.5c.24 0 .46.25.7.25s.43.23.45-.2c.15-.05.3-.22.46-.05l.69-.76a6.7 6.7 0 0 1 .7-.29l-.01.04c.23 0 .46 0 .53-.17a1.35 1.35 0 0 0-.19-.04 1.77 1.77 0 0 0 .35-.3c-.2-.21-.56-.25-.94-.41-.02-.22-.11-.45.02-.6h-.92v-.5a.61.61 0 0 1-.58-.01l.63-.43c.21.23.42.44.63.44a2.69 2.69 0 0 1 .8-.79 2.4 2.4 0 0 0 .58-.22l-.35.1a2.14 2.14 0 0 1 1.5-.1c-.46.5-1.38 0-1.84.5 0 .25-.23.25-.23.5a2.94 2.94 0 0 0 1.92-.3.5.5 0 0 0-.08.3 1.36 1.36 0 0 0 .43.01 2.23 2.23 0 0 0-.43.24c.22.49.65.5 1.1.74a2.81 2.81 0 0 1-.41.02c-.7-.25-1.6-1.26-2.53-.5v.5c.23.5 1.15.25 1.38.76a.83.83 0 0 1-.34-.05c.46.6 1.07-.41 1.49.05-.18.38-.49.33-.73.28.04.03.04.1.04.22a1.95 1.95 0 0 0-2.3.26v.5c.24 0 .24 0 .47-.25s.22.5.45.25l.07-.07a2.66 2.66 0 0 1-.3.58c.34-.19.43.16.63.27a.94.94 0 0 1-.63-.02c-.22 0-.22-.25-.22-.5-.46 0-.92-.26-1.15.25 0 .5.69.25.69.75a2.67 2.67 0 0 0-1.38.26v.1a.18.18 0 0 0-.12-.04s-.23.25-.13.16c-.1.33.12.32.34.32v-.07c.4-.12.63.51 1.06.28-.23 0-.23-.26-.23-.5l.46.5a3.24 3.24 0 0 0 .53-.03 4.76 4.76 0 0 0 .61.03c-.13 0-.19-.1-.2-.22.13-.04.43-.37.43-.04.23 0 .23 0 .23-.25.23 0 .23 0 .23.25.23 0 .46 0 .46-.25.23.25.69.25 1.14.25-.23-.75 1.15 0 .92-1-.63.23-1.26-.4-1.9-.1a.84.84 0 0 0 .07-.42 2.3 2.3 0 0 0 1.83 0c-.23-.25.23-.5-.23-.5.46-.25.92.25 1.38-.25h-.46c0-.5.68 0 .68-.5h.23v-.5h-1.37a.8.8 0 0 1 .68-.26h-.45c.45-.25.91.25 1.37-.25h-1.1a1.44 1.44 0 0 1 .64-.26l.23.26c.23-.5.69-.26.92-.26a1.24 1.24 0 0 0-.04-.35 1.97 1.97 0 0 0 1.41-.4l-.22-.25h.22v-.5c1.15.25 2.07-1.01 3.21-1.26a2.36 2.36 0 0 0-1.16 0h.02c-.46-.26-.92.25-1.15-.26 1.37 0 2.75 0 3.9-1-.23-.51-.69-.26-1.15-.26v-.5c-.5.37-1.24.2-1.87.28a.78.78 0 0 1 .5-.28c-.46 0-.92-.25-1.15.25-.69-.5-1.38-.25-2.06-.25-.23 0-.23.25-.46.25-.39-.2-.82-.35-1.15 0 0-.25-.23-.25-.46-.25a.56.56 0 0 1-.02.19c.33-.02.52.36.71.57 0 .25-.23.25-.46.25l.23-.25c-.23-.26-.69-.26-.91-.5-.07.12-.16.12-.26.06A49.59 49.59 0 0 1 65.64 3.7a51.11 51.11 0 0 1 36.54 15.73 6.92 6.92 0 0 0-1.53.75l.23.25c0 .5-.69.5-.69 1.01h-.45c-.23.25 0 .25.22.25 0 .5-.68.26-.68.76a1 1 0 0 1-.23.76c0 .25-.23.5.15.63.3.13.3.38.53.38h.46l-.23.25c.23.76.92.5 1.6.5-1.37-1-.68-3.03.46-3.79l-.22-.25c.22.25.45-.25.68 0a2.22 2.22 0 0 1 .55-.62q1.84 1.96 3.51 4.1a7.1 7.1 0 0 1-.62.81 3.49 3.49 0 0 1 .23 1.52h.46v.76c.23 0 .23 0 .46.25.23.5-.46.25-.23.5a5.5 5.5 0 0 0-3.67-2.02c0 .26-.23.5.46.76-.46 0-.46.5-.92.5V27c-.91.5-1.83 0-2.75.5-.23-.25.46-.5.23-.76-.69 0-1.38.5-2.06.5v.5c0-.25-.23-.25-.46-.25 0 .25.46.76-.23.76-.23-.25-.69-.25-1.15-.5v-.5h.7c0-1.02-.93-.76-1.6-1.02 0 .26.22.26.45.26 0 .75.46 1.76.23 2.52 0-.5-.23-.5-.46-.76h-.69c-.46.26-1.14.76-.46 1.52-.45.25-.91-.25-1.37-.25V29h-.46v.5c.23.51.69.51.69 1.02a2.41 2.41 0 0 1-1.78-1.78c.37-.02.17-.26.17-.5-.56-.2-.97-.9-1.47-1.3 1.07.6 2.28.88 3.3 1.55.47-.25.92-.25 1.15-.75-.45-1.52-2.06-1.77-3.2-2.78l-.24.25c-.45 0-.91-.5-1.37-1a1.33 1.33 0 0 1 .24.01l-.24-.27c-.69.76-1.15-.25-1.6-.25.22 0 .68.25.91-.25-.41 0-.64-.61-1.01-.73.02-.08-.05-.12-.36-.03h-.7v.5c-.22 0-.22-.25-.22-.5-.23.25-.23.5-.46.76v-1.01h-.46c-.23.25-.69.5-.69 1a.94.94 0 0 0-.98-.5c.07.1.12.31.21.3-.7.4-1.97-.24-1.75 1.22-.23 0-.46-.25-.69-.25 0 .25 0 .25.23.25 0 .25 0 .5-.23.5s-.22 0-.22-.25c-.46 0-.46.25-.7.5A4.55 4.55 0 0 1 80.02 27c.23 0 .23 0 .23.25h-.69c-.23.25.23.5.23.76h-.46c-.69.5-1.14 1.01-2.06 1.01.23 0 .23 0 .23.25h-.46c0 .5-.69.5-.69 1.01v1.52h.46c0 .25 0 .5-.23.5 0 .25.69 0 .46.5h-.46a.91.91 0 0 0 .23.5c1.15.76 2.3-.25 2.75-1.26a5.01 5.01 0 0 0 1.15 2.54c.23.25 0 .75.23 1l-.23.26c.23.5.68.5 1.14.5v-.5c.23 0 .46 0 .46-.25l.23.25a6.45 6.45 0 0 0 .46-2.02c.69 0 .69-.76.92-1.26 0-.76-.92-.5-.92-1.01v-1.52l1.37-.76c.92-.25.46-1.26.92-2.02.23.26.69.26 1.15.26 1.14 1-.7 1.51-.92 2.27h-.46a4.94 4.94 0 0 0 .46 2.52h.69c0 .26 0 .5.23.5.92.26 1.83-.5 2.75-.25v.5a2.03 2.03 0 0 1 .22.01l-.45.5c0-.26-.23-.26-.46-.26l-.23.26c-.69-.76-1.14.25-1.83 0v.5c.69 0 .46.76.92 1.26-.46.76-1.15-.25-1.38-.5 0 .25-.23.25-.46.25a2.06 2.06 0 0 0 .23 2.02 2.02 2.02 0 0 1-2.06 0 6.87 6.87 0 0 1-2.06.76v-.5c-.46 0-1.15-.26-1.61.25.23-.26-.23-.5.23-.5h-.92c-.69-.76 0-1.52.46-2.02-.46.25-.46-.5-.92-.26-.68.26-.68.5-.68 1.27h.45c-.22.75.46 1.26 0 2.02-.22-.26-.22-.5-.45-.5-1.38-.5-2.07.75-2.53 2.01a.81.81 0 0 0-1.14.5v.5h-.46c-.23 0-.23.26-.23.5-.46 0-.92.26-1.38-.5 0 .26-.23.76.23 1.02l-.23.25c-.68-.5-1.14-.25-1.83 0 .23 1.26 2.06.5 1.83 1.77 0 .5.92 0 .7.75h-.47c0 .26.23.26.46.26a6.08 6.08 0 0 0-.23 2.01 33.82 33.82 0 0 0-5.04-.25v.5c.92 1.02-.46 2.53-.23 4.05h.46c-.46.5-.23 1-.23 1.51.91 0 1.83 0 2.29 1.01l.46-.5c1.14-.25 2.52-.25 2.98-1.77-.46-1.51.92-2.52 2.06-3.03v-1.5c.92 0 1.38.5 2.3.5a5.65 5.65 0 0 1 1.6-1.01c.69.25.69 1 1.15 1.51v.5a4.8 4.8 0 0 0 1.37 1.01c.23.76 1.15 1.01 1.6 1.77v1.52c.24-.76.7-1.51.46-2.27h.46c0 .25 0 .5.46.5-.23-1.01-1.6-1.26-1.83-2.27h-.46c-.69-.5-.92-1.77-1.6-2.28 0-.25.23-.25.46-.25-.23-.25-.46-.25-.46-.76a.6.6 0 0 1 .95.56c.13-.09.34-.15.2-.3.45.25.68 1 .91 1.51a.8.8 0 0 1 .69.25 11.28 11.28 0 0 1 1.6 1.77c-.23 1.01.46 1.77.46 2.53h.46c.23.25-.46.25-.23.5l.64.23h-.04c.01.55.03 1.38.53 1.67l.23-.27.25.29a1.9 1.9 0 0 0-.23-.96.6.6 0 0 0 .44.14 3.6 3.6 0 0 0-.78-.72l1.02.37v-.3l.22.23a2.03 2.03 0 0 1-.14-.38c-.04-.4-.5-.46-.65-.47-.26-.5.04-1.12-.57-1.35a1.16 1.16 0 0 1 .91.5c.23.26.23-.5.46-.25-.23-.25-.46-.25-.46-.75a5.16 5.16 0 0 0 2.75.25c-.23-.76-1.14-1.27-.91-2.27h.68c0-.26-.23-.26-.23-.51.46-.76.7-1.77 1.38-2.27 0 .5.23 0 .46.25h-.46c.23.5.69.5 1.15.5 0 .26 0 .51-.7.51a1.83 1.83 0 0 1 .8.78l.13-.02a.8.8 0 0 1 .69.25l-.23-.25.23-.25c-.46-.26-.23-.76-.23-1.01a2.87 2.87 0 0 1 1.8-.5c-.12.13-.1.5-.43.5 0 .25 0 .25.23.25-.23.5-.46.76-.92.76a7.7 7.7 0 0 1 2.3 2.52l.45.25v.76c-.69 1.01-1.83 0-2.75-.25v-.5l-.23.25c-.23 0-.23-.25-.23-.5 0 .5-.23 0-.46.25l-.22-.25c-.64.24-1.28.9-2.1.79.03.03.03.09.03.22a3.57 3.57 0 0 1-1.6.25v.76l.22-.25v1.23c.24.08.28.59.46.79 0 .25 0 .5-.23.5h.46c-.23 0-.46 0-.46.25.69 0 1.15-.25 1.84.5a1 1 0 0 1 .23-.76 4.8 4.8 0 0 0 1.37 1.01c0-.25.23-.25.23-.5h1.15c0 .5-.46.75-.23 1.26l.23.25c-.7 1.01-.46 2.53-1.6 3.28-.47-1-1.38-.5-2.07 0a6.82 6.82 0 0 0-2.06-.75v-.5c-.92.25-1.15-.5-1.84-.76-.23.26-.68.26-.91.5v1.01c-.46 0 0 .76-.46.76-.7-1.26-2.07-.76-2.52-2.27-.92-.25-2.07 0-2.53-1.01 0 .5-.23 0-.45.25l-.23-.25c.23-.76 1.14-1.52.45-2.27-.22-.26.46-.26.23-.5-.45 0-.68-.5-.91-.76-.23.25-.46.5-.69.5-.69-.5-1.38 0-2.06 0-.23 0-.23-.25-.46-.25a5.33 5.33 0 0 0-3.67 1.52c-.92.25-1.6-.5-2.52-.26-.23 0-.23-.25-.23-.5-.46.25-.46 1-.69 1.51-.46.76-1.15 1.01-1.83 1.52 0 .76-.46 1.51-.23 2.27-.23.25-.23.5-.46.76a3.13 3.13 0 0 1-1.84 1.26c-.45 2.02-1.83 3.54-2.52 5.3 0 2.02 1.38 4.55-.46 6.06.23.5.46 1.26.92 1.52h-.46c.46 1.76 2.3 3.02 2.75 4.8a2.92 2.92 0 0 1 1.15 1.26c.23.76 1.15.5 1.6 1 1.38-.24 2.75-.75 4.13-.24a3.56 3.56 0 0 1 4.58-.51v.5h.46v.5c0-.25.23-.25.23-.5a.8.8 0 0 1 .69.26c.23 0 .23-.25.23-.5 1.38.5.92 1.76.46 2.77h.46c-1.15 1.52 0 3.03.91 4.3v.76c.69 1.76 1.15 4.03-.46 5.3-.45.75 0 1.51-.45 2.27a6.42 6.42 0 0 1 1.14 5.05c.92 1 .92 2.52 1.6 3.53-.22.25-.45.25-.45.5v.5h.46c.23 0 .23.25.46.5 0-.5.68 0 .68-.5.92 0 1.6-.5 2.53-.25a15.54 15.54 0 0 0 3.9-4.04c-.23-.5.23-.76.23-1.26h-.23c.68-.5 1.83-1.26 1.83-2.53v.26c.23-.51-.23-1.27-.23-1.77 1.15-1.26 2.52-1.77 3.44-3.28.23-1.77-.46-3.54 0-5.3l-.23-.26a9.73 9.73 0 0 1 1.6-3.53c1.84-1.26 2.53-3.54 3.9-5.05l1.38-3.79a.99.99 0 0 1-.23-.75c-1.15.75-2.52 1.76-3.9.5 0-.26.23-.26.46-.26v-.75h.92c.23 0 .23-.25.23-.5.45.25.91-.25 1.37-.25 0-.25 0-.5.69-.5a2.34 2.34 0 0 0 1.15-1.02v-.5c.91 0 1.37-1.26 2.29-1.76-.23-1.01.69-1.77 1.14-2.53-.6-.88-1.7-1.37-1.7-2.48a.87.87 0 0 1-.13.21 3.67 3.67 0 0 1-.92 1.01h-.91v-1.52c-.46.25 0 .76-.46 1a3.42 3.42 0 0 0-.92-2.52c0-.5-.46-1.26-.23-1.76 0 .25.23.25.46.25v-.5c0 .5.46 0 .69.25a2.52 2.52 0 0 0 2.2 2.77.27.27 0 0 0-.1.15c0 .01.48-.28.4-.32a.24.24 0 0 0-.05 0l.07-.08c.23 1.52 2.06 1.77 3.2 1.27l.24.25c.23-.5.68-.25.91-.25 0 .75.46 2.02 1.38 1.76-.23.26-.23.5-.69.5.23.26.23.77.69 1.02.69.25.69-.5.69-1.01.45 1.26 0 2.78.23 4.04.45 1 .45 2.27.91 3.28v1.26c0 .5.46.76.7 1.01-.24-.25.45-.5.22-.75h.46v-.51a.52.52 0 0 0 .46-.5c-.23-1.01.23-2.02 0-3.03 1.14-1.52 2.75-2.78 3.2-4.54.24.5.7.25.92.25v-.5c0 .25 0 .25.23.25v-1a1 1 0 0 1 .23.76c0-.25 0-.25.23-.25 0 .25.46.5.23 1a5.03 5.03 0 0 1 .96 2.17l-.1.98a2.41 2.41 0 0 1-.17.4zM20.24 46.78a.52.52 0 0 1-.29.18c0-.38.13-.19.3-.18zm17.82-19.01l.23-.25a.84.84 0 0 0 .25.32 1.18 1.18 0 0 0-.48-.07zm-1.6-12.37c-.23 0-.46 0-.46-.25a.45.45 0 0 1 .46.25zm4.36.25c-.13.14-.26.28-.4.4.09-.2.11-.4.4-.4zm5.04-2.78a1 1 0 0 1 .68-.24.8.8 0 0 1-.68.24zm1.37-1.51a.94.94 0 0 1 .78-.25c-.25.09-.52.18-.78.25zm58.08 36.41c-.28.07-.3-.19-.3-.44.2.01.42.02.43.28l-.13.16zm0 0zm-.22 1.62c-.21 0-.42-.02-.43-.28-.22-.26.14-.73-.22-1.01a.55.55 0 0 0-.05-.3c.21.02.21.02.22.28a.16.16 0 0 0 .18-.14 1.02 1.02 0 0 0 .03.15c.65.3.04.77.27 1.3zm-.86-.3c-.13-.3.02-.51.13-.73.03.25.16.56-.13.73zm.57-1.24a2.51 2.51 0 0 0 0-.27c.02.26.23.27.36.37.25.54-.25-.16-.35-.11zm-2.07 6.92c-.42.25-.84.5-1.28.22s-.45-.82-.88-.83c-.23-.55.18-1.06-.05-1.6-.02-.53.85-.22.4-.77a11.92 11.92 0 0 1-1.23-2.2 3.9 3.9 0 0 1-.26-2.33l.23.27c.41-.5 1.05-.71 1.46-1.2.24.53.65.04.87.31a4.12 4.12 0 0 0 .29 1.57 1.79 1.79 0 0 0-1.09-.33l.04.78c-.02-.26-.02-.26-.23-.27l-.2.25c.44.29.46.8.7 1.34l.42.03c.25.8-.35 2.08.52 2.38 0 .26-.41.5-.19.78l.2-.25c.44.28.25.8.2 1.13a2.66 2.66 0 0 1 .08.71zm-7.58 14.16c.46-1.26-.46-2.78-.92-4.04.23 0 .23 0 .23-.25-.23 0-.46 0-.46-.26a11.91 11.91 0 0 0-.87-3.7 5.52 5.52 0 0 1 .64 1.18c0-.5-.23-1.27.23-1.77 0 .5.23 1-.23 1.51 1.15.76 1.38 2.78 2.3 4.04v1.52c1.53 1.44 1.39 3.8 1.57 5.78-.91-1-2.03-1.76-1.8-3.26zm-5.27-35.6c-.23 0-.45 0-.46-.24a.7.7 0 0 1 .46.23zm-1.84-10.37v.27c-.19 0-.1-.14 0-.27zm-.27 29l.05.05-.04-.05zM95 86.16c.1-.25-.07-.33 0 0zM77.52 82.8c0 .02 0 .05 0 0zm-28.24 35.54c-.09-.4-.53.06-.76-.19.23.25.68.02.92.5 0-.24 0-.24-.16-.32zm-2.11-1.27c-.05-.15-.28-.15-.5-.16.23.24.46.49.69.26 0 0-.23-.01-.2-.1zM19.25 45.84a.76.76 0 0 0 .47.1c-.23-1-.68-1.76-1.83-1.76.23.76.92.76.92 1.52 0-.26.23-.26.45-.26v.4zm31.3 72a4.14 4.14 0 0 1-1.63-1.55c-.46-.26-.68.2-.9.2 0 .23.01.47.24.48 0-.24.22-.23.45-.22l-.44.45c-.22.47.68.02.47.49-.44-.46-.85.13-1.28 0a3.42 3.42 0 0 0 1.4.24 3.23 3.23 0 0 1 1.49.28c0-.23.22-.23.45-.22-.01-.24-.01-.24-.24-.15zm-33.8-78.02v-.02c-.46.01-.08.69 0 .58a.62.62 0 0 0 0-.56zM40.93 24.7a.41.41 0 0 0 .28-.07c.09-.12-.56 0-.58 0 .04.07.28.34.3.06zm.8.27c.05-.24-.6.27-.62.46-.01.1.57-.31.6-.46zm-4.53-5c.42-.35.41-.11.62.12.7-.51 1.8-.1 2.49-.6.2.46.66.2.89.19.45-.03-.2-.7.7-.51.25-.72-.46.26-.44-.22a.56.56 0 0 0 .47-.5l-.28.02-.62.03.23-.25a3.3 3.3 0 0 0-2.49.6l.23-.01c-.46.26-.67-.21-1.12-.2 0 .25-.23.26-.45.27-.21-.47-.66-.46-.87-.69.22 0 .66.22.9-.28-.69.51-.64-.94-1.33-.43a.83.83 0 0 1-.68.27c-.2-.73-1.11-.46-1.56-.44-.01.24-.01.24.21.24-.22 0-.22 0-.23.25.45-.02.44.47.9.21l-.23.26c.44.22.68-.27 1.13-.29.43.47.18 1.2.16 1.69.43.46.88.2 1.37.27zm5.22 5.53c.46.25 0-.5.46-.5h-.46zm0 4.04c-.15 0-.3 0-.45-.02v.02zm-1.37 1.01c-.23-.08-.21.32-.02.3.34-.05.23-.44.02-.3zm1.27-5.84c-.13.03-.36.03-.36.29.23-.26.46.25.35-.29zm-6.78-8.3a2.8 2.8 0 0 1-.97-.12c-.17.37-.4-.13-.4.37.46-.25.91.5 1.37-.25zm-3.83 10.6c.26-.06-.1-.56 0 0zm.85-1.5c.7.75-.91.24-.46 1 .46 0 .7.5 1.15.25.23 0 .23-.25.46-.5a.49.49 0 0 1-.33-.12c.1-.38-.13-.38-.36-.63zm1.32-6.37c.06 0 .25.05.28-.07.05-.24-.5.07-.53.1.13.28.18-.05.25-.04zm-.63 3.33v-.5h-.15a.92.92 0 0 0 .15-1.01c-.23.5-.69 0-1.15.25-.45 0-.45.25-.45.76 0-.25.22-.25.45-.25 0 .25-.45.5-.23.75-.45.26-.68-.5-1.14-.5v.76c.69.5 1.37.5 1.83 1.26l.23-.25-.23-.25h.92a3.85 3.85 0 0 1 .11-1.18c-.11-.1-.34.16-.34.16zm1.92-3.22c-.43-.47-1.11-.2-1.36.53H34c.26.47.71.21 1.16.2l.23-.26c-.22 0-.22-.23-.2-.48zm14.13 7c-.23 0-.46 0-.46.26 0-.25 0-.5.23-.5h-.69v-.5c-.69.25-1.15-.26-1.83-.5a.99.99 0 0 0 .23-.77c0 .5.23 0 .45.26l.23-.26c-.23-.25-.68.5-.68-.25 0-.25 0-.25.23-.25 0-.25 0-.5-.23-.5l-.46.5h-.46l.02-.01c-.52-.06.32-.22.43-.24.2-.1.37-.22.24-.5-.23-.26-.69.25-.92-.26l-.23.25a1.56 1.56 0 0 1 .03-.4c-.26-.61-.72-.36-.95-.36l-.23.25v-.5c-.23.76-.45.25-.68 0v-.5h-1.6l.23.25c0 .25-.23.25-.46.25l-.23-.26c0 .47-.6.07-.68.42.05-.45.43-.7.22-1.18-.46.26 0-.75-.46-.5s-1.38 0-1.6.76l.22.25h-.46c-.22.5.23.76.23 1.01-.23-.25-.45.26-.68.26h.68c.19.4-.2.48-.26.75-.39-.05.02-.75-.42-.5V21.7c0-.76.91-.5.91-1.26-.45-.25-.91.25-1.37.25-.46.25-.69.76-1.15 1.01 0 .5.23 1.26-.23 1.77.46.25.92-.25 1.15.25-.23 0-.69-.25-.92.25.92.76 2.3.26 3.44.76l-.23-.25h1.6c-.22-.25.23-.5-.22-.5h.68c.23 0 .23.24.23.5h.7v.5l.22.25.23-.25v.5h.46c1.37.76-.23 1.77-.69 2.53h.46c0 .5-.23.5-.46.5-.69-.26-1.38.5-2.06.76a2.1 2.1 0 0 0 .91.23c0-.48.23-.23.46-.23 0 .5.23 0 .46.25 0-.5.23 0 .46-.26a1.67 1.67 0 0 0 1.14.5c0 .26-.23.26-.45.26 0 .25.23.25.23.5h.91v.5a2.66 2.66 0 0 1 1.38.26l.23-.26c-.23-.5-.69-.75-1.15-1.26.69.25 1.38 0 1.84.76v-.5c0-.25.23-.25.45-.5-.45-.51-.68-1.02-1.37-1.27 0-.25 0-.25.23-.25-.23 0-.46-.5-.69-.5h.46V27c.17 0 .35 0 .42-.12.04.2.45.41.27.62a1.13 1.13 0 0 1 .45-.25c-.23.25 0 .75.23 1h.46c0-.75.46-.5.92-1-.23-.5.69-.26.23-.76-.23.01-.23.01-.23-.24zm-10.6-2.73c-.07-.08-.25.15-.42-.04h.43a.25.25 0 0 0 0 .04zm2.8-2.05c.45 0 1.14-.5 1.6-.26 0-1-1.15-.75-1.7-.7a1.53 1.53 0 0 0-.37-.05v.5c.47-.25 0 .5.47.5zm.47 5.25c.22.35.79.07 1.09-.26a1.2 1.2 0 0 1 .02-.6s-.32-.19-.42-.06c-.34-.06-.85.62-.69.92zm4.06-2.98c.16-.02.28-.07.28-.25h-.01a1.71 1.71 0 0 0-.43.23l.15.01z" fill="#bdbdbb"/><path d="M65.19 0c36.26 0 63.34 22.89 63.34 60.44 0 36.1-25.47 65.93-64.31 65.93-44.17 0-62.54-34.33-62.54-63.35C1.68 36.91 20.7 0 65.18 0zm3.38 120.24c14.5 0 44.49-8.38 44.49-55.28 0-38.69-23.53-59.48-49-59.48-26.92 0-47.07 17.73-47.07 53.03 0 37.55 22.57 61.73 51.58 61.73z" fill="#bdbdbb"/></svg>