<svg version="1.1" id="Layer_1" xmlns="http://www.w3.org/2000/svg" x="0" y="0" viewBox="0 0 48 48" xml:space="preserve"><style>.st1{fill:#000}</style><path d="M28.2 47.8h-8.5C9 47.8.2 39 .2 28.2v-8.5C.2 9 9 .2 19.8.2h8.5C39 .2 47.8 9 47.8 19.8v8.5c0 10.7-8.8 19.5-19.6 19.5z" fill="#000" stroke="#000" fill-opacity="0.0"/><path class="st1" d="M25.6 24v-9.1-.7c-.2-.9-1.1-1.4-1.8-.9-1.9 1.4-3.6 2.8-5.5 4.1-.7.6-1.4.8-2.3.7-1.1-.1-2.3 0-3.4 0-1 0-1.5.5-1.5 1.6v8.5c0 1 .5 1.5 1.5 1.5h3.9c.4 0 .9.2 1.3.4 2 1.5 4 3 6 4.4.5.3.9.4 1.3-.1.3-.4.5-.9.5-1.4v-9zm11.3.7c0-2.9-.5-4.9-1.5-6.9-.9-1.8-2.3-3.2-4-4.2-.8-.4-1.7-.1-2 .6-.3.9.1 1.7.9 2.2 1.6.9 2.8 2.1 3.5 3.7 1.4 3.4 1.2 9-3.6 11.5-.9.4-1.2 1.6-.8 2.4.3.6 1.3.7 2.1.2.2-.1.4-.2.5-.3 3.5-2.4 4.7-6 4.9-9.2zm-4.8-.7c-.2-2.2-.8-4.2-3.1-5.3-.2-.1-.5-.2-.7-.1-1 .5-1.3 1.6-.6 2.5.3.4.8.6 1.1.9 1.3 1.2.9 3.5-.6 4.3-.5.3-.9 1-.9 1.5s.5 1.1.9 1.5c.1.1.7 0 1-.2 2.1-1.1 2.6-3 2.9-5.1z"/><path class="st1" d="M25.6 24v9.2c0 .5-.3 1-.5 1.4-.3.5-.8.4-1.3.1-2-1.5-3.9-3-6-4.4-.3-.2-.8-.4-1.3-.4-1.3-.1-2.7 0-3.9 0-1 0-1.5-.5-1.5-1.5v-8.5c0-1 .5-1.5 1.5-1.6 1.1 0 2.3-.1 3.4 0 .9.1 1.6-.2 2.3-.7 1.8-1.4 3.6-2.8 5.5-4.1.7-.5 1.7-.1 1.8.9V24zM36.9 24.7c-.2 3.3-1.4 6.8-4.8 9.3-.2.1-.4.2-.5.3-.8.5-1.8.4-2.1-.2-.4-.8-.1-2 .7-2.4 4.8-2.6 5-8.2 3.6-11.5-.7-1.7-2-2.9-3.5-3.7-.8-.5-1.1-1.3-.9-2.2.2-.7 1.2-1 2-.6 1.8 1 3.2 2.4 4 4.2 1 1.9 1.5 3.9 1.5 6.8z"/><path class="st1" d="M32.1 24c-.3 2.1-.8 4-2.9 5.1-.3.1-.8.3-1 .2-.4-.4-.9-1-.9-1.5s.5-1.2.9-1.5c1.5-.9 1.8-3.2.6-4.3-.3-.3-.8-.5-1.1-.9-.7-.9-.5-2 .6-2.5.2-.1.5 0 .7.1 2.3 1.2 2.9 3.1 3.1 5.3z"/></svg>