<svg id="Layer_1" data-name="Layer 1" xmlns="http://www.w3.org/2000/svg" viewBox="0 0 30 30"><title>StorytellingTool_UpdatedUI_V12_DA</title><path fill="#fff" d="M25.39,14.58c-.17-.13-.49-.32-.66-.43a20.83,20.83,0,0,1-2.4-1.76c-.7-.68-1.77.38-1.07,1.06.25.25.51.48.77.7H15.81V8h0V7.44c.25.38.5.74.78,1.09.58.76,1.89,0,1.3-.76a17.92,17.92,0,0,1-1.95-3.19.69.69,0,0,0-1.21-.13c-.13.17-.32.49-.43.66a20.83,20.83,0,0,1-1.76,2.4c-.68.7.38,1.77,1.06,1.07.25-.25.48-.51.7-.77v6.35H7.22c.38-.25.74-.5,1.09-.78.76-.58,0-1.89-.76-1.3A17.92,17.92,0,0,1,4.36,14a.69.69,0,0,0-.13,1.21c.17.13.49.32.66.43a20.83,20.83,0,0,1,2.4,1.76c.7.68,1.77-.38,1.07-1.06-.25-.25-.51-.48-.77-.7H14.3v4.21h0v2.75c-.25-.38-.5-.74-.78-1.09-.58-.76-1.89,0-1.3.76a17.92,17.92,0,0,1,1.95,3.19.69.69,0,0,0,1.21.13c.13-.17.32-.49.43-.66a20.83,20.83,0,0,1,1.76-2.4c.68-.7-.38-1.77-1.06-1.07-.25.25-.48.51-.7.77V19.5h0V15.66H22.4c-.38.25-.74.5-1.09.78-.76.58,0,1.89.76,1.3a17.92,17.92,0,0,1,3.19-1.95A.69.69,0,0,0,25.39,14.58Z"/></svg>
