<svg id="Layer_1" data-name="Layer 1" xmlns="http://www.w3.org/2000/svg" viewBox="0 0 88.8 77.74"><defs><style>.cls-1{fill:#ff0}</style></defs><path class="cls-1" d="M47.11 74.33a18.3 18.3 0 0 0-7.66-2.94c-5.88-.88-11.35.59-16.62 3a54.49 54.49 0 0 0-11.37 7.23c-.25.2-.58.45-.84.42a1.27 1.27 0 0 1-.87-.57 1 1 0 0 1 .23-.9c5.76-4.74 11.84-8.93 19.28-10.6a25 25 0 0 1 20 3.52.3.3 0 0 0 .3 0l-.76-.62-.8-.58a23.1 23.1 0 0 0-14.56-4.07 32 32 0 0 0-14.34 4.3c-3.22 1.81-6.25 4-9.39 5.92-.34.21-.93.46-1.15.31a1.59 1.59 0 0 1-.53-1.17V66.24Q8 42.17 8 18a2.22 2.22 0 0 1 1-2 65.21 65.21 0 0 1 14.28-8.06 31 31 0 0 1 11.44-2.27 24.43 24.43 0 0 1 17.38 6.95l.29.27c.74-.64 1.46-1.3 2.22-1.9a24.35 24.35 0 0 1 14.68-5.28c6.07-.19 11.64 1.61 17 4.34a77.85 77.85 0 0 1 9.92 6.27 1.61 1.61 0 0 1 .65 1.46v59.31a5.89 5.89 0 0 1 0 .91c-.15.94-.76 1.16-1.55.63-2.7-1.78-5.35-3.64-8.13-5.3a35.61 35.61 0 0 0-12.35-4.68c-6.83-1.14-13.15.07-18.77 4.28l-.44.35a.26.26 0 0 0-.09.25l.6-.38A24.73 24.73 0 0 1 72 69.4 33.45 33.45 0 0 1 87.21 75c2.58 1.66 5 3.59 7.47 5.39.47.34.74.74.34 1.29s-.9.5-1.48.08c-2.09-1.51-4.12-3.11-6.29-4.5a38.77 38.77 0 0 0-13.68-5.66 21.78 21.78 0 0 0-14.87 2 1.74 1.74 0 0 0-.56.43c1-.32 2.07-.69 3.12-.95a29 29 0 0 1 16.07.92 47.6 47.6 0 0 1 14 7.46 2.35 2.35 0 0 1 .33.26 1 1 0 0 1 0 1.4c-.38.46-.81.3-1.24 0-1.8-1.22-3.57-2.5-5.44-3.62a37.12 37.12 0 0 0-13.35-5 23.32 23.32 0 0 0-17.24 3.68c-.25.17-.49.36-.73.55a1.81 1.81 0 0 1-2.44.11 25 25 0 0 0-7.77-3.83 26.56 26.56 0 0 0-15.3.63A46 46 0 0 0 14.38 83c-.65.49-1.07.5-1.4 0a1 1 0 0 1 .3-1.53h.06c2.57-1.62 5.08-3.38 7.74-4.84a35 35 0 0 1 12.62-4.09A25.47 25.47 0 0 1 46.34 74zM51.84 25v-.58-8.95a1.48 1.48 0 0 0-.33-.93 22.52 22.52 0 0 0-16.24-7.06 28.88 28.88 0 0 0-11 2 59.5 59.5 0 0 0-14.14 8 1.14 1.14 0 0 0-.34.82v57.91l.83-.57c2.39-1.49 4.71-3.08 7.18-4.43 5.37-2.95 11-4.86 17.27-4.77a24.46 24.46 0 0 1 15.77 5.79l.6.45v-.89-9.09c0-.74.41-1.21 1-1.15s.86.52.86 1.14v9.89h.17l.44-.35a23.93 23.93 0 0 1 6.59-4c6.58-2.56 13.14-2.23 19.7-.03a56.36 56.36 0 0 1 14.15 7.57l.7.47v-1-56.63a1.25 1.25 0 0 0 0-.42c-.1-.26-.18-.6-.38-.75a65.12 65.12 0 0 0-11-6.71c-5.3-2.44-10.8-3.84-16.7-3a22.43 22.43 0 0 0-13.39 6.68 1.75 1.75 0 0 0-.58 1.34V25z" transform="translate(-8.03 -5.67)"/><path class="cls-1" d="M52.42 29.76c1.17-1.51 2.29-3 3.51-4.5a14.27 14.27 0 0 1 4.29-3.48 7.36 7.36 0 0 1 7-.28 14.9 14.9 0 0 1 8.41 10.23c.68 2.83-.13 5.48-1.43 8a38.42 38.42 0 0 1-6.2 8.18c-1 1-2 2-3 2.94a23.63 23.63 0 0 1-6.54 4.2 17.84 17.84 0 0 0-3 1.68 5.49 5.49 0 0 0-1.27 1.51 2 2 0 0 1-1.64 1 1.63 1.63 0 0 1-1.71-1 3.6 3.6 0 0 0-1.67-1.82 21.11 21.11 0 0 0-2.84-1.54 25.46 25.46 0 0 1-8.17-5.76 47.51 47.51 0 0 1-6.49-7.94 14.34 14.34 0 0 1-2.51-7.14 10.18 10.18 0 0 1 1.18-5.21 16 16 0 0 1 7.29-7.36 7.41 7.41 0 0 1 6.83.11 17.87 17.87 0 0 1 6.16 5.56c.64.86 1.21 1.77 1.8 2.62zm.12 24.79c1.19-.69 2.45-1.44 3.74-2.15 1.11-.61 2.3-1.07 3.35-1.76a34.55 34.55 0 0 0 11.51-12.5 8.61 8.61 0 0 0 1-5.65 10.07 10.07 0 0 0-4.46-6.64c-3-2.16-4.69-2.06-7.54.32a22.54 22.54 0 0 0-6 7.82 1.66 1.66 0 0 1-1.67 1 1.69 1.69 0 0 1-1.68-1 29.36 29.36 0 0 0-1.45-2.65 19.89 19.89 0 0 0-6.22-6.41 3.83 3.83 0 0 0-4.12-.1 18.54 18.54 0 0 0-2.47 1.61c-4 3.24-5 8-2.32 12.41a39 39 0 0 0 3.62 5.09 29.26 29.26 0 0 0 9.49 7.8c1.77.87 3.46 1.86 5.22 2.81zM57.21 64.6l-.27-.45A23.14 23.14 0 0 1 64.81 61c6-1.25 11.83-.24 17.46 2.05A55.42 55.42 0 0 1 92 68.28l.44.32c-.19.6-.47.37-.79.16a56 56 0 0 0-10-5.33 30.11 30.11 0 0 0-13.53-2.32 23.34 23.34 0 0 0-10.31 3.19l-.49.28zM48 64.17l-.31.48a22.74 22.74 0 0 0-7.89-3.12 27.64 27.64 0 0 0-13.74.92 50.86 50.86 0 0 0-12.67 6.28c-.53.35-.53.35-.88-.2 1.58-1 3.14-1.95 4.74-2.86a39 39 0 0 1 13.38-4.9 25.07 25.07 0 0 1 16.97 3.1c.14.13.27.18.4.3zM91.81 22.3l-.26.44c-2-1.12-3.87-2.28-5.84-3.32a35.41 35.41 0 0 0-12.26-4.05 24.35 24.35 0 0 0-15.7 3.08c-.49.29-.49.29-.89-.3 1.54-.71 3-1.52 4.59-2.09a27.09 27.09 0 0 1 17.92 0 50.78 50.78 0 0 1 12.44 6.24zM48 18.26c-.22.67-.53.37-.82.19a23 23 0 0 0-8.28-3 28.11 28.11 0 0 0-13.51 1.31 51.06 51.06 0 0 0-11.54 5.76l-.39.25-.33-.4c0-.07.06-.13.09-.15a46.25 46.25 0 0 1 15.33-7 25.52 25.52 0 0 1 18.7 2.51l.75.53zM38.85 52.48a28.7 28.7 0 0 0-14 1.52 53.06 53.06 0 0 0-11.35 5.8l-.35-.4a.93.93 0 0 1 .15-.18c5.12-3.33 10.5-6.05 16.57-7.22a27.49 27.49 0 0 1 8.67-.22c.46.11.54.3.31.7zM91.79 59.37l-.26.45-.67-.41a51.37 51.37 0 0 0-11.1-5.54 29.66 29.66 0 0 0-11.68-1.63c-.65 0-1.3.15-2 .23-.27-.48-.06-.59.39-.65a27.35 27.35 0 0 1 9.78.46 46.7 46.7 0 0 1 15.4 7 .73.73 0 0 1 .14.09zM13.17 30.51c6-3.94 12.4-7 19.75-7.67.15.33.23.6-.27.64-6.36.55-12 3.12-17.35 6.39-.5.3-1 .61-1.48.95s-.53.08-.65-.31zM91.57 30.93c-2.27-1.27-4.44-2.56-6.69-3.71a35.31 35.31 0 0 0-11.79-3.69 3 3 0 0 1-.63-.06 2.5 2.5 0 0 1-.53-.35c.18-.07.38-.24.55-.21 1.75.29 3.53.48 5.24.93a47.54 47.54 0 0 1 13.73 6.43c.34.22.44.4.12.66zM74.09 43.73c0-.78.5-.53.79-.46 1.9.48 3.82.91 5.68 1.53a48.79 48.79 0 0 1 11.24 5.82l-.18.31c-2.85-1.51-5.63-3.06-8.49-4.45a32.32 32.32 0 0 0-9.04-2.75zM13.43 51l-.31-.42c5.46-3.56 11.15-6.44 17.63-7.44l.18.17c-.11.15-.2.39-.34.43-2 .55-4.06.94-6 1.63a46 46 0 0 0-5.64 2.49c-1.87.97-3.64 2.09-5.52 3.14zM13.48 40.27l-.35-.48a52.82 52.82 0 0 1 9.59-5.16c1.39-.55 2.82-1 4.24-1.47.36-.12.65-.15.68.42a49.19 49.19 0 0 0-14.16 6.69zM77.53 33a48.71 48.71 0 0 1 14.29 6.74l-.26.41c-2.21-1.24-4.31-2.57-6.55-3.62s-4.73-1.88-7.1-2.8c-.29-.09-.76-.1-.38-.73z" transform="translate(-8.03 -5.67)"/></svg>