<svg version="1.1" id="Layer_1" xmlns="http://www.w3.org/2000/svg" x="0" y="0" viewBox="0 0 48 48" xml:space="preserve"><style>.st1{fill:#bdbdbb}</style><path d="M28.2 47.8h-8.5C9 47.8.2 39 .2 28.2v-8.5C.2 9 9 .2 19.8.2h8.5C39 .2 47.8 9 47.8 19.8v8.5c0 10.7-8.8 19.5-19.6 19.5z" fill="#bdbdbb" stroke="#bdbdbb" fill-opacity="0.0"/><path class="st1" d="M26.9 22.4h7.7c.9 0 1.2.3 1.2 1.2v11.5c0 .8-.3 1.2-1.2 1.2H19.1c-.8 0-1.2-.3-1.2-1.2V23.6c0-.8.3-1.1 1.1-1.1 2.7-.1 5.3-.1 7.9-.1zm-.1 10.9h4.8c.9 0 1.1-.4.7-1.2-.2-.3-.4-.7-.6-1-.3-.6-.8-.7-1.4-.5l-1.2.6c-.8.4-1.2.2-1.7-.5l-1.8-3c-.3-.5-.6-.9-1.2-.8-.6 0-.9.5-1.1.9-.6 1.4-1.2 2.7-1.8 4.1-.5 1-.3 1.3.9 1.3 1.5.1 2.9.1 4.4.1zm4.6-6.2c0-.7-.5-1.3-1.2-1.3s-1.3.6-1.3 1.3c0 .7.6 1.2 1.2 1.2.7 0 1.3-.5 1.3-1.2z"/><path class="st1" d="M18.6 20.5h-.4c-1.4 0-2.2.8-2.2 2.2v6.6h-.1c-.1-.2-.1-.3-.2-.5-1.2-3.5-2.3-7-3.5-10.4-.3-1-.1-1.4.9-1.7l14.4-4.8c1-.3 1.4-.1 1.7.9.8 2.4 1.6 4.7 2.3 7 .1.2.1.4.2.7H22c-.4 0-.8-.1-1.1-.4l-.4-.4c-.8-.6-1.5-.4-1.9.5.1.2.1.2 0 .3zm7.6-2.7c0-.7-.6-1.3-1.3-1.2-.7 0-1.2.6-1.2 1.2 0 .7.6 1.3 1.3 1.2.6 0 1.2-.6 1.2-1.2z"/></svg>