<svg version="1.1" id="Layer_1" xmlns="http://www.w3.org/2000/svg" x="0" y="0" viewBox="0 0 48 48" xml:space="preserve"><style>.st0{fill:#fff}</style><path class="st0" d="M29.2 21.1h13.6c1.6 0 2.1.5 2.1 2.1v20.3c0 1.5-.6 2.1-2 2.1H15.6c-1.5 0-2.1-.6-2.1-2.1V23.1c0-1.4.6-2 2-2h13.7zM29 40.4h8.4c1.5 0 1.9-.7 1.2-2-.3-.6-.6-1.2-1-1.8-.6-1-1.5-1.3-2.6-.8-.7.3-1.4.7-2.1 1.1-1.3.6-2.2.4-3-.9-1.1-1.8-2.2-3.5-3.3-5.3-.5-.8-1-1.5-2.1-1.5-1.1.1-1.5.8-1.9 1.7-1 2.4-2.1 4.8-3.1 7.2-.8 1.8-.5 2.3 1.6 2.3H29zm8-11c0-1.2-1-2.2-2.1-2.3-1.2 0-2.3 1-2.3 2.2 0 1.2 1 2.2 2.2 2.2 1.2.1 2.2-.9 2.2-2.1z"/><path class="st0" d="M14.5 17.8h-.6c-2.6 0-3.9 1.4-3.9 3.9v11.6h-.2c-.1-.3-.2-.5-.3-.8-2.1-6.1-4.1-12.3-6.1-18.4-.6-1.8-.2-2.4 1.5-3 8.5-2.8 16.9-5.7 25.4-8.5 1.7-.6 2.5-.2 3 1.5 1.4 4.2 2.7 8.3 4.1 12.5.1.4.2.7.4 1.2H20.7c-.8 0-1.4-.1-1.9-.7-.2-.2-.5-.5-.8-.7-1.4-1.1-2.7-.8-3.3.9-.1.3-.1.4-.2.5zM27.8 13c0-1.2-1.1-2.2-2.3-2.2-1.2 0-2.1 1-2.1 2.2 0 1.2 1 2.2 2.2 2.2 1.2 0 2.2-1 2.2-2.2z"/></svg>