<svg xmlns="http://www.w3.org/2000/svg" viewBox="0 0 48 48"><path d="M28.4 47.6h-8.5C9.2 47.6.4 38.8.4 28.1v-8.5C.4 8.9 9.1.1 19.9.1h8.5c10.7 0 19.5 8.8 19.5 19.5v8.5c0 10.8-8.8 19.5-19.5 19.5z" fill="#d0e4a7"/><path d="M34.7 19.3h-1.5c-.1-1.3-.4-2.3-.9-2.9-.4-.6-.9-1-1.4-1.2-.5-.1-1.1-.2-1.8-.2h-2.7v15.7c0 .6.1 1.1.2 1.4.1.3.4.6.9.8.5.2 1.1.3 2 .3v1.5H18.8v-1.5c1.3 0 2.2-.2 2.5-.6.4-.4.6-1 .6-2V14.9h-2.3c-.9 0-1.6.1-2.2.2-.6.1-1.1.5-1.6 1.2-.4.6-.7 1.6-.8 2.9h-1.5v-6.1h21.2v6.2z" fill="#1f2b43"/></svg>