<svg version="1.1" id="Layer_1" xmlns="http://www.w3.org/2000/svg" x="0" y="0" viewBox="0 0 48 48" xml:space="preserve"><style>.st1{fill:#fff}</style><path d="M28.2 47.8h-8.5C9 47.8.2 39 .2 28.2v-8.5C.2 9 9 .2 19.8.2h8.5C39 .2 47.8 9 47.8 19.8v8.5c0 10.7-8.8 19.5-19.6 19.5z" fill="#fff" stroke="#fff" fill-opacity="0.0"/><path class="st1" d="M15.4 32.1c0 2.4 2 4.4 4.4 4.4h8.4c2.4 0 4.4-2 4.4-4.4V17.3H15.4v14.8zM32.3 12.7h-6c0-.1.1-.2.1-.4 0-.7-.6-1.3-1.3-1.3H23c-.7 0-1.3.6-1.3 1.3 0 .1 0 .2.1.4h-6c-.7 0-1.3.6-1.3 1.3 0 .7.6 1.3 1.3 1.3h16.5c.7 0 1.3-.6 1.3-1.3 0-.7-.6-1.3-1.3-1.3z"/></svg>