<svg version="1.1" id="Layer_1" xmlns="http://www.w3.org/2000/svg" x="0" y="0" viewBox="0 0 48 48" xml:space="preserve"><style>.st1{fill:#000}</style><path d="M28.2 47.8h-8.5C9 47.8.2 39 .2 28.2v-8.5C.2 9 9 .2 19.8.2h8.5C39 .2 47.8 9 47.8 19.8v8.5c0 10.7-8.8 19.5-19.6 19.5z" fill="#000" stroke="#000" fill-opacity="0.0"/><path class="st1" d="M24 28c2.7 0 4.9-2.2 4.9-4.9v-7.6a4.9 4.9 0 0 0-9.8 0v7.6c0 2.7 2.2 4.9 4.9 4.9z"/><path class="st1" d="M31.4 23.9c-.9 3.6-3.6 6.2-6.8 6.2h-1.3c-3.2 0-5.8-2.6-6.8-6.2h-2.3c0 4.5 3.4 8.3 7.8 8.8v2.7c0 1 .9 1.9 1.9 1.9h.2c1 0 1.9-.9 1.9-1.9v-2.7c4.4-.6 7.7-4.3 7.8-8.8h-2.4z"/></svg>