<?xml version="1.0" encoding="utf-8"?>
<!-- Generator: Adobe Illustrator 25.0.1, SVG Export Plug-In . SVG Version: 6.00 Build 0)  -->
<svg version="1.1" id="Layer_1" xmlns="http://www.w3.org/2000/svg" xmlns:xlink="http://www.w3.org/1999/xlink" x="0px" y="0px"
	 viewBox="0 0 27.4 24.7" enable-background="new 0 0 27.4 24.7" xml:space="preserve">
<g>
	<g id="XMLID_1_">
		<g>
			<rect x="14.8" y="10.1" width="0.1" height="2.6"/>
			<polygon points="13.3,17.4 12.7,12.7 12.7,10.1 14.8,10.1 14.8,12.7 14.9,12.7 14.3,17.4 			"/>
			<rect x="12.8" y="18.2" width="2" height="2"/>
			<path fill="#FFFEFC" d="M14.8,20.2v-2h-2v2H14.8z M25,23.2H2.6c-0.4,0-0.7-0.2-0.9-0.5c-0.2-0.3-0.2-0.7,0-1L12.9,2.2
				c0.2-0.3,0.5-0.5,0.9-0.5c0.4,0,0.7,0.2,0.9,0.5l11.2,19.5c0.1,0.2,0.2,0.5,0.1,0.8c0,0.1-0.1,0.2-0.1,0.2
				C25.7,23,25.4,23.2,25,23.2z M12.7,10.1v2.6l0.6,4.7h1l0.6-4.7v-2.6h-0.1H12.7z"/>
			<path d="M2.5,23.2L2.5,23.2H25c0.4,0,0.7-0.2,0.9-0.5c0.1-0.1,0.1-0.2,0.1-0.2c0.1-0.2,0.1-0.5,0-0.8L14.7,2.2
				c-0.2-0.3-0.5-0.5-0.9-0.5c-0.4,0-0.7,0.2-0.9,0.5L1.6,21.7c-0.2,0.3-0.2,0.7,0,1C1.8,23,2.1,23.2,2.5,23.2z M12.1,1.7
				c0.3-0.6,1-1,1.7-1s1.3,0.4,1.7,1l11.3,19.5c0.3,0.7,0.2,1.4-0.1,2c-0.3,0.6-1,1-1.7,1H2.5c-0.7,0-1.3-0.4-1.7-1
				c-0.4-0.6-0.4-1.4,0-2L12.1,1.7z"/>
		</g>
		<g>
		</g>
	</g>
</g>
</svg>
