<?xml version="1.0" encoding="utf-8"?>
<!-- Generator: Adobe Illustrator 25.0.1, SVG Export Plug-In . SVG Version: 6.00 Build 0)  -->
<svg version="1.1" id="Layer_1" xmlns="http://www.w3.org/2000/svg" xmlns:xlink="http://www.w3.org/1999/xlink" x="0px" y="0px"
	 viewBox="0 0 27.4 24.7" enable-background="new 0 0 27.4 24.7" xml:space="preserve">
<g>
	<g id="XMLID_1_">
		<g>
			<path fill="#BDBDBB" d="M26.8,21.2c0.3,0.7,0.2,1.4-0.1,2c-0.3,0.6-1,1-1.7,1H2.5c-0.7,0-1.3-0.4-1.7-1c-0.4-0.6-0.4-1.4,0-2
				L12.1,1.7c0.3-0.6,1-1,1.7-1s1.3,0.4,1.7,1L26.8,21.2z M26,22.5c0.1-0.2,0.1-0.5,0-0.8L14.7,2.2c-0.2-0.3-0.5-0.5-0.9-0.5
				c-0.4,0-0.7,0.2-0.9,0.5L1.6,21.7c-0.2,0.3-0.2,0.7,0,1c0.2,0.3,0.5,0.5,0.9,0.5h0.1H25c0.4,0,0.7-0.2,0.9-0.5
				C26,22.6,26,22.5,26,22.5z"/>
			<rect x="14.8" y="10.1" fill="#BDBDBB" width="0.1" height="2.6"/>
			<polygon fill="#BDBDBB" points="14.9,12.7 14.3,17.4 13.3,17.4 12.7,12.7 12.7,10.1 14.8,10.1 14.8,12.7 			"/>
			<rect x="12.8" y="18.2" fill="#BDBDBB" width="2" height="2"/>
		</g>
		<g>
		</g>
	</g>
</g>
</svg>
