<?xml version="1.0" encoding="utf-8"?>
<!-- Generator: Adobe Illustrator 21.1.0, SVG Export Plug-In . SVG Version: 6.00 Build 0)  -->
<svg version="1.1" id="Layer_1" xmlns="http://www.w3.org/2000/svg" xmlns:xlink="http://www.w3.org/1999/xlink" x="0px" y="0px"
	 viewBox="0 0 48 48" style="enable-background:new 0 0 48 48;" xml:space="preserve">
<style type="text/css">
	.st0{fill:#F2D07E;}
	.st1{fill:#1F2B43;}
</style>
<title>Audio</title>
<g>
	<path class="st0" d="M28.2,47.8h-8.5C9,47.8,0.2,39,0.2,28.2v-8.5C0.2,9,9,0.2,19.8,0.2h8.5C39,0.2,47.8,9,47.8,19.8v8.5
		C47.8,39,39,47.8,28.2,47.8z"/>
	<g>
		<path class="st1" d="M25.6,24c0-3.1,0-6,0-9.1c0-0.2,0-0.5,0-0.7c-0.2-0.9-1.1-1.4-1.8-0.9c-1.9,1.4-3.6,2.8-5.5,4.1
			c-0.7,0.6-1.4,0.8-2.3,0.7c-1.1-0.1-2.3,0-3.4,0c-1,0-1.5,0.5-1.5,1.6c0,2.9,0,5.6,0,8.5c0,1,0.5,1.5,1.5,1.5c1.3,0,2.7,0,3.9,0
			c0.4,0,0.9,0.2,1.3,0.4c2,1.5,4,3,6,4.4c0.5,0.3,0.9,0.4,1.3-0.1c0.3-0.4,0.5-0.9,0.5-1.4C25.6,30.1,25.6,27.1,25.6,24z
			 M36.9,24.7c0-2.9-0.5-4.9-1.5-6.9c-0.9-1.8-2.3-3.2-4-4.2c-0.8-0.4-1.7-0.1-2,0.6c-0.3,0.9,0.1,1.7,0.9,2.2
			c1.6,0.9,2.8,2.1,3.5,3.7c1.4,3.4,1.2,9-3.6,11.5C29.3,32,29,33.2,29.4,34c0.3,0.6,1.3,0.7,2.1,0.2c0.2-0.1,0.4-0.2,0.5-0.3
			C35.5,31.5,36.7,27.9,36.9,24.7z M32.1,24c-0.2-2.2-0.8-4.2-3.1-5.3c-0.2-0.1-0.5-0.2-0.7-0.1c-1,0.5-1.3,1.6-0.6,2.5
			c0.3,0.4,0.8,0.6,1.1,0.9c1.3,1.2,0.9,3.5-0.6,4.3c-0.5,0.3-0.9,1-0.9,1.5s0.5,1.1,0.9,1.5c0.1,0.1,0.7,0,1-0.2
			C31.3,28,31.8,26.1,32.1,24z"/>
		<path class="st1" d="M25.6,24c0,3.1,0,6.1,0,9.2c0,0.5-0.3,1-0.5,1.4c-0.3,0.5-0.8,0.4-1.3,0.1c-2-1.5-3.9-3-6-4.4
			c-0.3-0.2-0.8-0.4-1.3-0.4c-1.3-0.1-2.7,0-3.9,0c-1,0-1.5-0.5-1.5-1.5c0-2.9,0-5.6,0-8.5c0-1,0.5-1.5,1.5-1.6c1.1,0,2.3-0.1,3.4,0
			c0.9,0.1,1.6-0.2,2.3-0.7c1.8-1.4,3.6-2.8,5.5-4.1c0.7-0.5,1.7-0.1,1.8,0.9c0,0.2,0,0.5,0,0.7C25.6,18,25.6,20.9,25.6,24z"/>
		<path class="st1" d="M36.9,24.7c-0.2,3.3-1.4,6.8-4.8,9.3c-0.2,0.1-0.4,0.2-0.5,0.3c-0.8,0.5-1.8,0.4-2.1-0.2
			c-0.4-0.8-0.1-2,0.7-2.4c4.8-2.6,5-8.2,3.6-11.5c-0.7-1.7-2-2.9-3.5-3.7c-0.8-0.5-1.1-1.3-0.9-2.2c0.2-0.7,1.2-1,2-0.6
			c1.8,1,3.2,2.4,4,4.2C36.4,19.8,36.9,21.8,36.9,24.7z"/>
		<path class="st1" d="M32.1,24c-0.3,2.1-0.8,4-2.9,5.1c-0.3,0.1-0.8,0.3-1,0.2c-0.4-0.4-0.9-1-0.9-1.5s0.5-1.2,0.9-1.5
			c1.5-0.9,1.8-3.2,0.6-4.3c-0.3-0.3-0.8-0.5-1.1-0.9c-0.7-0.9-0.5-2,0.6-2.5c0.2-0.1,0.5,0,0.7,0.1C31.3,19.9,31.9,21.8,32.1,24z"
			/>
	</g>
</g>
</svg>
