<?xml version="1.0" encoding="utf-8"?>
<!-- Generator: Adobe Illustrator 21.1.0, SVG Export Plug-In . SVG Version: 6.00 Build 0)  -->
<svg version="1.1" id="Layer_1" xmlns="http://www.w3.org/2000/svg" xmlns:xlink="http://www.w3.org/1999/xlink" x="0px" y="0px"
	 viewBox="0 0 47.2 37.9" style="enable-background:new 0 0 47.2 37.9;" xml:space="preserve">
<style type="text/css">
	.st0{fill:#D0D2D3;}
</style>
<title>Forward</title>
<path class="st0" d="M4.8,24.7H23c-1.8,1.5-3.5,3-5.1,4.6c-4.6,4.5,2.5,11.6,7.1,7.1c3.8-3.7,11.5-8.7,15.9-11.6
	c1.2-0.8,3.2-2,4.4-2.9c3.2-2.4,2.2-6.5-0.9-8C36.9,10.4,29.8,6,23.2,1c-5.1-3.9-10,4.8-5,8.6c2.3,1.8,4.7,3.5,7.2,5.1H4.8
	C-1.6,14.7-1.6,24.7,4.8,24.7z"/>
</svg>
