<svg id="Layer_1" data-name="Layer 1" xmlns="http://www.w3.org/2000/svg" viewBox="0 0 48 48"><defs><style>.cls-1{fill:#f2d17e;}.cls-2{fill:#202c43;}.cls-3{fill:#fff;}</style></defs><title>Trashcan</title><rect class="cls-1" width="48" height="48" rx="19.72" ry="19.72"/><path class="cls-2" d="M31,41.45H19a3.62,3.62,0,0,1-3.61-3.61s-3.24-23.52-1.25-23.52H35.89c2,0-1.25,23.52-1.25,23.52A3.62,3.62,0,0,1,31,41.45Z" transform="translate(-1 -1)"/><path class="cls-3" d="M31,41.45c-3,0-5.91,0-8.86.09l-2.21,0a6.43,6.43,0,0,1-2.25-.17A3.89,3.89,0,0,1,15,37.84v0c-.93-5.72-1.83-11.44-2.34-17.25a41.57,41.57,0,0,1-.14-4.44,8.46,8.46,0,0,1,.12-1.2,3.37,3.37,0,0,1,.2-.72A1.46,1.46,0,0,1,13,14a1.31,1.31,0,0,1,.21-.28,1.33,1.33,0,0,1,.43-.3,1.35,1.35,0,0,1,.32-.08h2.35c2.89,0,5.78,0,8.68,0s5.78.08,8.68.19l2.17.07a1.27,1.27,0,0,1,.4.08,1,1,0,0,1,.34.24,1,1,0,0,1,.17.24,1.18,1.18,0,0,1,.1.2A3,3,0,0,1,37,15a9.36,9.36,0,0,1,.1,1.16,41.25,41.25,0,0,1-.2,4.4c-.54,5.79-1.45,11.51-2.26,17.24h0A3.64,3.64,0,0,1,31,41.45Zm0,0a3.61,3.61,0,0,0,3.58-3.61h0c.7-5.74,1.17-11.52,1.34-17.28a40.29,40.29,0,0,0-.08-4.27,8.11,8.11,0,0,0-.15-1,1.7,1.7,0,0,0-.12-.37l0,0v0a.32.32,0,0,0,.12.08s.25,0,.14,0l-2.17.07c-2.89.11-5.78.13-8.68.19s-5.78.06-8.68,0H14.2a.62.62,0,0,0,.19-.05.65.65,0,0,0,.21-.14l.05-.07h0a1.57,1.57,0,0,0-.09.32c-.05.28-.09.62-.12,1a40,40,0,0,0,0,4.23c.19,5.74.68,11.51,1.26,17.26v0h0a3.38,3.38,0,0,0,2.14,3.23,5.59,5.59,0,0,0,2.13.26l2.21,0C25.12,41.44,28.07,41.42,31,41.45Z" transform="translate(-1 -1)"/><path class="cls-2" d="M36.17,11.43l-8.27-.54a1.81,1.81,0,0,0,.08-.5,1.85,1.85,0,0,0-1.85-1.85H23.87A1.85,1.85,0,0,0,22,10.4a1.81,1.81,0,0,0,.08.5l-8.27.54a1.35,1.35,0,0,0,0,2.7H36.17a1.35,1.35,0,0,0,0-2.7Z" transform="translate(-1 -1)"/><path class="cls-3" d="M36.17,11.43,32,11.21c-1.38,0-2.76-.11-4.15-.13h-.23l.06-.24A1.58,1.58,0,0,0,27,9.15a1.5,1.5,0,0,0-.88-.22L25,9,23.87,9a1.33,1.33,0,0,0-.74.3,1.22,1.22,0,0,0-.38,1.37l.31.74-.91.1c-1.62.19-3.25.4-4.88.54l-2.44.23-1.06.08a.37.37,0,0,0,0,.72H16c1.63,0,3.26.08,4.89.17l9.78.52c1.63.1,3.26.16,4.89.2A2.75,2.75,0,0,0,36.71,14a1.32,1.32,0,0,0,.74-.88A1.35,1.35,0,0,0,36.17,11.43Zm0,0a1.37,1.37,0,0,1,1.34,1.68,1.39,1.39,0,0,1-.76.94,3.18,3.18,0,0,1-1.22.16c-1.63,0-3.26.1-4.89.2l-9.78.52c-1.63.09-3.26.12-4.89.17H13.83a2.42,2.42,0,0,1-.52-.06,2.33,2.33,0,0,1,.08-4.55,3,3,0,0,1,.46,0l.3,0,.61,0,2.43-.09c1.62-.07,3.25-.07,4.87-.09l-.6.85a2.44,2.44,0,0,1,1-2.63,2.37,2.37,0,0,1,1.38-.38L25,8.12l1.13.06a2.19,2.19,0,0,1,1.24.46,2.08,2.08,0,0,1,.71,2.3l-.17-.24c1.37.16,2.75.27,4.13.41Z" transform="translate(-1 -1)"/><path class="cls-3" d="M17.45,20.9a46.79,46.79,0,0,0,2.24,13.34c.3.92,2.46.32,2.17-.58a45.54,45.54,0,0,1-2.22-13c0-1.07-2.21-.69-2.19.2Z" transform="translate(-1 -1)"/><path class="cls-3" d="M24.38,20.55q-.06,6.94-.41,13.87c0,.46,2.14.15,2.17-.58q.35-6.93.41-13.87c0-.49-2.17-.15-2.17.58Z" transform="translate(-1 -1)"/><path class="cls-3" d="M29.78,20.55a75.55,75.55,0,0,1-1,13.4c-.08.52,2.06.16,2.14-.38A76.72,76.72,0,0,0,32,20c0-.37-2.18,0-2.17.58Z" transform="translate(-1 -1)"/></svg>