<?xml version="1.0" encoding="utf-8"?>
<!-- Generator: Adobe Illustrator 21.1.0, SVG Export Plug-In . SVG Version: 6.00 Build 0)  -->
<svg version="1.1" id="Layer_1" xmlns="http://www.w3.org/2000/svg" xmlns:xlink="http://www.w3.org/1999/xlink" x="0px" y="0px"
	 viewBox="0 0 48 48" style="enable-background:new 0 0 48 48;" xml:space="preserve">
<style type="text/css">
	.st0{fill:#F2D07E;}
	.st1{fill:#1F2B43;}
</style>
<title>Trashcan</title>
<g>
	<path class="st0" d="M28.2,47.8h-8.5C9,47.8,0.2,39,0.2,28.2l0-8.5C0.2,9,9,0.2,19.8,0.2h8.5C39,0.2,47.8,9,47.8,19.8v8.5
		C47.8,39,39,47.8,28.2,47.8z"/>
	<g>
		<path class="st1" d="M15.4,32.1c0,2.4,2,4.4,4.4,4.4h8.4c2.4,0,4.4-2,4.4-4.4V17.3H15.4V32.1z"/>
		<path class="st1" d="M32.3,12.7h-6c0-0.1,0.1-0.2,0.1-0.4c0-0.7-0.6-1.3-1.3-1.3H23c-0.7,0-1.3,0.6-1.3,1.3c0,0.1,0,0.2,0.1,0.4
			h-6c-0.7,0-1.3,0.6-1.3,1.3c0,0.7,0.6,1.3,1.3,1.3h16.5c0.7,0,1.3-0.6,1.3-1.3C33.6,13.3,33,12.7,32.3,12.7z"/>
	</g>
</g>
</svg>
