<svg id="Layer_1" data-name="Layer 1" xmlns="http://www.w3.org/2000/svg" viewBox="0 0 48 48"><defs><style>.cls-1{fill:#d1e5a8;}.cls-2{fill:#202c43;}.cls-3{fill:#fff;}</style></defs><title>Image</title><rect class="cls-1" width="48" height="48" rx="19.72" ry="19.72"/><path class="cls-2" d="M28.4,23.12h8.89c1,0,1.39.34,1.39,1.37q0,6.65,0,13.3c0,1-.37,1.37-1.33,1.37H19.44c-1,0-1.36-.4-1.36-1.35q0-6.68,0-13.36c0-.94.37-1.32,1.31-1.32Zm-.15,12.62h1.69c1.26,0,2.53,0,3.79,0,1,0,1.27-.46.8-1.33-.21-.4-.41-.8-.64-1.19a1.19,1.19,0,0,0-1.67-.53c-.47.22-.93.47-1.39.69a1.29,1.29,0,0,1-1.94-.57c-.72-1.15-1.43-2.3-2.13-3.45-.32-.52-.65-1-1.35-1s-1,.54-1.23,1.1q-1,2.36-2,4.72c-.53,1.21-.31,1.52,1,1.52Zm5.28-7.17a1.47,1.47,0,0,0-1.39-1.48,1.5,1.5,0,0,0-1.49,1.46A1.46,1.46,0,0,0,32.09,30,1.45,1.45,0,0,0,33.54,28.57Z" transform="translate(-1 -1)"/><path class="cls-3" d="M28.4,23.12c3,0,5.95,0,8.93-.13a1.7,1.7,0,0,1,1.16.31,1.68,1.68,0,0,1,.4,1.16L39,26.7l.18,4.46.18,4.46.09,2.24a2.06,2.06,0,0,1-.56,1.59,2.26,2.26,0,0,1-1.58.52c-3,.09-5.95.12-8.92.13s-5.95,0-8.93-.13a2.23,2.23,0,0,1-1.6-.58,2.16,2.16,0,0,1-.51-1.6l.09-2.23.18-4.46.18-4.46.09-2.23a1.52,1.52,0,0,1,.45-1.15A1.74,1.74,0,0,1,19.48,23C22.45,23.08,25.43,23.1,28.4,23.12Zm0,0c-3,0-5.95,0-8.92.14a1.37,1.37,0,0,0-.95.26,1.17,1.17,0,0,0-.25.9l.09,2.23.18,4.46.18,4.46.09,2.23c0,.3.11.5.13.48a1.3,1.3,0,0,0,.48.06c3-.09,5.95-.12,8.92-.13s5.95,0,8.92.13a1.61,1.61,0,0,0,.53,0s.12-.15.13-.46L38,35.62l.18-4.46.18-4.46.09-2.23a1.35,1.35,0,0,0-.21-.93,1.35,1.35,0,0,0-.93-.28C34.35,23.16,31.38,23.14,28.4,23.12Z" transform="translate(-1 -1)"/><path class="cls-3" d="M28.25,35.74c1.46,0,2.93,0,4.39-.14.37,0,.73,0,1.1-.07s.7-.15.72-.3-.1-.46-.29-.73l-.6-.9a.86.86,0,0,0-.54-.46.89.89,0,0,0-.59.19l-.94.56a3.28,3.28,0,0,1-1.25.53,1.88,1.88,0,0,1-1-.11,2.2,2.2,0,0,1-.75-.51,4,4,0,0,1-.44-.56l-.31-.46-1.19-1.85L26,30a2.63,2.63,0,0,0-.42-.61l-.08-.05a.48.48,0,0,0-.18,0c-.07,0-.14,0-.29.26l-1,1.89-1,1.94a7.68,7.68,0,0,0-.86,1.82c0,.08,0,.13.15.2a1.78,1.78,0,0,0,.47.12c.34,0,.72.07,1.08.09C25.33,35.69,26.79,35.72,28.25,35.74Zm0,0c-1.46,0-2.93,0-4.39.13-.37,0-.72.06-1.11.06a2.2,2.2,0,0,1-.61-.07.77.77,0,0,1-.55-.57A2.69,2.69,0,0,1,21.8,34l.35-1,.7-2.09.36-1c.13-.36.21-.66.41-1.09A2.12,2.12,0,0,1,24.9,27.6a2.22,2.22,0,0,1,.91-.08,1.92,1.92,0,0,1,.92.37A3.84,3.84,0,0,1,27.64,29l.59.92,1.12,1.88c.1.16.18.32.27.48a2.6,2.6,0,0,0,.2.33c.15.16.1.15.24.17a2.34,2.34,0,0,0,.79-.25l1-.42a2,2,0,0,1,1.53-.05,1.9,1.9,0,0,1,1,1.05l.45,1A1.6,1.6,0,0,1,35,35.48a.88.88,0,0,1-.62.42,2.35,2.35,0,0,1-.61,0c-.37,0-.73-.06-1.1-.07C31.18,35.78,29.72,35.75,28.25,35.74Z" transform="translate(-1 -1)"/><path class="cls-3" d="M33.54,28.57a1.1,1.1,0,0,0-.5-.93.93.93,0,0,0-.91-.07,1.12,1.12,0,0,0-.51,1,1,1,0,0,0,.47,1,1,1,0,0,0,.92,0A1.07,1.07,0,0,0,33.54,28.57Zm0,0a2,2,0,0,1-.35,1.1,1.87,1.87,0,0,1-1.12.79,1.91,1.91,0,0,1-1.58-.35,2,2,0,0,1,1.66-3.48,1.85,1.85,0,0,1,1.08.84A2,2,0,0,1,33.54,28.57Z" transform="translate(-1 -1)"/><path class="cls-2" d="M18.78,21l-.41,0a2.29,2.29,0,0,0-2.53,2.58c0,2.31,0,4.61,0,6.92q0,.33,0,.65l-.11,0c-.07-.18-.15-.35-.21-.53l-4-12.07c-.38-1.15-.16-1.6,1-2L29.11,11c1.14-.38,1.61-.14,2,1l2.7,8.16c.08.23.15.47.25.8h-.77c-3.48,0-7,0-10.44,0a1.59,1.59,0,0,1-1.28-.46,4.72,4.72,0,0,0-.52-.44,1.23,1.23,0,0,0-2.15.61C18.86,20.78,18.82,20.86,18.78,21ZM27.5,17.8A1.48,1.48,0,0,0,26,16.36a1.42,1.42,0,0,0-1.4,1.43,1.44,1.44,0,1,0,2.88,0Z" transform="translate(-1 -1)"/><path class="cls-3" d="M18.78,21a5.18,5.18,0,0,0-1.46.28,1.88,1.88,0,0,0-1,.94,7,7,0,0,0-.16,2.89c.1,2,.19,4,.24,6.05v.44l-.46.11-.11,0-.45.11-.19-.45c-.75-1.82-1.34-3.57-2-5.37L11.3,20.62l-.47-1.34a4.74,4.74,0,0,1-.39-1.69A1.78,1.78,0,0,1,11,16.35a2.86,2.86,0,0,1,.88-.54c.54-.21.92-.33,1.39-.49l5.39-1.83,5.4-1.8,2.7-.89,1.35-.44.68-.22a4.31,4.31,0,0,1,.89-.2,1.92,1.92,0,0,1,1.26.28,2.14,2.14,0,0,1,.75.91,13.86,13.86,0,0,1,.5,1.46L33,15.31c.57,1.82,1.12,3.61,1.65,5.46l.27.92-.93,0q-4.08-.1-8.16-.27l-2-.09-1,0a2.06,2.06,0,0,1-1.1-.31c-.33-.26-.52-.49-.77-.71a1.77,1.77,0,0,0-.81-.44.91.91,0,0,0-.84.29A3,3,0,0,0,18.78,21Zm0,0a3.06,3.06,0,0,1,.41-.95,1.11,1.11,0,0,1,1-.46c.77,0,1.33.72,1.8,1a1.57,1.57,0,0,0,.86.15l1,0,2-.1Q30,20.38,34,20.28l-.66.9-1.89-5.36-.93-2.69c-.16-.43-.31-1-.45-1.22S30,11.7,30,11.73s0,0-.11,0a2.7,2.7,0,0,0-.49.13l-.67.23-1.35.46-2.69.91-5.39,1.81-5.4,1.78-1.3.43a1.34,1.34,0,0,0-.34.17s0,0,0,0a3.74,3.74,0,0,0,.26,1.06l.43,1.36c1.16,3.6,2.24,7.29,3.36,10.84l-.64-.34.11,0-.45.55c.06-2,.15-4,.25-6.05l.07-1.51A3.37,3.37,0,0,1,16,22a2,2,0,0,1,1.26-.95A5.26,5.26,0,0,1,18.78,21Z" transform="translate(-1 -1)"/><path class="cls-3" d="M27.5,17.8a1.08,1.08,0,0,0-.53-.92,1,1,0,0,0-.93,0,.84.84,0,0,0-.43.52,1.33,1.33,0,0,0,0,.43,1.06,1.06,0,0,0,.48,1,1,1,0,0,0,.92,0A1.08,1.08,0,0,0,27.5,17.8Zm0,0a2,2,0,0,1-.34,1.1,1.88,1.88,0,0,1-1.1.82,1.9,1.9,0,0,1-1.6-.33,2,2,0,0,1-.8-1.59,2,2,0,0,1,.79-1.6,1.88,1.88,0,0,1,1.6-.31,1.91,1.91,0,0,1,1.1.81A2,2,0,0,1,27.5,17.8Z" transform="translate(-1 -1)"/></svg>