<svg id="Layer_1" data-name="Layer 1" xmlns="http://www.w3.org/2000/svg" viewBox="0 0 48 48"><defs><style>.cls-1{fill:#d1e5a8;}.cls-2{fill:#202c43;}.cls-3{fill:#fff;}</style></defs><title>Audio</title><rect class="cls-1" width="48" height="48" rx="19.72" ry="19.72"/><path class="cls-2" d="M27.14,25q0-6.06,0-12.12a5.85,5.85,0,0,0,0-1,1.53,1.53,0,0,0-2.38-1.16c-2.46,1.84-4.94,3.65-7.36,5.53a4.25,4.25,0,0,1-3,1c-1.5-.09-3,0-4.5,0a1.82,1.82,0,0,0-2,2.06q0,5.63,0,11.26a1.8,1.8,0,0,0,2,2c1.75,0,3.51,0,5.25,0a3.18,3.18,0,0,1,1.65.55c2.69,1.94,5.34,3.95,8,5.93.6.44,1.24.55,1.68-.12a3.64,3.64,0,0,0,.7-1.78C27.16,33.17,27.14,29.09,27.14,25Zm15.1.87a19,19,0,0,0-2-9.18,13.22,13.22,0,0,0-5.45-5.6,1.74,1.74,0,0,0-2.58.78,2.43,2.43,0,0,0,1.17,2.9,10.58,10.58,0,0,1,4.65,5c1.89,4.46,1.63,12-4.84,15.45a2.46,2.46,0,0,0-.87,3.11c.42.79,1.69.92,2.77.29.25-.14.49-.3.72-.46C40.45,35,42,30.3,42.23,25.89ZM35.8,25c-.32-2.95-1.11-5.61-4-7.07a1.28,1.28,0,0,0-1-.1,2,2,0,0,0-.74,3.29,12.67,12.67,0,0,0,1.47,1.16c1.66,1.52,1.19,4.56-.73,5.8A2.81,2.81,0,0,0,29.57,30c0,.67.66,1.41,1.18,2,.16.18.88,0,1.26-.21C34.77,30.39,35.43,27.81,35.8,25Z" transform="translate(-1 -1)"/><path class="cls-3" d="M27.14,25c0-3.51,0-7-.13-10.53,0-.87,0-1.77-.12-2.59a1.34,1.34,0,0,0-1.66-1.07,5,5,0,0,0-1,.71l-1,.82L21.17,14l-2.05,1.65c-.71.54-1.29,1.11-2.16,1.66a5.13,5.13,0,0,1-2.88.67l-2.6.07a9.88,9.88,0,0,0-2.32.15.69.69,0,0,0-.43.44,2.69,2.69,0,0,0-.1,1l0,5.26,0,5.26c0,.95.06,1.36.43,1.54a2.14,2.14,0,0,0,.94.16l1.32,0L14,32c.46,0,.84,0,1.36.07a3.9,3.9,0,0,1,1.48.52,5.86,5.86,0,0,1,.58.43l.52.41,1,.82L21,35.83c1.37,1.07,2.77,2.22,4.11,3.23a.73.73,0,0,0,.92,0,4,4,0,0,0,.66-1,2.5,2.5,0,0,0,.24-1.21l0-1.32C27.07,32,27.11,28.53,27.14,25Zm0,0c0,3.51,0,7,.1,10.53l0,1.32a2.88,2.88,0,0,1-.19,1.36,4.24,4.24,0,0,1-.7,1.22,1.1,1.1,0,0,1-.76.33,1.6,1.6,0,0,1-.76-.2c-1.53-1-2.91-2-4.37-3l-2.16-1.5-1.08-.75-.54-.37a5.17,5.17,0,0,0-.5-.33,2.64,2.64,0,0,0-1-.28c-.35,0-.85,0-1.27,0l-2.62.06-1.31,0a3.69,3.69,0,0,1-1.63-.27,2.37,2.37,0,0,1-1.28-1.47,4.86,4.86,0,0,1-.17-1.55l0-5.27,0-5.27A3.92,3.92,0,0,1,7.18,18a2.38,2.38,0,0,1,1.42-1.33,4.17,4.17,0,0,1,1.58-.18l1.33,0,2.66.08a3.79,3.79,0,0,0,2.21-.35c.64-.35,1.39-.95,2.1-1.43l2.16-1.52,2.15-1.52L23.86,11a5,5,0,0,1,1.2-.73,1.67,1.67,0,0,1,1.47.29,2,2,0,0,1,.74,1.24c.05.93,0,1.79,0,2.67C27.18,18,27.15,21.51,27.14,25Z" transform="translate(-1 -1)"/><path class="cls-3" d="M42.23,25.89a24,24,0,0,0-.38-4.38,16.5,16.5,0,0,0-1.4-4.14,12.85,12.85,0,0,0-6-5.94,1.37,1.37,0,0,0-1.49.27,1.17,1.17,0,0,0-.24.7,1.85,1.85,0,0,0,.11.82,1.73,1.73,0,0,0,.46.66,3.59,3.59,0,0,0,.79.51A12.39,12.39,0,0,1,36,15.7a10.42,10.42,0,0,1,2.86,3.77A14.56,14.56,0,0,1,39.92,24a12.54,12.54,0,0,1-2.62,8.82,11,11,0,0,1-3.66,2.88,2.81,2.81,0,0,0-.36.21,1.43,1.43,0,0,0-.27.28,2,2,0,0,0-.34.79c-.11.57,0,1.25.4,1.45a2,2,0,0,0,1.74-.05,13.13,13.13,0,0,0,1.8-1.15,13.73,13.73,0,0,0,3-3.11,14.3,14.3,0,0,0,1.89-3.94A19.13,19.13,0,0,0,42.23,25.89Zm0,0a17.45,17.45,0,0,1-2.41,8.41A15.08,15.08,0,0,1,37,37.7a13.59,13.59,0,0,1-1.82,1.36,2.76,2.76,0,0,1-2.5.2,1.79,1.79,0,0,1-.91-1.1,3,3,0,0,1-.12-1.32A3.12,3.12,0,0,1,32,35.59a2.6,2.6,0,0,1,.45-.55,4.11,4.11,0,0,1,.55-.4,10.23,10.23,0,0,0,3-2.75,11.61,11.61,0,0,0,2.05-7.75,12.83,12.83,0,0,0-.88-4A9.1,9.1,0,0,0,35,16.85a13.67,13.67,0,0,0-1.63-1.29,4.79,4.79,0,0,1-1-.77,3,3,0,0,1-.69-1.2,3,3,0,0,1-.08-1.35A2.25,2.25,0,0,1,32.2,11a2.33,2.33,0,0,1,2.61-.35,13.58,13.58,0,0,1,5.87,6.65A20.64,20.64,0,0,1,42.23,25.89Z" transform="translate(-1 -1)"/><path class="cls-3" d="M35.8,25a10.49,10.49,0,0,0-1.28-4.28A5.86,5.86,0,0,0,33,19.12a6.59,6.59,0,0,0-.92-.56l-.49-.22a1.11,1.11,0,0,0-.41-.09l-.17,0c-.06,0,0,0-.1.06a2,2,0,0,0-.36.28,1.44,1.44,0,0,0-.4.69,1.53,1.53,0,0,0,.49,1.39,4.5,4.5,0,0,0,.77.52,4,4,0,0,1,1.06.89,4.26,4.26,0,0,1,.91,2.64,5,5,0,0,1-.75,2.6,4.3,4.3,0,0,1-.91,1,5.53,5.53,0,0,1-.55.39,1.73,1.73,0,0,0-.31.24,2.85,2.85,0,0,0-.53.68,1.29,1.29,0,0,0-.13.32.54.54,0,0,0,0,.28,3,3,0,0,0,.43.83l.32.44.09.11s0,0-.07,0l-.05,0s0,0,.11,0A3.93,3.93,0,0,0,33,30.86a5.55,5.55,0,0,0,1.51-1.57A10.83,10.83,0,0,0,35.8,25Zm0,0a13.88,13.88,0,0,1-1.1,4.39A6.57,6.57,0,0,1,32.37,32a3.12,3.12,0,0,1-1.18.51,1.17,1.17,0,0,1-.45,0,.77.77,0,0,1-.18-.07,1,1,0,0,1-.17-.13l-.11-.1-.42-.42a3.88,3.88,0,0,1-.77-1.07,1.89,1.89,0,0,1-.17-.82,2.5,2.5,0,0,1,.16-.77,3.69,3.69,0,0,1,.72-1.2,3.33,3.33,0,0,1,.55-.5,3.17,3.17,0,0,0,.87-1,3.35,3.35,0,0,0,.44-1.7,2.52,2.52,0,0,0-.47-1.58,2.79,2.79,0,0,0-.63-.6,5.42,5.42,0,0,1-1-.87A2.85,2.85,0,0,1,29,18.9a2.55,2.55,0,0,1,.9-1.12,3,3,0,0,1,.59-.33,1.17,1.17,0,0,1,.43-.12,1.54,1.54,0,0,1,.39,0,2,2,0,0,1,.66.26l.5.33a8.42,8.42,0,0,1,.9.77,6.84,6.84,0,0,1,1.33,1.9A13.28,13.28,0,0,1,35.8,25Z" transform="translate(-1 -1)"/><path class="cls-2" d="M27.14,25c0,4.08,0,8.15,0,12.23A3.64,3.64,0,0,1,26.4,39c-.44.67-1.08.56-1.68.12-2.66-2-5.31-4-8-5.93a3.18,3.18,0,0,0-1.65-.55c-1.75-.07-3.5,0-5.25,0a1.8,1.8,0,0,1-2-2q0-5.63,0-11.26a1.82,1.82,0,0,1,2-2.06c1.5,0,3-.07,4.5,0a4.25,4.25,0,0,0,3-1c2.42-1.89,4.9-3.69,7.36-5.53a1.53,1.53,0,0,1,2.38,1.16,5.85,5.85,0,0,1,0,1Q27.14,19,27.14,25Z" transform="translate(-1 -1)"/><path class="cls-3" d="M27.14,25c0,3.51,0,7,.1,10.53l0,1.32a2.87,2.87,0,0,1-.19,1.36,4.24,4.24,0,0,1-.7,1.21,1.1,1.1,0,0,1-.76.32,1.6,1.6,0,0,1-.76-.2c-1.53-1-2.91-2-4.37-3l-2.16-1.5-1.08-.75-.54-.37a5.18,5.18,0,0,0-.5-.33,2.65,2.65,0,0,0-1-.28c-.35,0-.85,0-1.27,0l-2.62.06-1.31,0a3.69,3.69,0,0,1-1.63-.27,2.37,2.37,0,0,1-1.28-1.47,4.85,4.85,0,0,1-.17-1.55l0-5.27,0-5.27A3.92,3.92,0,0,1,7.17,18a2.38,2.38,0,0,1,1.42-1.33,4.17,4.17,0,0,1,1.58-.18l1.33,0,2.66.08a3.79,3.79,0,0,0,2.21-.35c.64-.34,1.39-.95,2.1-1.43l2.16-1.52,2.16-1.52L23.86,11a5,5,0,0,1,1.2-.73,1.67,1.67,0,0,1,1.47.29,2,2,0,0,1,.75,1.24c.05.93,0,1.79,0,2.67C27.18,18,27.15,21.51,27.14,25Zm0,0c0-3.51,0-7-.13-10.53,0-.87,0-1.77-.12-2.59a1.34,1.34,0,0,0-1.66-1.07,5,5,0,0,0-1,.71l-1,.82L21.17,14l-2,1.65c-.71.54-1.29,1.11-2.16,1.66a5.14,5.14,0,0,1-2.88.67l-2.6.06a9.88,9.88,0,0,0-2.32.15.68.68,0,0,0-.43.43,2.66,2.66,0,0,0-.1,1l0,5.26,0,5.26c0,.95.05,1.36.43,1.54a2.14,2.14,0,0,0,.95.16l1.32,0L14,32c.46,0,.84,0,1.36.07a3.89,3.89,0,0,1,1.48.52,5.87,5.87,0,0,1,.58.43l.52.41,1,.82L21,35.84c1.37,1.07,2.77,2.22,4.11,3.23a.73.73,0,0,0,.92,0,4,4,0,0,0,.66-1,2.5,2.5,0,0,0,.24-1.21l0-1.32C27.08,32,27.11,28.53,27.14,25Z" transform="translate(-1 -1)"/><path class="cls-2" d="M42.23,25.89C42,30.3,40.45,35,35.83,38.2c-.23.16-.48.32-.72.46-1.08.63-2.35.49-2.77-.29a2.46,2.46,0,0,1,.87-3.11c6.47-3.4,6.73-11,4.84-15.45a10.58,10.58,0,0,0-4.65-5,2.43,2.43,0,0,1-1.17-2.9,1.74,1.74,0,0,1,2.58-.78,13.22,13.22,0,0,1,5.45,5.6A19,19,0,0,1,42.23,25.89Z" transform="translate(-1 -1)"/><path class="cls-3" d="M42.23,25.89a17.44,17.44,0,0,1-2.41,8.41A15.13,15.13,0,0,1,37,37.7a13.59,13.59,0,0,1-1.82,1.36,2.76,2.76,0,0,1-2.49.19,1.79,1.79,0,0,1-.91-1.1,3,3,0,0,1-.12-1.31A3.11,3.11,0,0,1,32,35.59a2.6,2.6,0,0,1,.44-.55,4.1,4.1,0,0,1,.55-.4,10.16,10.16,0,0,0,3-2.75,11.6,11.6,0,0,0,2.05-7.75,12.91,12.91,0,0,0-.88-4A9.16,9.16,0,0,0,35,16.85a13.9,13.9,0,0,0-1.63-1.29,4.8,4.8,0,0,1-1-.78,3,3,0,0,1-.69-1.2,3,3,0,0,1-.08-1.36,2.25,2.25,0,0,1,.62-1.29,2.34,2.34,0,0,1,2.61-.35,13.57,13.57,0,0,1,5.87,6.65A20.65,20.65,0,0,1,42.23,25.89Zm0,0a24,24,0,0,0-.38-4.38,16.53,16.53,0,0,0-1.4-4.14,12.85,12.85,0,0,0-6-5.94,1.36,1.36,0,0,0-1.49.27,1.16,1.16,0,0,0-.24.7,1.85,1.85,0,0,0,.11.82,1.72,1.72,0,0,0,.46.66,3.59,3.59,0,0,0,.79.51A12.25,12.25,0,0,1,36,15.7a10.36,10.36,0,0,1,2.86,3.77A14.49,14.49,0,0,1,39.92,24a14.27,14.27,0,0,1-.47,4.65,11.54,11.54,0,0,1-2.16,4.17,11.09,11.09,0,0,1-3.66,2.87,2.8,2.8,0,0,0-.36.21,1.43,1.43,0,0,0-.27.29,2,2,0,0,0-.34.79c-.11.57,0,1.25.4,1.46a2,2,0,0,0,1.74-.05,13.13,13.13,0,0,0,1.8-1.15,13.7,13.7,0,0,0,3-3.11,14.28,14.28,0,0,0,1.88-3.94A19.13,19.13,0,0,0,42.23,25.89Z" transform="translate(-1 -1)"/><path class="cls-2" d="M35.8,25c-.37,2.78-1,5.37-3.78,6.78-.38.19-1.1.39-1.26.21-.52-.57-1.19-1.31-1.18-2A2.81,2.81,0,0,1,30.8,28.1c1.93-1.24,2.39-4.28.73-5.8a12.67,12.67,0,0,1-1.47-1.16,2,2,0,0,1,.74-3.29,1.28,1.28,0,0,1,1,.1C34.69,19.41,35.47,22.07,35.8,25Z" transform="translate(-1 -1)"/><path class="cls-3" d="M35.8,25a13.85,13.85,0,0,1-1.11,4.39,6.45,6.45,0,0,1-1.39,1.87,6.56,6.56,0,0,1-.94.73,3.11,3.11,0,0,1-1.18.51,1.17,1.17,0,0,1-.45,0,.77.77,0,0,1-.18-.07,1,1,0,0,1-.17-.13l-.11-.1-.42-.42a3.91,3.91,0,0,1-.77-1.07,1.89,1.89,0,0,1-.17-.82,2.5,2.5,0,0,1,.16-.77,3.71,3.71,0,0,1,.71-1.2,3.32,3.32,0,0,1,.55-.5,3.66,3.66,0,0,0,.34-.3,3.54,3.54,0,0,0,.53-.7,3.32,3.32,0,0,0,.44-1.71,2.53,2.53,0,0,0-.47-1.57,2.89,2.89,0,0,0-.63-.6,5.43,5.43,0,0,1-1-.87A2.85,2.85,0,0,1,29,18.9a2.55,2.55,0,0,1,.91-1.12,3,3,0,0,1,.59-.33,1.18,1.18,0,0,1,.44-.12,1.55,1.55,0,0,1,.4,0,2,2,0,0,1,.66.26l.5.33a8.3,8.3,0,0,1,.9.77,6.81,6.81,0,0,1,1.33,1.91A13.3,13.3,0,0,1,35.8,25Zm0,0a10.47,10.47,0,0,0-1.28-4.28A5.88,5.88,0,0,0,33,19.12a6.69,6.69,0,0,0-.92-.56l-.49-.22a1.1,1.1,0,0,0-.41-.09l-.17,0c-.06,0,0,0-.1.06a2,2,0,0,0-.36.28,1.45,1.45,0,0,0-.4.69,1.54,1.54,0,0,0,.49,1.39,4.5,4.5,0,0,0,.77.52,3.89,3.89,0,0,1,1.06.89,4.25,4.25,0,0,1,.91,2.64,5.07,5.07,0,0,1-.76,2.6,4.39,4.39,0,0,1-.91,1,5.53,5.53,0,0,1-.55.39,1.73,1.73,0,0,0-.31.24,2.81,2.81,0,0,0-.53.68,1.29,1.29,0,0,0-.13.32.55.55,0,0,0,0,.28,3,3,0,0,0,.43.83l.32.44.09.11s0,0-.06,0l-.05,0s0,0,.11,0A3.93,3.93,0,0,0,33,30.87a5.53,5.53,0,0,0,1.51-1.57A10.85,10.85,0,0,0,35.8,25Z" transform="translate(-1 -1)"/></svg>