<svg id="Layer_1" data-name="Layer 1" xmlns="http://www.w3.org/2000/svg" viewBox="0 0 48 48"><defs><style>.cls-1{fill:#d1e5a8;}.cls-2{fill:#202c43;}.cls-3{fill:#fff;}</style></defs><title>Text</title><rect class="cls-1" width="48" height="48" rx="19.72" ry="19.72"/><path class="cls-2" d="M33.9,12.07a98.42,98.42,0,0,0-17.78-.18c-3.54.28-3.57,5.84,0,5.56q3-.24,6-.29a176.77,176.77,0,0,0,.74,18.61c.33,3.53,5.89,3.56,5.56,0A176.73,176.73,0,0,1,27.7,17.2q3.1.12,6.2.43C37.45,18,37.43,12.43,33.9,12.07Z" transform="translate(-1 -1)"/><path class="cls-3" d="M33.9,12.07c-2.69-.25-5.4-.42-8.1-.41a79,79,0,0,0-8.1.38l-1,.1a5.71,5.71,0,0,0-1,.15,2.39,2.39,0,0,0-1.4,1,2.57,2.57,0,0,0,.22,3.16,1.87,1.87,0,0,0,1.47.42l2-.16,4.08-.32.76-.06v.82q.09,5.71.4,11.4l.39,5.69.12,1.42a2.15,2.15,0,0,0,.31.92,2.07,2.07,0,0,0,.7.66,2.54,2.54,0,0,0,1,.29,2,2,0,0,0,1-.16,1.21,1.21,0,0,0,.66-.57,1.82,1.82,0,0,0,.2-.94l-.08-1.43q-.15-2.87-.22-5.75-.12-5.75.12-11.49V17l.22,0,3.7.35,1.85.16a4.62,4.62,0,0,0,1.81-.05,2.07,2.07,0,0,0,1.25-1.24,3.13,3.13,0,0,0,.12-1.8,3,3,0,0,0-.88-1.59A3.09,3.09,0,0,0,33.9,12.07Zm0,0a3.1,3.1,0,0,1,1.68.72,3,3,0,0,1,.91,1.59,3.19,3.19,0,0,1-.1,1.84,2.25,2.25,0,0,1-1.27,1.32,4.75,4.75,0,0,1-1.86.13l-1.85-.09-3.7-.16.23-.22q.1,5.73.57,11.43.24,2.85.56,5.68l.17,1.43a3.29,3.29,0,0,1-.32,1.83,3.12,3.12,0,0,1-.58.8,3.51,3.51,0,0,1-.8.54,3.71,3.71,0,0,1-1.79.37A4.31,4.31,0,0,1,24,38.85a3.76,3.76,0,0,1-1.81-2.1,7,7,0,0,1-.2-.9l-.14-1.43c-.18-1.91-.31-3.83-.39-5.75q-.28-5.75,0-11.52l.77.76-4,.07-2,0a2.94,2.94,0,0,1-2.25-.83,3.44,3.44,0,0,1-.14-4.33,3.1,3.1,0,0,1,1.89-1.19,6.31,6.31,0,0,1,1.06-.1l1,0c2.71-.08,5.43-.09,8.13,0S31.21,11.78,33.9,12.07Z" transform="translate(-1 -1)"/></svg>