<?xml version="1.0" encoding="utf-8"?>
<!-- Generator: Adobe Illustrator 21.1.0, SVG Export Plug-In . SVG Version: 6.00 Build 0)  -->
<svg version="1.1" id="Layer_1" xmlns="http://www.w3.org/2000/svg" xmlns:xlink="http://www.w3.org/1999/xlink" x="0px" y="0px"
	 viewBox="0 0 48 48" style="enable-background:new 0 0 48 48;" xml:space="preserve">
<style type="text/css">
	.st0{fill:#D0E4A7;}
	.st1{fill:#1F2B43;}
</style>
<title>Image</title>
<g>
	<path class="st0" d="M28.2,47.8h-8.5C9,47.8,0.2,39,0.2,28.2l0-8.5C0.2,9,9,0.2,19.8,0.2h8.5C39,0.2,47.8,9,47.8,19.8v8.5
		C47.8,39,39,47.8,28.2,47.8z"/>
	<g>
		<path class="st1" d="M26.9,22.4c2.6,0,5.1,0,7.7,0c0.9,0,1.2,0.3,1.2,1.2c0,3.8,0,7.7,0,11.5c0,0.8-0.3,1.2-1.2,1.2
			c-5.2,0-10.3,0-15.5,0c-0.8,0-1.2-0.3-1.2-1.2c0-3.8,0-7.7,0-11.5c0-0.8,0.3-1.1,1.1-1.1C21.7,22.4,24.3,22.4,26.9,22.4z
			 M26.8,33.3c0.5,0,1,0,1.5,0c1.1,0,2.2,0,3.3,0c0.9,0,1.1-0.4,0.7-1.2c-0.2-0.3-0.4-0.7-0.6-1c-0.3-0.6-0.8-0.7-1.4-0.5
			c-0.4,0.2-0.8,0.4-1.2,0.6c-0.8,0.4-1.2,0.2-1.7-0.5c-0.6-1-1.2-2-1.8-3c-0.3-0.5-0.6-0.9-1.2-0.8c-0.6,0-0.9,0.5-1.1,0.9
			c-0.6,1.4-1.2,2.7-1.8,4.1c-0.5,1-0.3,1.3,0.9,1.3C23.9,33.3,25.3,33.3,26.8,33.3z M31.4,27.1c0-0.7-0.5-1.3-1.2-1.3
			c-0.7,0-1.3,0.6-1.3,1.3c0,0.7,0.6,1.2,1.2,1.2C30.8,28.3,31.4,27.8,31.4,27.1z"/>
		<path class="st1" d="M18.6,20.5c-0.1,0-0.2,0-0.4,0c-1.4,0-2.2,0.8-2.2,2.2c0,2,0,4,0,6c0,0.2,0,0.4,0,0.6c0,0-0.1,0-0.1,0
			c-0.1-0.2-0.1-0.3-0.2-0.5c-1.2-3.5-2.3-7-3.5-10.4c-0.3-1-0.1-1.4,0.9-1.7c4.8-1.6,9.6-3.2,14.4-4.8c1-0.3,1.4-0.1,1.7,0.9
			c0.8,2.4,1.6,4.7,2.3,7c0.1,0.2,0.1,0.4,0.2,0.7c-0.3,0-0.5,0-0.7,0c-3,0-6,0-9,0c-0.4,0-0.8-0.1-1.1-0.4
			c-0.1-0.1-0.3-0.3-0.4-0.4c-0.8-0.6-1.5-0.4-1.9,0.5C18.7,20.4,18.7,20.4,18.6,20.5z M26.2,17.8c0-0.7-0.6-1.3-1.3-1.2
			c-0.7,0-1.2,0.6-1.2,1.2c0,0.7,0.6,1.3,1.3,1.2C25.6,19,26.2,18.4,26.2,17.8z"/>
	</g>
</g>
</svg>
