<svg id="Layer_1" data-name="Layer 1" xmlns="http://www.w3.org/2000/svg" viewBox="0 0 48 48"><defs><style>.cls-1{fill:#d1e5a8;}.cls-2{fill:#202c43;}.cls-3{fill:#fff;}</style></defs><title>Video</title><rect class="cls-1" width="48" height="48" rx="19.72" ry="19.72"/><path class="cls-2" d="M40.91,18.65l-6.18,3.57V20.78a4.49,4.49,0,0,0-4.48-4.48H13.57a4.49,4.49,0,0,0-4.48,4.48v8.45a4.49,4.49,0,0,0,4.48,4.48H30.25a4.49,4.49,0,0,0,4.48-4.48V27.79l6.18,3.57ZM19.83,30.26V19.79L28.89,25Z" transform="translate(-1 -1)"/><path class="cls-3" d="M40.91,18.65c-2.13,1.3-4.1,2.61-6,3.81l-.4.25,0-.49a14.67,14.67,0,0,0-.15-2.2,4.14,4.14,0,0,0-.95-1.82,4.2,4.2,0,0,0-1.68-1.12,3.93,3.93,0,0,0-1-.21c-.32,0-.69,0-1.08,0l-9.1.19L16,17.12l-2.27,0a3.67,3.67,0,0,0-1.79.44A3.62,3.62,0,0,0,10,20.52c0,.26,0,.71,0,1.07v6.82c0,.36,0,.81,0,1.07a3.57,3.57,0,0,0,3.64,3.29H16l4.55,0,9.1.1h.57l.48,0a3.67,3.67,0,0,0,.91-.21,3.77,3.77,0,0,0,1.55-1.06A3.83,3.83,0,0,0,34,29.93a14.59,14.59,0,0,0,.11-2.14l0-1.14.94.57,6.09,3.72-.71.41.25-6.23C40.77,23,40.86,20.86,40.91,18.65Zm0,0c.05,2,.14,4.1.22,6.23l.25,6.48,0,.82-.75-.41L34.4,28.35l1-.57a15,15,0,0,1-.05,2.4,5.26,5.26,0,0,1-4.49,4.28c-.22,0-.46,0-.66,0h-.57l-9.1.1-4.55,0H13.69A5.5,5.5,0,0,1,11.06,34a5.41,5.41,0,0,1-2.9-4.41c0-.5,0-.81,0-1.21V21.59c0-.4,0-.71,0-1.2a5.37,5.37,0,0,1,5.5-4.93l2.27,0,4.55.07,9.1.19c.37,0,.76,0,1.2.06a5,5,0,0,1,1.22.33,4.86,4.86,0,0,1,2,1.5,4.94,4.94,0,0,1,1,2.25,14.83,14.83,0,0,1,0,2.34L34.58,22C36.76,20.8,38.92,19.73,40.91,18.65Z" transform="translate(-1 -1)"/><path class="cls-3" d="M19.83,30.26l-.49-4.95c-.17-1.77-.31-3.65-.36-5.52l0-1.43,1.32.69c1.55.8,3.06,1.68,4.58,2.53s3,1.76,4.48,2.7l1.26.8-1.26.68c-1.64.89-3.34,1.71-5,2.45Zm0,0c1.65-1.1,3.13-2.19,4.53-3.19s2.72-1.93,4.1-2.79v1.49c-1.55-.8-3.06-1.68-4.58-2.53s-3-1.76-4.48-2.7l1.28-.74c0,1.62-.19,3.23-.36,4.95S20,28.28,19.83,30.26Z" transform="translate(-1 -1)"/></svg>