<?xml version="1.0" encoding="utf-8"?>
<!-- Generator: Adobe Illustrator 21.1.0, SVG Export Plug-In . SVG Version: 6.00 Build 0)  -->
<svg version="1.1" id="Layer_1" xmlns="http://www.w3.org/2000/svg" xmlns:xlink="http://www.w3.org/1999/xlink" x="0px" y="0px"
	 viewBox="0 0 48 48" style="enable-background:new 0 0 48 48;" xml:space="preserve">
<style type="text/css">
	.st0{fill:#D0E4A7;}
	.st1{fill:#1F2B43;}
</style>
<g>
	<title>Text</title>
	<g>
		<path class="st0" d="M28.4,47.6h-8.5c-10.7,0-19.5-8.8-19.5-19.5v-8.5C0.4,8.9,9.1,0.1,19.9,0.1l8.5,0c10.7,0,19.5,8.8,19.5,19.5
			v8.5C47.9,38.9,39.1,47.6,28.4,47.6z"/>
	</g>
	<g>
		<path class="st1" d="M34.7,19.3h-1.5c-0.1-1.3-0.4-2.3-0.9-2.9c-0.4-0.6-0.9-1-1.4-1.2c-0.5-0.1-1.1-0.2-1.8-0.2h-2.7v15.7
			c0,0.6,0.1,1.1,0.2,1.4c0.1,0.3,0.4,0.6,0.9,0.8c0.5,0.2,1.1,0.3,2,0.3v1.5H18.8v-1.5c1.3,0,2.2-0.2,2.5-0.6c0.4-0.4,0.6-1,0.6-2
			V14.9h-2.3c-0.9,0-1.6,0.1-2.2,0.2c-0.6,0.1-1.1,0.5-1.6,1.2c-0.4,0.6-0.7,1.6-0.8,2.9h-1.5v-6.1h21.2V19.3z"/>
	</g>
</g>
</svg>
