<?xml version="1.0" encoding="utf-8"?>
<!-- Generator: Adobe Illustrator 21.1.0, SVG Export Plug-In . SVG Version: 6.00 Build 0)  -->
<svg version="1.1" id="Layer_1" xmlns="http://www.w3.org/2000/svg" xmlns:xlink="http://www.w3.org/1999/xlink" x="0px" y="0px"
	 viewBox="0 0 48 48" style="enable-background:new 0 0 48 48;" xml:space="preserve">
<style type="text/css">
	.st0{fill:#D0D2D3;}
</style>
<title>Voice</title>
<g>
	<path class="st0" d="M24,29.9c4,0,7.2-3.3,7.2-7.2V11.4c0-4-3.3-7.2-7.2-7.2s-7.2,3.3-7.2,7.2v11.3C16.8,26.7,20,29.9,24,29.9z"/>
	<path class="st0" d="M35,23.9c-1.4,5.3-5.4,9.2-10,9.2H23c-4.7,0-8.7-3.9-10-9.2H9.5c0,6.7,5,12.2,11.5,13.1v4
		c0,1.5,1.3,2.8,2.8,2.8h0.3c1.5,0,2.8-1.3,2.8-2.8v-4c6.5-0.9,11.5-6.4,11.5-13.1H35z"/>
</g>
</svg>
