<?xml version="1.0" encoding="utf-8"?>
<!-- Generator: Adobe Illustrator 21.1.0, SVG Export Plug-In . SVG Version: 6.00 Build 0)  -->
<svg version="1.1" id="Layer_1" xmlns="http://www.w3.org/2000/svg" xmlns:xlink="http://www.w3.org/1999/xlink" x="0px" y="0px"
	 viewBox="0 0 48 48" style="enable-background:new 0 0 48 48;" xml:space="preserve">
<style type="text/css">
	.st0{fill:#D0D2D3;}
</style>
<title>Voice</title>
<g>
	<path class="st0" d="M29.2,21.1c4.5,0,9,0,13.6,0c1.6,0,2.1,0.5,2.1,2.1c0,6.8,0,13.5,0,20.3c0,1.5-0.6,2.1-2,2.1
		c-9.1,0-18.2,0-27.3,0c-1.5,0-2.1-0.6-2.1-2.1c0-6.8,0-13.6,0-20.4c0-1.4,0.6-2,2-2C20,21.1,24.6,21.1,29.2,21.1z M29,40.4
		c0.9,0,1.7,0,2.6,0c1.9,0,3.9,0,5.8,0c1.5,0,1.9-0.7,1.2-2c-0.3-0.6-0.6-1.2-1-1.8c-0.6-1-1.5-1.3-2.6-0.8
		c-0.7,0.3-1.4,0.7-2.1,1.1c-1.3,0.6-2.2,0.4-3-0.9c-1.1-1.8-2.2-3.5-3.3-5.3c-0.5-0.8-1-1.5-2.1-1.5c-1.1,0.1-1.5,0.8-1.9,1.7
		c-1,2.4-2.1,4.8-3.1,7.2c-0.8,1.8-0.5,2.3,1.6,2.3C23.8,40.4,26.4,40.4,29,40.4z M37,29.4c0-1.2-1-2.2-2.1-2.3
		c-1.2,0-2.3,1-2.3,2.2c0,1.2,1,2.2,2.2,2.2C36,31.6,37,30.6,37,29.4z"/>
	<path class="st0" d="M14.5,17.8c-0.2,0-0.4,0-0.6,0c-2.6,0-3.9,1.4-3.9,3.9c0,3.5,0,7,0,10.6c0,0.3,0,0.7,0,1c-0.1,0-0.1,0-0.2,0
		c-0.1-0.3-0.2-0.5-0.3-0.8c-2.1-6.1-4.1-12.3-6.1-18.4c-0.6-1.8-0.2-2.4,1.5-3c8.5-2.8,16.9-5.7,25.4-8.5c1.7-0.6,2.5-0.2,3,1.5
		c1.4,4.2,2.7,8.3,4.1,12.5c0.1,0.4,0.2,0.7,0.4,1.2c-0.5,0-0.8,0-1.2,0c-5.3,0-10.6,0-15.9,0c-0.8,0-1.4-0.1-1.9-0.7
		c-0.2-0.2-0.5-0.5-0.8-0.7c-1.4-1.1-2.7-0.8-3.3,0.9C14.6,17.6,14.6,17.7,14.5,17.8z M27.8,13c0-1.2-1.1-2.2-2.3-2.2
		c-1.2,0-2.1,1-2.1,2.2c0,1.2,1,2.2,2.2,2.2C26.8,15.2,27.8,14.2,27.8,13z"/>
</g>
</svg>
