<?xml version="1.0" encoding="utf-8"?>
<!-- Generator: Adobe Illustrator 21.1.0, SVG Export Plug-In . SVG Version: 6.00 Build 0)  -->
<svg version="1.1" id="Layer_1" xmlns="http://www.w3.org/2000/svg" xmlns:xlink="http://www.w3.org/1999/xlink" x="0px" y="0px"
	 viewBox="0 0 48 48" style="enable-background:new 0 0 48 48;" xml:space="preserve">
<style type="text/css">
	.st0{fill:#F2D07E;}
	.st1{fill:#1F2B43;}
</style>
<title>Video</title>
<g>
	<path class="st0" d="M28.2,47.8h-8.5C9,47.8,0.2,39,0.2,28.2v-8.5C0.2,9,9,0.2,19.8,0.2h8.5C39,0.2,47.8,9,47.8,19.8v8.5
		C47.8,39,39,47.8,28.2,47.8z"/>
	<path class="st1" d="M37.6,18.6l-5.3,3.1v-1.2c0-2.1-1.7-3.8-3.8-3.8H14.2c-2.1,0-3.8,1.7-3.8,3.8v7.2c0,2.1,1.7,3.8,3.8,3.8h14.3
		c2.1,0,3.8-1.7,3.8-3.8v-1.2l5.3,3.1V18.6z M19.6,28.5v-9l7.8,4.5L19.6,28.5z"/>
</g>
</svg>
