<?xml version="1.0" encoding="utf-8"?>
<!-- Generator: Adobe Illustrator 22.1.0, SVG Export Plug-In . SVG Version: 6.00 Build 0)  -->
<svg version="1.1" id="Layer_1" xmlns="http://www.w3.org/2000/svg" xmlns:xlink="http://www.w3.org/1999/xlink" x="0px" y="0px"
	 viewBox="0 0 1400 2500" style="enable-background:new 0 0 1400 2500;" xml:space="preserve">
<style type="text/css">
	.st0{opacity:0.4;fill:none;}
	.st1{opacity:0.4;fill:#B3B8FA;}
	.st2{opacity:0.4;fill:#FFD3A9;}
	.st3{opacity:0.4;fill:#A6C2F8;}
	.st4{opacity:0.4;fill:#DBE39C;}
	.st5{opacity:0.4;fill:#A8D6D7;}
	.st6{opacity:0.4;fill:#98CCF7;}
	.st7{opacity:0.4;fill:#BACEDD;}
	.st8{opacity:0.4;fill:#DDD1C3;}
	.st9{opacity:0.4;fill:#C9EB96;}
	.st10{opacity:0.4;fill:#C1AEFB;}
	.st11{opacity:0.4;fill:#EDDBA3;}
</style>
<title>background</title>
<rect x="40.4" y="31.6" class="st0" width="1321.4" height="2441.7"/>
<path class="st1" d="M819,1870.8l14,4.6l9.3,10.6l7.4-6.9l7.4-6.9l0.5-5.1l-13.8-9l-13.8,4.2c0,0-3,2.6-5.8,4.6
	S819,1870.8,819,1870.8z"/>
<polygon class="st2" points="1176.5,2366.9 1171.8,2373.4 1177.1,2372.2 1178.2,2377 1190.3,2368.1 1189.5,2366.3 1188,2363.9 "/>
<polygon class="st3" points="848.6,2260.4 851.9,2267.4 854.3,2263.7 859.8,2266.3 859.1,2253.6 856.8,2252.9 853.4,2252.1 "/>
<path class="st4" d="M1169,1881.9l5.5,8.8l12-6.7l10.9,3.3c4.4-4.5,7.2-9.9,12.6-13.8c1.1-0.8,3.7-0.3,5.6-0.3
	c-3.7-1.4-6.4-3.7-9.6-5.8c-4.4-3.6-8.7-8-8.7-8l-4.6,1.6l-26.7,12L1169,1881.9z"/>
<path class="st1" d="M1152.1,2242.4l8.4,11c3,0.3,7.3,1.6,7.7,1.1c5.2-7.2,12-13.4,17.2-20.6c2.4-3.5,1.6-8.3-1.9-10.7
	c-1.3-0.9-2.8-1.4-4.4-1.4c-10.3-0.5-23.6,3.7-25.2,12.4C1153,2236.9,1152.3,2239.6,1152.1,2242.4z"/>
<path class="st2" d="M937.9,2357.1c4.6-2.7,6.8-6.6,9.2-10.4l6.8-9.6l-10.1-1.2c-2.9,1-6.6,1.5-8.5,3.1c-2,1.9-3.6,4.2-5,6.6
	c-1.4,2.3-2.6,4.7-4.2,6.9L937.9,2357.1z"/>
<polygon class="st5" points="766.2,2309.7 763,2312.9 771.3,2320.4 774.8,2319.1 777.3,2314.7 783.4,2306.4 771.5,2306.8 
	767.3,2300.9 765.8,2308.3 "/>
<path class="st6" d="M1212.8,2078.5c5.1-2.8,8.3-7.1,13.1-10.3c1.5-1.1,4.5-1.4,5.2-2.4c1.3-2.7,0.6-6.7-1.7-8.6
	c-6.7-5.4-14.4-15-25.4-8.8c0,10.1,2.4,19.8,0.2,30.2c-0.2,0.8,2.4,0.5,3.9,0.4C1210.5,2078.9,1212.8,2078.5,1212.8,2078.5z"/>
<path class="st7" d="M935.9,2124.2c-2.2-3.4-4.2-7.1-5.9-10.9c-0.5-2.2-1-4.4-1.5-6.6c-1.6-6.6-3.3-13.1-5.4-19.6
	c-3.9,3.7-7.5,7.5-11.4,11.1c-1.9,1.8-3.9,3.6-6,5.3s-5.6,3.3-5.6,5.1c0,5.4,0.2,12.3,4.7,16c1.9,1.6,8.8,0.8,14,0.3
	C927.5,2124.5,935.9,2124.2,935.9,2124.2z"/>
<path class="st7" d="M1321.5,2332.7c8.9-1.6,18.2-1.8,27.5-1.8c2.3,0,6.2-0.5,6.4-1.3c1.1-2.6-1.2-6-3.8-7.3
	c-4.9-2.5-9.4-7.2-15.6-6.7c-6.4,0.5-8.8,6.1-11.2,10.4C1323.6,2328.2,1322.5,2330.4,1321.5,2332.7z"/>
<path class="st8" d="M848.9,2452.9c-3.5,5.2-7.4,10.3-10.8,15.6l9.3,1.8l1.7-1.4l15.8-14l-0.4-10.7l-8.8,1.6L848.9,2452.9z"/>
<path class="st8" d="M983.9,1905.9c-2.1,2-4.2,3.7-6.2,5.8c5.4-1.3,11-2.6,16.3-3.8c-0.2,0.8-1.3,0.9-1.5,1.8
	c4.5-0.5,11.6-0.2,11.8-1.3c3-11.8-16.3-12.8-28.9-10.8L983.9,1905.9z"/>
<path class="st8" d="M794.7,2190.6c2.7,2.8,6.3,5.4,6.3,9c3.4-1.1,7.7-2.2,9.2-4.3c1.3-1.9-0.2-5.3-1.7-7.5c-1.3-1.9-5.4-2.1-6.9-4
	c-0.4-0.6-2.6-1-4-1.2L794.7,2190.6z"/>
<path class="st7" d="M1008.5,2480.3c2.6,2.5,5.6,4.7,8.5,7c2.9,3.6,7.6,6.7,8.3,11.1c7.5-3.6,15.2-7.8,19.2-13.9
	c1-1.8,1.7-3.8,2.3-5.8c0.5-2,1-4,1.3-6c-3.2,0.3-6.3,1.7-9.5,0.9c-4.1-0.9-7.3-4.6-11.6-3.4c-2.7,0.8-4.7,2.8-6.8,4.4
	C1014.6,2477.6,1008.5,2480.3,1008.5,2480.3z"/>
<path class="st4" d="M1040,2234.6c-5.2,0.3-9.7-0.4-15.6,1.4c-3.1,0.9-8.4,5.8-12.6,9.5c-3.6,3.5-7,7.3-10,11.3
	c-0.6,0.8-2.4,2.3-2.3,2.3c6.2,1,12.7,1.4,14.8,5.7c3.5-3.3,7-6.7,10.6-9.9l12.3-11.1c0.7-1.5,1.3-3.1,1.8-4.7
	C1039.4,2237.5,1039.8,2236.1,1040,2234.6z"/>
<path class="st6" d="M819.6,2039c0,0,3.1-2.5,6.7-5.2l7.4-5.7l4.2,3.1l5.7-8.9l-7.2-23.1l-12.5,15.4l-9.2-9.9
	c-1.5,4.5-2.3,9-3.8,13.5c-2.1,6.7-3.9,12.8-3.9,12.8L819.6,2039z"/>
<path class="st9" d="M1084.5,2016.3l-3.6,9.3l4.2,10.3l-10.1-0.2l-10.1-0.2l-4.7-2.6l-0.3-11.6l11.2-4.4c0,0,4,0,7.2-0.3
	S1084.5,2016.3,1084.5,2016.3z"/>
<polygon class="st6" points="1341,2461.4 1349.3,2462.7 1345.3,2464.7 1348.9,2467.8 1334.5,2468.8 1333.3,2467.4 1332,2465.4 "/>
<polygon class="st7" points="1094.7,2411.6 1099,2417 1094.4,2416.2 1093.7,2420.2 1083,2413 1083.6,2411.5 1084.7,2409.4 "/>
<path class="st2" d="M1234.2,1969.2c3.4-1.7,7.2-3.3,10.7-5c-0.1,3.3,0.2,7-3,9c-2.8,1.6-7.1,1-10.8,1.6L1234.2,1969.2z"/>
<polygon class="st2" points="705.3,1909.5 710.2,1909.9 713,1918.4 709.7,1919.3 704.1,1917.9 692.7,1915.8 699.6,1910.3 
	696.1,1904.7 704.1,1908.4 "/>
<path class="st5" d="M1258.8,2208c-1.9-3.1-4-6-6.3-8.8l-5-4.4c-4.9-4.4-9.7-8.8-14.2-13.3c5.3,0.1,10.7,0.4,16,0.6
	c2.7,0.1,5.3,0.1,8,0s6-0.9,7.5,0.1c4.8,3,10.7,6.8,11.4,11c0.3,1.8-4.1,4.7-7.4,7C1263.7,2204.1,1258.8,2208,1258.8,2208z"/>
<path class="st4" d="M1043.4,2341.2c1,2.8,1.2,6,4.5,8c-2.9,1.1-6.2,2.5-8.8,2.1c-2.4-0.4-4.5-3-5.6-4.9c-1-1.7,1.1-3.7,0.3-5.5
	c-0.3-0.6,0.6-1.8,1.1-2.6L1043.4,2341.2z"/>
<path class="st8" d="M1232.3,2405.4c3.1-2.3,4.9-4.9,9.8-6.8c2.5-1,9.7-0.9,15.2-0.9c5.1,0.1,10.3,0.6,15.4,1.3
	c1,0.2,3.3,0.1,3.2,0.1c-2.5,3.5-5.7,6.9-3.1,10.3c-4.8-0.1-9.7-0.2-14.5-0.3l-16.4-0.1c0,0-2.8-0.8-5.1-1.7
	S1232.3,2405.4,1232.3,2405.4z"/>
<path class="st4" d="M1082.7,2181.4c0,0-3.9,0.2-8.2,0.4l-9.1,0.5l0.4,3.7l-10.9-2.1l-16.4-16.1l20.3,2.4l-3.6-9.8
	c4.8,1.8,9.2,3.8,13.9,5.6c7,2.6,13.4,5.1,13.4,5.1L1082.7,2181.4z"/>
<path class="st9" d="M720.8,2093c-3.4-2.8-7-5.3-10.8-7.5c-3.1-2.1-6-4.4-8.7-7l7.8,3.4l9.9-0.1l6.4,4.3c3.5,3,7.4,5.9,9.6,9.4
	c1.2,2,0,4.7-0.4,7.1c-2.4-1.2-4.7-2.7-7-4.1C725.2,2096.8,722.9,2094.9,720.8,2093z"/>
<path class="st7" d="M1213.2,2268.4c0.3-1.9,0.8-3.7,1.4-5.5c1.9-6,4.4-12.4,10.1-16.2c1.8-1.2,4.5-1.7,7.8-2
	c6.3-0.9,12.7-1.2,18.8,0.7c-4.4,1.6-8.3,4.4-11.2,8.1c-2,2.3-4.1,4.7-5.6,6.5c-1.6,3.7-6.9,4.9-11.5,6.3
	C1219.8,2267.2,1216.5,2268,1213.2,2268.4z"/>
<path class="st6" d="M921.4,1968.7c0,0-0.8-4.7-1.5-9.5l-1.5-9.5l12.9,3.4l14.4,8.6l-3.9,15.6l-11.7-1.7L921.4,1968.7z"/>
<path class="st6" d="M1104.7,2085.6l-10.5,3.1l2.5-12.2l2.1-3.8l9.4-1.8c6.3-0.8,12.6-2.7,19-2.1c2.2,0.3,5.3,2,5.2,2.6
	c-1.4,4.9-5.8,9.5-11.3,12.6c-2,1.1-5.4,0.9-8.2,1.1C1108.7,2085.5,1104.7,2085.6,1104.7,2085.6z"/>
<path class="st7" d="M1318.8,2152.9c-1-1.5-2.6-3.6-2-4.3c1.7-1.7,3.6-3.1,5.7-4.2c2.2-1.1,4.6-1.8,6.6-1.3c6.4,2.3,15.7,5.9,14,11
	c-1.4,4.3-10.7,2.9-16.1,0.8C1324.3,2154,1321.6,2153.4,1318.8,2152.9z"/>
<path class="st10" d="M737.8,2213c-4.2,0-7.8,0.7-12,0.6c-9.7-0.2-19.1-0.7-27.9,0.6c1-2.2,2.2-4.4,3-6.6c1-2.3,2-4.6,3.2-6.8
	l-2.3-6l-2.2-6l8.8,2.7c12.9,2.9,20.5,11.9,31,17.6L737.8,2213z"/>
<path class="st1" d="M710.9,2374.4c-6.5-6.1-15.8-9.8-25.4-12.6c7-3.3,14-6.8,22.6-7.7c4.4-0.6,8.6,0.8,12.9,0.8
	c5.9,0.3,11.8,0,11.8,0s-1.4,2.3-2.9,4.6c-1.9,4.3-6.6,6.7-11.2,9.3C715.9,2370.5,713.3,2372.4,710.9,2374.4z"/>
<path class="st2" d="M1105.9,2485.3c4.5-5.6,9.4-11.1,14.5-16.5c1.6-1.9,2.9-3.9,5.2-5.3c2.7-1.6,6.3-2.1,9.2-3.5
	c-1,2.7-1.8,5.5-3,8.3c-1.9,6.4-9.1,10.6-17.1,12.8C1109.6,2483.5,1105.9,2485.3,1105.9,2485.3z"/>
<path class="st4" d="M1146.1,1952.8c-1.9-1.6-3.8-3.3-5.8-4.9c2.5-0.3,4.8-1.7,7-1.4c5.7,0.7,10.7,2.6,16,4.1l-7.2,5.5
	L1146.1,1952.8z"/>
<path class="st2" d="M1342.7,2035l-2.3-5.1l8.5-1.8c2.8-0.7,5.5-1.5,8.1-2.6c-2.3,1.9-4.7,3.7-7.2,5.3
	C1346.2,2033,1342.7,2035,1342.7,2035z"/>
<path class="st8" d="M866.2,1884.5c-0.9-2.5-1.1-5.3-4-7c2.5-0.9,5.4-2.2,7.8-1.9c2.1,0.4,4,2.6,5,4.3c0.9,1.5-1,3.3-0.2,4.8
	c0.3,0.5-0.5,1.6-1,2.3L866.2,1884.5z"/>
<path class="st1" d="M964.7,2205.4c0,0-4.6-3.4-8.8-6.2l-8.4-5.6l13.2,1.2l5-0.6c1.9,1.5,3.7,3,5.5,4.5c5.5,4.5,10.8,9.2,16.4,13.6
	c-3.4,1-6.8,2.8-10.2,2.6c-2.7-0.2-4.1-2.9-6.3-4.4L964.7,2205.4z"/>
<path class="st2" d="M921.3,2412c-2.8-2.2-5.7-4.3-8.7-6.3c-2.7-1.6-5.4-3.1-8.1-4.6c8.4-0.4,15.3,3.4,20.3,8.1
	c1.7,1.4,3,3.2,3.7,5.2L921.3,2412z"/>
<path class="st4" d="M760.5,1944.3l-9.4-3.5c-4.7-1.8-9.6-3.2-9.6-3.2l11-3.7c11.5,3.2,22.1,7.5,33.7,10.3c-4.4-0.1-8.8,0.1-13,0
	C766.7,1944.2,760.5,1944.3,760.5,1944.3z"/>
<path class="st2" d="M1303.2,1910.8c0.7,0.6,1.4,1.2,2.1,1.8c-3.5-1.4-6.6-3.3-9.9-4.8c3.4-2.9,7.4-4.9,11.7-5.9
	c4.6-1.2,9.3-1.7,14-1.7c9.3-0.6,18.5,2.1,24.1,7.4c0.4,0.4-2.4,2.6-4,4c-1.5,1.2-2.3,3.3-4.5,3.4c-9.6,0.2-19.3-0.8-28.6-3
	C1305,1911.3,1303.2,1910.8,1303.2,1910.8z"/>
<path class="st6" d="M1119.5,2341.3c-3.1-0.5-5.7-1.5-8.8-2c5.2-2.9,9.7-6.9,13.2-11.6c1.9-2.9,3.5-5.6,5.5-8.3
	c3.2-3.6,6.4-7.2,6.4-7.2c5.8-0.7,11.4-1.7,17-2.8c-0.3,1.8-0.8,3.7-1.2,5.6c-0.8,2-1.8,3.9-3.1,5.6c-1.7,2.2-5.6,3.3-8.8,4.9
	c-4.4,2.1-8.7,4.4-8.7,4.4c-0.4,4.6-1,9.2-1.8,13.7c-1.7-0.4-3.3-1-5-1.3C1121.8,2341.8,1119.5,2341.3,1119.5,2341.3z"/>
<path class="st7" d="M110.3,2472.1c2.8,1.3,5.7,2.5,8.8,3.6c10,3.7,20.9,7.2,31,6.1c3.2-0.3,6.2-2,9.5-4.2c6.6-4,12.4-8.7,15-14.9
	c-6.7,2.1-13.8,2.7-20.8,1.6c-5-0.4-10-0.9-13.7-1.2c-6.6-1.9-12.6,1.1-18.4,3.4C117.7,2468,113.9,2469.9,110.3,2472.1z"/>
<path class="st10" d="M450.2,1968.4l11,6.3l6.3-5.5c0.7-7.4-9.4-10.3-15.6-14.6c0.1,1.1,0.1,2.2-0.1,3.3l-1.7,9.2L450.2,1968.4z"/>
<polygon class="st4" points="653.1,2120 656.4,2126.9 658.8,2123.3 664.3,2125.9 663.6,2113.2 661.3,2112.4 657.9,2111.6 "/>
<path class="st7" d="M544.7,2218.1c0,0,5.5,4.4,10.8,8.8s10.7,8.6,10.7,8.6s0-1.4-0.1-3.6c-0.2-7.2-1.7-14.6-2.2-22L544.7,2218.1z"
	/>
<path class="st2" d="M68.2,2189.5l6.2,12.2l11.1,3.9l1.9-3.3l9.3-10.4c-3.6-3.2-5.1-8-9.7-10.4c0,0-4.2,1-8.7,2l-8.3,2.1
	L68.2,2189.5z"/>
<path class="st11" d="M446.2,2381.1c2.5,1.2,4.8,3.4,7.3,3.7c3.5,0.3,6.9,0.5,10.3,0.5c7.8,0.6,15.4-1.6,19.9-6.3l10.4-6.5l9.7-2.3
	l-7-11.2c-4.6,0.3-9.5,0.3-13.6,1.8c-7.1,2.3-11.5,7.6-17.5,11.1c-2.5,1.6-5.4,2.5-8.3,2.8c-3.1,0.4-6.2-0.2-8.9-1.7
	c-0.2,1.9-0.7,3.7-1.3,5.4C446.6,2380,446.2,2381.1,446.2,2381.1z"/>
<path class="st10" d="M92.1,1861.5c0.2,5-0.8,10.9,3.2,14.3c1.5,1.1,6.7-0.6,10.5-0.5c5.5-0.1,10.8,0.2,10.8,0.2l19.5-1.8l-4.2-2
	l4.4-19.7l-14.6,2.5c-7.3,1.3-14.6,2.6-14.6,2.6l-1.4-10.6c0,0-3,2.9-6.4,6.7S92.1,1861.5,92.1,1861.5z"/>
<path class="st5" d="M227.1,2012.4c0,0,0.9,3.4,1.6,7.2s1.2,7.8,1.2,7.8l9,2l29.8,0.4l-9.4-14.8l-0.2-12.4c-8.8,0.5-17.5,1.7-26,3.8
	c-2.9,0.7-6,1.2-9,1.3L227.1,2012.4z"/>
<polygon class="st10" points="273.3,2141.5 281.7,2152.7 287.4,2141.4 286,2137.9 "/>
<path class="st11" d="M551,2082.2l0.3-4.6l-21,10.3l3.3,10c6.7-1,13.3,0.9,20,1.7c-0.7-2.7-1.3-5.4-1.8-8.1
	C551.3,2088.4,551,2085.3,551,2082.2z"/>
<path class="st1" d="M392.7,2415.9c0,0,0.5-3.4,1-6.8l0.9-6.9c0,0-6.3,3.1-12.9,6c-6.8,3-13.5,6.8-13.5,6.8s6-0.1,12.2,0.2
	S392.7,2415.9,392.7,2415.9z"/>
<path class="st4" d="M365.1,2159c-0.1,9.8,1.2,19.6-0.1,29.5c-0.4,4.6,3,9.4,4.7,14.1c4-1.2,8-2.4,12-3.5s8-2.1,12.1-3
	c-0.5-2.9-0.9-6-1.5-9c-0.5-3-1.5-6-3.1-8.7c-3.9-6.9-12.9-11.5-20.2-16.5C366.7,2160.1,365.1,2159,365.1,2159z"/>
<path class="st2" d="M178.2,2047.6l-1.6,2.8l-7.1,19.9l1.4-0.1l14.1,3.4c-1.1-5.1,0.2-10,0.8-15.2l1.5-9.7L178.2,2047.6z"/>
<path class="st3" d="M220.5,2478c0.7,4,1.1,8,1.2,12c-0.1,3.4-0.3,6.7-0.5,10.1c7.7-6.1,8.4-14.5,6.1-22.3c-0.6-2.8-2-5.3-4-7.3
	L220.5,2478z"/>
<path class="st9" d="M160,2441.7l-3.8,7.2c-7,12.7-13.7,25.6-14.1,39.5c5.4,0.2,10.5,2.6,15.2,2.1c2.6-0.3,5.6-3,5.8-5.1
	c1.3-8.1,5.4-16,5.4-23.9c-0.2-3.5-3-7-4.4-10.4C162.1,2446.3,160,2441.7,160,2441.7z"/>
<path class="st7" d="M381.1,2260.6l2.3,0.6l9.5,4.2l6.8,2.8l3.5,17.4l-16.1-8.2L374,2281l-3.2-6.8l-3.2-6.8L381.1,2260.6z"/>
<path class="st7" d="M703.5,2116.8l-0.5,8.8h-8.2c-6.9-3.7-3.9-10.1-4.3-15.5c0.9,0.7,1.9,1.3,3,1.8l9,4.2L703.5,2116.8z"/>
<path class="st4" d="M94.3,2000l4.8,7.5l-12.4,2.2l-3,7c-6.4-0.3-12.7-1.9-19-1.4c-1.3,0.1-2.3,1.6-3.3,2.5c0.7-2.6,0.3-5.1,0.2-7.8
	c-0.6-2.9-1.3-5.8-2.2-8.6l3.9-1.3l25.1-6.3L94.3,2000z"/>
<path class="st3" d="M98.1,2386.4l5,10.1c-1.4,1.6-2.6,4.4-3.3,4.4c-9.1-1.4-18.3-1.5-27.4-2.9c-2.7-0.4-5.3-1.8-7.1-3.9
	c-1.5-1.9-1.9-4-0.1-5.8c5.2-5.2,16.1-9.4,24.7-5.4C92.7,2383.8,95.4,2384.9,98.1,2386.4z"/>
<path class="st1" d="M323.5,2338.7l7.3,9.7l-2.7,7.5l-3.9-0.9l-14.3-1.2c-0.9-3.5-4.3-6.9-3.8-10.3c0,0,3.2-1.5,6.5-3.1l6.4-2.9
	L323.5,2338.7z"/>
<path class="st2" d="M563.5,1903.3c-5.3,0.9-10.8,0.1-16.2,0.7c-1.8,0.1-3.7,1.4-4.9,1.2c-3.1-0.9-6.2-3.3-6.6-5.5
	c-1.1-6.2-5.3-15.2,6.2-17.1c8.8,5.5,16.1,12,26.3,16.6c0.8,0.3-0.9,1.4-1.8,2.2C565.6,1902,564.6,1902.7,563.5,1903.3z"/>
<path class="st10" d="M711.2,2465.2c-0.2,1.9,0.3,4.2-0.8,5.6c-1.6,1.8-3.4,3.6-5.2,5.3c-3.7,4.1-9.8,6.6-16.4,6.2l-11.4,1.5
	l-7.3,3.4l-6-9.5c2.7-2.1,5.5-4.5,9-5.6c5.9-2.1,13-1.4,19.3-2.4c2.5-0.3,4.9-1.1,7-2.5c1.9-1.1,3.2-3.1,3.4-5.2
	c1.8,0.9,3.6,1.7,5.5,2.4C710,2464.8,711.2,2465.2,711.2,2465.2z"/>
<path class="st3" d="M363.3,2004.9c4.3,2.8,10,5.6,10.8,9.3c0.1,1.3-4.2,2.9-6.2,4.8c-3.1,2.6-5.7,5.3-5.7,5.3l-12.2,8.4l0.5-3.2
	l-19.7-8.7l10.2-5.7c5.1-2.8,10.3-5.7,10.3-5.7l-8.5-6.4c0,0,4.2,0.1,9.4,0.6S363.3,2004.9,363.3,2004.9z"/>
<path class="st2" d="M270.9,2474.8c-6.3,3.4-11.5,7.8-16.6,12.3c-1.3,1.1-3.8,2.8-4.6,2.4c-2.9-0.9-4.6-3.8-4.3-5.8
	c0.4-3.8-1.1-8.5,2.7-11.2s10.1-0.9,15.2,0.3C267.4,2473.7,270.9,2474.8,270.9,2474.8z"/>
<path class="st7" d="M490.4,2159c0,0,2.5,2.3,5.5,4.7l6.2,4.8l-3.2,5.4l-15.9,14.6l-7.8-12.6l-10.8-6.9c5.4-4.1,11.3-7.7,17.5-10.5
	c2.2-1,4.2-2.2,6-3.7L490.4,2159z"/>
<polygon class="st3" points="517.7,2294.1 522.9,2304.2 509.9,2300.8 507.6,2298.2 "/>
<path class="st7" d="M604.8,2056.6c0.8,6,0.1,13.4-7.3,15.9c-1.1,0.4-4.4-2.2-7.8-2.2c2.5-3.2,3-7.3,6.5-10c1.2-1-1-3.8-1.4-6
	L604.8,2056.6z"/>
<path class="st2" d="M646.8,1980l-4.2-2.4l20.5-4.5l6.9,7.1c-4.6,2.7-6.5,7-9.5,10.6c-2-1.8-4-3.6-6.1-5.3
	C651.9,1983.5,649.4,1981.7,646.8,1980z"/>
<path class="st2" d="M681.5,2287.7c8.7,5.3,16.5,11.3,25.9,16.1c4.3,2.3,6.6,6.6,9.7,10c-3.2,1.3-6.4,2.5-9.6,3.9s-6.3,2.7-9.3,4.2
	c-2.3-1.9-4.8-3.7-7.1-5.6c-2.3-1.8-4.3-3.9-5.9-6.2c-3.9-5.6-3-12.5-3.5-18.8C681.6,2289.1,681.5,2287.7,681.5,2287.7z"/>
<path class="st4" d="M307.1,2175.4l3.3,0.7l21.3,7.5l-0.9,0.6l-4.7,8.7c-3.9-3.3-8.9-5.4-13.7-7.9l-9.3-4.6L307.1,2175.4z"/>
<path class="st4" d="M543,1978.2c3.5,1.7,8.5,3.1,9.6,5.6c1.6,3.5-2.5,7.9-7.1,9.2c-4,1.2-8.8-0.5-13.3-0.9
	c0.8-4.1-0.8-8.1-0.2-12.3c0.2-2,2.9-3.7,4.8-5.5L543,1978.2z"/>
<path class="st9" d="M537.6,2426.1l8.4,2.1c15,3.6,29.9,7.4,42.3,14.8c-2.8,2.7-3.5,6.5-6.5,8.5c-1.7,1.1-5.7,1-7.6,0
	c-7.8-3.8-16.9-6.1-23.9-10.5c-3-2-4.5-5.3-6.8-7.8C540.5,2429.6,537.6,2426.1,537.6,2426.1z"/>
<path class="st2" d="M201,2336.6c2.2-6.7,1.3-13.8-0.1-20.6c5.1,1.3,8.8,4.3,13.2,6c1.7,0.6,4.9-1.2,7.3-2c0.9,3.2,3,6.5,1.8,9.3
	c-1.3,3.2-5.2,6.4-9.4,8.2c-1.4,0.7-4.1,0.3-6.1-0.1L201,2336.6z"/>
<path class="st3" d="M347.6,1951.9c-5.5-5.2-9.3-12.1-10.6-19.6c4.8,3.4,11.1,5.6,15.3,9.4c0.9,0.9-1.2,3.3-2,5.2
	C348.8,1949.5,347.6,1951.9,347.6,1951.9z"/>
<path class="st1" d="M660.5,1863.3l1-3.6l13.5,2.1c0,0,0.2,3.7,0.4,7.5c2.2,8.3-8.9,12-16.2,16.2c0.6-2.4,1.2-4.8,2-7.4l-10-4.7
	L660.5,1863.3z"/>
<path class="st5" d="M292.5,2434.5c-5.7-1-11.6-1.8-17.3-2.8l3.1-4.8l1.9-0.1l18.5-0.1l8.1,5.3l-5.4,3L292.5,2434.5z"/>
<path class="st4" d="M438.5,2052.5c-1.6-1.3-2.9-2.8-3.9-4.6c-0.9-1.6-1.6-3.4-2-5.2c-0.6-3.6-1.4-7.1-2.5-10.6
	c2.8,2.1,5.2,4.7,7.8,7c2.7,2.5,6,4.2,9.5,5.1c7.7,1.8,15.2,3.4,21.3,7.4l8.5,4.8l3.9,2.2l-3.2,5l-11.2-4.9
	c-2.1-0.9-4.3-1.9-6.5-2.9c-3.3-0.9-6.6-1.4-10-1.5C446.3,2053.9,442.3,2053.4,438.5,2052.5z"/>
<path class="st1" d="M172,2398.7c-0.6-2.3-1.1-4.6-1.4-7c-1.4-3-1.6-6.5-4.7-8.9c6.4-1.5,13.3-2.8,20-1.6c1.9,0.5,3.8,1.1,5.6,1.8
	s3.6,1.5,5.3,2.3c-1.8,1.2-4.4,1.9-5.3,3.6c-1.2,2.2,0,5.3-3,6.6c-1.9,0.8-4.4,0.6-6.7,0.8C177.1,2397.4,172,2398.7,172,2398.7z"/>
<path class="st7" d="M136.6,2122.4c1.3,0.7,2.7,1.1,4.1,1.4c9.3,2.1,19,4.7,23.8,11.3c1.3,1.4,2.3,3,3.1,4.8c0.7,1.6,1,3.4,0.7,5.2
	c-0.4,2-5.5,1.4-8.6,1.8c-0.4-3.4-1.9-6.7-4.1-9.4c-3.1-2.8-7.5-4.3-10.9-6.9c-1.5-1.2-2.8-2.5-4.1-3.9
	C138.8,2124.5,136.6,2122.4,136.6,2122.4z"/>
<path class="st7" d="M204,1937.7c-1.9-0.7-3.4-1.8-5.4-2.4c7.1-3.7,14.3-7.4,22.6-9.4c0.1,4.1,3,7.3,5.7,10.7
	c3.6,4.3-1.5,9.8-7.8,10.9c-3.1,0.6-5.9-0.7-8.9-1L204,1937.7z"/>
<path class="st10" d="M1347.9,1382.6c-1.1,2.2-1.7,4.6-1.7,7.1c0,2.4,0.4,4.8,1.1,7.2c1.7,4.6,3.1,9.3,4.1,14.1
	c2.1-3.7,3.2-7.7,4.9-11.5c1.6-4.1,4.5-7.6,8.3-9.9c8.2-5,16.4-10,21.2-17.1l7.2-9.1l3.3-4.1l-7.3-4.9l-10.4,10.3
	c-1.9,1.9-4,4-6.1,6c-3.5,2.3-7.3,4.2-11.2,5.7C1356.7,1378,1352.2,1380.1,1347.9,1382.6z"/>
<polygon class="st2" points="1366,688.6 1370.8,689 1373.7,697.6 1370.4,698.5 1364.8,697.1 1353.4,695 1360.3,689.5 1356.8,683.8 
	1364.8,687.6 "/>
<path class="st10" d="M1398.5,992.2c-4.2,0-7.8,0.7-12,0.6c-9.7-0.2-19.1-0.7-27.9,0.6c0.9-2.2,2.2-4.4,3-6.6c1-2.3,2-4.6,3.2-6.8
	l-2.3-6l-2.3-6l8.9,2.7c12.9,2.9,20.5,11.9,31,17.7L1398.5,992.2z"/>
<path class="st1" d="M1371.6,1153.6c-6.5-6.1-15.8-9.8-25.4-12.6c7-3.3,14-6.8,22.6-7.7c4.4-0.6,8.6,0.8,12.9,0.8
	c3.9,0.2,7.9,0.2,11.8,0l-2.9,4.7c-1.9,4.3-6.6,6.7-11.2,9.2C1376.6,1149.7,1374,1151.5,1371.6,1153.6z"/>
<path class="st3" d="M1073.6,1579.6c0.9,4.8,1.3,9.7,1.1,14.6c0.2,4.3,1,8.5,2.3,12.6l1.9-8.8l8.6-7.5l-0.5-8.5
	c-1.1-5.2-1.8-10.6-4.8-15.2c-1.7-2.6-6.4-4-10.1-5.8c-0.3,2.9-0.4,5.9-0.2,8.8C1072.2,1573,1072.8,1576.3,1073.6,1579.6z"/>
<path class="st7" d="M771,1251.3c2.8,1.3,5.7,2.5,8.8,3.6c10,3.7,20.9,7.2,31,6.1c3.2-0.3,6.2-2,9.5-4.2c6.7-4,12.5-8.7,15-14.9
	c-6.7,2.1-13.8,2.7-20.8,1.6c-5-0.4-9.9-0.9-13.7-1.2c-6.6-2-12.6,1.1-18.4,3.4C778.4,1247.1,774.6,1249,771,1251.3z"/>
<path class="st10" d="M1110.8,747.5l11,6.3l6.3-5.5c0.7-7.4-9.4-10.3-15.6-14.6c0.1,1.1,0.1,2.2-0.1,3.3l-1.7,9.2L1110.8,747.5z"/>
<path class="st1" d="M158.3,649.9l14.1,4.6l9.3,10.6l7.4-6.9l7.4-6.9l0.5-5.1l-13.9-9l-13.9,4.1c0,0-3,2.6-5.8,4.6
	S158.3,649.9,158.3,649.9z"/>
<polygon class="st4" points="1313.8,899.1 1317.1,906.1 1319.5,902.4 1324.9,905 1324.3,892.3 1322,891.6 1318.6,890.8 "/>
<polygon class="st2" points="515.8,1146.1 511.1,1152.6 516.4,1151.4 517.5,1156.2 529.6,1147.2 528.8,1145.5 527.3,1143.1 "/>
<polygon class="st3" points="187.9,1039.6 191.2,1046.6 193.6,1042.9 199.1,1045.4 198.4,1032.8 196.2,1032 192.8,1031.2 "/>
<path class="st4" d="M168.4,1377.3c11.1,4,20.1,10.7,28.3,17.6c2.6-5,1.5-10.4,3-15.2c0.6-1.8,5.8-2.7,9-3.8
	c-3.6-3.4-6.4-7.8-11.4-9.3c-5.6-1.8-13.3-1.4-19.3,0.2c-2.1,0.5-3.9,2.9-5.1,4.7C170.9,1374.2,168.4,1377.3,168.4,1377.3z"/>
<path class="st4" d="M508.3,661l5.5,8.9l12.1-6.7l10.9,3.3c4.4-4.5,7.2-9.9,12.6-13.8c1.1-0.8,3.7-0.3,5.6-0.3
	c-3.7-1.4-6.4-3.7-9.6-5.8c-4.4-3.6-8.8-8-8.8-8l-4.5,1.7l-26.6,12L508.3,661z"/>
<path class="st1" d="M491.4,1021.6l8.5,11c3,0.3,7.3,1.6,7.7,1.1c5.2-7.2,12-13.4,17.2-20.6c2.4-3.5,1.6-8.3-1.9-10.7
	c-1.3-0.9-2.8-1.4-4.4-1.4c-10.3-0.5-23.6,3.7-25.2,12.4C492.3,1016,491.7,1018.8,491.4,1021.6z"/>
<path class="st8" d="M125.7,1713.2c2.8,9.5,9.5,17.8,18.1,24.8c-0.6-6.5,1.7-13.2,0-19.6c-0.4-1.4-5.6-1.9-8.9-2.9
	C130.1,1714.3,125.7,1713.2,125.7,1713.2z"/>
<path class="st7" d="M1205.4,997.3c0,0,5.5,4.4,10.8,8.8s10.7,8.5,10.7,8.5s0-1.4-0.1-3.6c-0.2-7.2-1.7-14.7-2.2-22L1205.4,997.3z"
	/>
<path class="st3" d="M855.5,1709.5c0,0,5.9,4.6,11.8,9.2l11.8,9.2l6.2-12.8l0.3-18.3l-24.9-10.3l-7.7,10.4L855.5,1709.5z"/>
<path class="st2" d="M728.9,968.7l6.2,12.2l11.1,3.8l1.9-3.3l9.3-10.4c-3.6-3.2-5.1-8-9.7-10.4c0,0-4.2,1-8.7,2l-8.3,2.1
	L728.9,968.7z"/>
<path class="st1" d="M307.3,1862.4c4.6,2.7,10.2,3.3,15.8,4.1l14.2,2.6l-0.8-7.6c-2-1.8-3.5-4.4-6.1-5.3c-3.2-1-6.5-1.6-9.8-2
	c-3.4-0.4-6.8-0.8-10.1-1.3L307.3,1862.4z"/>
<path class="st2" d="M277.2,1136.2c4.6-2.7,6.8-6.6,9.2-10.4l6.8-9.6l-10.1-1.3c-2.9,1-6.6,1.5-8.5,3.1c-2,2-3.6,4.2-5,6.6
	c-1.4,2.3-2.6,4.7-4.2,6.9L277.2,1136.2z"/>
<path class="st4" d="M674,1590.2l-13.3,5.3l19,8.5l7,1.6l10.5-5.6c6.5-4.1,14.4-7.3,19.1-12.7c1.5-1.9,1.7-5.8,0.9-6.2
	c-8-3-18-3.7-27.1-2.1c-3.2,0.6-5.8,3.3-8.4,5.3C677.5,1587.2,674,1590.2,674,1590.2z"/>
<path class="st4" d="M964.3,1872.3c0,0,6.9,2.8,14.6,5.6s14.4,5.7,14.4,5.7l24.5,4.9l-12-18.1c0,0-4.2-2.6-8.4-5.3
	c-3.9-2.8-7.3-5.5-7.3-5.5s-6.2,3.2-12.9,6.4S964.3,1872.3,964.3,1872.3z"/>
<path class="st2" d="M457.5,1525.4c1.2,2,2.7,5,4.2,5.2c3.6,0.2,7.2-0.1,10.7-0.8c3.5-0.7,6.4-2,7.4-3.9c2.3-6.8,5.1-17-3.3-20
	c-7.1-2.6-13.1,5.7-14.7,11.6C460.6,1520.3,459.1,1522.9,457.5,1525.4z"/>
<path class="st2" d="M1039.9,1410.8c-3.5,2.5-7.5,4.1-10.8,6.7c-7.7,5.9-14.8,11.8-24.1,16.1c3.9,0.9,8,1.8,11.7,2.8
	c4,1,8.1,2,12.2,2.8l6.5,5.5l6.5,5.5l3.6-7.1c6.6-9.6,0.3-20.3,1-30.5L1039.9,1410.8z"/>
<path class="st2" d="M1253.1,1772.1l-1.5,8.1c-1,4.1-3.6,9.3,0.3,11.7c2.8,1.8,9,1.4,13.1,0.2c3.7-1.3,7.5-5,7.1-7.3
	c-0.2-2.4-5.2-4.8-8.1-7.1L1253.1,1772.1z"/>
<path class="st4" d="M1207.6,1540.1c3.3,4.9,7,10,7.2,15.6c5.6-0.5,11-1.3,16.5-1.6c-0.4-0.8-2.1-1.1-1.9-1.8
	c1.1-3.2,6.9-3.5,7.9-6.9c0.6-1.8-0.2-3.5-1.1-5.1c-2.3-4.6-4.8-9.1-6.6-13.7c-0.9-2.3-1.6-4.7-2.1-7.1c-0.3-2.4-0.1-4.9,0.8-7.2
	c-4,0.6-8.3,0.9-12.3,1.5c-3.4,0.4-6.8,1.4-9.9,3c-6.2,4-3.2,12.4-0.7,18.6C1206.6,1538.2,1207.6,1540.1,1207.6,1540.1z"/>
<polygon class="st5" points="105.5,1088.9 102.3,1092 110.6,1099.6 114.1,1098.2 116.7,1093.8 122.7,1085.6 110.8,1086 106.6,1080 
	105.1,1087.4 "/>
<path class="st7" d="M1092.8,1290c2.9,10.2,0.1,20.4-4.2,30.1c10.5-2.6,21.3-4.9,29.9-10.7c4.5-2.9,6.2-7.2,9.8-10.5
	c3.1-3.2,6.5-6.2,10.1-9l-8.9-1.7c-7.5-2.2-14.8-0.6-22.3,0.7C1102.4,1289.5,1097.6,1289.9,1092.8,1290z"/>
<path class="st4" d="M1205.6,1871.9c7.2,1.6,13.6,3.6,21.3,5c-3.5-7.7-2.1-15.6,4.2-23.1c-6.3,2.9-10.6,6.1-15.6,9.2
	C1212,1865.6,1208.7,1868.6,1205.6,1871.9z"/>
<path class="st6" d="M552.1,857.7c5.1-2.8,8.3-7.2,13.1-10.3c1.5-1.1,4.5-1.4,5.2-2.4c1.3-2.7,0.6-6.7-1.7-8.6
	c-6.7-5.4-14.4-15-25.3-8.8c0,10.1,2.4,19.8,0.2,30.2c-0.2,0.8,2.4,0.5,3.9,0.5C549.8,858.1,552.1,857.7,552.1,857.7z"/>
<path class="st9" d="M103.3,1862.6l5.8,2.2l8.5-12.1c0,0-4.9-3.3-10-6.7c-9.6-8.7-24.2-3.5-36.2-1.4c3.9,1.6,7.7,3.2,11.9,4.8
	l-1.9,11.6L103.3,1862.6z"/>
<path class="st7" d="M275.2,903.4c-2.2-3.4-4.2-7.1-5.9-10.8c-0.5-2.2-1-4.4-1.5-6.6c-1.6-6.6-3.3-13.2-5.4-19.6
	c-3.9,3.7-7.5,7.5-11.4,11.1c-1.9,1.8-3.9,3.6-6,5.3s-5.6,3.3-5.6,5.1c0,5.4,0.2,12.3,4.7,16c1.9,1.6,8.8,0.8,14.1,0.3
	C266.8,903.7,275.2,903.4,275.2,903.4z"/>
<path class="st11" d="M1106.9,1160.3c2.5,1.2,4.8,3.4,7.3,3.7c3.4,0.3,6.9,0.5,10.3,0.5c7.8,0.6,15.4-1.6,19.9-6.3l10.4-6.5l9.7-2.3
	l-7-11.2c-4.6,0.3-9.6,0.3-13.6,1.8c-7.1,2.3-11.5,7.6-17.5,11.1c-2.5,1.6-5.4,2.5-8.3,2.8c-3.1,0.4-6.2-0.2-8.9-1.7
	c-0.2,1.9-0.6,3.7-1.3,5.4C1107.2,1159.1,1106.9,1160.3,1106.9,1160.3z"/>
<path class="st8" d="M761,1357.2c4.5-8,8.6-16.3,12.3-24.6c1.5-2.8,3.2-5.4,3.5-8.3c0.2-3.4-2-6.6-2.2-10.1
	c-3.2,2.9-6.5,5.9-9.6,8.9c-7.7,6.6-8,15.6-4.9,23.8C760.6,1352.8,761,1357.2,761,1357.2z"/>
<path class="st10" d="M752.8,640.6c0.2,5-0.8,10.9,3.2,14.3c1.5,1.1,6.7-0.6,10.5-0.5c5.5-0.1,10.8,0.2,10.8,0.2l19.5-1.8l-4.2-2
	L797,631l-14.6,2.5c-7.3,1.3-14.6,2.6-14.6,2.6l-1.4-10.6c0,0-3,3-6.4,6.7S752.8,640.6,752.8,640.6z"/>
<path class="st7" d="M660.9,1111.9c8.9-1.6,18.2-1.8,27.5-1.8c2.3,0,6.2-0.5,6.4-1.3c1.1-2.6-1.2-6-3.8-7.3
	c-4.9-2.6-9.4-7.2-15.6-6.7c-6.4,0.5-8.8,6.1-11.2,10.4C662.9,1107.3,661.8,1109.6,660.9,1111.9z"/>
<path class="st5" d="M887.8,791.5c0,0,0.9,3.4,1.6,7.2s1.2,7.8,1.2,7.8l9,2l29.8,0.4l-9.4-14.8l-0.2-12.4c-8.8,0.4-17.5,1.7-26,3.8
	c-2.9,0.7-6,1.2-9,1.3L887.8,791.5z"/>
<polygon class="st10" points="934,920.7 942.4,931.9 948.1,920.6 946.7,917.1 "/>
<path class="st3" d="M638.5,1721.7c0.6,2.8,1.2,5.7,1.9,8.6c2.6-1.6,6.5-2.2,8-4.2c3.9-5,5.6-10.4,7.9-15.7l-13.7,0.8L638.5,1721.7z
	"/>
<path class="st11" d="M1211.6,861.4l0.3-4.7l-21,10.3l3.3,10c6.7-1,13.4,0.9,20,1.7c-0.6-2.7-1.3-5.4-1.8-8.1
	C1211.9,867.5,1211.7,864.5,1211.6,861.4z"/>
<path class="st8" d="M188.2,1232c-3.5,5.2-7.4,10.3-10.8,15.6l9.3,1.8l1.7-1.4l15.8-14l-0.4-10.7l-8.8,1.6L188.2,1232z"/>
<path class="st10" d="M26.5,1382.6c-1.1,2.2-1.7,4.6-1.7,7.1c0,2.4,0.4,4.8,1.1,7.2c1.7,4.6,3.1,9.3,4.1,14.1
	c2.1-3.7,3.2-7.7,4.9-11.5c1.6-4.1,4.5-7.6,8.3-9.9c8.2-5,16.4-10,21.2-17.1l7.2-9.1l3.3-4.1l-7.3-4.9l-10.4,10.3
	c-1.9,1.9-4,4-6.1,6c-3.5,2.3-7.3,4.2-11.2,5.6C35.3,1378,30.8,1380.1,26.5,1382.6z"/>
<path class="st1" d="M1053.4,1195.1c0,0,0.5-3.4,1.1-6.8s0.8-6.9,0.8-6.9s-6.3,3.1-12.9,6c-6.8,3-13.5,6.8-13.5,6.8s6-0.1,12.2,0.2
	S1053.4,1195.1,1053.4,1195.1z"/>
<path class="st8" d="M323.2,685.1c-2.1,2-4.2,3.7-6.2,5.8c5.4-1.3,11-2.5,16.3-3.8c-0.2,0.8-1.3,1-1.5,1.8
	c4.5-0.5,11.6-0.2,11.8-1.3c3-11.8-16.3-12.8-28.9-10.8L323.2,685.1z"/>
<path class="st2" d="M439.4,1638.5l5.1,6.1l9.7-4.9c3.4-1.6,6.9-2.9,10.5-4c-4.5,0.1-8.9,0.4-13.4,1
	C445.2,1637.6,439.4,1638.5,439.4,1638.5z"/>
<path class="st8" d="M134,969.8c2.7,2.8,6.3,5.3,6.3,9c3.4-1.1,7.7-2.2,9.2-4.3c1.3-1.9-0.2-5.3-1.7-7.5c-1.3-1.9-5.4-2.1-6.9-4
	c-0.4-0.6-2.6-1-4-1.2L134,969.8z"/>
<path class="st1" d="M1143.2,1784.4c2.7,2.8,6.3,5.3,6.3,9c3.4-1.1,7.7-2.2,9.2-4.3c1.3-1.9-0.2-5.3-1.7-7.5c-1.3-1.9-5.4-2.1-6.9-4
	c-0.4-0.6-2.6-1-4-1.2L1143.2,1784.4z"/>
<path class="st7" d="M347.8,1259.5c2.6,2.5,5.6,4.7,8.5,7c2.9,3.6,7.6,6.7,8.3,11.1c7.5-3.6,15.2-7.8,19.2-13.9
	c1-1.9,1.7-3.8,2.3-5.8c0.5-2,1-4,1.3-6c-3.2,0.3-6.3,1.7-9.5,0.9c-4.1-0.9-7.3-4.6-11.6-3.3c-2.7,0.8-4.7,2.8-6.9,4.4
	C353.9,1256.7,347.8,1259.5,347.8,1259.5z"/>
<path class="st4" d="M379.3,1013.7c-5.2,0.3-9.7-0.4-15.6,1.5c-3.1,0.9-8.4,5.8-12.6,9.5c-3.6,3.5-7,7.3-10,11.3
	c-0.6,0.8-2.4,2.3-2.3,2.3c6.2,1,12.7,1.4,14.8,5.7c3.5-3.3,7-6.7,10.6-9.9l12.3-11.1c0,0,1.1-2.5,1.8-4.7
	C378.8,1016.7,379.1,1015.2,379.3,1013.7z"/>
<path class="st5" d="M826.3,1468.4c0,0,0.7,6.4,1,12l0.6,11.2l9.5-11.1l5.2-3.3c-0.5-2.7-1-5.4-1.6-8.1c-1.6-8-3.4-16.1-4.9-24.1
	c-4.3,1.8-9.7,2.9-12.2,5.6c-1.9,2.2,0.4,5.6,0.7,8.6L826.3,1468.4z"/>
<path class="st4" d="M1025.8,938.1c-0.1,9.8,1.2,19.6-0.1,29.5c-0.4,4.6,3,9.4,4.7,14c4-1.2,8-2.4,12-3.5s8-2.2,12.1-3
	c-0.5-3-0.9-6-1.4-9s-1.5-6-3.1-8.7c-3.9-6.9-12.9-11.5-20.2-16.5C1027.4,939.2,1025.8,938.1,1025.8,938.1z"/>
<path class="st9" d="M1232,1675.7l2.7,2.2l10.7,6.6c3.9,2.5,8.4,4.3,11.8,6.7c2.5-3.4,7-6,10.5-8.8c-2.5-0.8-5.1-1.4-8-2.2
	c0,0-5.8-2.6-11.4-5.1l-11.3-5.1L1232,1675.7z"/>
<path class="st2" d="M838.9,826.7l-1.6,2.8l-7.1,19.9l1.4-0.2l14.1,3.4c-1.1-5.1,0.2-10,0.8-15.2l1.5-9.7L838.9,826.7z"/>
<path class="st3" d="M881.2,1257.1c0.7,4,1.1,8,1.2,12c-0.1,3.4-0.3,6.7-0.5,10.1c7.7-6.1,8.4-14.5,6.1-22.3c-0.6-2.8-2-5.3-4-7.3
	L881.2,1257.1z"/>
<path class="st10" d="M1196.9,1439.7l3.6,10.1c1.8,5,3,10.2,3,10.2l9.5-9.6c-2.3-12-7.1-23.5-8.8-35.5c-1.1,4.3-2.6,8.5-3.6,12.5
	C1198.8,1433.6,1196.9,1439.7,1196.9,1439.7z"/>
<path class="st8" d="M1027.2,1730.6c0,0-1.6,5.1-3.1,10.2s-3.7,10.1-3.7,10.1l14.4-5.3c5.4-11.5,8.4-23.3,14.4-34.5
	c-3.6,3.4-7.6,6.6-11,9.8C1032.6,1725.8,1027.2,1730.6,1027.2,1730.6z"/>
<path class="st1" d="M329.7,1556.2c0.2-1.6,0.7-3,1.6-4.3c5-8.8,9.7-18.4,4.6-27.8c-1-2.4-2.3-4.5-4-6.4c-1.8-2.1-4-3.8-6.5-4.9
	c-3.1-1.4-6.7,3-9.8,5c4,2.9,7.3,6.7,9.5,11.1c1.3,4.8-0.4,9.4,0.3,14.2c0.4,2.2,1,4.3,1.9,6.4
	C328.7,1552.8,329.7,1556.2,329.7,1556.2z"/>
<path class="st6" d="M158.9,818.1c0,0,3.1-2.5,6.7-5.2l7.4-5.7l4.2,3.1l5.6-8.9l-7.2-23.1l-12.4,15.4l-9.2-9.9
	c-1.4,4.5-2.3,9-3.8,13.5c-2.1,6.7-3.9,12.9-3.9,12.9L158.9,818.1z"/>
<path class="st9" d="M820.7,1220.8l-3.8,7.2c-7,12.7-13.7,25.6-14.1,39.5c5.4,0.2,10.5,2.6,15.2,2.1c2.6-0.3,5.6-3,5.8-5.1
	c1.3-8.1,5.4-16,5.4-23.9c-0.2-3.5-3-7-4.4-10.5C822.8,1225.4,820.7,1220.8,820.7,1220.8z"/>
<path class="st6" d="M248.9,1739.9c-0.6,2-0.4,4.1-1.2,6.2c11.2-2.2,22.3-4.6,32.2-9.3c-5.6-3.5-7.5-8.5-9.9-13.4
	c-2.8-6.4-14.8-7.2-21.7-3.4c-3.4,1.9-4.1,5.1-6.2,7.7L248.9,1739.9z"/>
<path class="st4" d="M458.1,1772.3c-0.3-1-0.5-2.1-0.6-3.1c-1.1,3.8-1.1,7.8-1.7,11.7c6.2,0,12.4-1.3,18.1-3.9
	c5.2-2.3,10-5.4,14.2-9.3c8.7-6.6,12.8-15.9,10.2-24.7c-0.2-0.6-5.6-0.3-8.9-0.3c-2.9,0.2-6.6-1.1-8.5,0.5
	c-8.2,6.8-15.1,15.1-20.3,24.4C458.9,1770.6,458.1,1772.3,458.1,1772.3z"/>
<path class="st8" d="M704.7,1862.9l-2.7-0.5l-3.3,10.9l21.4,4.4c0,0,3.9-3.8,7.5-7.1c2.8-2.6,7.6-5.6,6.1-7.8
	c-2.8-4-8.8-8.3-15.3-8.8c-1.9-0.2-4.3,2.2-6.5,3.8L704.7,1862.9z"/>
<path class="st1" d="M616.5,1359.6c-4.2,0.2-8,1-12.1,1.1c5.9,4.7,10.6,10.7,13.7,17.5c1.7,4.1,2.9,8,4.7,11.8
	c3.2,5.2,6.3,10.5,6.3,10.5c7.4,1.9,14.4,4.2,21.5,6.6c0.1-2.4,0.1-5,0.1-7.5c-0.4-2.7-1.1-5.4-2.3-7.9c-1.5-3.2-6.3-5.3-10-7.9
	c-5.2-3.5-10.1-7.2-10.1-7.2c0.9-6.1,1.5-12.2,1.8-18.3c-2.3,0.2-4.7,0.7-7,0.8C619.7,1359.4,616.5,1359.6,616.5,1359.6z"/>
<path class="st7" d="M1041.8,1039.8l2.3,0.6l9.5,4.2l6.8,2.8l3.5,17.4l-16.1-8.2l-13.1,3.6c0,0-1.6-3.4-3.2-6.8l-3.2-6.8
	L1041.8,1039.8z"/>
<path class="st2" d="M1316.1,1732.8c3.8,3.2,7.9,6,12.2,8.5c3.5,2.4,6.8,5,9.8,8l-8.8-3.9l-11.3,0.1l-7.2-4.9
	c-3.9-3.4-8.3-6.7-10.8-10.7c-1.3-2.2,0-5.3,0.5-8c2.8,1.4,5.3,3.1,7.8,4.7C1311,1728.5,1313.6,1730.6,1316.1,1732.8z"/>
<path class="st5" d="M870.6,1567c-0.4,2.1-0.9,4.2-1.6,6.2c-2.2,6.8-5.1,14-11.6,18.3c-2,1.4-5.1,1.9-8.9,2.3
	c-7.2,1-14.4,1.3-21.3-0.9c5.1-1.7,9.5-4.9,12.8-9.2c2.3-2.6,4.7-5.3,6.4-7.3c1.9-4.2,7.8-5.5,13.1-7
	C863,1568.3,866.8,1567.5,870.6,1567z"/>
<path class="st7" d="M1364.2,896l-0.5,8.8h-8.2c-6.9-3.7-3.9-10.2-4.3-15.5c0.9,0.7,1.9,1.3,3,1.8l9,4.2L1364.2,896z"/>
<path class="st9" d="M423.8,795.4l-3.6,9.3l4.3,10.3l-10.1-0.2l-10.1-0.2l-4.7-2.6l-0.3-11.6l11.2-4.4c0,0,4,0,7.2-0.3L423.8,795.4z
	"/>
<polygon class="st6" points="680.3,1240.6 688.6,1241.9 684.7,1243.8 688.2,1246.9 673.8,1247.9 672.7,1246.6 671.3,1244.6 "/>
<polygon class="st7" points="434,1190.8 438.3,1196.2 433.7,1195.4 433,1199.4 422.3,1192.2 422.9,1190.7 424,1188.6 "/>
<path class="st1" d="M505.3,1537c-2.6,7.6-1.6,15.6-0.1,23.3c-5.8-1.4-9.9-4.9-14.9-6.8c-1.9-0.7-5.5,1.3-8.3,2.3
	c-1-3.6-3.3-7.4-1.9-10.6c1.5-3.7,6-7.2,10.7-9.3c1.6-0.8,4.6-0.3,7,0.1C501.2,1536.4,505.3,1537,505.3,1537z"/>
<path class="st4" d="M755,779.2l4.8,7.5l-12.5,2.2l-3,7c-6.4-0.3-12.7-1.9-19-1.4c-1.3,0.1-2.3,1.6-3.3,2.6c0.7-2.5,0.3-5.1,0.2-7.8
	c-0.6-2.9-1.3-5.8-2.2-8.6l3.9-1.3l25-6.3L755,779.2z"/>
<path class="st3" d="M758.8,1165.5l5,10.1c-1.4,1.6-2.6,4.4-3.2,4.3c-9.1-1.4-18.3-1.5-27.4-2.9c-2.7-0.4-5.3-1.8-7.1-3.9
	c-1.5-1.9-1.9-4-0.1-5.8c5.2-5.2,16.1-9.4,24.7-5.4C753.3,1162.9,756.1,1164.1,758.8,1165.5z"/>
<path class="st2" d="M573.6,748.3c3.5-1.7,7.2-3.3,10.7-5c-0.1,3.3,0.2,7-3,9c-2.8,1.6-7.1,1-10.8,1.6L573.6,748.3z"/>
<path class="st2" d="M1115.7,1856c0,0,0.8,5.4,1.6,10.7l1.6,10.7l-14.6-4l-16.2-9.8l4.6-17.7l13.3,2L1115.7,1856z"/>
<path class="st1" d="M984.2,1117.9l7.3,9.7l-2.7,7.5l-3.9-0.9l-14.2-1.1c-0.9-3.5-4.2-6.8-3.8-10.3c0,0,3.2-1.5,6.5-3.1l6.4-2.9
	L984.2,1117.9z"/>
<path class="st3" d="M526.5,1284.7c-4.9,0.8-9.5-0.3-14.1-1.2l-12.1-2l4.4-5.6c2.5-0.8,4.9-2.4,7.3-2.4c2.9,0.1,5.7,0.5,8.5,1.2
	c2.8,0.6,5.6,1.3,8.4,1.8L526.5,1284.7z"/>
<path class="st1" d="M932.9,1737.8l11.9-3.5l-3,13.8l-2.4,4.3l-10.6,2c-7.1,0.9-14.3,3-21.6,2.3c-2.5-0.3-6-2.3-5.9-3
	c1.7-5.5,6.6-10.7,13-14.2c2.3-1.2,6.1-1,9.3-1.1C928.4,1737.9,932.9,1737.8,932.9,1737.8z"/>
<path class="st1" d="M719.9,1670.3c1.1,1.7,2.9,4.1,2.2,4.9c-1.9,1.9-4.1,3.5-6.5,4.8c-2.5,1.3-5.2,2-7.5,1.4
	c-7.2-2.6-17.7-6.8-15.8-12.6c1.6-4.8,12.2-3.2,18.2-0.8C715,1669.4,719.9,1670.3,719.9,1670.3z"/>
<path class="st10" d="M1239.3,1580.3c4.1-0.3,7.8-1.4,11.8-1.5c9.4-0.5,18.4-0.7,27.3-2.8c-1.3,2.4-2.8,4.8-3.9,7.2
	c-1.3,2.5-2.7,5-4.2,7.4l1.2,6.1l1.2,6.1l-8.2-2.1c-12-2.1-18-10.9-27.3-16.2L1239.3,1580.3z"/>
<path class="st7" d="M1374,1635.6c2.5,4.3,5,8.8,9.7,12c-3.5,2.4-7.1,4.6-10.4,7.1c-0.5-0.7,0.2-1.7-0.5-1.9
	c-3.4-1.2-6.8,1.4-10.4,0.1c-1.6-0.6-3-1.8-3.9-3.3c-2.8-3.6-5.4-7.3-8.4-10.7c-1.6-1.8-3.3-3.4-5.1-4.9c-2-1.5-4.3-2.7-6.7-3.6
	c2.7-1.6,5.4-3.5,8.1-5.1c2.5-1.5,5.2-2.6,8-3.1c6.9-0.8,12.7,5.2,16.7,9.9C1372.9,1634.1,1374,1635.6,1374,1635.6z"/>
<polygon class="st2" points="44.6,688.6 49.5,689 52.3,697.6 49,698.5 43.4,697.1 32,695 38.9,689.5 35.4,683.8 43.4,687.6 "/>
<path class="st3" d="M1328.1,1450c7.3,7,17.8,11.2,28.7,14.4c-8,3.7-16,7.6-25.7,8.6c-5,0.6-9.7-0.9-14.6-1c-6.7-0.4-13.3,0-13.3,0
	s1.6-2.6,3.3-5.2c2.2-4.9,7.5-7.5,12.8-10.4C1322.4,1454.5,1325.3,1452.3,1328.1,1450z"/>
<path class="st2" d="M1224.2,682.5c-5.3,0.9-10.8,0.1-16.2,0.7c-1.8,0.1-3.7,1.4-4.9,1.2c-3.1-0.9-6.2-3.3-6.6-5.5
	c-1.1-6.2-5.3-15.2,6.2-17c8.8,5.5,16,12,26.3,16.6c0.8,0.3-0.9,1.4-1.8,2.2C1226.2,681.2,1225.2,681.9,1224.2,682.5z"/>
<path class="st5" d="M598.1,987.1c-1.9-3.1-4-6-6.3-8.8c-1.7-1.5-3.3-2.9-5-4.3c-4.9-4.4-9.7-8.8-14.2-13.3c5.3,0.1,10.7,0.4,16,0.6
	c2.7,0.1,5.3,0.1,8,0s6-0.9,7.5,0.1c4.8,3,10.7,6.8,11.4,11c0.3,1.8-4.1,4.7-7.4,7C603,983.2,598.1,987.1,598.1,987.1z"/>
<path class="st10" d="M1371.9,1244.4c-0.2,1.9,0.3,4.2-0.8,5.6c-1.7,1.8-3.3,3.6-5.2,5.3c-4.3,4.4-10.3,6.7-16.4,6.2l-11.4,1.5
	l-7.3,3.4l-6-9.5c2.7-2,5.5-4.5,9-5.6c5.9-2.1,13-1.4,19.3-2.4c2.5-0.3,4.9-1.1,7-2.5c1.9-1.1,3.2-3.1,3.4-5.2
	c1.8,0.9,3.6,1.7,5.5,2.3C1370.7,1243.9,1371.9,1244.4,1371.9,1244.4z"/>
<path class="st9" d="M936.3,1337.3c-5.2,6.3-10.8,12.6-16.5,18.6c-1.8,2.1-3.4,4.4-5.9,6c-3,1.8-7.1,2.3-10.4,3.9
	c1.1-3.1,2.2-6.3,3.4-9.4c2.3-7.2,10.4-11.9,19.5-14.4C932,1339.4,936.3,1337.3,936.3,1337.3z"/>
<path class="st3" d="M1024,784.1c4.3,2.8,10,5.5,10.7,9.4c0.2,1.3-4.2,2.9-6.2,4.8c-3.1,2.6-5.7,5.3-5.7,5.3l-12.3,8.4l0.5-3.2
	l-19.7-8.6l10.2-5.7c5.1-2.8,10.3-5.7,10.3-5.7l-8.5-6.4c0,0,4.2,0.1,9.4,0.6S1024,784.1,1024,784.1z"/>
<path class="st2" d="M931.6,1254c-6.3,3.4-11.5,7.8-16.6,12.3c-1.3,1.1-3.8,2.8-4.6,2.4c-2.8-0.9-4.6-3.8-4.3-5.8
	c0.5-3.8-1.1-8.5,2.7-11.2s10.1-0.9,15.2,0.3C928,1252.8,931.6,1254,931.6,1254z"/>
<path class="st7" d="M1151,938.2c0,0,2.5,2.3,5.5,4.7l6.2,4.8l-3.2,5.4l-15.9,14.7l-7.8-12.6l-10.8-6.9c5.4-4.1,11.3-7.6,17.5-10.5
	c2.1-1,4.2-2.2,6-3.7L1151,938.2z"/>
<polygon class="st3" points="1178.3,1073.2 1183.6,1083.4 1170.6,1080 1168.3,1077.4 "/>
<path class="st7" d="M1265.5,835.8c0.7,6,0,13.4-7.3,15.9c-1.1,0.4-4.4-2.2-7.8-2.2c2.5-3.2,3-7.3,6.5-10c1.2-1-1-3.8-1.4-6
	L1265.5,835.8z"/>
<path class="st2" d="M1307.5,759.2l-4.2-2.4l20.5-4.5l6.9,7c-4.6,2.7-6.5,7-9.4,10.6c-2-1.8-4-3.6-6.1-5.3
	C1312.6,762.7,1310.1,760.9,1307.5,759.2z"/>
<path class="st8" d="M425.3,1387c6.5,1.2,13.1,2.1,19.5,3.3l-3.5,5.4l-2.1,0.1h-20.9l-9.2-6l6.2-3.4L425.3,1387z"/>
<path class="st5" d="M124.5,1599.9c1.8,1.4,3.3,3.2,4.4,5.2c1,1.9,1.7,3.8,2.2,5.9c0.6,4.1,1.6,8.1,2.8,12.1
	c-3.2-2.4-5.8-5.3-8.8-7.9c-3-2.8-6.7-4.9-10.8-5.8c-8.7-2-17.2-4-24.1-8.5l-9.6-5.5l-4.4-2.5l3.6-5.6l12.6,5.7
	c2.3,1,4.8,2.2,7.3,3.3c3.7,1,7.5,1.6,11.3,1.8C115.7,1598.3,120.1,1598.9,124.5,1599.9z"/>
<path class="st5" d="M1278.7,1351.7c0,0-3.3-1.6-6.5-3.2l-6.5-3.3c0,0,6.2-1.4,12.3-3c6.3-1.7,13.3-2.8,13.3-2.8s-3.4,2.9-6.5,6
	S1278.7,1351.7,1278.7,1351.7z"/>
<path class="st5" d="M694.3,1787.4l2.5,5.8l-9.6,2c-3.1,0.7-6.2,1.7-9.2,2.8c2.6-2.2,5.3-4.1,8.2-5.9
	C690.2,1789.7,694.3,1787.4,694.3,1787.4z"/>
<path class="st4" d="M382.7,1120.4c1,2.8,1.2,6,4.5,8c-2.9,1.1-6.2,2.5-8.8,2.1c-2.4-0.4-4.5-3-5.6-4.9c-1-1.7,1.1-3.7,0.2-5.5
	c-0.3-0.6,0.6-1.8,1.1-2.6L382.7,1120.4z"/>
<path class="st5" d="M557.3,1409.4c0.7,2.6,1.2,5.2,1.5,7.9c1.6,3.4,1.7,7.3,5.2,10.1c-7.3,1.7-15.1,3.1-22.7,1.7
	c-2.2-0.5-4.3-1.2-6.3-2.1c-2-0.8-4-1.7-6-2.7c2-1.4,5-2.1,6-4.1c1.4-2.5,0-6,3.4-7.5c2.2-0.9,5-0.7,7.6-0.9
	C551.6,1410.9,557.3,1409.4,557.3,1409.4z"/>
<path class="st8" d="M571.6,1184.6c3.1-2.3,4.9-4.9,9.8-6.8c2.5-1,9.7-0.9,15.2-0.9c5.1,0.2,10.3,0.6,15.4,1.3
	c1,0.2,3.3,0.1,3.2,0.1c-2.5,3.5-5.7,6.9-3.1,10.3c-4.8-0.1-9.7-0.3-14.5-0.3l-16.5-0.1c0,0-2.8-0.8-5.1-1.7
	S571.6,1184.6,571.6,1184.6z"/>
<path class="st2" d="M1073.5,1619.4c0,0,5.2,3.8,10,7.1l9.4,6.4l-14.9-1.4l-5.7,0.7c-2.1-1.7-4.2-3.4-6.2-5.2
	c-6.2-5.2-12.2-10.4-18.4-15.5c3.9-1.1,7.8-3.1,11.6-2.9c3,0.3,4.7,3.3,7.1,5L1073.5,1619.4z"/>
<path class="st2" d="M1342.2,1066.9c8.7,5.3,16.5,11.3,25.9,16.1c4.3,2.3,6.6,6.6,9.7,10c-3.2,1.3-6.4,2.5-9.6,3.9s-6.3,2.7-9.3,4.2
	c-2.3-1.9-4.8-3.7-7.1-5.6c-2.3-1.8-4.3-3.9-5.9-6.2c-3.9-5.6-3-12.5-3.5-18.8C1342.3,1068.2,1342.2,1066.9,1342.2,1066.9z"/>
<path class="st4" d="M967.8,954.6l3.3,0.7l21.3,7.5l-0.9,0.6l-4.7,8.7c-3.9-3.3-8.9-5.4-13.8-8l-9.3-4.6L967.8,954.6z"/>
<path class="st8" d="M1117.8,1412.7c3.1,2.6,6.4,4.9,9.8,7.1c3,1.8,6,3.5,9.1,5.3c-9.5,0.4-17.3-3.9-22.9-9.2
	c-1.9-1.6-3.3-3.6-4.2-5.9L1117.8,1412.7z"/>
<path class="st7" d="M581.4,1701.9c-1.5-0.8-3-1.3-4.7-1.6c-10.5-2.4-21.5-5.4-26.9-12.9c-1.5-1.6-2.6-3.4-3.5-5.4
	c-0.8-1.8-1.1-3.9-0.8-5.8c0.4-2.3,6.3-1.6,9.8-2c0.3,3.8,2,7.3,4.5,10.6c3.5,3.2,8.5,4.9,12.3,7.9c1.7,1.3,3.2,2.8,4.6,4.4
	C579,1699.6,581.4,1701.9,581.4,1701.9z"/>
<path class="st4" d="M1203.6,757.4c3.5,1.7,8.6,3.1,9.6,5.6c1.6,3.5-2.4,7.9-7.1,9.2c-4,1.2-8.7-0.5-13.3-0.9
	c0.8-4.1-0.8-8.1-0.2-12.3c0.2-2,2.9-3.7,4.8-5.5L1203.6,757.4z"/>
<path class="st4" d="M422,960.5c0,0-3.9,0.2-8.2,0.4l-9.1,0.5l0.4,3.7l-10.9-2.1l-16.4-16.1l20.3,2.4l-3.6-9.8
	c4.8,1.8,9.1,3.8,13.9,5.5c7,2.6,13.4,5.2,13.4,5.2L422,960.5z"/>
<path class="st9" d="M1198.3,1205.3l8.4,2.1c15,3.6,29.9,7.4,42.3,14.8c-2.8,2.7-3.5,6.5-6.5,8.5c-1.7,1.1-5.7,1-7.7,0
	c-7.8-3.8-16.9-6.1-23.9-10.5c-3-2-4.5-5.3-6.8-7.8C1201.2,1208.8,1198.3,1205.3,1198.3,1205.3z"/>
<path class="st5" d="M536.1,1834.3c2.1,0.8,3.8,2.1,6.1,2.8c-8.1,4.2-16.3,8.3-25.7,10.5c0-4.6-3.3-8.3-6.4-12.1
	c-4.1-4.8,1.8-11.1,8.9-12.3c3.6-0.6,6.7,0.8,10.1,1.2L536.1,1834.3z"/>
<path class="st3" d="M664.3,1868.1c-0.8-1.1-1.7-2.2-2.6-3.2c4.1,2.6,7.8,6.2,11.7,9.1c-3.2,4.5-7.6,7.8-12.8,9.6
	c-5.1,1.7-10.5,2.4-15.9,2c-10.6,0.4-21.3-4.9-28.2-14.5c-0.5-0.7,2.5-4.3,4.2-6.7c1.7-1.9,2.3-5.7,4.8-5.7c11.3,0.3,22.5,2.7,33,7
	C662.2,1867.1,664.3,1868.1,664.3,1868.1z"/>
<path class="st8" d="M895,1445.6c3.5,0.6,6.5,1.8,9.9,2.3c-5.9,3.3-11,7.7-15,13.1c-2.2,3.2-4,6.3-6.3,9.3c-3.7,4-7.4,8.1-7.4,8.1
	c-6.6,0.7-13,1.9-19.3,3.1c0.4-2,0.9-4.2,1.4-6.3c0.9-2.3,2.1-4.4,3.5-6.3c1.9-2.5,6.4-3.8,10-5.5c5.1-2.4,9.9-4.9,9.9-4.9
	c0.4-5.2,1.2-10.4,2.2-15.5c1.9,0.5,3.8,1.1,5.7,1.5C892.4,1445.1,895,1445.6,895,1445.6z"/>
<path class="st9" d="M60.1,872.2c-3.4-2.8-7-5.3-10.8-7.5c-3.1-2.1-6-4.4-8.7-7l7.8,3.4l9.9-0.1l6.4,4.3c3.5,3,7.4,5.8,9.6,9.3
	c1.2,2,0,4.7-0.4,7.1c-2.4-1.2-4.7-2.7-7-4.1C64.5,875.9,62.2,874.1,60.1,872.2z"/>
<path class="st7" d="M552.5,1047.6c0.3-1.9,0.8-3.7,1.4-5.5c1.9-6,4.4-12.4,10.1-16.2c1.8-1.2,4.5-1.7,7.8-2
	c6.3-0.9,12.7-1.2,18.8,0.7c-4.4,1.6-8.3,4.4-11.2,8.2c-2,2.3-4.1,4.7-5.6,6.5c-1.6,3.7-6.9,4.9-11.5,6.3
	C559.1,1046.4,555.8,1047.1,552.5,1047.6z"/>
<path class="st4" d="M961.6,1804.4l3.1-8.2l-3.8-9l8.9,0.1l8.9,0.1l4.2,2.2l0.3,10.2l-9.8,4c0,0-3.5,0-6.4,0.3
	S961.6,1804.4,961.6,1804.4z"/>
<polygon class="st2" points="666,1301 658.7,1299.9 662.1,1298.2 659,1295.4 671.7,1294.5 672.7,1295.7 673.9,1297.5 "/>
<polygon class="st10" points="947,1410.1 943.2,1405.4 947.2,1406.1 947.8,1402.5 957.3,1408.9 956.8,1410.2 955.8,1412.1 "/>
<path class="st2" d="M861.7,1115.7c2.2-6.7,1.3-13.8-0.1-20.6c5.1,1.3,8.8,4.3,13.2,6c1.7,0.6,4.9-1.2,7.3-2c0.8,3.2,3,6.5,1.8,9.3
	c-1.3,3.2-5.3,6.4-9.4,8.2c-1.4,0.7-4.1,0.3-6.1-0.1L861.7,1115.7z"/>
<path class="st1" d="M601.5,1800.5l-4.3-6.6l11-2l2.6-6.2c5.6,0.3,11.2,1.7,16.7,1.2c1.1-0.1,2-1.4,2.9-2.2
	c-0.6,2.2-0.2,4.5-0.1,6.9c0.5,2.6,1.2,5.1,2,7.6l-3.5,1.2l-22.1,5.8L601.5,1800.5z"/>
<path class="st7" d="M642.1,1471.6l-4.5-8.9c1.2-1.4,2.3-3.9,2.8-3.8c8,1.2,16.2,1.2,24.2,2.5c2.4,0.4,4.7,1.6,6.3,3.4
	c1.3,1.6,1.7,3.5,0.2,5.1c-4.6,4.7-14.2,8.4-21.7,4.9C646.9,1473.8,644.4,1472.8,642.1,1471.6z"/>
<path class="st2" d="M810.5,1853.4c-3,1.5-6.3,2.9-9.4,4.4c0.1-2.9-0.2-6.2,2.5-7.9c2.5-1.4,6.3-1,9.5-1.4L810.5,1853.4z"/>
<path class="st3" d="M1008.2,731c-5.5-5.2-9.3-12.1-10.6-19.6c4.8,3.4,11.1,5.6,15.3,9.4c0.9,0.9-1.2,3.3-2.1,5.2
	C1009.5,728.7,1008.2,731,1008.2,731z"/>
<path class="st6" d="M260.7,747.8c0,0-0.8-4.7-1.5-9.5l-1.5-9.5l12.9,3.4L285,741l-3.9,15.6l-11.7-1.6L260.7,747.8z"/>
<path class="st5" d="M397.8,1484.8l-6.5-8.5l2.3-6.6l3.5,0.8l12.6,1c0.8,3.1,3.8,6,3.4,9.1c0,0-2.8,1.3-5.7,2.8l-5.6,2.6
	L397.8,1484.8z"/>
<path class="st4" d="M854.7,1317.5c4.3-0.7,8.3,0.2,12.5,1l10.7,1.7l-3.9,4.9c-2.2,0.8-4.3,2.1-6.5,2.2c-2.5-0.1-5.1-0.4-7.5-1
	c-2.5-0.5-4.9-1.1-7.4-1.5L854.7,1317.5z"/>
<path class="st6" d="M444,864.8l-10.5,3.1l2.5-12.2l2.1-3.8l9.4-1.8c6.3-0.8,12.6-2.7,19-2.1c2.2,0.3,5.3,2,5.2,2.6
	c-1.5,4.9-5.8,9.5-11.3,12.6c-2,1.1-5.4,0.9-8.2,1C448,864.6,444,864.8,444,864.8z"/>
<path class="st7" d="M658.1,932c-1-1.5-2.6-3.6-2-4.3c1.7-1.7,3.6-3.1,5.7-4.2c2.2-1.1,4.6-1.8,6.6-1.3c6.4,2.3,15.7,6,14,11
	c-1.4,4.3-10.7,2.9-16.1,0.8C662.4,932.8,658.1,932,658.1,932z"/>
<path class="st10" d="M77.1,992.2c-4.2,0-7.8,0.7-12,0.6c-9.7-0.2-19.1-0.7-27.9,0.6c0.9-2.2,2.2-4.4,3-6.6c1-2.3,2-4.6,3.2-6.8
	l-2.3-6l-2.3-6l8.9,2.7c12.9,2.9,20.5,11.9,31,17.7L77.1,992.2z"/>
<polygon class="st4" points="1028.3,1360.3 1024.3,1360.2 1022.4,1353 1025.2,1352.1 1029.8,1353.1 1039.2,1354.5 1033.1,1359.4 
	1035.8,1364 1029.3,1361.1 "/>
<path class="st1" d="M50.2,1153.6c-6.5-6.1-15.8-9.8-25.4-12.6c7-3.3,14-6.8,22.6-7.7c4.4-0.6,8.6,0.8,12.9,0.8
	c3.9,0.2,7.9,0.2,11.8,0l-2.9,4.7c-1.9,4.3-6.6,6.7-11.2,9.2C55.2,1149.7,52.6,1151.5,50.2,1153.6z"/>
<path class="st10" d="M573.9,1601.6c4.7-0.8,9.5-0.2,14.3-0.7c1.6-0.1,3.3-1.2,4.3-1.1c2.7,0.8,5.5,2.9,5.9,4.9
	c1,5.5,4.8,13.4-5.3,15.1c-7.8-4.8-14.3-10.5-23.3-14.5c-0.7-0.3,0.8-1.2,1.5-1.9C572.1,1602.7,573,1602.1,573.9,1601.6z"/>
<path class="st1" d="M1321.2,642.5l1-3.5l13.5,2.1c0,0,0.2,3.7,0.4,7.5c2.2,8.3-8.9,12-16.2,16.2c0.6-2.4,1.2-4.8,2-7.4l-10-4.7
	L1321.2,642.5z"/>
<path class="st4" d="M784.6,1617c1.7,2.7,3.6,5.3,5.6,7.7c1.5,1.3,2.9,2.5,4.4,3.8c4.4,3.8,8.7,7.7,12.7,11.7
	c-4.7-0.1-9.4-0.3-14.1-0.4c-2.3,0-4.7,0-7,0s-5.3,0.8-6.7,0c-4.2-2.6-9.5-6-10.2-9.7c-0.3-1.6,3.6-4.2,6.5-6.2
	C780.3,1620.5,784.6,1617,784.6,1617z"/>
<path class="st2" d="M445.2,1264.5c4.5-5.6,9.4-11.1,14.5-16.5c1.6-1.9,2.9-3.9,5.2-5.3c2.6-1.6,6.3-2,9.2-3.5c-1,2.7-1.9,5.6-3,8.3
	c-1.9,6.4-9.1,10.6-17.1,12.8C448.9,1262.7,445.2,1264.5,445.2,1264.5z"/>
<path class="st2" d="M361.8,1819c-3.8-2.5-8.9-4.8-9.5-8.2c-0.1-1.2,3.7-2.6,5.4-4.2c2.7-2.3,5-4.7,5-4.7l10.7-7.5l-0.5,2.8
	l17.5,7.5l-9,5c-4.5,2.5-9,5-9,5l7.6,5.7c0,0-3.7-0.1-8.3-0.5S361.8,1819,361.8,1819z"/>
<path class="st1" d="M450.2,1349.4c5.5-3.1,10.1-7,14.6-10.9c1.1-1,3.3-2.4,4-2.2c2.5,0.7,4.1,3.4,3.9,5.1c-0.4,3.3,1.1,7.5-2.3,9.9
	s-8.9,0.9-13.5-0.2C453.4,1350.4,450.2,1349.4,450.2,1349.4z"/>
<path class="st3" d="M232.7,1664.7c0,0-2.2-2-4.9-4.1l-5.5-4.2l2.8-4.8l13.9-13l7,11.1l9.5,6c-4.8,3.7-9.9,6.8-15.4,9.3
	c-1.9,0.9-3.7,2-5.3,3.3L232.7,1664.7z"/>
<polygon class="st5" points="203.6,1530.8 198.9,1521.9 210.4,1524.8 212.4,1527.1 "/>
<path class="st4" d="M485.4,731.9c-1.9-1.6-3.8-3.3-5.8-4.9c2.5-0.3,4.8-1.7,7-1.4c5.7,0.7,10.7,2.6,16,4.1l-7.2,5.5L485.4,731.9z"
	/>
<path class="st9" d="M109.7,1774.8c-0.7-5.3-0.2-11.8,6.3-14c1-0.3,3.9,1.9,6.9,1.9c-2.2,2.9-2.6,6.5-5.6,8.8
	c-1,0.9,0.9,3.3,1.3,5.3L109.7,1774.8z"/>
<path class="st5" d="M953.2,1213.7c-5.7-1-11.6-1.8-17.3-2.8l3-4.9l1.9-0.1h18.5l8.1,5.3l-5.4,3L953.2,1213.7z"/>
<path class="st4" d="M1099.2,831.7c-1.6-1.3-2.9-2.8-3.9-4.6c-0.9-1.6-1.6-3.4-2-5.2c-0.6-3.6-1.4-7.2-2.5-10.6
	c2.8,2.1,5.2,4.7,7.8,7c2.7,2.5,6,4.2,9.5,5.1c7.7,1.8,15.2,3.4,21.3,7.4l8.5,4.8l3.9,2.2l-3.2,5l-11.2-4.9
	c-2.1-0.9-4.3-1.9-6.5-2.8c-3.3-0.9-6.6-1.4-10-1.5C1106.9,833.1,1103,832.5,1099.2,831.7z"/>
<path class="st10" d="M100.7,1254.4l5.8,2.8l5.8,2.9c0,0-5.4,1.2-10.8,2.7c-5.6,1.5-11.8,2.6-11.8,2.6s3-2.6,5.7-5.3
	S100.7,1254.4,100.7,1254.4z"/>
<path class="st8" d="M813.4,1766.2c-2.5,0-4.9,0-7.5-0.1c3.6-1.7,7.2-3.5,10.8-5.2c-0.7-0.3-1.4,0.1-2.1-0.2
	c2.5-1.7,5.7-4.9,6.6-4.5c10.6,4.4,2.1,13.1-5.4,17.6L813.4,1766.2z"/>
<path class="st2" d="M682,814.2l-2.3-5.1c0,0,4.3-0.9,8.5-1.8c2.8-0.7,5.5-1.5,8.1-2.6c-2.3,1.9-4.7,3.7-7.2,5.3
	C685.5,812.2,682,814.2,682,814.2z"/>
<path class="st7" d="M999,1480.1c-0.9-2.5-1.1-5.3-4-7c2.5-0.9,5.4-2.2,7.8-1.9c2.1,0.4,4,2.6,5,4.3c0.9,1.5-1,3.3-0.2,4.8
	c0.3,0.5-0.5,1.6-1,2.3L999,1480.1z"/>
<path class="st8" d="M205.5,663.7c-0.9-2.5-1.1-5.3-4-7c2.5-0.9,5.4-2.2,7.8-1.9c2.1,0.4,4,2.6,5,4.3c0.9,1.5-0.9,3.3-0.2,4.9
	c0.3,0.5-0.5,1.6-1,2.3L205.5,663.7z"/>
<path class="st1" d="M832.7,1177.9c-0.6-2.3-1.1-4.6-1.3-7c-1.4-3-1.6-6.5-4.7-8.9c6.4-1.5,13.3-2.8,20-1.6c1.9,0.5,3.8,1.1,5.6,1.8
	c1.8,0.7,3.6,1.5,5.3,2.3c-1.8,1.3-4.3,1.9-5.3,3.6c-1.2,2.2,0,5.3-3,6.6c-1.9,0.8-4.4,0.7-6.7,0.8
	C837.8,1176.5,832.7,1177.9,832.7,1177.9z"/>
<path class="st2" d="M806.5,1417.3c-2.7,2.1-4.3,4.3-8.6,6c-2.2,0.9-8.6,0.8-13.4,0.9c-4.5-0.1-9.1-0.5-13.6-1.1
	c-0.9-0.2-2.9,0-2.8-0.1c2.1-3.1,5-6.1,2.7-9.1c4.2,0.1,8.5,0.2,12.8,0.2H798c0,0,2.5,0.7,4.5,1.5S806.5,1417.3,806.5,1417.3z"/>
<path class="st1" d="M304,984.6c0,0-4.6-3.4-8.9-6.2l-8.4-5.6L300,974l5-0.7c1.9,1.5,3.7,3,5.5,4.5c5.5,4.5,10.9,9.2,16.4,13.6
	c-3.4,1-6.9,2.8-10.2,2.6c-2.7-0.2-4.1-2.8-6.3-4.4L304,984.6z"/>
<path class="st7" d="M114,1507.9c-7.7-4.7-14.6-9.9-23-14.1c-3.8-2-5.9-5.8-8.7-8.7c2.8-1.1,5.7-2.3,8.4-3.4s5.5-2.4,8.2-3.8
	c2,1.6,4.3,3.2,6.3,5c2,1.6,3.8,3.4,5.3,5.5c3.5,4.9,2.8,11,3.2,16.6C113.9,1506.7,114,1507.9,114,1507.9z"/>
<path class="st3" d="M413.7,1648.3l-2.9-0.6l-18.9-6.5l0.8-0.5l4.1-7.7c3.5,2.9,7.9,4.7,12.2,7l8.3,4L413.7,1648.3z"/>
<path class="st2" d="M260.6,1191.1c-2.8-2.2-5.7-4.3-8.7-6.3c-2.6-1.6-5.4-3.1-8.1-4.6c8.4-0.4,15.3,3.3,20.3,8.1
	c1.7,1.4,3,3.2,3.7,5.2L260.6,1191.1z"/>
<path class="st4" d="M99.8,723.5l-9.4-3.5c-4.7-1.8-9.6-3.2-9.6-3.2l11-3.7c11.5,3.2,22.1,7.5,33.7,10.3c-4.4-0.1-8.8,0.1-13,0
	C106.1,723.4,99.8,723.5,99.8,723.5z"/>
<path class="st7" d="M797.3,901.6c1.3,0.7,2.7,1.1,4.1,1.4c9.2,2.1,19,4.7,23.8,11.3c1.3,1.4,2.3,3,3.1,4.8c0.7,1.6,1,3.4,0.7,5.2
	c-0.4,2-5.5,1.4-8.6,1.8c-0.5-3.4-1.9-6.7-4.1-9.4c-3.1-2.8-7.5-4.3-10.9-7c-1.5-1.2-2.8-2.5-4.1-3.9
	C799.5,903.7,797.3,901.6,797.3,901.6z"/>
<path class="st7" d="M181.2,1846.7c-3.1-1.5-7.6-2.7-8.5-4.9c-1.4-3,2.1-7,6.2-8.2c3.5-1.1,7.7,0.4,11.8,0.7
	c-0.7,3.6,0.8,7.2,0.2,10.9c-0.1,1.8-2.6,3.2-4.1,4.8L181.2,1846.7z"/>
<path class="st4" d="M928.1,1598.1c0,0,3.4-0.2,7.2-0.4l8-0.5l-0.4-3.3l9.7,1.8l14.6,14.1l-17.9-2l3.3,8.7
	c-4.2-1.6-8.1-3.3-12.3-4.8c-6.2-2.3-11.8-4.5-11.8-4.5L928.1,1598.1z"/>
<path class="st10" d="M329.4,1361.9l-7.4-1.9c-13.2-3.1-26.5-6.4-37.5-12.9c2.4-2.4,3-5.7,5.7-7.5c1.5-1,5-1,6.8-0.1
	c6.9,3.3,15,5.3,21.2,9.2c2.6,1.8,4,4.7,6,6.9C326.8,1358.8,329.4,1361.9,329.4,1361.9z"/>
<path class="st7" d="M864.7,716.9c-1.8-0.7-3.4-1.8-5.4-2.4c7.1-3.7,14.3-7.4,22.6-9.4c0.1,4.1,3,7.3,5.7,10.7
	c3.6,4.2-1.5,9.8-7.8,10.9c-3.1,0.6-5.9-0.7-8.9-1L864.7,716.9z"/>
<path class="st2" d="M642.5,690c0.7,0.6,1.4,1.2,2.1,1.8c-3.5-1.4-6.6-3.3-9.9-4.8c3.4-2.9,7.4-4.9,11.7-5.9c4.6-1.2,9.3-1.7,14-1.7
	c9.3-0.6,18.5,2.1,24.1,7.4c0.4,0.4-2.4,2.5-4,4c-1.5,1.2-2.3,3.3-4.5,3.4c-9.6,0.2-19.3-0.8-28.6-3
	C644.3,690.5,642.5,690,642.5,690z"/>
<path class="st6" d="M458.8,1120.5c-3.1-0.5-5.7-1.5-8.8-2c5.2-2.9,9.7-6.9,13.2-11.6c1.9-2.8,3.5-5.6,5.5-8.3
	c3.2-3.6,6.5-7.2,6.5-7.2c5.8-0.7,11.4-1.7,17-2.8c-0.3,1.8-0.8,3.7-1.2,5.5c-0.8,2-1.8,3.9-3.1,5.6c-1.7,2.2-5.6,3.3-8.8,4.9
	c-4.4,2.1-8.7,4.4-8.7,4.4c-0.4,4.6-1,9.2-1.8,13.7c-1.6-0.4-3.3-1-5-1.3C461.1,1120.9,458.8,1120.5,458.8,1120.5z"/>
<path class="st7" d="M42.8,896l-0.5,8.8h-8.2c-6.9-3.7-3.9-10.2-4.3-15.5c0.9,0.7,1.9,1.3,3,1.8l9,4.2L42.8,896z"/>
<path class="st7" d="M52.7,1635.6c2.5,4.3,5,8.8,9.7,12c-3.5,2.4-7.1,4.6-10.4,7.1c-0.5-0.7,0.2-1.7-0.5-1.9
	c-3.4-1.2-6.8,1.4-10.4,0.1c-1.6-0.6-3-1.8-3.9-3.3c-2.8-3.6-5.4-7.3-8.4-10.7c-1.6-1.8-3.3-3.4-5.1-4.9c-2-1.5-4.3-2.7-6.7-3.5
	c2.7-1.6,5.4-3.5,8.1-5.1c2.5-1.5,5.2-2.6,8-3.1c6.9-0.8,12.7,5.2,16.7,9.9C51.5,1634.1,52.7,1635.6,52.7,1635.6z"/>
<path class="st10" d="M50.5,1244.4c-0.2,1.9,0.3,4.2-0.8,5.6c-1.7,1.8-3.3,3.6-5.2,5.3c-4.3,4.4-10.3,6.7-16.4,6.2l-11.4,1.5
	l-7.4,3.4l-6-9.5c2.7-2,5.5-4.5,9-5.6c5.9-2.1,13-1.4,19.3-2.4c2.5-0.3,4.9-1.1,7-2.5c1.9-1.1,3.2-3.1,3.4-5.2
	c1.8,0.9,3.6,1.7,5.5,2.3C49.3,1243.9,50.5,1244.4,50.5,1244.4z"/>
<path class="st2" d="M20.8,1066.9c8.7,5.3,16.5,11.3,25.9,16.1c4.3,2.3,6.6,6.6,9.7,10c-3.2,1.3-6.4,2.5-9.6,3.9s-6.3,2.7-9.3,4.2
	c-2.3-1.9-4.8-3.7-7.1-5.6c-2.3-1.8-4.3-3.9-5.9-6.2c-3.9-5.6-3-12.5-3.5-18.8C21,1068.2,20.8,1066.9,20.8,1066.9z"/>
<path class="st4" d="M829.1,156.5c11.1,4,20.2,10.7,28.3,17.6c2.6-5,1.5-10.4,3-15.2c0.6-1.8,5.8-2.7,9-3.8
	c-3.7-3.4-6.4-7.8-11.4-9.3c-5.6-1.8-13.3-1.4-19.3,0.2c-2.2,0.5-3.9,2.9-5.1,4.7C831.5,153.4,829.1,156.5,829.1,156.5z"/>
<path class="st8" d="M786.4,492.4c2.8,9.5,9.5,17.8,18.1,24.8c-0.7-6.5,1.7-13.2,0-19.6c-0.4-1.4-5.6-1.9-9-2.9
	C790.7,493.4,786.4,492.4,786.4,492.4z"/>
<path class="st1" d="M968,641.6c4.6,2.7,10.2,3.3,15.8,4.1l14.2,2.6l-0.8-7.6c-2-1.8-3.5-4.4-6.1-5.3c-3.2-1-6.5-1.6-9.8-2
	c-3.4-0.4-6.8-0.8-10.1-1.3L968,641.6z"/>
<path class="st4" d="M1334.6,369.3l-13.3,5.3l19,8.5l7,1.6l10.5-5.6c6.5-4.1,14.4-7.3,19.1-12.7c1.5-1.9,1.7-5.8,0.8-6.2
	c-8-3-18-3.7-27.1-2.1c-3.2,0.6-5.8,3.4-8.4,5.4C1338.2,366.4,1334.6,369.3,1334.6,369.3z"/>
<path class="st2" d="M1118.2,304.6c1.2,2,2.8,5,4.2,5.2c3.6,0.2,7.2-0.1,10.7-0.8c3.5-0.7,6.4-2,7.4-3.9c2.3-6.8,5.1-17-3.3-20
	c-7.1-2.5-13.1,5.8-14.8,11.6C1121.3,299.4,1119.8,302.1,1118.2,304.6z"/>
<path class="st9" d="M764,641.8l5.8,2.2l8.5-12.1c0,0-4.9-3.3-10-6.7c-9.6-8.7-24.2-3.5-36.2-1.4c3.9,1.6,7.7,3.2,11.9,4.8
	l-1.9,11.6L764,641.8z"/>
<path class="st3" d="M1299.2,500.9c0.6,2.8,1.2,5.7,1.9,8.6c2.6-1.6,6.4-2.2,8-4.1c3.9-5,5.6-10.4,7.9-15.7l-13.7,0.8L1299.2,500.9z
	"/>
<path class="st10" d="M687.2,161.8c-1.1,2.2-1.7,4.7-1.7,7.1c0,2.4,0.4,4.8,1.1,7.1c1.7,4.6,3.1,9.3,4.1,14.1
	c2.1-3.6,3.2-7.7,4.9-11.5c1.6-4.1,4.5-7.6,8.3-9.9c8.2-5.1,16.4-10,21.2-17.1l7.2-9.1l3.3-4.1l-7.3-4.9L718,143.8
	c-1.9,1.9-4,3.9-6.1,6c-3.5,2.3-7.3,4.2-11.2,5.7C696,157.1,691.5,159.3,687.2,161.8z"/>
<path class="st2" d="M1100,417.7l5.1,6.1l9.7-5c3.4-1.6,6.9-2.9,10.5-4c-4.5,0.1-8.9,0.4-13.4,1C1105.9,416.7,1100,417.7,1100,417.7
	z"/>
<path class="st4" d="M1008.5,38.6c2.6,2.5,5.6,4.7,8.5,7c2.9,3.6,7.6,6.7,8.3,11.1c7.5-3.6,15.2-7.8,19.2-13.9
	c1-1.9,1.7-3.8,2.3-5.8c0.5-2,1-4,1.3-6c-3.2,0.3-6.3,1.8-9.5,0.9c-4.1-0.9-7.3-4.6-11.6-3.4c-2.7,0.8-4.7,2.8-6.8,4.4
	C1014.6,35.9,1008.5,38.6,1008.5,38.6z"/>
<path class="st1" d="M990.4,335.4c0.2-1.6,0.7-3,1.6-4.3c5-8.8,9.7-18.4,4.7-27.8c-1-2.4-2.3-4.5-4-6.5c-1.8-2.1-4-3.8-6.5-4.9
	c-3.1-1.5-6.7,3-9.8,5c4,2.9,7.3,6.7,9.5,11.1c1.2,4.8-0.4,9.4,0.3,14.2c0.4,2.2,1,4.3,1.9,6.4C989.4,332,990.4,335.4,990.4,335.4z"
	/>
<path class="st6" d="M909.6,519.1c-0.6,2-0.4,4.1-1.2,6.2c11.2-2.2,22.3-4.6,32.2-9.3c-5.6-3.5-7.5-8.5-9.9-13.4
	c-2.8-6.4-14.8-7.2-21.7-3.4c-3.4,1.9-4.1,5.1-6.2,7.7L909.6,519.1z"/>
<path class="st4" d="M1118.7,551.5c-0.3-1-0.5-2.1-0.6-3.1c-1.1,3.8-1.1,7.8-1.7,11.7c6.2,0,12.4-1.3,18.1-3.9
	c5.2-2.3,10-5.5,14.2-9.3c8.7-6.6,12.8-15.9,10.2-24.7c-0.2-0.6-5.6-0.3-8.9-0.3c-2.9,0.2-6.6-1.1-8.5,0.5
	c-8.2,6.8-15.1,15.1-20.3,24.4C1119.6,549.7,1118.7,551.5,1118.7,551.5z"/>
<path class="st8" d="M1365.3,642.1l-2.7-0.5l-3.3,11l21.4,4.4c0,0,3.9-3.8,7.4-7.1c2.9-2.6,7.6-5.6,6.1-7.8c-2.8-4-8.8-8.3-15.2-8.8
	c-1.9-0.2-4.3,2.2-6.6,3.8L1365.3,642.1z"/>
<path class="st1" d="M1277.2,138.7c-4.2,0.2-8,1-12.1,1.1c5.9,4.7,10.6,10.7,13.7,17.5c1.7,4.1,2.9,8,4.7,11.8
	c3.2,5.2,6.2,10.5,6.2,10.5c7.4,1.9,14.4,4.2,21.5,6.6c0.1-2.4,0.1-5,0.1-7.5c-0.4-2.7-1.1-5.4-2.3-7.9c-1.5-3.2-6.3-5.3-10-7.9
	c-5.2-3.5-10.1-7.3-10.1-7.3c0.9-6.1,1.5-12.2,1.8-18.3c-2.3,0.2-4.7,0.7-7,0.8C1280.4,138.5,1277.2,138.7,1277.2,138.7z"/>
<path class="st1" d="M1166,316.1c-2.6,7.6-1.6,15.6-0.1,23.3c-5.7-1.5-9.9-4.9-14.9-6.8c-1.9-0.6-5.6,1.3-8.3,2.3
	c-0.9-3.6-3.3-7.4-1.9-10.6c1.5-3.7,6-7.2,10.7-9.3c1.6-0.8,4.6-0.3,7,0.1C1161.9,315.6,1166,316.1,1166,316.1z"/>
<path class="st3" d="M1187.2,63.8c-4.9,0.8-9.4-0.3-14.1-1.2l-12.2-2l4.4-5.6c2.5-0.8,4.9-2.4,7.3-2.4c2.9,0.1,5.7,0.5,8.5,1.2
	c2.8,0.6,5.6,1.3,8.4,1.8L1187.2,63.8z"/>
<path class="st1" d="M1380.6,449.5c1.1,1.7,2.9,4.1,2.2,4.9c-1.9,1.9-4.1,3.5-6.5,4.8c-2.5,1.3-5.2,2-7.5,1.4
	c-7.2-2.6-17.7-6.8-15.8-12.5c1.6-4.8,12.2-3.2,18.2-0.8C1375.7,448.6,1380.6,449.5,1380.6,449.5z"/>
<path class="st8" d="M1086,166.1c6.5,1.1,13.1,2.1,19.5,3.3l-3.5,5.4l-2.2,0.1h-20.9l-9.2-6l6.2-3.4L1086,166.1z"/>
<path class="st5" d="M785.2,379c1.8,1.4,3.3,3.2,4.4,5.2c1,1.9,1.7,3.8,2.2,5.9c0.6,4.1,1.6,8.1,2.8,12.1c-3.2-2.4-5.8-5.3-8.8-7.9
	c-3-2.8-6.7-4.8-10.7-5.8c-8.7-2-17.2-4-24-8.5l-9.6-5.5L737,372l3.6-5.6l12.6,5.7c2.3,1,4.8,2.2,7.3,3.3c3.7,1,7.5,1.6,11.3,1.8
	C776.4,377.4,780.8,378,785.2,379z"/>
<path class="st5" d="M1355,566.5l2.5,5.8l-9.6,2c-3.1,0.8-6.2,1.7-9.2,2.9c2.6-2.2,5.3-4.1,8.2-5.9
	C1350.9,568.8,1355,566.5,1355,566.5z"/>
<path class="st5" d="M1218,188.6c0.7,2.6,1.2,5.2,1.5,7.9c1.6,3.4,1.7,7.3,5.2,10.1c-7.3,1.7-15.1,3.1-22.7,1.7
	c-2.1-0.6-4.3-1.3-6.3-2.1c-2.1-0.8-4-1.7-6-2.7c2-1.4,5-2.1,6-4.1c1.4-2.5,0-6,3.4-7.5c2.2-0.9,5-0.7,7.6-0.9
	C1212.2,190.1,1218,188.6,1218,188.6z"/>
<path class="st7" d="M1242.1,481.1c-1.5-0.8-3-1.3-4.7-1.6c-10.5-2.4-21.4-5.4-26.9-12.9c-1.5-1.6-2.6-3.4-3.5-5.4
	c-0.8-1.8-1.1-3.9-0.8-5.9c0.4-2.3,6.3-1.6,9.8-2c0.5,3.9,2,7.6,4.5,10.6c3.5,3.2,8.5,4.9,12.3,7.9c1.7,1.3,3.2,2.8,4.6,4.4
	C1239.7,478.7,1242.1,481.1,1242.1,481.1z"/>
<path class="st5" d="M1196.8,613.5c2.1,0.8,3.8,2.1,6.1,2.8c-8.1,4.2-16.3,8.3-25.7,10.5c0-4.6-3.3-8.3-6.4-12.1
	c-4.1-4.8,1.8-11.1,8.9-12.3c3.6-0.6,6.7,0.8,10.1,1.2L1196.8,613.5z"/>
<path class="st3" d="M1325,647.2c-0.8-1.1-1.7-2.2-2.6-3.2c4.1,2.6,7.8,6.2,11.7,9.1c-3.2,4.5-7.6,7.8-12.8,9.6
	c-5.1,1.7-10.5,2.4-15.9,2c-10.6,0.4-21.3-4.9-28.2-14.5c-0.5-0.7,2.5-4.3,4.2-6.7c1.7-1.9,2.3-5.7,4.8-5.7c11.3,0.3,22.5,2.7,33,7
	C1322.9,646.3,1325,647.2,1325,647.2z"/>
<polygon class="st2" points="1326.7,80.2 1319.4,79.1 1322.8,77.3 1319.7,74.6 1332.4,73.7 1333.4,74.8 1334.6,76.6 "/>
<path class="st1" d="M1262.2,579.7l-4.3-6.6l11-2l2.6-6.2c5.6,0.2,11.2,1.6,16.7,1.2c1.1-0.1,2-1.4,2.9-2.2
	c-0.6,2.2-0.2,4.5-0.1,6.9c0.5,2.6,1.2,5.1,2,7.5l-3.5,1.2l-22.1,5.7L1262.2,579.7z"/>
<path class="st7" d="M1302.8,250.7l-4.5-8.9c1.2-1.4,2.3-3.9,2.8-3.9c8.1,1.2,16.2,1.2,24.2,2.5c2.4,0.4,4.7,1.6,6.3,3.4
	c1.3,1.6,1.7,3.5,0.2,5.1c-4.6,4.7-14.2,8.4-21.7,4.9C1307.6,253,1305.1,252,1302.8,250.7z"/>
<path class="st5" d="M1058.4,264l-6.5-8.5l2.3-6.6l3.5,0.8l12.6,1c0.8,3.1,3.8,6,3.4,9.1c0,0-2.8,1.3-5.7,2.8l-5.6,2.6L1058.4,264z"
	/>
<path class="st10" d="M1234.6,380.8c4.7-0.8,9.6-0.2,14.3-0.7c1.6-0.1,3.3-1.2,4.3-1.1c2.7,0.7,5.5,2.9,5.9,4.9
	c1,5.5,4.8,13.4-5.3,15.1c-7.8-4.8-14.3-10.5-23.4-14.5c-0.7-0.3,0.8-1.2,1.5-1.9C1232.8,381.9,1233.7,381.3,1234.6,380.8z"/>
<path class="st2" d="M1105.9,43.7c4.5-5.6,9.4-11.1,14.5-16.5c1.6-1.9,2.9-3.9,5.2-5.3c2.7-1.6,6.3-2,9.2-3.5c-1,2.8-1.8,5.6-3,8.3
	c-1.9,6.4-9.1,10.6-17.1,12.8C1109.6,41.8,1105.9,43.7,1105.9,43.7z"/>
<path class="st2" d="M1022.5,598.1c-3.8-2.5-8.9-4.8-9.5-8.2c-0.2-1.2,3.7-2.5,5.4-4.2c2.7-2.3,5-4.7,5-4.7l10.7-7.5l-0.4,2.8
	l17.5,7.5l-8.9,5c-4.5,2.5-9,5-9,5l7.6,5.7c0,0-3.7-0.1-8.3-0.5S1022.5,598.1,1022.5,598.1z"/>
<path class="st1" d="M1110.9,128.5c5.5-3.1,10.1-6.9,14.6-10.9c1.1-1,3.3-2.4,4.1-2.2c2.5,0.7,4.1,3.4,3.9,5.1
	c-0.4,3.3,1.1,7.5-2.3,9.9s-8.9,0.9-13.5-0.2C1114.1,129.5,1110.9,128.5,1110.9,128.5z"/>
<path class="st3" d="M893.4,443.9c0,0-2.2-2-4.9-4.1l-5.5-4.2l2.8-4.8l13.9-13l7,11.1l9.5,6c-4.8,3.7-9.9,6.8-15.4,9.3
	c-1.9,0.9-3.7,2-5.3,3.3L893.4,443.9z"/>
<polygon class="st5" points="864.3,310 859.6,301 871.1,304 873.1,306.3 "/>
<path class="st9" d="M770.4,554c-0.7-5.3-0.2-11.8,6.3-14c1-0.3,3.9,1.9,6.9,1.9c-2.2,2.9-2.6,6.5-5.6,8.8c-1,0.9,0.9,3.3,1.3,5.3
	L770.4,554z"/>
<path class="st10" d="M761.4,33.5c0,0,2.9,1.4,5.8,2.8l5.8,2.9c0,0-5.4,1.2-10.9,2.7c-5.6,1.5-11.7,2.6-11.7,2.6s3-2.5,5.7-5.3
	S761.4,33.5,761.4,33.5z"/>
<path class="st7" d="M774.7,287c-7.7-4.7-14.6-9.9-23-14.1c-3.8-2-5.9-5.8-8.7-8.7c2.8-1.1,5.7-2.3,8.5-3.5s5.5-2.4,8.2-3.8
	c2,1.6,4.3,3.2,6.3,5c2,1.6,3.8,3.4,5.3,5.5c3.5,5,2.8,11,3.2,16.6C774.6,285.8,774.7,287,774.7,287z"/>
<path class="st3" d="M1074.4,427.5l-2.9-0.6l-18.8-6.5l0.8-0.5l4.1-7.7c3.5,2.9,7.9,4.7,12.2,7l8.3,4L1074.4,427.5z"/>
<path class="st7" d="M841.8,625.9c-3.1-1.5-7.6-2.7-8.5-4.9c-1.4-3,2.1-7,6.2-8.2c3.5-1.1,7.7,0.4,11.8,0.7
	c-0.7,3.6,0.8,7.2,0.2,10.9c-0.1,1.8-2.6,3.2-4.2,4.8L841.8,625.9z"/>
<path class="st2" d="M990.1,141l-7.4-1.8c-13.2-3.1-26.5-6.4-37.5-12.8c2.5-2.4,3-5.7,5.7-7.5c1.5-1,5-1,6.7,0
	c7,3.3,15,5.3,21.2,9.2c2.6,1.8,4,4.7,6,6.9C987.5,137.9,990.1,141,990.1,141z"/>
<path class="st3" d="M412.9,358.8c0.9,4.8,1.3,9.7,1.1,14.6c0.2,4.3,1,8.5,2.3,12.6l1.9-8.8l8.6-7.5l-0.5-8.5
	c-1.1-5.2-1.8-10.6-4.8-15.2c-1.7-2.6-6.5-4-10.1-5.8c-0.3,2.9-0.4,5.9-0.2,8.8C411.5,352.2,412.1,355.5,412.9,358.8z"/>
<path class="st3" d="M194.8,488.7c0,0,5.9,4.6,11.8,9.2l11.8,9.2l6.2-12.8L225,476l-25-10.3l-7.7,10.3L194.8,488.7z"/>
<path class="st4" d="M13.3,369.3L0,374.6l19,8.5l7,1.6l10.5-5.6c6.5-4.1,14.5-7.3,19.2-12.7c1.5-1.9,1.7-5.8,0.8-6.2
	c-8-3-18-3.7-27.1-2.1c-3.2,0.6-5.8,3.4-8.4,5.4C16.9,366.4,13.3,369.3,13.3,369.3z"/>
<path class="st4" d="M303.6,651.5c0,0,6.9,2.8,14.6,5.6s14.4,5.7,14.4,5.7l24.5,4.9l-12-18.1c0,0-4.2-2.6-8.4-5.3
	c-3.9-2.8-7.4-5.5-7.4-5.5s-6.1,3.1-12.9,6.4S303.6,651.5,303.6,651.5z"/>
<path class="st2" d="M379.2,190c-3.5,2.5-7.5,4.1-10.8,6.7c-7.7,5.9-14.8,11.8-24.1,16.1c3.9,1,8,1.8,11.7,2.8c4,1,8.1,2,12.2,2.8
	l6.5,5.5l6.5,5.5l3.6-7.1c6.6-9.6,0.4-20.3,1-30.5L379.2,190z"/>
<path class="st2" d="M592.4,551.2c0,0-0.7,4-1.5,8.1c-1,4-3.6,9.3,0.3,11.7c2.8,1.8,9,1.4,13.1,0.2c3.7-1.3,7.5-5,7.1-7.3
	c-0.2-2.4-5.2-4.8-8.1-7.2L592.4,551.2z"/>
<path class="st4" d="M546.9,319.3c3.3,4.9,7,10,7.2,15.6c5.6-0.5,11-1.3,16.5-1.6c-0.4-0.8-2.2-1.1-1.9-1.8c1.1-3.2,6.9-3.5,8-6.9
	c0.6-1.8-0.2-3.5-1.1-5.1c-2.3-4.5-4.8-9.1-6.6-13.7c-0.9-2.3-1.6-4.7-2.1-7.1c-0.3-2.4,0-4.9,0.8-7.2c-4,0.5-8.3,0.9-12.3,1.5
	c-3.4,0.4-6.8,1.4-9.9,3c-6.2,4-3.2,12.4-0.6,18.6C546,317.4,546.9,319.3,546.9,319.3z"/>
<path class="st7" d="M432.2,69.2c2.9,10.2,0.1,20.4-4.2,30.1c10.5-2.6,21.3-5,29.9-10.7c4.5-2.9,6.2-7.2,9.8-10.5
	c3.1-3.2,6.5-6.2,10-9l-8.9-1.8c-7.5-2.2-14.8-0.6-22.4,0.7C441.7,68.7,436.9,69.1,432.2,69.2z"/>
<path class="st4" d="M545,651.1c7.2,1.6,13.6,3.6,21.3,5c-3.5-7.7-2.1-15.6,4.2-23.1c-6.3,2.9-10.6,6.1-15.6,9.2
	C551.4,644.8,548,647.8,545,651.1z"/>
<path class="st1" d="M482.5,563.6c2.7,2.8,6.3,5.3,6.3,9c3.4-1.1,7.7-2.2,9.2-4.3c1.3-1.9-0.2-5.3-1.7-7.5c-1.3-1.9-5.4-2.1-6.9-4
	c-0.4-0.6-2.6-1-4-1.2L482.5,563.6z"/>
<path class="st5" d="M165.7,247.5c0,0,0.7,6.4,1,12l0.6,11.1l9.6-11.1l5.2-3.3c-0.5-2.7-1-5.4-1.6-8.1c-1.6-8-3.4-16.1-4.9-24.1
	c-4.3,1.8-9.7,2.9-12.2,5.6c-1.9,2.2,0.4,5.6,0.7,8.6C164.9,243,165.7,247.5,165.7,247.5z"/>
<path class="st9" d="M571.3,454.9l2.7,2.2l10.7,6.5c3.8,2.5,8.4,4.3,11.8,6.7c2.5-3.4,7-6,10.5-8.8c-2.5-0.8-5.1-1.5-8-2.2
	c0,0-5.8-2.6-11.4-5.1l-11.3-5.1L571.3,454.9z"/>
<path class="st10" d="M536.2,218.9l3.6,10.1c1.8,5.1,3,10.2,3,10.2l9.5-9.6c-2.3-12-7.1-23.5-8.8-35.5c-1.1,4.3-2.6,8.5-3.6,12.5
	C538.1,212.8,536.2,218.9,536.2,218.9z"/>
<path class="st8" d="M366.5,509.7c0,0-1.6,5.1-3.1,10.2s-3.7,10.1-3.7,10.1l14.4-5.3c5.4-11.5,8.4-23.3,14.4-34.5
	c-3.6,3.5-7.6,6.6-11,9.9C371.9,505,366.5,509.7,366.5,509.7z"/>
<path class="st8" d="M44,642.1l-2.7-0.5l-3.3,11l21.4,4.5c0,0,3.9-3.8,7.4-7.1c2.9-2.6,7.6-5.6,6.1-7.8c-2.8-4-8.8-8.3-15.2-8.8
	c-1.9-0.2-4.3,2.2-6.5,3.8L44,642.1z"/>
<path class="st2" d="M655.4,512c3.8,3.2,7.9,6,12.2,8.5c3.5,2.4,6.8,5,9.8,8l-8.8-3.9l-11.3,0.1l-7.2-4.9
	c-3.9-3.4-8.3-6.7-10.8-10.6c-1.3-2.2,0-5.3,0.5-8c2.8,1.4,5.3,3.1,7.8,4.7C650.4,507.7,652.9,509.8,655.4,512z"/>
<path class="st5" d="M209.9,346.2c-0.4,2.1-0.9,4.2-1.6,6.2c-2.2,6.8-5.1,14-11.6,18.3c-2,1.4-5.1,1.9-8.9,2.3
	c-7.2,1-14.4,1.3-21.3-0.9c5.1-1.7,9.5-4.9,12.7-9.2c2.3-2.6,4.7-5.3,6.4-7.3c1.9-4.2,7.8-5.5,13.1-7
	C202.4,347.5,206.1,346.7,209.9,346.2z"/>
<path class="st2" d="M455,635.2c0,0,0.8,5.4,1.6,10.7l1.6,10.7l-14.6-4l-16.2-9.8l4.6-17.7l13.3,2L455,635.2z"/>
<path class="st1" d="M272.2,516.9l11.9-3.5l-3,13.8l-2.4,4.3l-10.6,2c-7.1,0.9-14.3,3-21.6,2.3c-2.5-0.3-6-2.3-5.9-3
	c1.7-5.5,6.6-10.7,13-14.2c2.3-1.2,6.1-1,9.3-1.1C267.7,517.1,272.2,516.9,272.2,516.9z"/>
<path class="st1" d="M59.2,449.5c1.1,1.7,2.9,4.1,2.2,4.9c-1.9,1.9-4.1,3.5-6.5,4.8c-2.5,1.3-5.2,2-7.5,1.4
	c-7.2-2.6-17.7-6.8-15.8-12.5c1.6-4.8,12.2-3.2,18.2-0.8C54.3,448.6,59.2,449.5,59.2,449.5z"/>
<path class="st10" d="M578.6,359.5c4.1-0.3,7.7-1.4,11.7-1.5c9.4-0.5,18.5-0.7,27.3-2.8c-1.3,2.4-2.8,4.8-3.9,7.2
	c-1.3,2.5-2.7,5-4.2,7.4l1.2,6.1l1.2,6.1l-8.2-2.1c-12-2.1-18-10.9-27.3-16.2L578.6,359.5z"/>
<path class="st7" d="M713.4,414.8c2.5,4.3,4.9,8.8,9.7,12c-3.5,2.4-7.1,4.6-10.4,7.1c-0.5-0.6,0.2-1.6-0.5-1.9
	c-3.4-1.2-6.8,1.4-10.4,0.1c-1.6-0.6-3-1.8-3.9-3.3c-2.8-3.6-5.4-7.3-8.4-10.7c-1.6-1.8-3.2-3.4-5.1-4.9c-2-1.5-4.3-2.7-6.7-3.5
	c2.7-1.6,5.4-3.5,8.1-5.1c2.4-1.5,5.2-2.6,8-3.1c6.9-0.8,12.7,5.2,16.7,9.9C712.2,413.3,713.4,414.8,713.4,414.8z"/>
<path class="st3" d="M667.4,229.2c7.3,7,17.8,11.2,28.7,14.4c-8,3.7-16,7.6-25.7,8.6c-5,0.6-9.7-0.9-14.6-1c-6.7-0.4-13.4,0-13.4,0
	l3.3-5.3c2.2-4.9,7.5-7.5,12.8-10.4C661.7,233.7,664.6,231.5,667.4,229.2z"/>
<path class="st10" d="M711.2,23.6c-0.2,1.9,0.3,4.2-0.8,5.6c-1.6,1.8-3.4,3.6-5.2,5.3c-3.7,4.1-9.8,6.6-16.4,6.2l-11.4,1.5l-7.3,3.4
	l-6-9.5c2.7-2,5.5-4.5,9-5.6c5.9-2.1,13-1.4,19.3-2.4c2.5-0.3,4.9-1.1,7-2.5c1.9-1.1,3.2-3.1,3.4-5.2c1.8,0.9,3.6,1.7,5.5,2.3
	C710,23.1,711.2,23.6,711.2,23.6z"/>
<path class="st9" d="M275.6,116.5c-5.1,6.3-10.8,12.6-16.5,18.6c-1.8,2.1-3.4,4.4-5.9,6c-3,1.8-7.1,2.3-10.4,4
	c1.1-3.1,2.1-6.3,3.4-9.4c2.2-7.2,10.4-11.9,19.5-14.4C271.4,118.6,275.6,116.5,275.6,116.5z"/>
<path class="st2" d="M270.9,33.1c-6.3,3.4-11.5,7.8-16.6,12.3c-1.3,1.1-3.8,2.8-4.6,2.4c-2.9-0.8-4.6-3.8-4.3-5.8
	c0.4-3.8-1.1-8.5,2.7-11.2s10.1-1,15.2,0.3C267.4,32,270.9,33.1,270.9,33.1z"/>
<path class="st5" d="M618,130.9c0,0-3.3-1.6-6.5-3.2l-6.5-3.3c0,0,6.2-1.4,12.3-3c6.3-1.7,13.3-2.8,13.3-2.8s-3.4,2.9-6.5,6
	S618,130.9,618,130.9z"/>
<path class="st2" d="M412.8,398.5c0,0,5.2,3.8,10,7.1l9.5,6.4l-15-1.5l-5.7,0.7c-2.1-1.7-4.1-3.4-6.2-5.2
	c-6.2-5.2-12.2-10.4-18.4-15.5c3.9-1.1,7.8-3.1,11.6-2.9c3,0.3,4.7,3.3,7.1,5L412.8,398.5z"/>
<path class="st8" d="M457.1,191.9c3.2,2.5,6.5,4.9,9.9,7.1c3,1.8,6,3.5,9.1,5.3c-9.5,0.4-17.3-3.9-22.9-9.2
	c-1.9-1.6-3.3-3.6-4.2-5.9L457.1,191.9z"/>
<path class="st8" d="M234.3,224.8c3.5,0.6,6.5,1.8,9.9,2.3c-5.9,3.3-11,7.7-15.1,13.1c-2.2,3.2-4,6.3-6.3,9.3
	c-3.7,4-7.4,8.1-7.4,8.1c-6.6,0.7-12.9,1.9-19.3,3.1c0.4-2,0.9-4.2,1.4-6.3c0.9-2.3,2.1-4.4,3.5-6.4c1.9-2.5,6.4-3.8,10-5.5
	c5.1-2.4,9.9-4.9,9.9-4.9c0.5-5.2,1.2-10.4,2.2-15.5c1.9,0.5,3.8,1.1,5.7,1.5C231.7,224.3,234.3,224.8,234.3,224.8z"/>
<path class="st4" d="M300.9,583.6l3.1-8.2l-3.8-9.1l8.9,0.1l8.9,0.1l4.2,2.2l0.4,10.2l-9.9,4c0,0-3.5,0-6.4,0.3
	S300.9,583.6,300.9,583.6z"/>
<polygon class="st10" points="286.3,189.3 282.5,184.6 286.5,185.3 287.1,181.7 296.6,188.1 296.1,189.4 295.1,191.2 "/>
<path class="st2" d="M149.8,632.5c-3,1.5-6.3,2.9-9.4,4.4c0.1-2.9-0.2-6.2,2.6-7.9c2.4-1.4,6.3-1,9.5-1.4L149.8,632.5z"/>
<path class="st4" d="M194,96.7c4.3-0.7,8.3,0.2,12.5,1l10.7,1.7l-3.9,4.9c-2.2,0.8-4.3,2.1-6.5,2.1c-2.5-0.1-5.1-0.4-7.5-1
	c-2.5-0.5-4.9-1.1-7.4-1.5L194,96.7z"/>
<polygon class="st4" points="367.7,139.5 363.7,139.3 361.8,132.1 364.5,131.3 369.1,132.3 378.5,133.6 372.4,138.5 375.1,143.2 
	368.6,140.3 "/>
<path class="st4" d="M124,396.2c1.7,2.7,3.6,5.3,5.6,7.7c1.5,1.3,2.9,2.5,4.4,3.8c4.4,3.8,8.6,7.7,12.7,11.7
	c-4.7-0.1-9.4-0.3-14.1-0.4c-2.3,0-4.7,0-7,0s-5.3,0.8-6.7,0c-4.2-2.6-9.4-6-10.2-9.7c-0.3-1.6,3.6-4.2,6.5-6.2
	C119.7,399.6,124,396.2,124,396.2z"/>
<path class="st8" d="M152.7,545.4c-2.5,0-4.9,0-7.4-0.1c3.6-1.7,7.2-3.5,10.8-5.2c-0.7-0.3-1.4,0.1-2.1-0.2c2.5-1.7,5.7-4.9,6.6-4.5
	c10.6,4.4,2.1,13.1-5.4,17.5L152.7,545.4z"/>
<path class="st7" d="M338.3,259.3c-0.9-2.5-1.1-5.3-4-7c2.5-0.9,5.4-2.2,7.8-1.9c2.1,0.4,4,2.6,5,4.3c0.9,1.5-1,3.3-0.2,4.9
	c0.3,0.5-0.5,1.6-1,2.3L338.3,259.3z"/>
<path class="st2" d="M145.8,196.4c-2.7,2.1-4.3,4.4-8.6,6c-2.2,0.9-8.6,0.8-13.4,0.9c-4.5-0.1-9.1-0.5-13.6-1.1
	c-0.9-0.1-2.9-0.1-2.9-0.1c2.2-3.1,5-6.1,2.7-9.1c4.2,0.1,8.5,0.2,12.8,0.2h14.5c0,0,2.4,0.7,4.6,1.5S145.8,196.4,145.8,196.4z"/>
<path class="st4" d="M267.4,377.2c0,0,3.4-0.2,7.2-0.4l8-0.5l-0.4-3.2l9.6,1.8l14.6,14.1l-17.9-2l3.3,8.6c-4.2-1.5-8.1-3.3-12.3-4.8
	c-6.2-2.3-11.9-4.5-11.9-4.5L267.4,377.2z"/>
</svg>
