<svg width="82px" height="110px" viewBox="0 0 82 110" version="1.1" xmlns="http://www.w3.org/2000/svg" xmlns:xlink="http://www.w3.org/1999/xlink">
    <g id="Landing-Page" stroke="none" stroke-width="1" fill="none" fill-rule="evenodd" opacity="0.802827381">
        <g id="Landing" transform="translate(-43.000000, -43.000000)">
            <g id="Logo" transform="translate(45.000000, 45.000000)">
                <path d="M21.0512547,34.5742622 C21.0512547,33.1323224 20.6399135,32.0096026 19.8164608,31.2045455 C18.9937783,30.4002669 17.5479217,29.5664022 15.4796611,28.7060655 C13.4106302,27.8457289 11.7198175,27.0118642 10.4064528,26.2068071 C6.13358813,23.6063325 3.99677066,20.0310693 3.99677066,15.4825745 C3.99677066,13.2192273 4.52904927,11.2205991 5.59360649,9.48824707 C6.65739342,7.75823076 8.16410393,6.40972119 10.1121974,5.4466113 C12.0595206,4.48272282 14.2487186,4 16.6797914,4 C19.0500104,4 21.1752733,4.52398784 23.0555802,5.57196352 C24.9343466,6.62227495 26.3956093,8.11326561 27.4378277,10.0503856 C28.4800462,11.9875056 28.9784315,13.3585941 28.9784315,15.8469524 L22.0333896,15.2707993 C22.0333896,13.6054056 21.2992919,12.8680854 20.0475513,12.0895002 C19.0061032,11.4417173 17.9030308,11.4393816 16.4987705,11.4393816 C15.0791041,11.4393816 13.9583148,11.8278956 13.1356324,12.6049236 C12.3121797,13.3811731 11.9008384,14.3699763 11.9008384,15.5674403 C11.9008384,16.6161946 12.353776,17.5652899 13.2604213,18.4162836 C14.1662963,19.2680558 15.7592807,20.1486356 18.038604,21.056466 C20.3186976,21.9635177 22.1905312,22.9414207 23.6556454,23.9886178 C27.219062,26.53537 29,30.0436749 29,34.5174255 C29,38.0934673 27.913104,40.9002669 25.7393121,42.9393816 C23.5655201,44.9800534 20.5829111,46 16.7930258,46 C14.1208485,46 11.70056,45.4051609 9.53447101,44.2178185 C7.36684147,43.0281403 5.73611235,41.4001186 4.64074305,39.3321964 C3.54614405,37.2642741 3,35.9360077 3,33.2413243 L10.1630374,33.375241 C10.1630374,35.563844 11.4294137,35.9912873 12.3422214,37.0299199 C13.2557995,38.0693312 14.7401712,38.5878689 16.7930258,38.5878689 C18.1071608,38.5878689 19.1447575,38.2375056 19.9081267,37.5360003 C20.6699553,36.8329379 21.0512547,35.8480276 21.0512547,34.5742622" id="Fill-1" fill="#C9EB96"></path>
                <path d="M58.9816728,7 L67,7 L67,35.4266657 C67,38.0632069 66.5075714,40.4172335 65.5227142,42.4840104 C64.5370778,44.5515764 63.1634202,46.1551238 61.3994038,47.2930743 C59.6346082,48.4318139 57.6680104,49 55.5003896,49 C51.8648328,49 49.0388225,47.8620495 47.0231376,45.5861486 C45.0074528,43.3094585 44,40.0842133 44,35.9112021 L52.0635184,35.9112021 C52.0635184,37.8083124 52.3268742,39.183007 52.8535858,40.0368645 C53.3810766,40.8899327 54.2630848,41.3176506 55.5003896,41.3176506 C56.6153664,41.3176506 57.4732206,40.7991808 58.077069,39.7661869 C58.6801382,38.7324039 58.9816728,37.2874751 58.9816728,35.4266657 L58.9816728,7 Z" id="Fill-3" fill="#C9EB96"></path>
                <polygon id="Fill-5" fill="#C9EB96" points="54.5405014 84.8544055 51.4740947 88.9785151 51.4740947 99 44 99 44 61 51.4740947 61 51.4740947 77.7555522 54.071922 72.9272028 60.7587744 61 70 61 59.522507 77.8083883 70 99 61.1418942 99"></polygon>
                <path d="M12,78 L16.1981026,78 C17.4587554,78 18.4081042,77.5629322 19.0442193,76.6887967 C19.6809776,75.8139696 20,74.5919779 20,73.0255878 C20,71.4591978 19.6784049,70.2295989 19.0352147,69.3388658 C18.3920244,68.4474412 17.447178,68 16.1981026,68 L12,68 L12,78 Z M15.5204102,85.2046628 L11.4738535,85.2046628 L11.4738535,99 L4,99 L4,60 L16.2012342,60 C19.879132,60 22.7545268,61.0251233 24.8266941,63.0761128 C26.8995857,65.128588 27.9360315,68.0264185 27.9360315,71.7725758 C27.9360315,74.4839527 27.4992902,76.7317956 26.6265319,78.5146188 C25.7537735,80.2989276 24.3863314,81.7445001 22.5263783,82.8498505 L29,98.5966363 L29,99 L20.9938002,99 L15.5204102,85.2046628 Z" id="Fill-7" fill="#C9EB96"></path>
                <path d="M33,17.7544596 C33,17.7544596 31.1732933,7.07708086 28.0097092,3.60370652 C24.7864504,0.0653856445 19.2151608,-0.191870104 15.4283083,0.078881028 C11.7326254,0.34372793 7.83305421,0.61869637 2.57671401,7.09732394 C1.24480946,8.73869996 0.0231371987,11.4613936 0.0397134844,13.9420138 C0.0579473987,16.4234774 0.0256236416,19.5291026 1.39150958,22.1733543 C2.018922,23.3879388 4.93883473,26.5930924 8.77375843,28.7591015 C11.5229354,30.3110706 15.0379368,30.7471401 17.1456115,32.2240412 C19.4248508,33.8215572 19.7298545,35.5422186 19.4828678,36.2971166 C18.8595995,38.2033396 17.1265488,39.5166091 14.80504,38.3762492 C12.2846157,37.1388912 11.3836946,32.7250573 11.3836946,32.7250573 L0.0397134844,31.7913455 C0.0397134844,31.7913455 -0.856234758,42.2603892 5.86296266,47.300915 C8.27564104,49.1118268 12.4346311,50.1307282 16.8812198,49.9864963 C21.0153454,49.8532294 25.3807103,48.7297387 26.7615149,48.0583434 C30.5790335,46.2035716 32.8591016,35.7842921 30.7124726,28.9320111 C29.9764855,26.5821274 26.4175569,23.1424915 22.3944924,20.7006706 C19.0866946,18.6932323 15.2542573,17.5478116 14.2455903,16.6351863 C13.7308967,16.1687521 13.4051727,14.8731952 14.2845446,13.6830711 C14.9683164,12.7552635 17.380166,11.9092716 18.428616,12.2711166 C20.8562131,13.1112042 20.8114571,16.5938566 20.8114571,16.5938566 L33,17.7544596 Z" id="Stroke-9" stroke="#1F2B43" stroke-width="3"></path>
                <path d="M39.0000036,32.7704649 L51.8209525,32.8584623 C51.8209525,32.8584623 51.9605454,37.9426594 53.4885898,37.5975047 C57.5924567,36.6696878 55.1803236,32.2911783 55.3647857,25.4589948 C55.6381552,15.3717633 54.8961522,1 54.8961522,1 L69.2285272,1.75609384 C69.2285272,1.75609384 73.7769312,45.3566507 60.7856457,49.8103424 C57.9181736,50.7928372 47.7893748,52.3434703 44.1067795,48.7432676 C38.9634436,43.7137485 39.0000036,32.7704649 39.0000036,32.7704649 Z" id="Stroke-11" stroke="#1F2B43" stroke-width="3"></path>
                <path d="M13.1691051,69.1375194 C13.1691051,69.1375194 16.1432619,68.634584 17.8107772,69.5523199 C19.4782924,70.4692472 18.9047299,72.4745203 18.9047299,73.3833618 C18.9047299,74.0593329 18.9692339,76.2813049 17.8107772,77.0276223 C15.8538656,78.2873866 13,77.9623383 13,77.9623383 L13.1691051,69.1375194 Z" id="Stroke-13" stroke="#1F2B43" stroke-width="3"></path>
                <path d="M0,55.9213829 L0.937044042,106 L12.9678465,105.449088 L12.9678465,90.5140906 L15.0016212,90.2530873 L20.4925696,104.357465 L33,104.357465 L25.373953,84.3137756 C25.373953,84.3137756 29.6587409,81.5473111 31.5766009,75.929365 C33.1880573,71.2100521 32.6806269,63.7327766 30.9662253,61.5197751 C29.3596325,59.4445017 23.7673602,56.0378567 18.54796,55.3186099 C9.84950014,54.1215657 0.0145906512,56.6831383 0.0145906512,56.6831383" id="Stroke-15" stroke="#1F2B43" stroke-width="3"></path>
                <path d="M40,56.6919955 L41.1002556,103.409092 L55.3394377,103.520863 L53.8929881,91.5892817 L54.8,90.2669292 L60.0825425,103.520863 L77,104 L64.3495277,78.4717747 L77,56 L59.9443938,56.6919955 L53.8929881,69.5259652 C53.1455051,69.1396969 54.8,56 54.8,56 L40,56.6919955 Z" id="Stroke-17" stroke="#1F2B43" stroke-width="3"></path>
            </g>
        </g>
    </g>
</svg>