<svg xmlns="http://www.w3.org/2000/svg" width="81.1265" height="109.0689" viewBox="0 0 81.1265 109.0689"><defs><style>.cls-1{fill:none;stroke:#bdbdbb;stroke-width:3px;}</style></defs><title>Landing</title><g id="Layer_2" data-name="Layer 2"><g id="Grey_logo" data-name="Grey logo"><g id="Landing"><g id="Logo"><path id="Stroke-9" class="cls-1" d="M34.5,19.2545S32.6733,8.5771,29.51,5.1037c-3.2233-3.5383-8.7946-3.7955-12.5814-3.5248-3.6957.2648-7.5953.54-12.8516,7.0184A11.6947,11.6947,0,0,0,1.54,15.442c.0182,2.4815-.0141,5.5871,1.3518,8.2314.6274,1.2146,3.5473,4.42,7.3822,6.5857,2.7492,1.552,6.2642,1.9881,8.3719,3.465,2.2792,1.5975,2.5842,3.3181,2.3372,4.073-.6232,1.9063-2.3563,3.2195-4.6778,2.0792-2.52-1.2374-3.4213-5.6512-3.4213-5.6512L1.54,33.2914S.6437,43.76,7.3629,48.8009c2.4127,1.811,6.5717,2.83,11.0183,2.6856a31.0166,31.0166,0,0,0,9.88-1.9281c3.8175-1.8548,6.0976-12.2741,3.9509-19.1264-.7359-2.35-4.2949-5.7895-8.3179-8.2313-3.3078-2.0074-7.14-3.153-8.1489-4.0655a2.3006,2.3006,0,0,1,.0389-2.9521,5.0243,5.0243,0,0,1,4.1441-1.412c2.4276.84,2.3828,4.3228,2.3828,4.3228Z"/><path id="Stroke-11" class="cls-1" d="M40.5,34.2705l12.8209.088s.14,5.0842,1.6677,4.739c4.1038-.9278,1.6917-5.3063,1.8762-12.1385C57.1381,16.8717,56.3961,2.5,56.3961,2.5l14.3324.7561S75.2769,46.8567,62.2856,51.31c-2.8675.9825-12.9963,2.5331-16.6788-1.0671C40.4634,45.2137,40.5,34.2705,40.5,34.2705Z"/><path id="Stroke-13" class="cls-1" d="M14.6691,70.6375s2.9741-.5029,4.6417.4148,1.0939,2.9222,1.0939,3.8311c0,.676.0645,2.8979-1.0939,3.6443a8.46,8.46,0,0,1-4.8108.9347Z"/><path id="Stroke-15" class="cls-1" d="M1.5,57.4214,2.437,107.5l12.0308-.5509V92.0141l2.0338-.261,5.4909,14.1044H34.5L26.8739,85.8137a17.2833,17.2833,0,0,0,6.2027-8.3843c1.6114-4.7193,1.104-12.1967-.61-14.41-1.6066-2.0752-7.1989-5.4818-12.4183-6.2011C11.35,55.6216,1.5146,58.1832,1.5146,58.1832"/><path id="Stroke-17" class="cls-1" d="M41.5,58.192l1.1,46.7171,14.2392.1118L55.393,93.0893,56.3,91.767l5.2825,13.2539L78.5,105.5,65.85,79.9717,78.5,57.5l-17.0556.692L55.393,71.026C54.6455,70.64,56.3,57.5,56.3,57.5Z"/></g></g></g></g></svg>