<?xml version="1.0" encoding="utf-8"?>
<!-- Generator: Adobe Illustrator 23.0.1, SVG Export Plug-In . SVG Version: 6.00 Build 0)  -->
<svg version="1.1" id="Layer_1" xmlns="http://www.w3.org/2000/svg" xmlns:xlink="http://www.w3.org/1999/xlink" x="0px" y="0px"
	 viewBox="0 0 376.9 197.6" style="enable-background:new 0 0 376.9 197.6;" xml:space="preserve" fill="none">
<style type="text/css">
	.st0{fill:#FFFFFF;}
</style>
<title>Oak New logo - EPS Color</title>
<path class="st0" d="M4.3,174.8c0-7.2,0-8.5-0.1-10c-0.1-1.6-0.5-2.3-2.1-2.6C1.5,162.1,1,162,0.4,162c-0.2,0-0.4-0.1-0.4-0.3
	c0-0.3,0.2-0.4,0.8-0.4c2.2,0,5.3,0.1,5.6,0.1c1,0,11,0,12.1,0c0.7,0,1.5-0.1,2.2-0.2c0.3-0.1,0.5-0.3,0.7-0.3s0.3,0.2,0.3,0.4
	c0,0.3-0.2,0.9-0.4,2.2c0,0.5-0.2,2.5-0.3,3.1c0,0.2-0.1,0.5-0.4,0.5s-0.3-0.2-0.3-0.6c0-0.6-0.2-1.2-0.4-1.8
	c-0.3-0.6-1.4-1.4-3.4-1.5l-7.6-0.2c-0.3,0-0.4,0.1-0.4,0.5l0,12.8c0,0.3,0,0.4,0.3,0.4l6.3,0c0.8,0,1.5,0,2.2,0
	c1.2-0.1,1.8-0.2,2.3-0.8c0.2-0.2,0.3-0.5,0.5-0.5s0.2,0.1,0.2,0.4c0,0.3-0.2,1.1-0.4,2.6c-0.1,0.9-0.2,2.3-0.2,2.6
	c0,0.4-0.1,0.6-0.3,0.6s-0.4-0.1-0.4-0.5c0-0.4-0.2-0.7-0.4-1.1c-0.6-0.8-1.5-1.4-2.5-1.4c-1.2-0.1-6.6-0.1-7.5-0.2
	c-0.2,0-0.3,0.1-0.3,0.4l0,3.9c0,4.4,0,8.1,0.2,10c0.1,1.3,0.4,2.4,1.9,2.5c0.7,0.1,1.8,0.2,2.2,0.2c0.3,0,0.4,0.1,0.4,0.3
	c0,0.2-0.2,0.4-0.8,0.4c-2.7,0-5.8-0.1-6.1-0.2s-3.4,0.1-4.8,0.1c-0.5,0-0.8-0.1-0.8-0.4c0-0.1,0.1-0.3,0.4-0.3c0.5,0,1-0.1,1.5-0.2
	c1-0.2,1.2-1.2,1.4-2.5c0.3-1.9,0.3-5.6,0.3-10L4.3,174.8z"/>
<path class="st0" d="M47.2,160.8c11.1,0,19.4,6.6,19.4,17.4c0,10.4-7.8,18.9-19.7,18.9c-13.5,0-19.1-9.9-19.1-18.2
	C27.8,171.4,33.6,160.8,47.2,160.8z M48.2,195.3c4.4,0,13.6-2.4,13.7-15.8c0-11.1-7.2-17.1-15-17.1c-8.2,0-14.4,5.1-14.4,15.2
	C32.4,188.4,39.3,195.3,48.2,195.3z"/>
<path class="st0" d="M75.3,174.9c0-7.2,0-8.5-0.1-10c-0.1-1.6-0.5-2.3-2.1-2.6c-0.6-0.1-1.1-0.1-1.7-0.1c-0.2,0-0.4-0.1-0.4-0.3
	c0-0.3,0.2-0.4,0.8-0.4c2.2,0,5.2,0.1,5.7,0.1s3.4-0.1,4.9-0.1c0.5,0,0.8,0.1,0.8,0.4c0,0.2-0.2,0.3-0.4,0.3c-0.4,0-0.8,0.1-1.2,0.1
	c-1.3,0.2-1.7,1-1.8,2.6c-0.1,1.5-0.1,2.8-0.1,10l0,6.5c0,6.7,1.6,9.5,3.7,11.4c2,1.8,4.7,2.8,7.5,2.6c2.9,0,5.7-1.2,7.8-3.3
	c2.3-2.6,2.9-6.6,2.9-11.3l0-5.8c0-7.2,0-8.5-0.1-10c-0.1-1.6-0.5-2.3-2.1-2.6c-0.6-0.1-1.1-0.1-1.7-0.1c-0.2,0-0.4-0.1-0.4-0.3
	c0-0.3,0.2-0.4,0.8-0.4c2.2,0,4.9,0.1,5.2,0.1c0.3,0,2.7-0.1,4.1-0.1c0.5,0,0.8,0.1,0.8,0.4c0,0.2-0.2,0.3-0.4,0.3
	c-0.4,0-0.8,0-1.2,0.1c-1.3,0.2-1.7,1-1.8,2.6c-0.1,1.5-0.1,2.8-0.1,10l0,4.9c0,5-0.6,10.5-4.6,13.8c-2.9,2.3-6.5,3.6-10.2,3.4
	c-1.7,0-6.7-0.2-10.2-3.3c-2.4-2.2-4.3-5.4-4.3-12.2L75.3,174.9z"/>
<path class="st0" d="M119.6,190.3c0.1,3.8,0.6,5,1.9,5.4c0.8,0.2,1.6,0.3,2.5,0.3c0.2,0,0.4,0.1,0.4,0.3c0,0.3-0.3,0.4-0.9,0.4
	c-2.8,0-4.8-0.1-5.2-0.1s-2.5,0.1-4.7,0.1c-0.5,0-0.8,0-0.8-0.4c0-0.2,0.1-0.3,0.4-0.3c0.7,0,1.4-0.1,2-0.3c1.2-0.3,1.5-1.7,1.5-5.9
	l0.1-26.5c0-1.8,0.2-2.3,0.5-2.3s1.2,1,1.7,1.5c0.7,0.8,8.1,8.2,15.7,15.9c4.9,4.9,10.3,10.6,11.8,12.1L146,167c0-3-0.4-4-1.9-4.4
	c-0.8-0.1-1.6-0.2-2.4-0.2c-0.3,0-0.4-0.1-0.4-0.3c0-0.3,0.4-0.3,1-0.3c2.2,0,4.6,0.1,5.1,0.1s2.2-0.1,4.2-0.1c0.5,0,0.9,0,0.9,0.3
	c0,0.2-0.2,0.3-0.5,0.3c-0.4,0-0.8,0-1.2,0.1c-1.6,0.3-1.8,1.3-1.8,4.1l-0.1,27.1c0,3.1-0.1,3.3-0.5,3.3c-0.4,0-1-0.5-3.6-3
	c-0.5-0.5-7.6-7.3-12.9-12.6c-5.7-5.8-11.3-11.6-12.9-13.3L119.6,190.3z"/>
<path class="st0" d="M163.8,175.1c0-7.2,0-8.5-0.1-10c-0.1-1.6-0.5-2.3-2.1-2.6c-0.6-0.1-1.1-0.1-1.7-0.1c-0.2,0-0.4-0.1-0.4-0.3
	c0-0.3,0.2-0.4,0.8-0.4c2.2,0,5.3,0.1,5.6,0.1c0.6,0,3.7-0.1,6.7-0.1c4.9,0,13.9-0.4,19.8,5.3c3.1,3.1,4.9,7.4,4.8,11.8
	c0,4.9-1.9,9.6-5.4,13c-2.1,2.1-6.6,5.3-15,5.3c-4.2,0-10.5-0.6-11-0.6c-0.2,0-3.4,0.1-4.8,0.1c-0.5,0-0.8-0.1-0.8-0.4
	c0-0.1,0.1-0.3,0.4-0.3c0.5,0,1-0.1,1.5-0.2c1-0.2,1.2-1.2,1.4-2.5c0.3-1.9,0.3-5.6,0.3-10L163.8,175.1z M167.9,180.1
	c0,4.9,0,9.2,0.1,10c0,1.2,0.1,3,0.5,3.5c0.6,0.9,2.6,1.9,8.4,1.9c4.3,0.1,8.5-1.4,11.8-4.3c2.6-2.4,4-6.8,4-11
	c0.1-4.4-1.6-8.6-4.7-11.7c-4.6-4.6-10.3-5.2-16.1-5.3c-1.1,0-2.2,0.1-3.2,0.3c-0.4,0.1-0.7,0.5-0.6,0.9c-0.1,1.6-0.1,6.3-0.1,9.9
	L167.9,180.1z"/>
<path class="st0" d="M215.7,163c0.6-1.5,0.8-1.8,1.1-1.8s0.5,0.2,1.1,1.7c0.7,1.8,8.5,20.9,11.5,27.9c1.8,4.1,3.2,4.9,4.2,5.1
	c0.6,0.2,1.3,0.3,2,0.3c0.3,0,0.5,0,0.5,0.3c0,0.3-0.4,0.4-1,0.4c-0.7,0-4.3,0-7.8-0.1c-0.9,0-1.5-0.1-1.5-0.3
	c0-0.2,0.1-0.3,0.3-0.3c0.3-0.1,0.6-0.5,0.3-1.2l-4.6-11.4c-0.1-0.2-0.3-0.3-0.4-0.3l-10.6,0c-0.2,0-0.4,0.2-0.5,0.4l-3,8.2
	c-0.4,1-0.6,2-0.7,3.1c0,0.9,1,1.3,1.9,1.3h0.5c0.3,0,0.5,0.1,0.5,0.3c0,0.3-0.3,0.4-0.7,0.4c-1.2,0-3.3-0.1-3.9-0.1
	s-3.3,0.1-5.6,0.1c-0.6,0-0.9-0.1-0.9-0.4c0-0.2,0.2-0.3,0.4-0.3c0.3,0,1,0,1.4-0.1c2.3-0.3,3.3-2,4.2-4.3L215.7,163z M220.8,181.5
	c0.2,0,0.2-0.1,0.2-0.3l-4.7-12.5c-0.2-0.7-0.5-0.7-0.7,0l-4.4,12.5c-0.1,0.2,0,0.3,0.1,0.3L220.8,181.5z"/>
<path class="st0" d="M252.5,183.4c0,4.4,0,8.1,0.2,10c0.1,1.3,0.4,2.4,1.9,2.5c0.7,0.1,1.8,0.2,2.2,0.2c0.3,0,0.4,0.1,0.4,0.3
	c0,0.2-0.2,0.4-0.8,0.4c-2.7,0-5.8-0.2-6.1-0.2s-3.4,0.1-4.8,0.1c-0.5,0-0.8-0.1-0.8-0.4c0-0.1,0.1-0.3,0.4-0.3c0.5,0,1-0.1,1.5-0.2
	c1-0.2,1.2-1.2,1.4-2.5c0.3-1.9,0.3-5.6,0.3-10l0-19.6l-7.3,0.1c-3.1,0-4.2,0.4-5,1.5c-0.3,0.4-0.6,0.9-0.8,1.4
	c-0.2,0.4-0.3,0.5-0.5,0.5c-0.1,0-0.2-0.1-0.2-0.4c0-0.5,1-4.4,1.1-4.8c0.1-0.3,0.3-0.9,0.5-0.9c0.7,0.3,1.4,0.5,2.2,0.6
	c1.4,0.1,3.3,0.2,3.9,0.2l18.5,0c1.2,0,2.3-0.1,3.5-0.2c0.5-0.1,0.9-0.2,1.4-0.2c0.2,0,0.2,0.3,0.2,0.6c0,1.4-0.2,4.6-0.2,5.1
	c0,0.4-0.1,0.6-0.3,0.6c-0.2,0-0.3-0.1-0.4-0.8l0-0.5c-0.2-1.4-1.3-2.5-6.1-2.6l-6.2-0.1L252.5,183.4z"/>
<path class="st0" d="M281.9,183.5c0,4.4,0,8.1,0.2,10c0.1,1.3,0.4,2.4,1.9,2.5c0.7,0.1,1.8,0.2,2.2,0.2c0.3,0,0.4,0.1,0.4,0.3
	c0,0.2-0.2,0.4-0.8,0.4c-2.7,0-5.8-0.1-6.1-0.2s-3.4,0.1-4.8,0.1c-0.5,0-0.8-0.1-0.8-0.4c0-0.1,0.1-0.3,0.4-0.3c0.5,0,1-0.1,1.5-0.2
	c1-0.2,1.2-1.2,1.4-2.5c0.3-1.9,0.3-5.6,0.3-10l0-8.1c0-7.2,0-8.5-0.1-10c-0.1-1.6-0.6-2.4-1.7-2.6c-0.5-0.1-1-0.2-1.5-0.2
	c-0.2,0-0.4-0.1-0.4-0.3c0-0.3,0.2-0.4,0.8-0.4c1.6,0,4.7,0.1,5,0.1s3.4-0.1,4.8-0.1c0.5,0,0.8,0.1,0.8,0.4c0,0.2-0.2,0.3-0.4,0.3
	c-0.4,0-0.8,0.1-1.2,0.1c-1.3,0.2-1.7,1-1.8,2.6c-0.1,1.5-0.1,2.8-0.1,10L281.9,183.5z"/>
<path class="st0" d="M311.9,161.3c11.1,0,19.4,6.6,19.4,17.4c0,10.4-7.8,18.9-19.7,18.9c-13.5,0-19.1-9.9-19.1-18.2
	C292.5,171.9,298.3,161.3,311.9,161.3z M312.9,195.8c4.4,0,13.6-2.4,13.7-15.8c0-11.1-7.2-17.1-15-17.1c-8.2,0-14.4,5.1-14.4,15.2
	C297.1,188.9,304,195.8,312.9,195.8L312.9,195.8z"/>
<path class="st0" d="M343.8,190.7c0.1,3.8,0.6,5,1.9,5.4c0.8,0.2,1.6,0.3,2.5,0.3c0.2,0,0.4,0.1,0.4,0.3c0,0.3-0.3,0.4-0.9,0.4
	c-2.8,0-4.8-0.1-5.2-0.1s-2.5,0.1-4.7,0.1c-0.5,0-0.8,0-0.8-0.4c0-0.2,0.1-0.3,0.4-0.3c0.7,0,1.4-0.1,2-0.3c1.2-0.3,1.5-1.7,1.5-5.9
	l0.1-26.5c0-1.8,0.2-2.3,0.5-2.3s1.2,1,1.7,1.5c0.7,0.8,8.1,8.2,15.7,15.9c4.9,4.9,10.3,10.6,11.8,12.1l-0.5-23.5c0-3-0.4-4-1.9-4.4
	c-0.8-0.1-1.6-0.2-2.4-0.2c-0.3,0-0.4-0.1-0.4-0.3c0-0.3,0.4-0.3,1-0.3c2.2,0,4.6,0.1,5.1,0.1s2.2-0.1,4.2-0.1c0.5,0,0.9,0,0.9,0.3
	c0,0.2-0.2,0.3-0.5,0.3c-0.4,0-0.8,0-1.2,0.1c-1.6,0.3-1.8,1.3-1.8,4.1l-0.1,27.1c0,3.1-0.1,3.3-0.5,3.3c-0.4,0-1-0.5-3.6-3
	c-0.5-0.5-7.6-7.3-12.9-12.6c-5.7-5.8-11.3-11.6-12.9-13.3L343.8,190.7z"/>
<path class="st0" d="M183,6.6c1.9-5.3,2.6-6.3,3.5-6.3s1.6,0.8,3.5,5.8c2.4,6.1,27.7,72.7,37.6,97.2c5.8,14.3,10.5,16.9,13.9,17.9
	c2.1,0.7,4.3,1,6.4,1c1,0,1.6,0.2,1.6,1c0,1-1.5,1.3-3.2,1.3c-2.4,0-14.2,0-25.3-0.3c-3.1-0.2-4.8-0.2-4.8-1.1c0-0.6,0.5-1,1.1-1.1
	c1-0.3,1.9-1.8,1-4.4l-15-39.7c-0.2-0.6-0.8-1-1.5-1h-34.7c-0.8,0-1.4,0.5-1.6,1.3l-9.7,28.5c-1.3,3.5-2.1,7.1-2.3,10.8
	c0,3.2,3.4,4.7,6.1,4.7h1.6c1.1,0,1.6,0.3,1.6,1c0,1-1,1.3-2.4,1.3c-3.9,0-10.8-0.5-12.6-0.5s-10.6,0.5-18.2,0.5
	c-2.1,0-3.1-0.3-3.1-1.3c0-0.6,0.6-1,1.5-1c1.1,0,3.4-0.2,4.7-0.3c7.4-1,10.6-7.1,13.5-15.2L183,6.6z M199.8,71.1
	c0.8,0,0.8-0.5,0.6-1.1l-15.3-43.5c-0.8-2.4-1.6-2.4-2.4,0L168.5,70c-0.3,0.8,0,1.1,0.5,1.1L199.8,71.1z"/>
<path class="st0" d="M271.7,49.3c0-25.1,0-29.7-0.3-34.8c-0.3-5.5-1.6-8.1-6.9-9.2c-1.8-0.3-3.6-0.5-5.5-0.5c-0.6,0-1.3-0.3-1.3-1
	c0-1,0.8-1.3,2.6-1.3c7.3,0,16.8,0.5,17.7,0.5c1.5,0,10.8-0.5,15.6-0.5c1.8,0,2.6,0.3,2.6,1.3c0,0.6-0.6,1-1.3,1
	c-1.4,0-2.7,0.2-4,0.5c-4.4,0.8-5.6,3.5-6,9.2c-0.3,5.2-0.3,9.7-0.3,34.8V59h0.6c2.7-3.1,31.9-32.7,37.7-39
	c4.5-4.7,8.7-8.9,8.7-11.6c0-1.9-0.8-2.9-2.1-3.4c-0.8-0.3-1.5-0.6-1.5-1.3c0-0.8,0.8-1.1,1.9-1.1c3.2,0,8.2,0.5,12.1,0.5
	c0.8,0,11.4-0.5,15.5-0.5c1.8,0,2.4,0.3,2.4,1.1s-0.3,1.1-1.6,1.1c-3.1,0.2-6.2,0.9-9,2.3C342.8,10,339.2,14,332,21
	c-4,3.9-32.1,31.3-35.5,35.3c4.2,4.7,37.7,39.3,44.3,45.5c13.5,12.6,16.3,15.2,24,18.4c3.2,1.3,6.6,2,10,2.1c1.1,0,2.1,0.3,2.1,1
	c0,0.8-0.8,1.3-3.5,1.3h-8.2c-4.5,0-7.6,0-11.1-0.3c-8.5-0.8-12.6-4.4-19.5-9.8c-7.3-6-41.4-42.9-49.2-52.4h-0.8v15.8
	c0,15.5,0,28.2,0.8,35c0.5,4.7,1.5,8.2,6.3,8.9c2.1,0.3,4.2,0.6,6.3,0.6c1,0,1.3,0.5,1.3,1c0,0.8-0.8,1.3-2.6,1.3
	c-7.9,0-17.2-0.5-18.5-0.5s-10.6,0.5-15.5,0.5c-1.8,0-2.6-0.3-2.6-1.3c0-0.5,0.3-1,1.3-1c1.6-0.1,3.2-0.3,4.8-0.6
	c3.2-0.6,4-4.2,4.7-8.9c0.8-6.8,0.8-19.5,0.8-35L271.7,49.3z"/>
<path class="st0" d="M38.8,28.7C38.7,28.5,38.7,29,38.8,28.7z M38.4,68.8c0,0-0.2-0.1-0.2,0.1c0,0.5,0.9,0.3,1,0.3
	C39,69,38.6,68.7,38.4,68.8z M38.1,31.8c0,0.3,0.2,0.3,0.5,0.3c0.2-0.2,0.5-0.5,0.6-0.8C38.8,31.3,38.5,31.1,38.1,31.8z M40.1,31.6
	c-0.4,0-0.3,0.6-0.2,0.8C39.9,32.3,40.6,31.7,40.1,31.6z M35.5,65.8c-0.1,0-0.1,0.1-0.2,0.1C35.5,65.9,35.5,65.8,35.5,65.8z
	 M40.8,69c0.1,0,0.1,0,0.1-0.1C40.9,69,40.8,69,40.8,69L40.8,69z M35.5,65.4c-0.2,0,0,0.2,0,0.4c1.3-0.7,2.4,0.9,3.2,1.6l-0.2,0.3
	c0.3,0,0.6,0,0.9,0.1l0,0c0.2-0.1,0.4-0.1,0.7-0.1C39,66.4,37.4,64.4,35.5,65.4z M82.3,12.6c0,0-0.2,0-0.3,0c0.4,0.5,1,0.2,1.6,0.2
	c-0.3,0-0.5,0.3-0.8,0.3c1.1,0.5,3,1,3.9-0.5c-0.7,0.3-1.1-0.3-1.6-0.5c-0.2,0-0.2,0.3-0.2,0.5c0-0.3-0.5-0.5-0.5-0.8
	c-0.2,0-0.2,0.3-0.2,0.5c-0.4,0.2-0.8-0.1-1.2-0.2c-0.4,0.2-0.9-0.3-1.1,0.2C82.1,12.4,82.3,12.4,82.3,12.6z M84.6,15l0.2-0.2
	l-1.4-0.1c0.2,0.2,0.5,0.2,0.5,0.5c0.2,0.5-0.7,0-0.4,0.4c0.2,0,0.7-0.2,0.9-0.2c0,0.2,0,0.2,0,0.5c0.2-0.5,0.7-0.4,1.1-0.5
	C85.3,15.3,84.8,15.5,84.6,15L84.6,15z M82.8,12.1c0.1,0,0.1,0,0.2,0c0,0,0,0,0.1,0H82.8z M80.6,15.1C80.6,15.1,80.6,15.1,80.6,15.1
	L80.6,15.1C80.6,15.1,80.6,15.1,80.6,15.1L80.6,15.1z M42.3,17.8c-0.3,0-0.3,0.2-0.3,0.5C42.2,18.2,42.2,18,42.3,17.8L42.3,17.8z
	 M78.5,14c0,0.1,0.5,0.3,0.6,0.3c-0.1-0.2-0.2-0.3-0.3-0.4c0.2,0.1,0.6-0.1,0.3,0.3c0.4,0.2,0.8,0.3,1.2,0.3c0-0.2,0-0.2,0-0.5
	c0.2,0,0.5,0,0.5-0.2c0,0.2,0,0.5,0.2,0.5c0.1,0,0.2,0,0.4,0c0.1,0.1,0.7-0.1,0.3,0.3c-0.6-0.1-1.3,0-1.8,0.4c0.7,0,1.2,0,1.8,0.1
	c-0.4,0-0.6,0.3-1,0.3c0.1,0.1,0.1,0.2,0.3,0.2c-0.2,0-0.3-0.1-0.4-0.2c0,0-0.1,0-0.1,0c0,0,0.1,0,0.1,0c-0.1-0.2-0.3-0.3-0.5,0
	c0,0,0,0.2,0,0.5c0.2,0.5,0.7,0.3,1.2,0.3c0,0.2-0.2,0.2-0.5,0.2l0.5,0c0,0,0,0.2,0,0.5c0-0.2,0.2-0.2,0.5-0.2c0-0.2,0-0.5,0-0.5
	c0.5-0.4,0.8-1,0.9-1.6c0.3,0,0.5,0.1,0.8,0.1c-0.1,0-0.2,0-0.2,0.1c0.1,0.1,0.2,0.2,0.3,0.3c0,0,0.7,0,0.7,0
	c0.1-0.4-0.3-0.5-0.6-0.4c0.1,0,0.3-0.1,0.4-0.2c-0.9,0-1.4-0.7-2.1-1c0.5-0.2-0.2-0.2,0-0.5c-0.2,0.2-0.7-0.3-0.9,0
	c-0.2,0.5,0.5,0.7,0.5,1.2c-0.2-0.2-0.7-0.5-0.7-0.9c-0.2,0-0.6-0.2-0.7,0.1c-0.1-0.1-0.2-0.2-0.3-0.2c0.1,0,0.2-0.1,0.3-0.2
	c-0.5-0.2-0.7,0.2-1.2,0c-0.2,0-0.5,0.2-0.4,0.3c0.1,0.2,0.4,0.4,0.6,0.3c0,0.2-0.5,0.2-0.2,0.5c-0.1,0.1-0.1,0.1-0.1,0.2
	c-0.1-0.1-0.2-0.2-0.3-0.3C78.2,13.8,78.5,13.7,78.5,14L78.5,14z M29.5,21.5c-0.3-0.1-0.6,0.1-0.7,0.3c0.3,0,0.6,0.4,0.7,0.7
	c0.2-0.2,0.3-0.4,0.4-0.6C30,21.6,29.7,21.3,29.5,21.5z M31.6,18c0.2,0.1,0.5-0.1,0.6-0.2C32,17.7,31.7,17.8,31.6,18L31.6,18z
	 M40.8,69c-0.2-0.2-0.4-0.3-0.7-0.3C40.3,69.3,40.5,69.1,40.8,69L40.8,69z M62.7,8.3c-0.3-0.1-0.6-0.4-0.9-0.2
	c0.2,0,0.3,0.1,0.5,0.1C62.4,8.3,62.6,8.3,62.7,8.3z M72.5,10.1c0.2,0,0.2,0.2,0.4,0.2C73,10.1,72.7,10.1,72.5,10.1L72.5,10.1z
	 M73.3,17.8c0.3-0.1,0.5,0.3,0.5-0.1l-0.5,0l0.2-0.2l-0.7,0C72.8,17.6,72.8,17.8,73.3,17.8z M72.8,15.9c0,0.2,0,0.4,0.2,0.6l0.1,0.3
	C73.1,16.5,73.1,16,72.8,15.9z M55.6,9.8L55.6,9.8c0.3-0.1,0.5,0.2,0.8,0.1c-0.1-0.1-0.6-0.2-0.7-0.4C55.7,9.1,55.1,9.9,55.6,9.8
	L55.6,9.8z M59.6,8.6c-0.2-0.2-0.4-0.3-0.7-0.3c0,0-0.2,0.3-0.2,0.3C58.9,8.6,59.4,8.6,59.6,8.6L59.6,8.6z M61.9,8.3
	c0,0.2,0.4,0.1,0.5,0.1C62.4,8.3,61.9,8.1,61.9,8.3L61.9,8.3z M66.9,28.2c-0.1,0-0.2,0-0.3,0C66.7,28.2,66.8,28.2,66.9,28.2z
	 M69.5,28.6c0.4-0.6,1.4-0.4,2.1-0.8c0.7-0.7,0-0.9-0.5-1.4c-0.1-0.1-0.1-0.2,0-0.2c-0.1,0-0.2,0.1-0.2,0.2c-0.5,0,0.2-0.7-0.7-0.5
	l0.2,0.2c-0.2,0.2-0.7,0-0.7,0.5l-0.5-0.5c0,0.2,0.2,0.5,0.2,0.7c0-0.2-0.5-0.5-0.5-0.7c-0.2,0-0.2,0.2-0.2,0.5
	c-0.2,0-0.2,0-0.2-0.2L67.6,27l-0.5-0.5c0.2,0,0.2,0,0.2-0.2c-0.2-0.2-0.2-0.5-0.5-0.5s-0.5-0.2-0.5,0.2c0.2,0,0.5,0,0.5,0.2
	c-0.7-0.5-0.7,0-1.2,0.5c0.5,0.2,0.7-0.2,1.2,0c0.3,0,0,0.3,0,0.5l-0.9,0c0.2,0.5,1,0.2,1.2,0.5c0,0.2,0,0.4-0.2,0.4
	C67.8,28.1,68.5,28.9,69.5,28.6L69.5,28.6z M73.7,38.1c-0.5,0,0.5-0.8-0.3-0.8l0.3,0c-0.5-0.3-0.7-0.9-1-1.4c-0.2-0.5-0.5-0.9-1-0.9
	c0.1,0,0.2-0.1,0.2-0.2c-0.3-0.5,0.7-0.7,0.5-1.2l-1.5,0c0.5-0.2,0.5-0.7,0.7-1c-0.3,0.3-0.8,0.4-1.2,0.1c0,0-0.1-0.1-0.1-0.1
	c0.3,0.5-0.2,0.7-0.5,1.2c0.3,0,0.3,0,0.2,0.2c-0.4,0.5,0.3,0.9,0,1.3c0.1-0.2,0.3-0.3,0.5-0.3c0.3,0.5-0.2,0.8-0.2,1.3
	c0.5,0,0.7-0.5,1.3-0.2l-0.3,0.3c0.2,0.4,0.3,0.8,0.3,1.3l-0.8,0c-0.3,0-0.2,0.3-0.2,0.5l0.5,0c-0.3,0.3-0.2,0.5-0.8,0.5
	c0,0.3,0,0.3,0,0.5c0.5-0.3,1,0.3,1.5,0c-0.5,0.5-1.3,0.2-1.8,1c0,0.5,0.3,0,0.5,0.3l0.3-0.3l0.3,0.3c0.5-1,1.8-0.2,2.8-0.5
	c0.3,0,0.5,0,0.5-0.5l-0.5,0c0.2-0.5,0.7-0.5,0.5-1.3L73.7,38.1z M44.1,69.1L44.1,69.1c-0.3,0-0.3,0-0.3,0.3l0.7,0
	C44.5,69.1,44.2,69.1,44.1,69.1z M42.4,68.2c-0.5-0.8-1.1,0.3-1.6-0.6l-0.2,0.3c0,0.3,0.2,0.3,0.5,0.6c0,0.2,0,0.3-0.1,0.5
	c0,0,0.1,0,0.1,0.1c0.2,0.3,0.5,0.6,0.7,0.6c0.2-0.3-0.2-0.6,0.2-0.5c0.4,0,0.8,0,1.2,0C42.8,68.8,42.8,68.2,42.4,68.2z M70.1,35.3
	c-0.1,0.1-0.1,0.1-0.2,0.2C70,35.5,70,35.4,70.1,35.3z M70.2,35.8c-0.9,0-1.6-0.5-2.1,0.5h0.5c-0.5,0-0.5,0.3-0.7,0.5
	c0-0.5-0.2,0-0.5-0.3v0.5c0.5,0.3,0.5,0.8,0.2,1.3c0,0.3-0.5-0.3-0.5,0.3h0.5c-0.2,0-0.3,0-0.5,0.1c0.3,0.2,0.6,0.4,0.9,0.4
	c0.5,0,0.7-0.8,1.4-0.8l0.2,0.3c0-0.5,0-1,0.2-1.5l-0.2-0.3c0-0.3,0.2-0.3,0.5-0.3c0-0.3,0-0.3-0.2-0.3
	C69.9,36.1,69.9,35.8,70.2,35.8L70.2,35.8z M29.9,19.8c0.2,0.2,0.5,0.1,0.6,0C30.4,19.2,30.1,19.5,29.9,19.8z M79.1,48.6
	c0.2,0.1,0.4,0.1,0.4,0.4c0-0.6,0-1.1,0-1.6C79.5,47.8,79,48.1,79.1,48.6z M83.2,53.4c0-0.1,0-0.2,0.1-0.3c-0.2-0.3-0.2-0.7,0.1-1
	l0-0.2c-0.3,0.1-0.9,0.4-1.2,0.2c-0.2-0.2-0.9,0-0.5,0.5C82.2,52.4,82.7,53.4,83.2,53.4z M79.1,51.2c0.3,0,0.6-0.1,0.8-0.3
	c-0.3-0.6,0.2-1.4-0.3-1.9c-0.2,0.2-0.4,0.3-0.6,0.3C79.3,49.8,78.8,50.6,79.1,51.2L79.1,51.2z M89.5,55.4c-0.5-0.3-1-0.3-1.5-0.7
	C88.3,55.6,89.1,55.4,89.5,55.4L89.5,55.4z M103.8,63.7c0.1-0.2,0.1-0.4,0.1-0.5C103.8,63.3,103.8,63.5,103.8,63.7L103.8,63.7z
	 M90.1,24.3l0.2,0.2C90.3,24.3,90.2,24.3,90.1,24.3z M84.1,23h0.2C84.3,22.9,84.2,22.9,84.1,23L84.1,23z M93.9,55.1
	c-0.4-0.2-0.6,0.4-1,0.4c0,0.3,0,0.3,0,0.5C93.3,56,93.5,55.5,93.9,55.1z M87.4,14.3c0.1,0.1,0.3,0.1,0.4,0c-0.1,0-0.8-0.3-0.9,0
	C87,14.3,87.4,14.2,87.4,14.3L87.4,14.3z M43.8,9c-0.1,0-0.1,0-0.2,0.1C43.7,9.1,43.8,9.1,43.8,9z M94.2,47.2v-0.5
	c-0.2,0-0.5,0-0.5,0.3S94,47.2,94.2,47.2z M90.8,50.2c0.1,0,0.1,0,0.2,0C91,50.2,90.9,50.2,90.8,50.2L90.8,50.2z M82.1,45.9
	c0-0.1,0-0.1,0-0.2C82,45.8,82,45.9,82.1,45.9L82.1,45.9z M89.6,52.5L89.6,52.5c0,0-0.1,0-0.1,0C89.6,52.5,89.6,52.5,89.6,52.5
	L89.6,52.5z M89.4,52.5c0,0,0.1,0,0.1,0c-0.1-0.1-0.1-0.3-0.1-0.5V52.5z M93.1,47.5c0-0.1-0.1-0.2-0.1-0.2
	C92.7,47.3,92,47.5,93.1,47.5L93.1,47.5z M43.9,113.3c0-0.1,0-0.1-0.1-0.2C43.8,113.2,43.8,113.2,43.9,113.3z M79.4,34.7
	c0.1-0.4,0.1-0.4-0.1-0.4c-0.1,0.1-0.2,0.1-0.3,0.2C79.2,34.5,79.3,34.7,79.4,34.7z M78.8,34.5c0.1,0,0.1,0,0.2,0
	C79,34.4,78.9,34.4,78.8,34.5z M78.8,34.5C78.8,34.5,78.8,34.5,78.8,34.5c-0.1,0-0.2,0-0.2,0c-0.2,0-0.2,0.2-0.2,0.5L78.8,34.5z
	 M102.7,26.1c0.2,0.5,0.6-0.1,0.1-0.3l-0.4-0.4C101.9,25.8,102.6,25.9,102.7,26.1z M88.6,13c0.3,0,0.7,0,0.9-0.1
	C89.3,12.8,88.8,12.8,88.6,13L88.6,13z M97.8,26.5c0.5,0.3,0.4-0.2,0.8-0.3c-0.1-0.3-0.4-0.5-0.8-0.4c-0.1,0-0.2,0.1-0.3,0.2
	C97.8,26.1,97.8,26.3,97.8,26.5L97.8,26.5z M36.7,31.1c0.2,0,0.5-0.3,0.7-0.5v0.8c0.7-0.3,0.9-0.8,1.4-1.3c0,0.8,0.7,0.5,0.9,0.8
	c0.2,0,0.2-0.3,0.2-0.5c-0.2,0-0.4,0-0.7,0l0.2-0.3c-0.2-1-1.1-1-1.8-1.3C37.4,29.5,37.4,30.5,36.7,31.1L36.7,31.1z M55,103.4
	c-0.2,0.2-0.4,0.3-0.5,0.5c0,0.1-0.1,0.2-0.1,0.2C54.6,103.9,54.8,103.7,55,103.4L55,103.4z M35.1,22.5c0-0.1,0-0.2,0-0.2
	c0.7-0.2,1.2-0.6,1.5-1.3c-0.7-0.5-1.6-0.5-2.3,0c0.2,0,0.2,0,0.2,0.3h-0.5c-0.2,0.8,0.2,1.3,0.2,2C34.4,22.7,34.9,22.7,35.1,22.5z
	 M34.9,22.3c-0.1,0.1-0.2,0-0.3,0C34.7,22.2,34.8,22.3,34.9,22.3L34.9,22.3z M40,14.3c0-0.1-0.1-0.1-0.1-0.2
	C39.9,14.2,39.9,14.3,40,14.3L40,14.3z M38.5,12.9h-0.7c0,0.3,0.2,0.3,0.5,0.3C38.5,13.1,38.5,13.1,38.5,12.9L38.5,12.9z M33.9,68.7
	c0,0.1,0,0.1,0,0.2C34,68.8,34,68.8,33.9,68.7z M40.8,14.7c0,0-0.1,0-0.2,0C40.7,14.6,40.7,14.7,40.8,14.7L40.8,14.7z M45.9,46
	c0,0-0.1,0.1-0.1,0.2C45.9,46.2,45.9,46.1,45.9,46L45.9,46z M33.2,20.8c-0.1,0-0.3,0-0.4,0.1c-0.1,0-0.3,0.1-0.4,0.1
	C32.6,21.2,33.2,21.2,33.2,20.8z M72.3,13.8c0,0,0.2,0,0.2-0.1c0.2,0.1,0.2,0.1,0.2-0.1C72.5,13.5,72.3,13.5,72.3,13.8z M71,20.6
	c0.2,0.2,0.2,0,0.3-0.3c0-0.2-0.1-0.3-0.2-0.4c0.1,0,0.2,0,0.2-0.1c-0.3-0.4-0.7-0.2-1.2-0.2c0.2,0,0.4,0.1,0.6,0.2
	c-0.2,0-0.5,0-0.6,0C70.3,20.3,70.7,20.3,71,20.6L71,20.6z M71.3,18.4c0.1,0.3,0.8,0.1,1,0.1c-0.1-0.1-0.3-0.2-0.5-0.2
	C71.6,18.2,71.4,18.3,71.3,18.4L71.3,18.4z M68.1,21.9l0,0.1c0.1,0.1,2,0.2,1.2-0.5C68.9,21.7,68.5,21.8,68.1,21.9z M16.5,42.8
	c-0.1-0.2-0.1-0.4-0.1-0.6h-0.2c0,0,0,0,0,0c0,0,0.2-0.7,0.2-0.6c-0.1-0.1-0.4,0.3-0.4,0.3c0.1-0.1,0.2-0.1,0.1-0.3
	c-0.6-0.3-0.4,0.6-0.1,0.7H16c0.2,0.2,0.2,1,0.7,0.7C16.7,42.9,16.4,42.9,16.5,42.8z M62.4,26h0.5l-0.2,0.3c1.4,0.3,1.8-1.5,3.2-1.8
	V24c0.4,0,0.7,0.2,0.9,0.5c0.2,0,0.2-0.3,0.2-0.5c0.3,0.2,0.6,0.3,0.9,0.3c0.7-0.3,1.1-1,2-1c0.4-0.3,0.9-0.5,1.4-0.6
	c-0.9-0.5-2.1-1-3,0c0-0.3-0.2-0.3-0.5-0.3c0.5,0,0.5-0.3,0.9-0.3h-0.9v-0.5c0.4,0,1.2,0,1.3-0.5c0.5,0.4,1.1,0.7,1.6,1l0.2-0.3
	c0,0.3,0.2,0.3,0.5,0.3c0.2-1.5-1.4-2-2.5-2.3c0.2,0,0.5,0,0.5-0.3c-0.2-0.2-0.4-0.3-0.7-0.3l1.4-0.8v0.5c-0.2,0-0.4,0-0.6,0
	c0.2,0.7,0.7,0,1,0.2c0,0-0.1-0.1-0.1-0.1c0.6,0.2,1.3,0.1,1.8-0.3c-0.2-0.2-0.4-0.3-0.7-0.3v0.3l-0.5-0.5c0.7-0.8,1.1,0,1.8,0
	l-0.5-0.5c-0.2,0-0.2,0-0.2,0.3c-0.5,0-0.2-0.8-0.7-0.8h1.1c0-0.3,0-0.5-0.2-0.5l0.2-0.3c-0.7-0.5-1.4,0-1.8-0.8
	c0.9,0,1.5-0.4,2.4-0.1c-0.1-0.1-0.1-0.3-0.1-0.4c-0.5,0.3-0.9-0.3-1.4-0.5h0.9c0-0.1-0.1-0.2-0.2-0.2h0h-0.1
	c-0.1,0-0.2-0.1-0.2-0.1c0-1.3-0.2-1.3-0.2,0c-0.2,0-0.4,0.1-0.5,0.1l-0.2,0.3c0.1-0.8,0.6-1.5,1.4-1.8h-0.5c0.2,0,0.2-0.3,0.2-0.5
	h0.9v-0.5c-0.2,0-0.4,0-0.6,0c0-0.2-0.2-0.2-0.5-0.2c0,0.2,0.1,0.2,0.2,0.2c-0.2,0.1-0.4,0.2-0.5,0.4c0-0.3,0.1-0.5,0.2-0.8
	c0.7-0.3,1.4,0.3,1.8-0.3h-1.1c1.2,0.1,2.4-0.4,3.2-1.3c-0.9-0.6-2.1-0.5-3,0.3c-0.3,0-0.5-0.1-0.7-0.3c-0.2-0.3-0.2,0-0.2,0.3
	c-0.2,0-0.2,0-0.2-0.3c-0.2,0-0.7,0.3-0.9,0.3c-0.2,0.5-0.6,0.8-1.1,0.8c0.5-0.5,1.1-0.5,1.1-1.5c-0.9,0.1-1.9,0.4-2.8,0.8
	c0.2-0.5,0.7-0.5,1.1-0.5c-0.8-0.3-1.7-0.4-2.5-0.3c1.1-0.1,2.2-0.2,3.2-0.2c0.5-0.3,0.9,0,1.4-0.5c-0.4-0.6-1.2-0.7-1.8-0.3
	c0,0,0,0,0,0c-0.2,0-0.2-0.3-0.5-0.3c0.2-0.3,0.5,0.3,0.5-0.3h-0.5c-0.2-0.5-0.7-0.5-1.1-0.5l-0.2,0.3c-1.1-0.2-2.1-0.3-3.2-0.3V7.6
	c-0.7,0-0.7,0.5-1.4,0.3c0,0.5-0.5,0-0.5,0.3c0,0.5,0.5,0,0.7,0.3c-0.5,0.2-1,0.2-1.4,0.1c-0.2-0.1-0.4-0.3-0.6-0.2
	c0.1,0,0.1,0.1,0.2,0.1c-0.2-0.1-0.3-0.1-0.4-0.2c-0.7-0.3-1.1,0.5-1.8,0.3c0.7,0.8,1.1,0.3,2.1,0.3c0.2,0,0.5,0.3,0.7,0.5
	c-0.3,0-0.5-0.1-0.7-0.3l-0.2,0.3c-0.7-0.5-1.1-0.3-1.8-0.3c0,0.1,0.1,0.1,0.1,0.2c-0.4-0.1-0.9-0.1-1.3,0c0.2,0,0.5,0,0.5,0.4
	c0.4,0.1,0.8,0.5,1.1,0c0,0,0.1,0,0.1,0.1v0.7c-0.6,0-1.2-0.3-1.6-0.8h-1.6c0.2,0.3,0.5,0.3,0.7,0.5c-0.7,0.8-1.6-0.3-2.1,0.5
	c0-0.3-0.1-0.5-0.2-0.8c-0.9-0.5-1.6,0-2.5,0.5c-0.8-0.1-1.2,0.4-1,1.3c-0.2-0.5-0.7-0.3-1.1-0.3v0.3c-0.8,0.2-1.6,0.6-2.3,1
	c0.5,0.5,0.9,0.3,1.4,0.3l0.2-0.3c0,0.5-0.7,0.8-0.7,1.3c-1.1,0.5-2.8,0.3-3.7,1.5c0.5,0.5,0.9,0,1.4,0.3l-0.2,0.3
	c0.7,0.5,1.4-0.8,2.1,0.3c-0.7-0.3-1.6,0.3-2.3,0.3c0,0.3,0,0.5,0.2,0.5h0.9c-0.2,0-0.7,0-0.5,0.5c0.2,0.4,0.7,0.1,1.2,0.2
	c0-0.1,0-0.1,0-0.2c1.4,0,3.7-1,4.4,1H53c0,0.7,0.5,1.3,0.7,2l-0.2,0.1l-0.2,0.1c0.1,0,0.3,0,0.4-0.1c0,0.1,0,0.3,0,0.4
	c-0.1,0-0.3,0.1-0.3,0.2c0.1,0,0.3-0.1,0.3-0.2c0,0.3-0.1,0.5-0.2,0.7l0.2,0.3c0.5-0.3,0.9-0.3,1.1-0.5c0,0.3,0,0.5-0.2,0.5
	c0.4,0,0.8,0.2,1.1,0.5v0.5c-0.5-0.8-1.4-0.5-2.1-0.5c0.1,0.2,0.3,0.4,0.6,0.5c-0.2,0-0.6-0.2-0.8,0.3c0,0.3,0.2,0.3,0.2,0.4
	c0.5,0,1,0.1,1.4,0.1c0.2-0.7-0.6-0.3-0.7-0.7c0.5,0.2,1.1,0.2,1.6,0.2c0,0,0,0,0,0.1c-0.2,0-0.4-0.2-0.4,0.1c0.1,0,0.2,0,0.3,0
	c-0.6,1.1-2.4,1.4-2,2.8h0.2c-0.1,0.1,0.1,0.5-0.2,0.5c0.5,0.5,0.2,1.3,0.9,1.8v-0.5h0.5v0.8h-0.5V29l0.2-0.3c0,0.6,0.3,1.1,0.7,1.5
	l2.1,1.5c1.1,0.8,1.1-0.5,1.8-1c0.2-0.3,0.3-0.7,0.2-1l-0.2-0.3c0.8-0.3,1.3-1.2,1.1-2l-0.2-0.3H61c0.5-0.3,0.2-1,1.4-0.8L62.4,26z
	 M52.7,10.6v-0.4c0.2,0.1,0.4,0.3,0.5,0.5C53.1,10.6,52.9,10.6,52.7,10.6z M36.8,16.8c0.4,0.2,0.7-0.4,0.2-0.5
	C36.6,16.4,36.4,16.7,36.8,16.8z M48.4,17.4c-0.1,0-0.1-0.1-0.2-0.1C48.2,17.4,48.2,17.4,48.4,17.4L48.4,17.4z M52.2,42.6
	c0-0.3,0-0.5,0.3-0.5c-0.3-0.2-0.7-0.2-1,0c0-0.1,0-0.1,0-0.2c-0.3,0.3-0.5,0-0.5-0.2l0.3-0.3c-0.3,0-0.6,0.1-0.7,0.3
	c0.3-0.5,0.5-0.9,0.7-1.4c0.1-0.5-0.2,0.1-0.4-0.2c-0.4,0.6-0.7,1.2-0.9,1.9c-0.2,0.7-0.5,1.3-0.9,1.9c0.7,0,1.3-0.1,1.9-0.4
	c0,0.3,0,0.3-0.3,0.3l0.7,0c-0.3,0.3-0.5,0.6-0.8,0.6c0.5,0.2,0.8-0.6,1.3-0.9c0,0.3,0,0.5,0,0.8l0.3-0.3c0,0.3,0,0.3,0,0.5
	c0.3-0.3,0.3-0.3,0.5-0.6c0-0.3,0-0.5-0.2-0.5c0.2,0,0.3-0.3,0.3-0.5c0,0.3-0.3,0.5-0.5,0.8c-0.5-0.2,0.3-0.5,0-0.8
	c0.2,0,0.3-0.3,0.5-0.3L52.2,42.6z M73.2,15.8c0,0,0.1,0.1,0.1,0.1C73.3,15.9,73.3,15.9,73.2,15.8L73.2,15.8z M118.5,72
	c-0.1,0.4-0.1,0.7-0.1,1.1C118.4,73,118.7,72.1,118.5,72L118.5,72z M98.1,91.9c-0.7-0.3-0.5,0.5-0.9,0.8v-0.3
	c-0.5,0.3-1.1,0.5-1.4,1s0.5,1,0.2,1.5c-0.7,1-0.5,2.3-0.9,3.3c0.9,0.8,1.6-0.3,2.1-1c0.2-1.3,0.7-2.5,1.4-3.5
	c0-0.5-0.2-1.3,0.2-1.8c0,0.3,0,0.3,0.2,0.3c0-0.2,0-0.5,0-0.7c0-0.1,0.2-0.3,0.2-0.3c-0.2-0.5-0.2-1-0.5-1.3
	C98.6,90.6,97.9,91.1,98.1,91.9L98.1,91.9z M113.2,74.5c-0.1,0.6-0.2,1.2-0.2,1.9c0.1,1.2,1.1,0.2,0.7-0.9
	C113.5,75.2,113.4,74.7,113.2,74.5L113.2,74.5z M43.5,25.9c-0.1-0.1-0.4,0.1-0.1,0.3l0,0C43.8,26.5,44.1,25.7,43.5,25.9z M65.5,2.2
	C33.8,2.2,8,27.6,8,63.1s25.7,60.8,57.5,60.8S123,98.5,123,63.1S97.2,2.2,65.5,2.2z M112.8,48.3L112.8,48.3c-0.4,0.7-1-0.3-1.7-0.1
	c-0.4,0.2,0,0.8-0.4,1c-0.2-0.2-0.3-0.5-0.2-0.8C110.9,47.4,111.9,47.9,112.8,48.3L112.8,48.3z M108.8,27.5l0.2,0.3h-0.3
	C108.7,27.7,108.7,27.6,108.8,27.5z M108,30c0.7,0,0.7-1,1.1-1v-1c0.2,0.3,0.5,0.7,0.7,1c0,0.2-0.1,0.4-0.2,0.5
	c-0.7,1-1.6,1.3-2.5,0.3C107.3,29.8,107.8,29.5,108,30z M41.9,9.8C41.9,9.8,41.9,9.8,41.9,9.8C41.9,9.8,41.9,9.8,41.9,9.8L41.9,9.8z
	 M41.3,10.1c0.6-0.1,1.1,0.2,1.3,0.8C42.4,10.4,41.8,10.1,41.3,10.1L41.3,10.1z M43.1,11.6c0.2,0.5,0.7,0.3,0.9,0.3
	c-0.5,0.3-1.1-0.3-1.6,0.3h0.7c-0.4,0.2-0.9,0.2-1.4,0.3c0.7-0.4,1.1-1.3,2.1-1.1c-0.5,0-0.7,0-0.9,0.5L43.1,11.6z M42.4,13.4
	c-0.1,0.1-0.2,0.1-0.3,0.2C42.2,13.5,42.3,13.4,42.4,13.4L42.4,13.4z M41.2,10.2c0.1,0,0.2,0.1,0.3,0.2c-0.2,0-0.4,0-0.7,0
	C41,10.3,41.1,10.2,41.2,10.2z M38.3,11.9c0.1,0,0.2,0,0.3,0c-0.1,0-0.3,0.1-0.4,0.1L38.3,11.9z M21.1,30.3h0.7
	c-0.2-0.2-0.6-0.4-0.9-0.3c0.1-0.1,0.2-0.3,0.3-0.4c0.5-0.2,1-0.3,1.5-0.3c-0.1,0-0.3,0.1-0.4,0.5c0.5,0,0.9-0.3,1.1,0.3
	c-0.4,0,0.1,0.5-0.2,0.5s-0.5,0-0.5-0.3c-0.3,0-0.5,0.2-0.5,0.5h0.1c-0.3,0.1-0.5,0.5-0.8,0.5c0.2-0.3,0.5-0.5,0.7-0.5
	c-0.7-0.5-0.7,0.8-1.4,0.5c0-0.5,0.2-0.5,0.5-0.8C21.3,30.3,21.3,30.3,21.1,30.3L21.1,30.3z M24.5,33.8c-0.4,0.2-0.5-0.3-0.6-0.6
	c0.7,1.1,1.8,0.3,2.4-0.4c0.2,0.3,0.5-0.3,0.5,0.3c-0.3,0-0.5,0.5-1,0.2v0.5c-0.9,0.5-1.8,1.8-3,0.8h0.9
	C23.6,34.1,24.3,34.1,24.5,33.8L24.5,33.8z M18.8,43.4h-0.3C18.6,43.3,18.7,43.3,18.8,43.4z M119.1,70.4c-3.3,29.3-26,52-53.5,52
	c-29.8,0-53.9-26.6-53.9-59.3c0-7.7,1.4-15.4,4.1-22.6c0,0.1,0,0.2,0.1,0.3c0,0.1,0,0.1,0.1,0.1c0-0.2-0.1-0.3-0.2-0.5c0,0,0,0,0,0
	c0-0.1,0.1-0.2,0.1-0.2c0.3,0.1-0.1,0.7,0.3,0.7c0.4-0.4-0.1-0.6-0.2-1c0-0.1,0.1-0.1,0.1-0.2c0.1,0.1,0.2,0.1,0.2,0
	c0-0.1-0.1-0.2-0.1-0.2l0.1-0.3c0,0.1,0,0.1,0,0.2c0.2,0.3-0.2,0.5,0,0.8c0.2-0.3,0.2-0.5,0.5-0.5l0.2,0.3c0,0.3-0.1,0.5-0.2,0.8
	c0.2,0.3,0.5-0.3,0.7,0c-0.4,0.5-0.1,0.9,0.2,1.4c0,0.1-0.1,0.2,0,0.3c0.2,0,0.2,0,0.2,0.1c0-0.1,0-0.3,0-0.3c0,0-0.1-0.1-0.1-0.1
	c0-0.1,0-0.2,0-0.3c0.2,0.4,0.2,0.8,0.2,1.2l0.2-0.3c0,0.3,0.2,0.3,0.5,0.3c-0.3,0-0.5,0.1-0.7,0.3c0.5,0,0,0.5,0.2,0.5c0,0,0,0,0,0
	c0.1,0.7,0.9,0.3,1.3,0.8c-0.1,0.1-0.1,0.3,0,0.4c0.1,0.1,0.1,0.1,0.2,0.1c0.2,0.8,0.2-0.5,0.5,0c-0.4,0.6,0.2,1.3,0.1,1.7
	c-0.1-0.1-0.1-0.3-0.1-0.5c-0.3,0-0.5-0.1-0.7-0.3l-0.2,0.3c0,0.3,0.2,0.3,0.2,0.5c0,2.3-0.5,4.3-0.2,6.3c0.2,0.3,0,1,0.7,1
	c0,0.9,0.2,1.7,0.5,2.5c0.7-0.3,0.9,0.8,1.4,1c0.5,1.3,0.5,2.8,1.4,4c-0.2,0-0.5,0-0.5-0.3c-0.2,0.8,0.7,0.5,0.9,1
	c-0.2,1,0.5,1.8,0.9,2.5c0.2-0.3,0.3-0.7,0.2-1h-0.5c-0.2-1-0.7-2.3-0.9-3.3c-0.7-0.4-0.9-1.3-0.7-2l0.2-0.3c0.7,1,0.7,2.3,1.4,3.3
	c0.2,0,0.5,0,0.5,0.3v0.8c0.7,1.3,1.6,2.3,1.8,3.8h-0.2c-0.2,0.8,0.7,1,0.7,1.5c0.9,0.6,1.8,1.4,2.5,2.3c0.2,0.3,0.2,0,0.2-0.3
	c0,0.3,0.2,0.5,0.5,0.3c0.3-0.3,0.8-0.3,1.1,0c0.2,1.5,1.8,1.8,2.8,2.5h-0.2c0.2,0,0.3,0.1,0.5,0.3c0.3,0.5,0.4,1,0.5,1.5
	c0.5,0.2,0.9,0.6,1.1,1c0.2,0.2,0.3,0.5,0.2,0.8h0.7c0,0.5,0.2,0.5,0.5,0.8c0.2-0.2,0.3-0.5,0.2-0.8c0-0.3,0-0.8,0.5-0.5
	c0.2,0,0.2,0.3,0.5,0.5V76c0.3,1.2,0.6,2.5,0.7,3.8c-0.5,1.3-1.6,2.3-1.4,3.8c0.2,0,0.2,0.3,0.5,0.3c0,0.8-0.9,1.3-0.2,2.3
	c1.3,2,2.4,4.1,3.2,6.3l2.1,1.5c0.9,0.5,0.5,1.8,1.1,2.3c-0.1,1.3-0.1,2.5,0,3.8c-0.5,0.8,0,1.8-0.5,2.5c0.4,0.2,0.6,0.6,0.4,1
	c0,0.1-0.1,0.2-0.2,0.3l0.2,0.3c-0.2,0.8-0.5,1.8-0.7,2.5c0.7,0.8-0.2,1.8,0,2.5h0.7c-0.2,0.5-0.3,1-0.2,1.5c0.2,0,0.2,0,0.2,0.3
	c0,0.4-0.3,0.8-0.3,1.2c-0.1-0.2-0.2-0.2-0.4-0.4c-0.5,0.3-0.5,0.5-0.5,1c0-0.5,0.2,0,0.5-0.3c0.5,0.3,0.2,0.8,0.5,1
	c-0.1,0-0.3,0-0.4-0.1c0.3,1,0,2.1,0.9,2.9c0.2-0.3-0.2-0.5,0.2-0.5v0.5c0,0.3-0.2,0.3-0.5,0.3c-0.2,0.8,0.5,0.8,0.9,1.3h0.5v-0.8
	c0.5,0.3,0.7-0.3,0.9-0.5l0.2,0.3c0.2-0.5-0.5-0.8-0.5-1.3c0.2,0,0.2-0.3,0.2-0.5c0.2,0.8,0.2-0.5,0.5,0c-0.2-0.8,0.5-1,0.9-1.5
	c-0.5-0.5-1.1-0.8-0.9-1.5c0.9,0,0.9-0.8,1.1-1.5h0.5v-0.8c-0.2,0-0.2,0.3-0.2,0.5c0-0.3-0.2-0.3-0.5-0.3c-0.2-1.3,0.7-0.8,1.4-0.8
	v-1.3c0.5,0.5,1.1,0.3,1.6,0.3c0.7,0,0.5-1,1.1-1c-0.3-0.7-0.8-1.3-1.4-1.8c0.5-0.3,0.9,0.3,1.4,0.5c1.1,0.2,1.7-0.7,2.1-1.7
	c-0.1,0.1-0.2,0.1-0.2,0.1c0.1-0.1,0.2-0.3,0.3-0.4c0.1-0.2,0.1-0.4,0.2-0.6H55c0,0,0,0.1-0.1,0.1c0.4-0.3,0.6-0.7,0.8-1.1
	c-0.5-1.5,1.1-2.5,2.3-2.8l-0.2-0.3c3,0.5,3.2-3.8,3.2-6.1c0.5-0.4,1-0.8,1.4-1.3c0.9-1,1.1-2.6,0.4-3.8c-1.1-0.2-1.8-1.3-3-1.8
	c-0.8,0.2-1.7-0.8-2.5,0c0-1-1.6-2.3-2.5-1.5c0-0.5-0.2-0.5-0.5-0.8h-0.7c-0.2-0.5,0.2-0.8,0.5-1c0-0.5-0.7-0.3-0.7-0.8
	c-0.3-1.9-2-3.2-3.9-3c0-0.5-0.2-0.5-0.5-0.8l-0.2,0.3c0-0.8-0.4-1.5-1.1-1.8c0,0.5-0.2,0-0.5,0.3c-0.2-0.5,0.2-0.5,0.2-0.8
	c-0.2-0.5-0.9-0.5-1.1-1c0-0.5,0.2,0,0.5-0.3h-1.1l0.2,0.3c-0.9,0.3-1.6-0.3-2.5-0.3l0.2-0.3c-0.2-0.5-0.7-0.5-0.9-0.8
	c-1.1,0.3-0.7,1-0.7,2c-0.9-0.5-0.5-1.8-0.2-2.5h-0.5C41,73.7,41,74,41,74.2h-0.5c-0.2,0-0.2,0.3-0.5,0.5c0-0.3,0-0.3-0.2-0.3
	c-0.2,0.2-0.3,0.5-0.2,0.8l0.2,0.3c-0.4,0.2-0.7,0.4-0.7,0.8c0-0.1-0.1-0.2-0.2-0.3c-0.2-0.3-0.9-0.3-1.1-0.8
	c-0.2,0.5-0.7,0.5-1.1,0.5c-1.1-1.3-0.9-3-0.7-4.5c0-0.3-0.2-0.3-0.2-0.5c-0.7,0.1-1.3-0.1-1.8-0.5c0,0.5-0.2,0-0.5,0.3
	c0.4-0.5,0.3-1.1,0.2-1.8c0.1,0,0.1,0.1,0.2,0.1c0-0.9,0.1-1.7,0.3-2.6c-0.5,0-1.1,0.5-1.6,0.3c0,0.4,0,0.7,0.2,1
	c-0.2,0.3-0.2,0.8-0.7,1c-1.8,0.8-2.3-1.5-2.5-3c-0.2-1.3-0.1-2.7,0.2-4l1.4-1.5h0.9c0,0.3,0.2,0.5,0.7,0.8c0.2-0.3-0.2-0.5,0.2-0.5
	v0.5c0.2,0.3,0.2,0,0.2-0.3c-0.5,0,0-0.8-0.5-0.5v-0.5c0.2,0.2,0.4,0.3,0.7,0.3l0.2-0.3l0.2,0.3c0.7-0.8,0.7,0.5,1.4,0.5v-0.5
	c1.1,0.5,0.7,2,0.9,2.8l0.2-0.3c-0.2,0.5,0.2,0.8,0.5,1v0.5c1.1-1.5-0.5-3.3-0.2-5c0.4-0.3,0.7-0.7,0.7-1.3l1.8-2L39,55h0.5
	c0-0.3-0.2-0.8,0.2-1c-0.2,0-0.5,0-0.5-0.3c0.6-0.2,0.1-0.6,0.2-0.9c0,0,0,0.1,0,0.2c0.2-0.5-0.2-1,0.2-1.5v2.3c0-0.8,0.7-1.3,0.5-2
	c0.2,0.5,0.2-0.3,0.5,0c0.2-0.3-0.2-0.5,0.2-0.5c-0.2-0.3,0.2-0.5-0.2-0.5c0.2-1,1.1-0.5,1.6-1.3c0,0.5,0.2,0,0.5,0.3
	c0-0.3,0-0.3,0.2-0.3h-0.5c-0.2-0.8,0.2-1.3,0.5-1.8V48c0.7,0,0.7-0.8,0.9-1.3V47c0.7-0.3,1.4-0.7,2.1-1.1c0,0.1,0,0.1,0,0.2
	c0.1-0.1,0.3-0.1,0.4-0.1c-0.5,0.5-1.1,0.8-1.4,1.3v0.5c0.7,0.3,0.9-0.5,1.1-1c0.2,0,0.2,0,0.2,0.3c0.7,0,0.7-1,1.4-1v-0.4
	c0.2,0.3,0.7,0,0.9-0.2c-0.2-0.2-0.4-0.4-0.2-0.8c-0.2-0.1-0.8,0.6-0.8,0.8c0,0,0,0.1,0,0.1l-0.2,0.2c-0.2-0.5-0.7-0.3-1.1,0
	c-0.3-0.5-0.4-1.2-0.5-1.8v0.3c-0.1-0.1-0.2-0.2-0.2-0.3c0.4-0.2,0.7-0.7,0.5-1.2c-1.3,0.3-2.5,1.1-3.2,2.3c0-0.8,0.7-1,0.9-1.8
	c0.9-0.2,1.6-0.8,2.1-1.5c1.4,0,3,0.3,4.1-1.3h0.5c0.2-0.3,0.7-0.5,0.9-0.8c-0.2-0.5,0.2-1-0.2-1.3c-0.3,0-0.5,0.1-0.7,0.3
	c0-0.3,0-0.3,0.2-0.3c0-0.3,0-0.5-0.2-0.5c-0.5,0.3-0.9,0.8-1.4,0.8v-0.5c0.7,0,0.9-0.5,1.6-0.5c-0.5-0.3-0.9-0.8-1.6-0.8l-0.5-0.5
	c-0.5-0.8-0.2-2-0.7-2.8c-0.5-0.3-0.7-0.5-0.5-1.3c-0.5,0.6-0.9,1.3-1.1,2c-0.5,1-0.9,0-1.6,0c0.2-1.2-0.3-2.4-1.4-3
	c-0.7,0-1.6,0.5-2.3,0c0.2,0.3-0.2,0.8,0.2,0.8l-0.5,0.5c0.1,0.8-0.1,1.6-0.5,2.3c1.4,1.3,0.2,3-0.9,3.8c0.2,1,0.1,2-0.2,3
	c0-0.3,0-0.3-0.2-0.3c0.2,0.3-0.5,0.3-0.2,0.5c-0.9-0.9-1.2-2.3-0.7-3.5c-0.5,0-0.9,0-1.4,0.3v-0.5c-1.2-0.2-1.9-1.2-3-0.8
	c0.1-0.7-0.3-1.4-0.9-1.8c0-1.3,0.9-2.3,1.4-3.3h0.5c0.2-0.3,0-0.3-0.2-0.3h0.5c0.2,0,0.2-0.3,0.5-0.5c-0.2-0.5-0.7-0.3-0.9-0.3
	c0.5-0.8,0.7-0.3,1.1,0v-0.8c0.2,0,0.5,0.5,0.7,0.3c0-0.3,0.2-0.5,0.7-0.8c0.1-0.1,0.2-0.3,0.2-0.5c-0.5,0-1.1,0-1.4-0.5
	c0.5-0.3,0.9,0.5,1.4,0.3c0-0.3,0-0.5,0.5-0.5v-0.5c0.5-0.3,0.7,0.3,1.1,0c0-0.1,0-0.3-0.1-0.4c0.5,0.2,1.1-0.5,1.5-1.1
	c-0.4,0-0.3-0.5-0.5-0.5c0.3-0.2,0.4-0.7,0.7-1h-0.5v-0.5h-1.6v0.5c0,0.3,0.2,0.3,0.5,0.3c-0.7,0.3-0.5,1-1.1,1.3v0.5
	c-0.2,0-0.5,0-0.5,0.3c-0.5-0.3-0.2-0.8-0.2-1c0.5,0,0-0.3,0.2-0.5c-0.7-0.8-0.7,0.3-1.1,0.5c-0.2-0.2-0.3-0.5-0.2-0.8l0.2-0.3
	c-0.5,0-0.7-0.3-1.1-0.3c0.2,0,0.5,0,0.5-0.3c-0.2,0-0.2,0-0.2-0.3h0.5c-0.2-0.3-0.5-0.5-0.5-0.8l0.2-0.3c-0.2-0.5-0.7-0.3-0.9-0.3
	l0.2-0.3h-0.7V24l-0.2-0.2c-0.5,0.3-0.5,0.8-0.5,1.3c0.2,0.5,0.7,0.5,1.4,0.5c-0.2,0.4-0.4,0.7-0.7,1c0.2,0,0.5,0,0.5-0.5v0.5
	c-0.4,0.3-0.7,0.8-0.9,1.2c-0.2-0.2-0.2,0-0.2,0.3L33,27.8c0.2-0.2,0.3-0.5,0.2-0.8c-0.5,0-0.7-0.5-1.1-0.3v0.5
	c0.3,0,0.5,0.1,0.7,0.3c-0.5,0.3-0.5-0.8-1.1,0.3c-1.1,0.2-2.2-0.2-3-1c-0.2,0.5-0.7,0.5-1.1,0.8c0.3,0.2,0.7,0.1,0.9-0.1
	c-0.2,0.2-0.4,0.4-0.5,0.6c-0.2,0.3,0.2,0.5,0.2,0.8c0,0.2-0.2,0.3-0.2,0.4c-0.2-0.1-0.3-0.3-0.5-0.4c0.5,0,0-0.3,0.2-0.5h-0.5
	c-0.2,0-0.2-0.3-0.5-0.5c-0.6,0.5-1.5,0.7-2.3,0.5c-0.2-0.5,0.5-0.5,0.7-0.8C25,27.3,24.8,27,24.5,27s-0.2,0-0.2,0.3
	c-0.5,0-0.9-0.2-1.3-0.5c0.3-0.5,0.7-1,1.1-1.5c0.8,0.1,1.8-0.4,2.5,0.2c-0.2,0-0.5,0-0.5,0.3c-0.8-0.3-1.8-0.2-2.5,0.3
	c0.5,1,1.8,0.3,2.3,1.5c0.9-0.5,2.3-0.3,2.8-1.5v0.5c0.7,0,1.4,0.8,2.1,0V26c-0.2,0-0.5,0-0.5,0.3c0-0.3,0-0.3-0.2-0.3
	c0.5,0,0.7-0.5,1.3-0.4c-0.1-0.4-0.6-0.7-0.8-0.9s-0.2,0-0.2,0.3c-0.2-0.3-0.5-0.5-0.7-0.8h0.2c0-1-0.5-2.5-1.6-2.3
	c0.2,0.5,0,1.3,0.5,1.8c-0.2,0-0.2,0-0.2,0.3C28,24,28,23.5,28,23c-0.2-0.3-0.2-0.8-0.9-0.5l0.5,0.5c-0.2,0-0.7,0.3-0.9,0.3
	c-0.2-0.3,0.5-0.5,0-0.8c-0.1,0-0.1-0.1-0.2-0.1c0.7-0.8,1.4-1.6,2.1-2.3c0.3-0.1,0.6-0.1,0.8-0.1c0.4-0.2,0.3-0.6,0.2-1
	c0.2-0.2,0.4-0.4,0.6-0.6c0,0,0.1,0.1,0.2,0.1c-0.2,0-0.2,0-0.2,0.3l0.5,0l-0.2,0.3c0.1,0,0.2,0,0.4,0c0,0-0.1,0.1-0.1,0.1
	c0.3,0.1,0.4-0.2,0.6-0.2c-0.1,0-0.1,0.2-0.1,0.4H31l0.2,0.3c0.5-0.3,0.7-0.5,1.4-0.3h-0.5v0.8c0.5-0.3,0.9-0.3,1.4-0.5
	c-0.2,0-0.5,0.3-0.5-0.3c0.5,0,0.2-0.5,0.5-0.8c-0.2-0.3-0.2-0.5-0.7-0.4c-0.2-0.1-0.5-0.1-0.7-0.1c0,0.5,0.2,0.5,0.5,0.8
	c-0.5,0.3-0.7-0.5-1.1-0.5v0.5c0.2,0,0.5,0,0.5,0.3c-0.2,0-0.4-0.2-0.6-0.1c-0.1,0-0.2-0.1-0.3,0c0.1-0.1,0.1-0.2,0.1-0.4
	c-0.3,0.2-0.4-0.2-0.5-0.4c0.6-0.6,1.2-1.1,1.8-1.7c0.1,0,0.2,0.1,0.3,0.1c0-0.1,0-0.2,0-0.4c0.2-0.1,0.3-0.3,0.5-0.4
	c0.1,0.3,0.4,0.3,0.6,0.3c-0.2,0-0.2,0.3-0.5,0.3c0.2,0,0.5-0.3,0.4,0.2c0.5-0.3,1.1-0.3,0.9-1c-0.3,0.2-0.6-0.1-1-0.2
	c0.3-0.3,0.7-0.5,1-0.8v0c0.2,0,0.2,0,0.2-0.2l0,0c0.2,0,0.2,0,0.2,0.3c0.2,0,0.2,0,0.2-0.3c0.2,0,0.7-0.3,0.9,0.3h0.7
	c-0.5,0.5-1.4-0.3-1.8,0.5c0.1,0.3,0.4,0.2,0.7,0.3v0.5c0.2,0,0.5,0.3,0.7,0.3c0.2,0,0.4,0.2,0.5-0.2c0.2-0.1,0.3-0.2,0.5-0.1
	l0.7-0.8c0.2-0.1,0.5-0.2,0.7-0.3c0,0,0,0,0,0c0.2,0,0.5,0,0.5-0.2c-0.1,0-0.1,0-0.2,0c0.1-0.1,0.2-0.2,0.3-0.3
	c-0.2-0.2-0.6-0.3-0.9-0.4c0-0.2-0.1-0.5,0-0.6h-0.9v-0.5c-0.2,0.1-0.4,0.1-0.6,0c0.2-0.1,0.4-0.3,0.6-0.4c0.2,0.2,0.4,0.4,0.6,0.4
	c0.2-0.3,0.5-0.6,0.8-0.8c0.2,0,0.4-0.1,0.6-0.2c-0.1,0-0.2,0.1-0.4,0.1c0.5-0.2,1-0.2,1.5-0.1c-0.5,0.5-1.4,0-1.8,0.5
	c0,0.3-0.2,0.3-0.2,0.5c0.7,0.1,1.3,0,1.9-0.3c-0.1,0.1-0.1,0.2-0.1,0.3c0.1,0,0.3,0,0.4,0c-0.2,0.1-0.3,0.1-0.4,0.2
	c0.2,0.5,0.7,0.5,1.1,0.7c-0.1,0-0.3,0-0.4,0c-0.7-0.3-1.6-1.3-2.5-0.5v0.5c0.2,0.5,1.1,0.3,1.4,0.8c-0.1,0-0.2,0-0.3,0
	c0.5,0.6,1.1-0.4,1.5,0c-0.2,0.4-0.5,0.3-0.7,0.3c0,0,0,0.1,0,0.2c-0.7-0.4-1.7-0.3-2.3,0.3v0.5c0.2,0,0.2,0,0.5-0.3
	c0.2-0.3,0.2,0.5,0.5,0.3l0.1-0.1c-0.1,0.2-0.2,0.4-0.3,0.6c0.3-0.2,0.4,0.2,0.6,0.3c-0.2,0.1-0.4,0.1-0.6,0c-0.2,0-0.2-0.3-0.2-0.5
	c-0.5,0-0.9-0.3-1.1,0.3c0,0.5,0.7,0.3,0.7,0.8c-0.5,0-0.9,0-1.4,0.3v0.1c0,0-0.1,0-0.1,0c0,0-0.2,0.3-0.1,0.2
	c-0.1,0.3,0.1,0.3,0.3,0.3c0,0,0,0,0-0.1c0.4-0.1,0.6,0.5,1.1,0.3c-0.2,0-0.2-0.3-0.2-0.5l0.5,0.5c0.2,0,0.4,0,0.5,0
	c0.2,0,0.4,0,0.6,0c-0.1,0-0.2-0.1-0.2-0.2c0.1,0,0.4-0.4,0.4,0c0.2,0,0.2,0,0.2-0.3c0.2,0,0.2,0,0.2,0.3c0.2,0,0.5,0,0.5-0.3
	c0.2,0.3,0.7,0.3,1.1,0.3c-0.2-0.8,1.1,0,0.9-1c-0.6,0.2-1.3-0.4-1.9-0.1c0.1-0.1,0.1-0.3,0.1-0.4c0.6,0.3,1.2,0.3,1.8,0
	c-0.2-0.3,0.2-0.5-0.2-0.5c0.5-0.3,0.9,0.3,1.4-0.3h-0.5c0-0.5,0.7,0,0.7-0.5h0.2v-0.5h-1.4c0.2-0.2,0.4-0.3,0.7-0.3h-0.5
	c0.5-0.3,0.9,0.3,1.4-0.3h-1.1c0.2-0.1,0.4-0.2,0.6-0.3l0.2,0.3c0.2-0.5,0.7-0.3,0.9-0.3c0-0.1,0-0.2,0-0.4c0.5,0.1,1-0.1,1.4-0.4
	l-0.2-0.2c0.1,0,0.2,0,0.2,0v-0.5c1.1,0.3,2.1-1,3.2-1.3c-0.4-0.1-0.8-0.1-1.2,0c0,0,0,0,0,0c-0.5-0.3-0.9,0.3-1.1-0.3
	c1.4,0,2.8,0,3.9-1c-0.2-0.5-0.7-0.3-1.1-0.3V8.8c-0.5,0.4-1.2,0.2-1.9,0.3c0.1-0.2,0.3-0.3,0.5-0.3c-0.5,0-0.9-0.3-1.1,0.3
	c-0.7-0.5-1.4-0.3-2.1-0.3c-0.2,0-0.2,0.2-0.5,0.3c-0.4-0.2-0.8-0.4-1.2,0c0-0.3-0.2-0.3-0.5-0.3c0,0.1,0,0.1,0,0.2
	c0.3,0,0.5,0.4,0.7,0.6c0,0.3-0.2,0.3-0.5,0.3l0.2-0.3c-0.2-0.3-0.7-0.3-0.9-0.5c-0.1,0.1-0.2,0.1-0.3,0.1c7-3.6,14.7-5.4,22.6-5.4
	c13.8,0.1,27,5.8,36.5,15.7c-0.5,0.2-1.1,0.4-1.5,0.8l0.2,0.3c0,0.5-0.7,0.5-0.7,1h-0.5c-0.2,0.3,0,0.3,0.2,0.3
	c0,0.5-0.7,0.3-0.7,0.8c0,0.3-0.1,0.5-0.2,0.8c0,0.3-0.2,0.5,0.2,0.6c0.3,0.1,0.3,0.4,0.5,0.4h0.5l-0.2,0.3c0.2,0.8,0.9,0.5,1.6,0.5
	c-1.4-1-0.7-3,0.5-3.8l-0.2-0.3c0.2,0.3,0.5-0.3,0.7,0c0.1-0.2,0.3-0.4,0.6-0.6c1.2,1.3,2.4,2.7,3.5,4.1c-0.2,0.3-0.4,0.6-0.6,0.8
	c0.2,0.5,0.3,1,0.2,1.5h0.5v0.8c0.2,0,0.2,0,0.5,0.3c0.2,0.5-0.5,0.3-0.2,0.5c-0.9-1.1-2.2-1.9-3.7-2c0,0.3-0.2,0.5,0.5,0.8
	c-0.5,0-0.5,0.5-0.9,0.5V27c-0.9,0.5-1.8,0-2.8,0.5c-0.2-0.3,0.5-0.5,0.2-0.8c-0.7,0-1.4,0.5-2.1,0.5v0.5c0-0.3-0.2-0.3-0.5-0.3
	c0,0.3,0.5,0.8-0.2,0.8c-0.2-0.3-0.7-0.3-1.1-0.5v-0.5H97c0-1-0.9-0.8-1.6-1c0,0.3,0.2,0.3,0.5,0.3c0,0.8,0.5,1.8,0.2,2.5
	c0-0.5-0.2-0.5-0.5-0.8h-0.7c-0.5,0.3-1.1,0.8-0.5,1.5c-0.5,0.3-0.9-0.3-1.4-0.3V29h-0.5v0.5c0.2,0.5,0.7,0.5,0.7,1
	c-0.9-0.2-1.6-0.9-1.8-1.8c0.4,0,0.2-0.3,0.2-0.5c-0.6-0.2-1-0.9-1.5-1.3c1.1,0.6,2.3,0.9,3.3,1.6c0.5-0.3,0.9-0.3,1.1-0.8
	c-0.5-1.5-2.1-1.8-3.2-2.8l-0.2,0.3c-0.5,0-0.9-0.5-1.4-1c0.1,0,0.2,0,0.2,0c-0.1-0.1-0.1-0.1-0.2-0.3c-0.7,0.8-1.1-0.3-1.6-0.3
	c0.2,0,0.7,0.3,0.9-0.3c-0.4,0-0.6-0.6-1-0.7c0-0.1,0-0.1-0.4,0h-0.7v0.5c-0.2,0-0.2-0.3-0.2-0.5c-0.2,0.3-0.2,0.5-0.5,0.8v-1H86
	c-0.2,0.3-0.7,0.5-0.7,1c-0.2-0.4-0.6-0.6-1-0.5c0.1,0.1,0.1,0.3,0.2,0.3c-0.7,0.4-2-0.2-1.8,1.2c-0.2,0-0.5-0.3-0.7-0.3
	c0,0.3,0,0.3,0.2,0.3c0,0.3,0,0.5-0.2,0.5s-0.2,0-0.2-0.3c-0.5,0-0.5,0.3-0.7,0.5c-0.2,0.7-0.6,1.3-1.1,1.8c0.2,0,0.2,0,0.2,0.3
	h-0.7c-0.2,0.3,0.2,0.5,0.2,0.8h-0.5c-0.7,0.5-1.1,1-2.1,1c0.2,0,0.2,0,0.2,0.3H77c0,0.5-0.7,0.5-0.7,1v1.5h0.5c0,0.3,0,0.5-0.2,0.5
	c0,0.3,0.7,0,0.5,0.5h-0.5c0,0.2,0.1,0.4,0.2,0.5c1.1,0.8,2.3-0.3,2.8-1.3c0.1,0.9,0.5,1.8,1.1,2.5c0.2,0.3,0,0.8,0.2,1l-0.2,0.3
	c0.2,0.5,0.7,0.5,1.1,0.5v-0.5c0.2,0,0.5,0,0.5-0.3l0.2,0.3c0.3-0.6,0.4-1.3,0.5-2c0.7,0,0.7-0.8,0.9-1.3c0-0.8-0.9-0.5-0.9-1V30
	l1.4-0.8c0.9-0.3,0.5-1.3,0.9-2c0.2,0.3,0.7,0.3,1.1,0.3c1.1,1-0.7,1.5-0.9,2.3h-0.5c-0.1,0.9,0.1,1.7,0.5,2.5h0.7
	c0,0.3,0,0.5,0.2,0.5c0.9,0.3,1.8-0.5,2.8-0.3v0.5c0.1,0,0.1,0,0.2,0L89,33.6c0-0.3-0.2-0.3-0.5-0.3l-0.2,0.3
	c-0.7-0.8-1.1,0.3-1.8,0v0.5c0.7,0,0.5,0.8,0.9,1.3c-0.5,0.8-1.1-0.3-1.4-0.5c0,0.3-0.2,0.3-0.5,0.3c-0.3,0.7-0.2,1.4,0.2,2
	c-0.6,0.4-1.4,0.4-2.1,0c-0.6,0.4-1.3,0.6-2.1,0.8v-0.5c-0.5,0-1.1-0.3-1.6,0.3c0.2-0.3-0.2-0.5,0.2-0.5h-0.9c-0.7-0.8,0-1.5,0.5-2
	c-0.5,0.3-0.5-0.5-0.9-0.3c-0.7,0.3-0.7,0.5-0.7,1.3h0.5c-0.2,0.8,0.5,1.3,0,2c-0.2-0.3-0.2-0.5-0.5-0.5c-1.4-0.5-2.1,0.8-2.5,2
	c-0.4-0.2-0.9,0-1.1,0.4c0,0,0,0.1-0.1,0.1v0.5h-0.5c-0.2,0-0.2,0.3-0.2,0.5c-0.5,0-0.9,0.3-1.4-0.5c0,0.3-0.2,0.8,0.2,1l-0.2,0.3
	c-0.7-0.5-1.1-0.3-1.8,0c0.2,1.3,2.1,0.5,1.8,1.8c0,0.5,0.9,0,0.7,0.8h-0.5c0,0.3,0.2,0.3,0.5,0.3c-0.2,0.7-0.3,1.3-0.2,2
	c-1.7-0.2-3.4-0.3-5-0.3v0.5c0.9,1-0.5,2.5-0.2,4h0.5c-0.5,0.5-0.2,1-0.2,1.5c0.9,0,1.8,0,2.3,1l0.5-0.5c1.1-0.3,2.5-0.3,3-1.8
	c-0.5-1.5,0.9-2.5,2.1-3v-1.5c0.9,0,1.4,0.5,2.3,0.5c0.5-0.4,1-0.8,1.6-1c0.7,0.3,0.7,1,1.1,1.5v0.5c0.4,0.4,0.9,0.8,1.4,1
	c0.2,0.8,1.1,1,1.6,1.8v1.5c0.2-0.8,0.7-1.5,0.5-2.3h0.5c0,0.3,0,0.5,0.5,0.5c-0.2-1-1.6-1.3-1.8-2.3h-0.5c-0.7-0.5-0.9-1.8-1.6-2.3
	c0-0.3,0.2-0.3,0.5-0.3c-0.2-0.3-0.5-0.3-0.5-0.8c0.3-0.2,0.6-0.1,0.8,0.1c0.1,0.1,0.1,0.3,0.1,0.4c0.1-0.1,0.3-0.1,0.2-0.3
	c0.5,0.3,0.7,1,0.9,1.5c0.3,0,0.5,0.1,0.7,0.3c0.6,0.5,1.1,1.1,1.6,1.8c-0.2,1,0.5,1.8,0.5,2.5h0.5c0.2,0.3-0.5,0.3-0.2,0.5l0.6,0.2
	c0,0,0,0,0,0c0,0.6,0,1.4,0.5,1.7l0.2-0.3l0.2,0.3c0-0.3-0.1-0.7-0.2-1c0.1,0.1,0.3,0.1,0.4,0.1c-0.2-0.3-0.5-0.5-0.8-0.7l1,0.4
	v-0.3c0.1,0.1,0.1,0.2,0.2,0.2c-0.1-0.1-0.1-0.2-0.1-0.4l0,0c0-0.4-0.5-0.5-0.6-0.5c-0.3-0.5,0-1.1-0.6-1.4c0.4,0,0.7,0.2,0.9,0.5
	c0.2,0.3,0.2-0.5,0.5-0.3C88.3,50.5,88,50.5,88,50c0.9,0.3,1.8,0.4,2.8,0.3c-0.2-0.8-1.1-1.3-0.9-2.3h0.7c0-0.3-0.2-0.3-0.2-0.5
	c0.5-0.8,0.7-1.8,1.4-2.3c0,0.5,0.2,0,0.5,0.3h-0.5c0.2,0.5,0.7,0.5,1.1,0.5c0,0.3,0,0.5-0.7,0.5c0.3,0.2,0.6,0.4,0.8,0.8l0.1,0
	c0.3,0,0.5,0.1,0.7,0.3l-0.2-0.3l0.2-0.3c-0.5-0.3-0.2-0.8-0.2-1c0.5-0.4,1.2-0.5,1.8-0.5c-0.1,0.1-0.1,0.5-0.4,0.5
	c0,0.3,0,0.3,0.2,0.3c-0.2,0.5-0.5,0.8-0.9,0.8c0.9,0.7,1.7,1.5,2.3,2.5l0.5,0.3v0.8c-0.7,1-1.8,0-2.8-0.3v-0.5L94,50
	c-0.2,0-0.2-0.3-0.2-0.5c0,0.5-0.2,0-0.5,0.3l-0.2-0.3c-0.6,0.2-1.3,0.9-2.1,0.8c0,0,0,0.1,0,0.2c-0.5,0.2-1.1,0.3-1.6,0.3v0.8
	l0.2-0.3v1.2c0.2,0.1,0.3,0.6,0.5,0.8c0,0.3,0,0.5-0.2,0.5h0.5c-0.2,0-0.5,0-0.5,0.3c0.7,0,1.1-0.3,1.8,0.5c0-0.3,0.1-0.5,0.2-0.8
	c0.4,0.4,0.9,0.8,1.4,1c0-0.3,0.2-0.3,0.2-0.5h1.1c0,0.5-0.5,0.8-0.2,1.3l0.2,0.3c-0.7,1-0.5,2.5-1.6,3.3c-0.5-1-1.4-0.5-2.1,0
	c-0.6-0.4-1.3-0.6-2.1-0.8v-0.5c-0.9,0.3-1.1-0.5-1.8-0.8c-0.2,0.3-0.7,0.3-0.9,0.5v1c-0.5,0,0,0.8-0.5,0.8
	c-0.7-1.3-2.1-0.8-2.5-2.3c-0.9-0.3-2.1,0-2.5-1c0,0.5-0.2,0-0.5,0.3L80,56c0.2-0.8,1.1-1.5,0.5-2.3c-0.2-0.3,0.5-0.3,0.2-0.5
	c-0.5,0-0.7-0.5-0.9-0.8c-0.2,0.3-0.5,0.5-0.7,0.5c-0.7-0.5-1.4,0-2.1,0c-0.2,0-0.2-0.3-0.5-0.3c-1.4,0-2.7,0.6-3.7,1.5
	c-0.9,0.3-1.6-0.5-2.5-0.3c-0.2,0-0.2-0.3-0.2-0.5c-0.5,0.3-0.5,1-0.7,1.5c-0.5,0.8-1.1,1-1.8,1.5c0,0.8-0.5,1.5-0.2,2.3
	c-0.2,0.3-0.2,0.5-0.5,0.8c-0.4,0.6-1.1,1.1-1.8,1.3c-0.5,2-1.8,3.5-2.5,5.3c0,2,1.4,4.5-0.5,6.1c0.2,0.5,0.5,1.3,0.9,1.5h-0.5
	c0.5,1.8,2.3,3,2.8,4.8c0.5,0.3,0.9,0.7,1.1,1.3c0.2,0.8,1.1,0.5,1.6,1c1.4-0.3,2.8-0.8,4.1-0.3c1.2-1.3,3.1-1.5,4.6-0.5v0.5h0.5V81
	c0-0.3,0.2-0.3,0.2-0.5c0.3,0,0.5,0.1,0.7,0.3c0.2,0,0.2-0.3,0.2-0.5c1.4,0.5,0.9,1.8,0.5,2.8h0.5c-1.1,1.5,0,3,0.9,4.3v0.8
	c0.7,1.8,1.1,4-0.5,5.3c-0.5,0.8,0,1.5-0.5,2.3c1.1,1.4,1.5,3.3,1.1,5.1c0.9,1,0.9,2.5,1.6,3.5c-0.2,0.3-0.5,0.3-0.5,0.5v0.5h0.5
	c0.2,0,0.2,0.3,0.5,0.5c0-0.5,0.7,0,0.7-0.5c0.9,0,1.6-0.5,2.5-0.3c1.5-1.1,2.9-2.5,3.9-4c-0.2-0.5,0.2-0.8,0.2-1.3h-0.2
	c0.7-0.5,1.8-1.3,1.8-2.5v0.3c0.2-0.5-0.2-1.3-0.2-1.8c1.1-1.3,2.5-1.8,3.4-3.3c0.2-1.8-0.5-3.5,0-5.3l-0.2-0.3
	c0.3-1.3,0.8-2.5,1.6-3.5c1.8-1.3,2.5-3.5,3.9-5l1.4-3.8c-0.2-0.2-0.3-0.5-0.2-0.8c-1.1,0.8-2.5,1.8-3.9,0.5c0-0.3,0.2-0.3,0.5-0.3
	v-0.8h0.9c0.2,0,0.2-0.3,0.2-0.5c0.5,0.3,0.9-0.3,1.4-0.3c0-0.3,0-0.5,0.7-0.5c0.5-0.2,0.9-0.6,1.1-1v-0.5c0.9,0,1.4-1.3,2.3-1.8
	c-0.2-1,0.7-1.8,1.1-2.5c-0.6-0.9-1.7-1.4-1.7-2.5c0,0.1-0.1,0.1-0.1,0.2c-0.2,0.4-0.6,0.7-0.9,1h-0.9v-1.5c-0.5,0.3,0,0.8-0.5,1
	c0.1-0.9-0.3-1.8-0.9-2.5c0-0.5-0.5-1.3-0.2-1.8c0,0.3,0.2,0.3,0.5,0.3v-0.5c0,0.5,0.5,0,0.7,0.3c-0.1,1.4,0.8,2.6,2.2,2.8
	c0,0-0.1,0.1-0.1,0.1c0,0,0.5-0.3,0.4-0.3c0,0,0,0-0.1,0l0.1-0.1c0.2,1.5,2.1,1.8,3.2,1.3l0.2,0.3c0.2-0.5,0.7-0.3,0.9-0.3
	c0,0.8,0.5,2,1.4,1.8c-0.2,0.3-0.2,0.5-0.7,0.5c0.2,0.3,0.2,0.8,0.7,1c0.7,0.3,0.7-0.5,0.7-1c0.5,1.3,0,2.8,0.2,4
	c0.5,1,0.5,2.3,0.9,3.3v1.3c0,0.5,0.5,0.8,0.7,1c-0.2-0.3,0.5-0.5,0.2-0.8h0.5v-0.5c0.3,0,0.5-0.2,0.5-0.5c-0.2-1,0.2-2,0-3
	c1.1-1.5,2.8-2.8,3.2-4.5c0.2,0.5,0.7,0.3,0.9,0.3v-0.5c0,0.3,0,0.3,0.2,0.3v-1c0.2,0.2,0.3,0.5,0.2,0.8c0-0.3,0-0.3,0.2-0.3
	c0,0.3,0.5,0.5,0.2,1c0.5,0.6,0.8,1.4,1,2.2c0,0.3-0.1,0.7-0.1,1c0,0.1-0.1,0.3-0.2,0.4L119.1,70.4z M20.2,46.8
	c-0.1,0.1-0.2,0.2-0.3,0.2C20,46.6,20.1,46.8,20.2,46.8z M38.1,27.8l0.2-0.3c0.1,0.1,0.1,0.2,0.2,0.3C38.4,27.8,38.2,27.8,38.1,27.8
	z M36.5,15.4c-0.2,0-0.5,0-0.5-0.3C36.2,15.1,36.4,15.2,36.5,15.4L36.5,15.4z M40.8,15.7c-0.1,0.1-0.3,0.3-0.4,0.4
	C40.5,15.8,40.5,15.7,40.8,15.7z M45.9,12.9c0.2-0.2,0.4-0.3,0.7-0.2C46.4,12.8,46.1,12.9,45.9,12.9z M47.2,11.4
	c0.2-0.2,0.5-0.3,0.8-0.3C47.8,11.2,47.5,11.3,47.2,11.4z M105.3,47.8c-0.3,0.1-0.3-0.2-0.3-0.4c0.2,0,0.4,0,0.4,0.3
	C105.4,47.6,105.3,47.7,105.3,47.8z M105.3,47.8L105.3,47.8z M105.1,49.4c-0.2,0-0.4,0-0.4-0.3c-0.2-0.3,0.1-0.7-0.2-1
	c0-0.1,0-0.2,0-0.3c0.2,0,0.2,0,0.2,0.3c0.1,0,0.2-0.1,0.2-0.1c0,0.1,0,0.1,0,0.2C105.5,48.4,104.9,48.9,105.1,49.4L105.1,49.4z
	 M104.2,49.1c-0.1-0.3,0-0.5,0.1-0.7C104.4,48.6,104.5,48.9,104.2,49.1L104.2,49.1z M104.8,47.8c0-0.1,0-0.2,0-0.3
	c0,0.3,0.2,0.3,0.4,0.4C105.4,48.5,104.9,47.8,104.8,47.8L104.8,47.8z M102.7,54.8c-0.4,0.2-0.8,0.5-1.3,0.2s-0.5-0.8-0.9-0.8
	c-0.2-0.5,0.2-1.1-0.1-1.6c0-0.5,0.9-0.2,0.4-0.8c-0.5-0.7-0.9-1.4-1.2-2.2c-0.3-0.7-0.4-1.5-0.3-2.3l0.2,0.3c0.4-0.5,1-0.7,1.5-1.2
	c0.2,0.5,0.6,0,0.9,0.3c0,0.5,0.1,1.1,0.3,1.6c-0.3-0.2-0.7-0.3-1.1-0.3c0,0.3,0,0.5,0,0.8c0-0.3,0-0.3-0.2-0.3l-0.2,0.2
	c0.4,0.3,0.5,0.8,0.7,1.3l0.4,0c0.2,0.8-0.3,2.1,0.5,2.4c0,0.3-0.4,0.5-0.2,0.8l0.2-0.3c0.4,0.3,0.2,0.8,0.2,1.1l0,0
	C102.7,54.3,102.7,54.5,102.7,54.8L102.7,54.8z M95.1,68.9c0.5-1.3-0.5-2.8-0.9-4c0.2,0,0.2,0,0.2-0.3c-0.2,0-0.5,0-0.5-0.3
	c-0.1-1.3-0.4-2.5-0.9-3.7c0.3,0.4,0.5,0.8,0.6,1.2c0-0.5-0.2-1.3,0.2-1.8c0,0.5,0.2,1-0.2,1.5c1.1,0.8,1.4,2.8,2.3,4v1.5
	c1.5,1.4,1.4,3.8,1.6,5.8c-0.9-1-2-1.8-1.8-3.3L95.1,68.9z M89.9,33.3c-0.2,0-0.4,0-0.5-0.2C89.6,33.1,89.8,33.2,89.9,33.3
	L89.9,33.3z M88,23v0.3C87.9,23.2,87.9,23.1,88,23L88,23z M87.8,52L87.8,52L87.8,52C87.8,52,87.8,52,87.8,52L87.8,52z M95,86.2
	C95.1,85.9,94.9,85.8,95,86.2z M77.5,82.8C77.5,82.8,77.5,82.9,77.5,82.8z M49.3,118.3c-0.1-0.4-0.5,0.1-0.8-0.2
	c0.2,0.2,0.7,0,0.9,0.5C49.4,118.4,49.4,118.4,49.3,118.3L49.3,118.3z M47.2,117.1c0-0.1-0.3-0.2-0.5-0.2c0.2,0.2,0.5,0.5,0.7,0.3
	C47.4,117.2,47.1,117.2,47.2,117.1L47.2,117.1z M19.3,45.8L19.3,45.8c0.1,0.1,0.3,0.1,0.5,0.1c-0.2-1-0.7-1.8-1.8-1.8
	c0.2,0.8,0.9,0.8,0.9,1.5c0-0.3,0.2-0.3,0.5-0.3C19.3,45.7,19.3,45.7,19.3,45.8z M50.6,117.8c-0.7-0.4-1.2-0.9-1.6-1.6
	c-0.5-0.3-0.7,0.2-0.9,0.2c0,0.2,0,0.5,0.2,0.5c0-0.2,0.2-0.2,0.4-0.2l-0.4,0.5c-0.2,0.5,0.7,0,0.5,0.5c-0.4-0.5-0.8,0.1-1.3,0
	c0.4,0.2,0.9,0.3,1.4,0.2c0.5,0,1,0.1,1.5,0.3c0-0.2,0.2-0.2,0.5-0.2C50.8,117.8,50.8,117.8,50.6,117.8L50.6,117.8z M16.8,39.8
	L16.8,39.8c-0.5,0-0.1,0.7,0,0.6C16.8,40.2,16.8,40,16.8,39.8L16.8,39.8z M40.9,24.7c0.1,0,0.2,0,0.3-0.1c0.1-0.1-0.6,0-0.6,0
	C40.7,24.7,40.9,25,40.9,24.7L40.9,24.7z M41.7,25c0.1-0.2-0.6,0.3-0.6,0.5C41.1,25.5,41.7,25.1,41.7,25L41.7,25z M37.2,20
	c0.4-0.4,0.4-0.1,0.6,0.1c0.7-0.5,1.8-0.1,2.5-0.6c0.2,0.5,0.7,0.2,0.9,0.2c0.4,0-0.2-0.7,0.7-0.5c0.3-0.7-0.5,0.3-0.4-0.2
	c0.3,0,0.4-0.2,0.5-0.5l-0.3,0l-0.6,0l0.2-0.2c-0.9-0.1-1.8,0.1-2.5,0.6l0.2,0c-0.5,0.3-0.7-0.2-1.1-0.2c0,0.2-0.2,0.3-0.5,0.3
	c-0.2-0.5-0.7-0.5-0.9-0.7c0.2,0,0.7,0.2,0.9-0.3c-0.7,0.5-0.6-0.9-1.3-0.4c-0.2,0.2-0.4,0.3-0.7,0.3c-0.2-0.7-1.1-0.5-1.6-0.4
	c0,0.2,0,0.2,0.2,0.2c-0.2,0-0.2,0-0.2,0.3c0.5,0,0.4,0.5,0.9,0.2l-0.2,0.3c0.4,0.2,0.7-0.3,1.1-0.3c0.4,0.5,0.2,1.2,0.2,1.7
	C36.3,20.2,36.7,19.9,37.2,20L37.2,20z M42.4,25.5c0.5,0.3,0-0.5,0.5-0.5h-0.5V25.5z M42.4,29.5c-0.2,0-0.3,0-0.5,0v0H42.4z
	 M41,30.6c-0.2-0.1-0.2,0.3,0,0.3C41.4,30.8,41.3,30.4,41,30.6z M42.3,24.7c-0.1,0-0.4,0-0.4,0.3C42.2,24.7,42.4,25.2,42.3,24.7z
	 M35.5,16.4c-0.3,0-0.7,0-1-0.1c-0.2,0.4-0.4-0.1-0.4,0.4C34.6,16.4,35.1,17.2,35.5,16.4z M31.7,27C32,26.9,31.6,26.5,31.7,27z
	 M32.6,25.5c0.7,0.8-0.9,0.3-0.5,1c0.5,0,0.7,0.5,1.1,0.3c0.2,0,0.2-0.3,0.5-0.5c-0.1,0-0.2,0-0.3-0.1c0.1-0.4-0.1-0.4-0.4-0.6
	L32.6,25.5z M33.9,19.1c0.1,0,0.3,0.1,0.3-0.1c0.1-0.2-0.5,0.1-0.5,0.1C33.8,19.4,33.8,19.1,33.9,19.1L33.9,19.1z M33.3,22.5V22
	c-0.1,0-0.1,0-0.1,0c0.3-0.3,0.3-0.7,0.1-1c-0.2,0.5-0.7,0-1.1,0.3c-0.5,0-0.5,0.3-0.5,0.8c0-0.3,0.2-0.3,0.5-0.3
	c0,0.3-0.5,0.5-0.2,0.8c-0.5,0.3-0.7-0.5-1.1-0.5v0.8c0.7,0.5,1.4,0.5,1.8,1.3l0.2-0.3l-0.2-0.3h0.9c0-0.4,0-0.8,0.1-1.2
	C33.5,22.2,33.3,22.5,33.3,22.5L33.3,22.5z M35.2,19.2c-0.4-0.5-1.1-0.2-1.4,0.5c0,0,0.2,0,0.2,0c0.3,0.5,0.7,0.2,1.2,0.2l0.2-0.3
	C35.2,19.7,35.2,19.5,35.2,19.2L35.2,19.2z M49.3,26.3c-0.2,0-0.5,0-0.5,0.3c0-0.3,0-0.5,0.2-0.5h-0.7v-0.5
	c-0.7,0.3-1.1-0.3-1.8-0.5c0.2-0.2,0.3-0.5,0.2-0.8c0,0.5,0.2,0,0.5,0.3l0.2-0.3c-0.2-0.3-0.7,0.5-0.7-0.3c0-0.3,0-0.3,0.2-0.3
	c0-0.3,0-0.5-0.2-0.5l-0.5,0.5c-0.1,0-0.2,0-0.3,0c-0.1,0-0.1,0-0.2,0l0,0c-0.5-0.1,0.3-0.2,0.4-0.2c0.2-0.1,0.4-0.2,0.2-0.5
	c-0.2-0.3-0.7,0.3-0.9-0.3L45.4,23c0-0.1,0-0.3,0-0.4c-0.3-0.6-0.7-0.4-0.9-0.4l-0.2,0.3V22c-0.2,0.8-0.5,0.3-0.7,0v-0.5H42l0.2,0.3
	c0,0.3-0.2,0.3-0.5,0.3l-0.2-0.3c0,0.5-0.6,0.1-0.7,0.4c0-0.4,0.4-0.7,0.2-1.2c-0.5,0.3,0-0.8-0.5-0.5s-1.4,0-1.6,0.8l0.2,0.3h-0.5
	c-0.2,0.5,0.2,0.8,0.2,1c-0.2-0.3-0.5,0.3-0.7,0.3H39c0.2,0.4-0.2,0.5-0.3,0.7c-0.4,0,0-0.7-0.4-0.5v-1.3c0-0.8,0.9-0.5,0.9-1.3
	c-0.5-0.3-0.9,0.3-1.4,0.3c-0.5,0.3-0.7,0.8-1.1,1c0,0.5,0.2,1.3-0.2,1.8c0.5,0.3,0.9-0.3,1.1,0.3c-0.2,0-0.7-0.3-0.9,0.3
	c0.9,0.8,2.3,0.3,3.4,0.8l-0.2-0.3h1.6c-0.2-0.3,0.2-0.5-0.2-0.5H42c0.2,0,0.2,0.3,0.2,0.5h0.7V25l0.2,0.3l0.2-0.3v0.5h0.5
	c1.4,0.8-0.2,1.8-0.7,2.5h0.5c0,0.5-0.2,0.5-0.5,0.5c-0.7-0.3-1.4,0.5-2.1,0.8c0.3,0.1,0.6,0.2,0.9,0.2c0-0.5,0.2-0.2,0.5-0.2
	c0,0.5,0.2,0,0.5,0.3c0-0.5,0.2,0,0.5-0.3c0.3,0.3,0.7,0.5,1.1,0.5c0,0.3-0.2,0.3-0.5,0.3c0,0.3,0.2,0.3,0.2,0.5h0.9V31
	c0.5,0,0.9,0,1.4,0.3l0.2-0.3c-0.2-0.5-0.7-0.8-1.1-1.3c0.7,0.3,1.4,0,1.8,0.8V30c0-0.3,0.2-0.3,0.5-0.5c-0.5-0.5-0.7-1-1.4-1.3
	c0-0.3,0-0.3,0.2-0.3c-0.2,0-0.5-0.5-0.7-0.5h0.5V27c0.2,0,0.3,0,0.4-0.1c0,0.2,0.5,0.4,0.3,0.6c0.1-0.1,0.3-0.2,0.5-0.3
	c-0.2,0.3,0,0.8,0.2,1h0.5c0-0.8,0.5-0.5,0.9-1c-0.2-0.5,0.7-0.3,0.2-0.8C49.3,26.5,49.3,26.5,49.3,26.3L49.3,26.3z M38.7,23.5
	c-0.1-0.1-0.2,0.2-0.4,0L38.7,23.5C38.7,23.5,38.7,23.5,38.7,23.5z M41.5,21.5c0.5,0,1.1-0.5,1.6-0.3c0-1-1.1-0.8-1.7-0.7
	c-0.1,0-0.2,0-0.4,0v0.5C41.5,20.7,41,21.5,41.5,21.5z M42,26.7c0.2,0.4,0.8,0.1,1.1-0.3c0-0.2,0-0.4,0-0.6c0,0-0.3-0.2-0.4,0
	C42.3,25.7,41.8,26.4,42,26.7L42,26.7z M46,23.7c0.2,0,0.3-0.1,0.3-0.2h0c-0.2,0.1-0.3,0.1-0.4,0.2C45.9,23.7,46,23.7,46,23.7
	L46,23.7z"/>
<path class="st0" d="M65.2,0c36.3,0,63.3,22.9,63.3,60.4c0,36.1-25.5,65.9-64.3,65.9C20.1,126.4,1.7,92,1.7,63
	C1.7,36.9,20.7,0,65.2,0z M68.6,120.2c14.5,0,44.5-8.4,44.5-55.3c0-38.7-23.5-59.5-49-59.5C37.1,5.5,17,23.2,17,58.5
	C17,96.1,39.6,120.2,68.6,120.2L68.6,120.2z"/>
</svg>
