<?xml version="1.0" encoding="utf-8"?>
<!-- Generator: Adobe Illustrator 24.1.0, SVG Export Plug-In . SVG Version: 6.00 Build 0)  -->
<svg version="1.1" id="Layer_1_xA0_Image_1_" xmlns="http://www.w3.org/2000/svg" xmlns:xlink="http://www.w3.org/1999/xlink"
	 x="0px" y="0px" viewBox="0 0 286.08 104.64" style="enable-background:new 0 0 286.08 104.64;" xml:space="preserve">
<style type="text/css">
	.st0{fill:#0000;fill-opacity: 0;}
	.st1{fill:#fff;}
</style>
<g>
	<path class="st0" d="M175.77,103.2c-58.35,0-116.7,0-175.05,0c0-34.24,0-68.48,0-102.72c94.96,0,189.92,0,284.88,0
		c0,34.24,0,68.48,0,102.72c-35.97,0-71.94,0-107.91,0c0.36-0.09,0.71-0.2,1.07-0.28c1.95-0.39,2.38-0.92,2.35-2.93
		c-0.46,0.35-0.88,0.71-1.35,1c-1.95,1.18-4.17,0.7-5.48-1.15c-1.86-2.63-1.65-8.15,0.41-10.62c1.5-1.8,3.83-1.87,5.41-0.15
		c0.25,0.27,0.38,0.65,0.56,0.97c0.1-0.1,0.21-0.2,0.31-0.3c0.13-0.77,0.26-1.54,0.38-2.27c-4.65-2.62-9.84-0.47-11.11,4.56
		c-0.26,1.03-0.42,2.12-0.41,3.19c0.03,3.86,1.94,7.07,5.71,7.75C175.63,102.99,175.7,103.12,175.77,103.2z M52.42,73.28
		c12.2-5.61,18.96-15.01,19.51-28.48c0.36-8.92-2.86-16.6-9.15-22.96c-5.78-5.85-12.87-8.8-21.02-9.35c-0.1-0.98-0.2-1.96-0.31-2.94
		c-0.05,0.01-0.1,0.01-0.16,0.02c0,25.63,0,51.26,0,76.89c1.81-4.14,1.66-8.61,2.27-13.22c1.77,4.19,2.68,8.49,5.33,11.97
		c0.16-0.04,0.31-0.08,0.47-0.13c-0.81-4.38-1.63-8.75-2.44-13.13c1.49,1.82,2.75,3.73,4.1,5.58c2.48,3.4,3.59,4.5,4.92,4.93
		c-0.18-0.55-0.32-1.04-0.5-1.52C54.43,78.38,53.42,75.83,52.42,73.28z M39.12,11.27c-0.03,0.4-0.07,0.8-0.1,1.2
		c-0.91,0.09-1.83,0.15-2.73,0.29c-7.74,1.14-14.38,4.44-19.53,10.38c-7.73,8.92-9.96,19.19-6.52,30.43
		c2.85,9.33,9.09,15.84,18.07,19.71c-1.18,3.01-2.36,6.02-3.54,9.03c0.14,0.08,0.28,0.15,0.42,0.23c3.62-2.98,5.92-7.03,8.69-11.11
		c-0.58,4.8-2.13,9.11-2.13,13.68c2.75-3.4,3.64-7.64,5.39-11.5c0.32,2.31,0.43,4.62,0.79,6.89c0.32,2.01,0.92,3.98,1.4,5.96
		c0.04,0.06,0.08,0.12,0.12,0.18c0.02-0.07,0.03-0.13,0.05-0.2c0.01-0.28,0.03-0.56,0.03-0.84c0-24.25,0-48.5,0-72.75
		c0-0.52-0.03-1.03-0.05-1.55c0-0.59,0-1.17,0-1.76c-0.12,0-0.24,0-0.36-0.01C39.12,10.1,39.12,10.68,39.12,11.27z M107.02,59.5
		c-1.43,4.05-2.85,8.05-4.27,12.06c-0.12-0.02-0.25-0.04-0.37-0.06c-1.33-4.02-2.67-8.05-3.98-11.99c-1.01,0-1.91,0-2.92,0
		c-0.74,6.19-1.49,12.4-2.23,18.62c0.86,0,1.59,0,2.26,0c0.3-3.92,0.6-7.77,0.9-11.62c0.33,0.15,0.42,0.31,0.48,0.49
		c1.21,3.46,2.41,6.92,3.61,10.38c0.17,0.5,0.28,0.94,1,0.92c0.7-0.01,0.96-0.29,1.16-0.91c0.68-2.13,1.39-4.24,2.13-6.34
		c0.54-1.53,1.14-3.03,1.71-4.54c0.09,0.02,0.19,0.04,0.28,0.06c0.31,3.87,0.62,7.74,0.93,11.59c1.38,0,2.67,0,3.93,0
		c-0.62-6.26-1.22-12.45-1.83-18.65c-0.55,0.03-0.98,0.09-1.41,0.08C107.94,59.58,107.47,59.53,107.02,59.5z M231.32,78.29
		c2.08,0,4.1,0,6.12,0c3.48,0,6.04-1.67,7.35-4.91c1.21-3,1.26-6.07,0.25-9.12c-1.04-3.14-3.6-4.87-6.93-4.86
		c-2.26,0.01-4.52,0-6.79,0C231.32,65.72,231.32,71.91,231.32,78.29z M134.26,69.14c0.32-0.14,0.53-0.23,0.74-0.33
		c1.98-0.97,2.98-3.09,2.61-5.54c-0.34-2.27-1.54-3.59-3.94-3.78c-2.39-0.19-4.81-0.04-7.17-0.04c0,6.35,0,12.54,0,18.71
		c1.32,0,2.57,0,3.8,0c0-2.74,0-5.4,0-8.07c1.43,2.44,2.66,4.93,3.93,7.4c0.15,0.29,0.49,0.66,0.75,0.68
		c1.33,0.07,2.67,0.03,4.03,0.03C137.41,75.14,135.84,72.16,134.26,69.14z M283.11,71.39c-0.07,0.03-0.14,0.06-0.21,0.09
		c-2.58-3.74-5.15-7.48-7.76-11.2c-0.23-0.33-0.66-0.67-1.04-0.74c-0.68-0.12-1.4-0.03-2.25-0.03c0,6.27,0,12.47,0,18.66
		c0.67,0,1.37,0,2.06,0c0-4.04,0-8.07,0-12.27c0.3,0.38,0.53,0.64,0.73,0.92c2.49,3.56,4.97,7.13,7.48,10.68
		c0.22,0.31,0.6,0.64,0.94,0.69c0.64,0.09,1.31-0.03,2.13-0.07c0-6.19,0-12.39,0-18.56c-0.68,0-1.39,0-2.09,0
		C283.11,63.47,283.11,67.43,283.11,71.39z M77.05,78.35c0.55-1.99,1.1-3.82,1.55-5.67c0.17-0.69,0.49-0.92,1.15-0.91
		c1.44,0.02,2.88,0.04,4.31,0.01c0.7-0.02,0.95,0.29,1.11,0.94c0.4,1.66,0.86,3.31,1.34,4.95c0.09,0.29,0.36,0.74,0.57,0.75
		c1.33,0.07,2.66,0.03,4.05,0.03c-2.43-7.65-4.81-15.15-7.19-22.62c-2.03-0.03-2.02-0.03-2.62,1.84c-1.45,4.51-2.9,9.02-4.37,13.53
		c-0.78,2.37-1.61,4.73-2.43,7.14C75.44,78.35,76.22,78.35,77.05,78.35z M214.18,78.14c0.61,0,1.31,0,2,0c0-4.09,0-8.19,0-12.55
		c2.83,4.06,5.5,7.93,8.21,11.77c0.24,0.34,0.63,0.7,1.01,0.78c0.64,0.13,1.33,0.04,2.12,0.04c0-6.23,0-12.45,0-18.67
		c-0.63,0.04-1.33,0.09-2.01,0.14c0,3.98,0,7.88,0,11.93c-0.29-0.32-0.5-0.51-0.65-0.74c-2.48-3.56-4.96-7.13-7.45-10.69
		c-0.2-0.28-0.54-0.62-0.85-0.65c-0.77-0.06-1.54,0.04-2.38,0.07C214.18,65.74,214.18,71.9,214.18,78.14z M180.37,59.47
		c0,6.32,0,12.51,0,18.68c0.62,0,1.32,0,2,0c0-4.1,0-8.19,0-12.55c2.83,4.07,5.51,7.93,8.22,11.78c0.24,0.34,0.64,0.69,1.01,0.77
		c0.64,0.13,1.33,0.03,2.11,0.03c0-6.24,0-12.46,0-18.66c-0.64,0.05-1.34,0.1-2.01,0.14c0,3.98,0,7.88,0,11.94
		c-0.3-0.34-0.5-0.53-0.66-0.76c-2.27-3.23-4.56-6.44-6.78-9.7c-0.68-1.01-1.19-2.05-2.71-1.57
		C181.24,59.67,180.85,59.52,180.37,59.47z M1.21,86.75c0,5.36,0,10.65,0,15.92c1.03,0,2.01,0,3,0c0-2.56,0-5.05,0-7.65
		c1.92,0,3.85,0,5.75,0c0,2.65,0,5.14,0,7.67c1.02,0,1.99,0,3,0c0-5.33,0-10.62,0-15.89c-1.05,0-2.05,0-3.01,0c0,2.14,0,4.18,0,6.23
		c-1.97,0-3.86,0-5.74,0c0-2.16,0-4.21,0-6.28C3.19,86.75,2.24,86.75,1.21,86.75z M261.34,59.29c-2.03,6.3-4.05,12.56-6.08,18.86
		c0.74,0,1.47,0,2.32,0c0.12-0.45,0.25-0.94,0.36-1.43c0.92-3.9,0.92-3.88,4.86-3.76c0.62,0.02,0.91,0.19,1.06,0.82
		c0.36,1.5,0.8,2.97,1.19,4.38c1.46,0,2.8,0,4.27,0c-1.97-6.33-3.92-12.6-5.88-18.87C262.77,59.29,262.11,59.29,261.34,59.29z
		 M169.85,59.32c-1.99,6.19-4,12.42-6.02,18.71c0.77,0.06,1.47,0.12,2.27,0.18c0.12-0.53,0.24-1.07,0.36-1.6
		c0.86-3.68,0.86-3.65,4.64-3.65c0.86,0,1.19,0.32,1.38,1.1c0.32,1.39,0.72,2.75,1.08,4.11c1.48,0,2.88,0,4.27,0
		c-1.71-5.54-3.41-11.01-5.08-16.49c-0.66-2.17-0.63-2.18-2.75-2.43C169.96,59.24,169.93,59.27,169.85,59.32z M278.26,98.2
		c-1.15-3.36-2.17-6.35-3.17-9.29c-0.78,0-1.48,0-2.16,0c-0.57,4.58-1.12,9.1-1.69,13.66c0.58,0,1.08,0,1.63,0
		c0.25-2.87,0.49-5.72,0.73-8.57c0.09-0.01,0.18-0.02,0.28-0.03c1.03,2.86,2.06,5.72,3.1,8.6c0.38,0,0.76,0,1.08,0
		c1.02-2.81,2.02-5.56,3.02-8.31c0.14,0.03,0.27,0.06,0.41,0.1c0.22,2.74,0.44,5.48,0.66,8.21c1.04,0,1.98,0,2.93,0
		c-0.46-4.59-0.92-9.12-1.38-13.66c-0.75,0-1.43,0-2.07,0C280.55,91.89,279.47,94.87,278.26,98.2z M162.3,74.4
		c-0.37,0.27-0.59,0.42-0.79,0.59c-3.13,2.75-6.74,1.77-8.07-2.2c-0.75-2.25-0.72-4.57-0.25-6.85c0.23-1.14,0.73-2.3,1.39-3.25
		c1.64-2.36,5.15-2.16,6.65,0.28c0.16,0.27,0.35,0.52,0.7,1.03c0.27-1.27,0.5-2.18,0.63-3.11c0.03-0.22-0.22-0.61-0.44-0.72
		c-3.88-1.88-9.66-1.61-12.16,3.52c-1.08,2.21-1.19,4.53-1.02,6.89c0.39,5.17,4.3,8.56,9.42,7.89
		C161.83,78.02,162.2,77.65,162.3,74.4z M114.72,78.15c2.93,0,5.78,0,8.65,0c0-0.8,0-1.61,0-2.44c-1.61,0.08-3.17,0.15-4.77,0.23
		c0-2.29,0-4.37,0-6.54c1.6,0,3.1,0,4.61,0c0-0.82,0-1.55,0-2.2c-1.58,0-3.08,0-4.62,0c0-1.8,0-3.57,0-5.33c1.67,0,3.24,0,4.8,0
		c0-0.8,0-1.6,0-2.35c-2.95,0-5.8,0-8.67,0C114.72,65.74,114.72,71.93,114.72,78.15z M41.3,94.34c-1.57,0-3.06,0-4.6,0
		c0-1.88,0-3.66,0-5.44c-0.99,0-1.93,0-2.85,0c0,4.6,0,9.16,0,13.67c0.98,0,1.88,0,2.87,0c0-2.15,0-4.28,0-6.46
		c1.58,0,3.06,0,4.61,0c0,2.22,0,4.35,0,6.46c1.02,0,1.96,0,2.92,0c0-4.57,0-9.11,0-13.66c-1.03,0-2,0-2.95,0
		C41.3,90.73,41.3,92.48,41.3,94.34z M78.47,102.69c1.46,0,2.85-0.04,4.23,0.01c2.94,0.1,5.18-1.33,6.14-3.99
		c0.72-2.01,0.75-4.06,0.11-6.1c-0.73-2.32-2.67-3.74-5.11-3.77c-1.78-0.02-3.56,0-5.38,0C78.47,93.47,78.47,97.99,78.47,102.69z
		 M195.68,95.26c-0.01-0.12-0.01-0.48-0.04-0.84c-0.36-3.27-2.4-5.49-5.35-5.83c-3.38-0.38-5.94,1.13-6.96,4.15
		c-0.6,1.78-0.66,3.6-0.21,5.41c0.87,3.51,3.76,5.32,7.33,4.61C193.73,102.12,195.68,99.42,195.68,95.26z M209.42,78.36
		c0-7.42,0-14.84,0-22.28c-1.38,0-2.72,0-4.08,0c0,7.44,0,14.82,0,22.28C206.73,78.36,208.04,78.36,209.42,78.36z M145.99,88.55
		c-3.05,0-5.35,1.63-6.02,4.6c-0.33,1.47-0.41,3.1-0.17,4.59c0.62,4.01,4.23,6.08,8.12,4.84c2.95-0.94,4.72-3.9,4.48-7.5
		C152.13,90.92,149.79,88.54,145.99,88.55z M231.93,95.31c-0.01-0.21-0.01-0.65-0.06-1.09c-0.31-3.1-2.47-5.35-5.39-5.64
		c-3.44-0.34-6.12,1.21-6.89,4.35c-0.39,1.61-0.48,3.43-0.18,5.05c0.73,3.92,4.26,5.8,8.07,4.58
		C230.32,101.66,231.91,99.14,231.93,95.31z M239.94,95.95c2.11-0.96,2.9-2.5,2.47-4.6c-0.35-1.68-1.63-2.53-3.81-2.52
		c-1.5,0.01-3.01,0-4.48,0c0,4.67,0,9.22,0,13.73c0.98,0,1.88,0,2.87,0c0-1.97,0-3.88,0-6.11c1.19,2.25,2.22,4.21,3.23,6.11
		c1.12,0,2.2,0,3.25,0C242.29,100.37,241.14,98.2,239.94,95.95z M60.69,95.94c1.98-0.88,2.83-2.33,2.53-4.19
		c-0.28-1.75-1.28-2.79-2.99-2.88c-1.82-0.09-3.64-0.02-5.42-0.02c0,4.67,0,9.2,0,13.72c0.96,0,1.89,0,2.87,0c0-1.99,0-3.93,0-6.2
		c1.22,2.29,2.27,4.28,3.3,6.21c1.11,0,2.16,0,3.22,0C63.03,100.34,61.86,98.14,60.69,95.94z M163.03,97.95
		c-1.95-2.72-3.8-5.11-5.43-7.65c-0.81-1.27-1.69-1.68-3.09-1.29c0,4.51,0,9.02,0,13.55c0.53,0,1.03,0,1.5,0c0-2.96,0-5.86,0-8.77
		c2.02,2.37,3.89,4.78,5.55,7.33c0.76,1.16,1.51,1.78,3.02,1.35c0-4.49,0-9.01,0-13.52c-0.52,0-1.05,0-1.56,0
		C163.03,91.88,163.03,94.73,163.03,97.95z M199.24,102.57c0-3.03,0-5.95,0-9.21c2.35,3.24,4.5,6.23,6.65,9.19c0.59,0,1.21,0,1.9,0
		c0-4.58,0-9.1,0-13.59c-0.52,0-1.05,0-1.57,0c0,2.93,0,5.79,0,8.94c-1.89-2.64-3.69-4.98-5.27-7.45c-0.8-1.26-1.66-1.86-3.22-1.46
		c0,4.49,0,9.01,0,13.58C198.19,102.57,198.68,102.57,199.24,102.57z M31.53,89.72c-3.19-1.82-6.91-1.41-9.03,0.92
		c-2.23,2.43-2.45,7.09-0.47,9.8c1.97,2.69,5.58,3.22,9.64,1.41c0-1.83,0-3.64,0-5.45c-0.97,0-1.87,0-2.78,0c0,1.6,0,3.17,0,4.76
		c-1.8,0.75-3.32,0.39-4.2-1.25c-1.44-2.71-1.5-5.54,0.05-8.22c1.3-2.24,4.17-2.24,5.67-0.14c0.14,0.19,0.28,0.38,0.5,0.68
		C31.14,91.31,31.33,90.54,31.53,89.72z M69.26,86.74c0,5.33,0,10.64,0,15.97c2.47,0,4.85,0,7.23,0c0-0.65,0-1.27,0-1.89
		c-1.44,0.09-2.82,0.18-4.26,0.27c0-2.05,0-3.99,0-6.01c1.43,0.07,2.81,0.14,4.2,0.21c0-0.69,0-1.3,0-1.87c-1.44,0-2.81,0-4.16,0
		c0-1.68,0-3.29,0-5c1.49,0.08,2.9,0.16,4.24,0.23c0-0.75,0-1.33,0-1.92C74.06,86.74,71.68,86.74,69.26,86.74z M267.88,88.92
		c0.03,0.37,0.08,0.6,0.07,0.83c-0.03,2.9,0.02,5.81-0.14,8.71c-0.09,1.67-1.29,2.71-2.68,2.68c-1.45-0.02-2.44-0.99-2.57-2.75
		c-0.13-1.9-0.11-3.81-0.14-5.72c-0.02-1.25,0-2.51,0-3.72c-0.96,0-1.93,0-2.78,0c0,3.06-0.03,6.05,0.01,9.03
		c0.02,1.78,0.45,3.43,2.19,4.34c3.49,1.83,7.32-0.1,7.6-3.99c0.22-3.11,0.04-6.26,0.04-9.41
		C269.17,88.92,268.59,88.92,267.88,88.92z M94.47,88.93c-1.07,0-2.04,0-2.92,0c0,1.61,0,3.15,0,4.7c0,1.59-0.05,3.19,0.04,4.78
		c0.1,1.85,0.74,3.43,2.67,4.13c3.78,1.38,6.94-0.65,7.16-4.65c0.1-1.83,0.08-3.66,0.14-5.49c0.04-1.17,0.11-2.34,0.17-3.45
		c-0.73,0-1.31,0-1.94,0c0.04,0.5,0.1,0.93,0.1,1.36c-0.03,2.67-0.04,5.33-0.15,8c-0.05,1.17-0.57,2.18-1.73,2.66
		c-1.65,0.69-3.42-0.42-3.51-2.41C94.37,95.38,94.47,92.2,94.47,88.93z M141.61,59.53c0,6.22,0,12.41,0,18.62c1.26,0,2.52,0,3.82,0
		c0-6.2,0-12.43,0-18.62C144.16,59.53,142.93,59.53,141.61,59.53z M249.04,59.53c0,6.23,0,12.42,0,18.62c1.27,0,2.53,0,3.82,0
		c0-6.21,0-12.43,0-18.62C251.58,59.53,250.35,59.53,249.04,59.53z M49.35,90.48c1.29,0.06,2.42,0.11,3.61,0.16
		c0-0.58,0-1.15,0-1.71c-2.2,0-4.37,0-6.58,0c0,4.57,0,9.12,0,13.64c2.2,0,4.36,0,6.54,0c0-0.6,0-1.18,0-1.78
		c-1.21,0.08-2.37,0.15-3.56,0.23c0-1.71,0-3.24,0-4.81c1.21,0,2.35,0,3.51,0c0-0.58,0-1.12,0-1.67c-1.22,0-2.38,0-3.53,0
		C49.35,93.18,49.35,91.91,49.35,90.48z M117.28,98.66c0.94,0,1.82,0.03,2.69-0.01c0.66-0.03,1.01,0.2,1.15,0.88
		c0.23,1.04,0.55,2.05,0.82,3.04c1.11,0,2.13,0,3.18,0c-1.49-4.65-2.96-9.26-4.41-13.8c-0.57,0-1.11,0-1.59,0
		c-1.53,4.61-3.03,9.16-4.56,13.79c0.63,0,1.16,0,1.68,0C116.59,101.26,116.93,100,117.28,98.66z M113.85,99.92
		c-0.45,0.33-0.81,0.61-1.19,0.87c-1.67,1.13-3.74,0.81-4.88-0.75c-1.56-2.13-1.49-6.75,0.12-8.83c1.26-1.63,3.7-1.65,4.97-0.03
		c0.2,0.26,0.38,0.53,0.67,0.93c0.2-0.99,0.36-1.75,0.52-2.55c-2.48-1.17-4.95-1.49-7.34-0.01c-2.47,1.53-3.2,4.01-3.07,6.72
		c0.22,4.76,3.58,7.41,8,6.46C113.42,102.34,113.68,102.02,113.85,99.92z M209.94,101.89c2.38,1.64,5.56,1.23,6.81-0.87
		c1.13-1.91,1.22-5.57-2.06-6.81c-0.52-0.19-0.99-0.52-1.47-0.8c-0.82-0.47-1.27-1.24-0.92-2.1c0.21-0.52,0.84-1.07,1.39-1.23
		c0.9-0.26,1.72,0.12,2.18,1.04c0.14,0.29,0.31,0.56,0.55,0.99c0.23-0.97,0.41-1.74,0.59-2.48c-2.36-1.64-5.27-1.23-6.41,0.88
		c-1.27,2.34-0.5,5.07,1.81,6.4c0.62,0.36,1.3,0.64,1.85,1.09c0.39,0.33,0.76,0.85,0.84,1.34c0.17,1.02-0.31,1.79-1.34,2.1
		c-1.01,0.31-2.22-0.23-2.74-1.21c-0.19-0.35-0.34-0.72-0.65-1.39C210.19,100.11,210.07,101.01,209.94,101.89z M246.79,90.54
		c0,4.08,0,8.05,0,12.03c1,0,1.94,0,3.02,0c0-4,0-7.99,0-12.04c1.03,0.05,1.93,0.09,2.81,0.13c0-0.66,0-1.2,0-1.73
		c-2.93,0-5.82,0-8.67,0c0,0.59,0,1.16,0,1.73C244.92,90.63,245.82,90.59,246.79,90.54z M127.29,90.52c0,4.09,0,8.06,0,12.05
		c0.98,0,1.92,0,2.93,0c0-4.01,0-7.98,0-12.04c0.98,0.05,1.88,0.09,2.83,0.14c0-0.62,0-1.19,0-1.73c-2.92,0-5.8,0-8.68,0
		c0,0.59,0,1.16,0,1.74C125.35,90.63,126.26,90.58,127.29,90.52z M42.51,5.74c0,1.48,0,2.93,0,4.4c0.82,0,1.56,0,2.24,0
		c0-3.16,0-6.25,0-9.31c-0.85,0-1.59,0-2.33,0c0,1.26,0,2.44,0,3.67c-1.46,0-2.87,0-4.37,0c0-1.25,0-2.43,0-3.52
		c-0.84,0-1.58,0-2.22,0c0,3.14,0,6.19,0,9.28c0.85,0,1.59,0,2.34,0c0-1.51,0-2.96,0-4.51C39.61,5.74,41.02,5.74,42.51,5.74z
		 M137.47,102.58c0-4.61,0-9.12,0-13.68c-0.97,0-1.91,0-2.89,0c0,4.58,0,9.13,0,13.68C135.56,102.58,136.46,102.58,137.47,102.58z
		 M254.14,88.91c0,4.58,0,9.13,0,13.66c1.02,0,1.95,0,2.84,0c0-4.61,0-9.15,0-13.66C255.98,88.91,255.07,88.91,254.14,88.91z
		 M15.77,88.9c0,4.63,0,9.14,0,13.67c1,0,1.94,0,2.86,0c0-4.6,0-9.14,0-13.67C17.64,88.9,16.74,88.9,15.77,88.9z M8.48,31.96
		c-0.68-0.73-1.33-1.42-1.97-2.1c1.26-2.98,1.26-2.98,4.27-2.77c0.07,0,0.14-0.05,0.23-0.09c0.33-0.66,0.67-1.33,1.04-2.07
		c-0.28-0.03-0.51-0.07-0.74-0.09c-2.82-0.19-5.65-0.33-8.47-0.59c-0.9-0.09-1.34,0.13-1.49,1.01c2.14,2.6,4.29,5.21,6.5,7.88
		C8.08,32.73,8.28,32.35,8.48,31.96z M61.93,10.99c0.59-0.86,1.12-1.64,1.67-2.44c0.92,0.65,1.76,1.25,2.68,1.89
		c0.22-0.36,0.4-0.67,0.58-0.97c-1.61-1.05-3.13-2.03-4.62-3c-1.73,2.66-3.41,5.25-5.11,7.87c1.52,0.99,3.06,1.98,4.59,2.97
		c0.02,0.01,0.06-0.03,0.16-0.07c0.15-0.24,0.33-0.53,0.51-0.82c-0.97-0.58-1.88-1.12-2.86-1.71c0.68-1.03,1.28-1.95,1.9-2.89
		c0.97,0.67,1.82,1.25,2.69,1.85c0.21-0.32,0.4-0.61,0.62-0.94C63.81,12.16,62.9,11.59,61.93,10.99z M81.4,29.19
		c-0.08-1.88-0.79-3.4-1.94-4.73c-1.59-1.85-3.91-2.23-6.17-1.03c-1.99,1.06-2.87,3.07-2.14,5.38c0.35,1.11,1.04,2.12,1.63,3.14
		c0.45,0.78,1.13,0.8,1.93,0.37c-2.24-1.5-2.95-3.17-2.15-4.92c0.78-1.7,3.46-3,5.27-2.41c0.67,0.22,1.49,0.7,1.76,1.28
		c0.44,0.93,0.48,2.04,0.71,3.17C80.51,29.41,80.95,29.3,81.4,29.19z M16.02,8.36c1.73,2.68,3.41,5.29,5.1,7.89
		c0.69-0.46,1.3-0.87,1.86-1.25c-1.72-2.66-3.39-5.25-5.08-7.86C17.28,7.54,16.69,7.93,16.02,8.36z"/>
	<path class="st1" d="M175.77,103.2c-0.07-0.08-0.14-0.21-0.22-0.23c-3.77-0.68-5.68-3.88-5.71-7.75c-0.01-1.06,0.15-2.15,0.41-3.19
		c1.26-5.03,6.45-7.18,11.11-4.56c-0.12,0.73-0.25,1.5-0.38,2.27c-0.1,0.1-0.21,0.2-0.31,0.3c-0.18-0.33-0.31-0.7-0.56-0.97
		c-1.58-1.72-3.91-1.65-5.41,0.15c-2.06,2.47-2.27,7.99-0.41,10.62c1.32,1.86,3.53,2.33,5.48,1.15c0.47-0.28,0.88-0.65,1.35-1
		c0.03,2.01-0.41,2.54-2.35,2.93c-0.36,0.07-0.72,0.18-1.07,0.28C177.05,103.2,176.41,103.2,175.77,103.2z"/>
	<path class="st1" d="M39.33,86.44c-0.48-1.99-1.07-3.95-1.4-5.96c-0.36-2.27-0.48-4.58-0.79-6.89c-1.75,3.87-2.64,8.11-5.39,11.5
		c0-4.57,1.55-8.88,2.13-13.68c-2.78,4.08-5.07,8.13-8.69,11.11c-0.14-0.08-0.28-0.15-0.42-0.23c1.18-3.01,2.36-6.02,3.54-9.03
		c0.26-0.62,0.51-1.23,0.77-1.85c0.34-0.82,0.68-1.63,1.02-2.45c0.2-0.48,0.4-0.96,0.6-1.44c0.64-1.8,1.35-3.57,1.92-5.39
		c0.94-2.97,1.64-6,1.44-9.15c-0.17-2.67-1.11-4.93-3.74-6.44c-2.21,3.6-0.63,6.62,1.33,9.96c-1.12-0.4-2.01-0.54-2.71-0.98
		c-2.51-1.58-2.85-4.34-3.62-6.89c-1.56,2.75-0.59,5.11,1.23,7.37c-2.87-0.36-4.99-2.64-5.43-5.95c-0.74-5.53,0.68-10.61,3.54-15.29
		c1.89-3.09,3.14-2.99,4.96,0.17c0.99,1.72,1.86,3.53,2.99,5.16c0.55,0.8,1.48,1.43,2.38,1.86c0.98,0.47,1.72,0.01,1.93-1.09
		c0.16-0.85,0.25-1.76,0.13-2.6c-0.41-2.8-0.93-5.58-1.41-8.36c-0.23-1.32-0.39-2.56,0.7-3.67c0.42-0.42,0.62-1.12,0.76-1.73
		c0.45-2.02,0.83-4.05,1.24-6.07c0.08-0.55,0.15-1.1,0.23-1.65c0.08-0.72,0.15-1.44,0.23-2.17c0.07-0.72,0.15-1.44,0.22-2.15
		c0.03-0.4,0.07-0.8,0.1-1.2c0.12,0.01,0.24,0.01,0.36,0.02c0.02,0.52,0.05,1.03,0.05,1.55c0,24.25,0,48.5,0,72.75
		c0,0.28-0.02,0.56-0.03,0.84C39.44,86.41,39.38,86.41,39.33,86.44z"/>
	<path class="st1" d="M52.42,73.28c1.01,2.55,2.02,5.11,3.02,7.67c0.19,0.47,0.32,0.97,0.5,1.52c-1.33-0.44-2.44-1.53-4.92-4.93
		c-1.35-1.85-2.61-3.77-4.1-5.58c0.81,4.38,1.63,8.75,2.44,13.13c-0.16,0.04-0.31,0.08-0.47,0.13c-2.65-3.48-3.56-7.78-5.33-11.97
		c-0.61,4.61-0.46,9.07-2.27,13.22c0-25.63,0-51.26,0-76.89c0.05-0.01,0.1-0.01,0.16-0.02c0.1,0.98,0.2,1.96,0.31,2.94
		c0.07,0.7,0.15,1.4,0.22,2.1c0.08,0.74,0.16,1.48,0.24,2.21c0.08,0.54,0.16,1.08,0.24,1.62c0.09,0.71,0.08,1.45,0.27,2.12
		c0.59,2.05,1.27,4.08,1.91,6.12c0.23,0.72,0.55,1.44,0.61,2.18c0.06,0.65-0.2,1.33-0.3,2c-0.44,2.95-0.96,5.89-1.25,8.85
		c-0.07,0.73,0.45,2.04,0.95,2.18c0.75,0.2,1.76-0.3,2.58-0.69c0.46-0.22,0.79-0.78,1.09-1.25c0.54-0.84,1.02-1.71,1.52-2.57
		c0.74-1.27,1.4-2.6,2.23-3.81c0.94-1.37,1.92-1.38,3.02-0.13c0.53,0.59,1.01,1.25,1.4,1.93c2.1,3.66,3.23,7.62,3.37,11.83
		c0.08,2.3-0.26,4.54-1.66,6.48c-1.02,1.41-2.57,2.29-3.89,2.23c2.19-2.81,2.58-5.73,0.98-7.3c-0.77,4.61-2.46,7.77-5.97,7.52
		c2.68-4.41,2.99-7.84,0.82-9.4c-2.16,1.3-3.18,3.3-3.37,5.73c-0.42,5.37,1.37,10.26,3.33,15.12c0.18,0.47,0.36,0.95,0.55,1.42
		c0.36,0.82,0.72,1.65,1.08,2.47C51.95,72.06,52.18,72.67,52.42,73.28z"/>
	<path class="st1" d="M107.02,59.5c0.45,0.03,0.92,0.09,1.39,0.09c0.43,0,0.86-0.05,1.41-0.08c0.61,6.2,1.22,12.39,1.83,18.65
		c-1.26,0-2.55,0-3.93,0c-0.31-3.85-0.62-7.72-0.93-11.59c-0.09-0.02-0.19-0.04-0.28-0.06c-0.57,1.51-1.17,3.02-1.71,4.54
		c-0.74,2.1-1.46,4.22-2.13,6.34c-0.2,0.62-0.46,0.9-1.16,0.91c-0.73,0.01-0.83-0.42-1-0.92c-1.19-3.46-2.4-6.92-3.61-10.38
		c-0.06-0.17-0.15-0.33-0.48-0.49c-0.3,3.85-0.6,7.7-0.9,11.62c-0.67,0-1.4,0-2.26,0c0.75-6.22,1.49-12.43,2.23-18.62
		c1,0,1.9,0,2.92,0c1.31,3.94,2.64,7.96,3.98,11.99c0.12,0.02,0.25,0.04,0.37,0.06C104.17,67.55,105.59,63.54,107.02,59.5z"/>
	<path class="st1" d="M39.02,12.46c-0.07,0.72-0.15,1.44-0.22,2.15c-0.52,0.01-1.04-0.03-1.55,0.04
		c-7.81,0.96-14.4,4.29-19.46,10.34c-6.19,7.41-8.39,15.95-6.32,25.36c2.2,9.98,8.26,16.94,17.61,21.07
		c-0.26,0.62-0.51,1.23-0.77,1.85c-8.98-3.87-15.21-10.38-18.07-19.71C6.8,42.32,9.02,32.05,16.76,23.13
		c5.15-5.94,11.79-9.24,19.53-10.38C37.19,12.62,38.11,12.56,39.02,12.46z"/>
	<path class="st1" d="M41.97,14.59c-0.07-0.7-0.15-1.4-0.22-2.1c8.15,0.55,15.24,3.51,21.02,9.35c6.29,6.36,9.51,14.04,9.15,22.96
		c-0.54,13.47-7.31,22.87-19.51,28.48c-0.23-0.61-0.47-1.21-0.7-1.82c0.35-0.18,0.7-0.38,1.06-0.55c4.24-1.96,7.91-4.7,10.73-8.41
		c7.19-9.49,8.71-19.9,3.73-30.7C62.35,21.21,53.7,15.48,41.97,14.59z"/>
	<path class="st1" d="M231.32,78.29c0-6.38,0-12.57,0-18.89c2.28,0,4.53,0.01,6.79,0c3.33-0.01,5.89,1.72,6.93,4.86
		c1.01,3.05,0.97,6.12-0.25,9.12c-1.31,3.25-3.87,4.92-7.35,4.91C235.42,78.29,233.4,78.29,231.32,78.29z M235.03,75.97
		c2.61,0.78,4.85-0.14,5.78-2.4c1.2-2.94,1.31-5.98,0.35-8.99c-0.73-2.32-2.42-3.34-4.85-3.22c-0.88,0.04-1.27,0.36-1.26,1.3
		c0.03,3.46,0,6.93-0.01,10.4C235.03,74.04,235.03,75.02,235.03,75.97z"/>
	<path class="st1" d="M134.26,69.14c1.59,3.02,3.15,6,4.76,9.06c-1.36,0-2.7,0.04-4.03-0.03c-0.27-0.01-0.61-0.39-0.75-0.68
		c-1.27-2.47-2.5-4.96-3.93-7.4c0,2.67,0,5.33,0,8.07c-1.23,0-2.48,0-3.8,0c0-6.18,0-12.37,0-18.71c2.36,0,4.78-0.15,7.17,0.04
		c2.4,0.19,3.6,1.51,3.94,3.78c0.37,2.44-0.63,4.57-2.61,5.54C134.79,68.91,134.58,69,134.26,69.14z M130.21,61.46
		c0,1.17,0,2.28,0,3.39c0,1.09,0,2.19,0,3.26c2.06,0.17,3.19-0.6,3.54-2.27C134.41,62.73,133.11,61.03,130.21,61.46z"/>
	<path class="st1" d="M283.11,71.39c0-3.96,0-7.91,0-11.85c0.7,0,1.41,0,2.09,0c0,6.17,0,12.37,0,18.56
		c-0.82,0.04-1.49,0.16-2.13,0.07c-0.34-0.05-0.73-0.38-0.94-0.69c-2.51-3.55-4.99-7.12-7.48-10.68c-0.2-0.28-0.43-0.54-0.73-0.92
		c0,4.2,0,8.23,0,12.27c-0.69,0-1.39,0-2.06,0c0-6.2,0-12.39,0-18.66c0.86,0,1.57-0.09,2.25,0.03c0.38,0.07,0.8,0.41,1.04,0.74
		c2.61,3.72,5.18,7.47,7.76,11.2C282.97,71.45,283.04,71.42,283.11,71.39z"/>
	<path class="st1" d="M77.05,78.35c-0.83,0-1.61,0-2.5,0c0.82-2.41,1.65-4.77,2.43-7.14c1.47-4.5,2.92-9.02,4.37-13.53
		c0.6-1.86,0.59-1.87,2.62-1.84c2.37,7.47,4.75,14.97,7.19,22.62c-1.39,0-2.73,0.03-4.05-0.03c-0.21-0.01-0.49-0.46-0.57-0.75
		c-0.48-1.64-0.95-3.29-1.34-4.95c-0.16-0.65-0.41-0.96-1.11-0.94c-1.44,0.03-2.88,0.01-4.31-0.01c-0.66-0.01-0.98,0.22-1.15,0.91
		C78.15,74.54,77.6,76.36,77.05,78.35z M82.15,62.58c-0.11,0-0.21,0-0.32-0.01c-0.75,2.36-1.5,4.73-2.27,7.17c1.64,0,3.1,0,4.72,0
		C83.54,67.25,82.85,64.91,82.15,62.58z"/>
	<path class="st1" d="M214.18,78.14c0-6.24,0-12.4,0-18.56c0.84-0.04,1.61-0.14,2.38-0.07c0.3,0.03,0.65,0.37,0.85,0.65
		c2.5,3.55,4.97,7.13,7.45,10.69c0.16,0.22,0.36,0.41,0.65,0.74c0-4.05,0-7.95,0-11.93c0.68-0.05,1.38-0.1,2.01-0.14
		c0,6.21,0,12.43,0,18.67c-0.79,0-1.47,0.09-2.12-0.04c-0.38-0.08-0.77-0.44-1.01-0.78c-2.71-3.84-5.38-7.71-8.21-11.77
		c0,4.36,0,8.45,0,12.55C215.49,78.14,214.79,78.14,214.18,78.14z"/>
	<path class="st1" d="M180.37,59.47c0.48,0.05,0.87,0.21,1.18,0.11c1.52-0.48,2.03,0.56,2.71,1.57c2.22,3.26,4.51,6.47,6.78,9.7
		c0.16,0.22,0.36,0.41,0.66,0.76c0-4.06,0-7.96,0-11.94c0.67-0.05,1.37-0.1,2.01-0.14c0,6.21,0,12.43,0,18.66
		c-0.78,0-1.46,0.09-2.11-0.03c-0.38-0.07-0.78-0.43-1.01-0.77c-2.71-3.84-5.38-7.71-8.22-11.78c0,4.36,0,8.45,0,12.55
		c-0.68,0-1.38,0-2,0C180.37,71.97,180.37,65.78,180.37,59.47z"/>
	<path class="st1" d="M1.21,86.75c1.03,0,1.98,0,3,0c0,2.06,0,4.11,0,6.28c1.88,0,3.77,0,5.74,0c0-2.05,0-4.1,0-6.23
		c0.95,0,1.96,0,3.01,0c0,5.27,0,10.56,0,15.89c-1.01,0-1.99,0-3,0c0-2.53,0-5.02,0-7.67c-1.9,0-3.82,0-5.75,0c0,2.6,0,5.1,0,7.65
		c-0.98,0-1.96,0-3,0C1.21,97.4,1.21,92.11,1.21,86.75z"/>
	<path class="st1" d="M261.34,59.29c0.76,0,1.43,0,2.11,0c1.95,6.27,3.9,12.54,5.88,18.87c-1.47,0-2.81,0-4.27,0
		c-0.39-1.41-0.84-2.88-1.19-4.38c-0.15-0.63-0.44-0.8-1.06-0.82c-3.94-0.12-3.94-0.14-4.86,3.76c-0.12,0.49-0.25,0.98-0.36,1.43
		c-0.84,0-1.58,0-2.32,0C257.29,71.85,259.31,65.59,261.34,59.29z M259.57,70.79c1.28,0,2.33,0,3.48,0
		c-0.53-1.79-1.03-3.48-1.53-5.17c-0.11,0-0.21,0-0.32-0.01C260.68,67.29,260.15,68.96,259.57,70.79z"/>
	<path class="st1" d="M169.85,59.32c0.08-0.04,0.12-0.08,0.15-0.08c2.12,0.25,2.09,0.26,2.75,2.43c1.67,5.48,3.37,10.95,5.08,16.49
		c-1.39,0-2.79,0-4.27,0c-0.36-1.35-0.76-2.72-1.08-4.11c-0.18-0.77-0.51-1.1-1.38-1.1c-3.78,0-3.78-0.03-4.64,3.65
		c-0.12,0.54-0.24,1.07-0.36,1.6c-0.8-0.06-1.5-0.12-2.27-0.18C165.84,71.74,167.85,65.51,169.85,59.32z M168.1,70.81
		c1.18,0,2.24,0,3.46,0c-0.55-1.89-1.07-3.67-1.67-5.74C169.24,67.12,168.69,68.89,168.1,70.81z"/>
	<path class="st1" d="M278.26,98.2c1.21-3.33,2.29-6.31,3.37-9.3c0.64,0,1.32,0,2.07,0c0.46,4.54,0.92,9.07,1.38,13.66
		c-0.94,0-1.88,0-2.93,0c-0.22-2.73-0.44-5.47-0.66-8.21c-0.14-0.03-0.27-0.06-0.41-0.1c-1,2.75-2,5.5-3.02,8.31
		c-0.33,0-0.71,0-1.08,0c-1.04-2.88-2.07-5.74-3.1-8.6c-0.09,0.01-0.18,0.02-0.28,0.03c-0.24,2.85-0.49,5.7-0.73,8.57
		c-0.55,0-1.05,0-1.63,0c0.56-4.56,1.12-9.08,1.69-13.66c0.68,0,1.38,0,2.16,0C276.09,91.85,277.11,94.84,278.26,98.2z"/>
	<path class="st1" d="M162.3,74.4c-0.1,3.25-0.46,3.63-3.94,4.08c-5.12,0.67-9.03-2.73-9.42-7.89c-0.18-2.36-0.06-4.67,1.02-6.89
		c2.49-5.13,8.28-5.39,12.16-3.52c0.22,0.11,0.47,0.5,0.44,0.72c-0.13,0.93-0.36,1.84-0.63,3.11c-0.35-0.51-0.53-0.77-0.7-1.03
		c-1.5-2.44-5.01-2.64-6.65-0.28c-0.66,0.95-1.16,2.12-1.39,3.25c-0.47,2.28-0.49,4.6,0.25,6.85c1.32,3.97,4.94,4.94,8.07,2.2
		C161.71,74.81,161.93,74.67,162.3,74.4z"/>
	<path class="st1" d="M114.72,78.15c0-6.22,0-12.41,0-18.63c2.87,0,5.72,0,8.67,0c0,0.75,0,1.55,0,2.35c-1.56,0-3.13,0-4.8,0
		c0,1.76,0,3.52,0,5.33c1.54,0,3.04,0,4.62,0c0,0.65,0,1.38,0,2.2c-1.51,0-3.01,0-4.61,0c0,2.17,0,4.25,0,6.54
		c1.6-0.08,3.16-0.15,4.77-0.23c0,0.83,0,1.63,0,2.44C120.5,78.15,117.65,78.15,114.72,78.15z"/>
	<path class="st1" d="M41.3,94.34c0-1.86,0-3.61,0-5.42c0.95,0,1.92,0,2.95,0c0,4.55,0,9.09,0,13.66c-0.97,0-1.91,0-2.92,0
		c0-2.11,0-4.24,0-6.46c-1.55,0-3.03,0-4.61,0c0,2.18,0,4.31,0,6.46c-0.98,0-1.89,0-2.87,0c0-4.51,0-9.07,0-13.67
		c0.92,0,1.86,0,2.85,0c0,1.78,0,3.55,0,5.44C38.24,94.34,39.73,94.34,41.3,94.34z"/>
	<path class="st1" d="M78.47,102.69c0-4.69,0-9.22,0-13.86c1.82,0,3.6-0.02,5.38,0c2.44,0.03,4.38,1.45,5.11,3.77
		c0.64,2.03,0.61,4.08-0.11,6.1c-0.96,2.66-3.2,4.08-6.14,3.99C81.31,102.65,79.93,102.69,78.47,102.69z M81.37,101.05
		c2.25,0.55,3.97-0.26,4.48-2.4c0.38-1.59,0.56-3.32,0.37-4.93c-0.33-2.8-1.94-3.79-4.85-3.32C81.37,93.93,81.37,97.45,81.37,101.05
		z"/>
	<path class="st1" d="M195.68,95.26c0,4.16-1.95,6.86-5.23,7.5c-3.56,0.7-6.46-1.1-7.33-4.61c-0.45-1.81-0.38-3.64,0.21-5.41
		c1.02-3.02,3.58-4.53,6.96-4.15c2.95,0.34,4.99,2.56,5.35,5.83C195.67,94.78,195.67,95.14,195.68,95.26z M192.94,95.87
		c-0.39-1.5-0.55-3-1.15-4.29c-0.98-2.09-3.71-2.26-4.82-0.29c-1.58,2.79-1.67,5.8-0.2,8.66c1.07,2.08,3.67,2.12,4.79,0.07
		C192.25,98.78,192.49,97.29,192.94,95.87z"/>
	<path class="st1" d="M209.42,78.36c-1.38,0-2.69,0-4.08,0c0-7.47,0-14.84,0-22.28c1.36,0,2.69,0,4.08,0
		C209.42,63.52,209.42,70.94,209.42,78.36z"/>
	<path class="st1" d="M145.99,88.55c3.81,0,6.14,2.37,6.41,6.53c0.24,3.6-1.54,6.56-4.48,7.5c-3.89,1.24-7.5-0.83-8.12-4.84
		c-0.23-1.49-0.16-3.12,0.17-4.59C140.64,90.18,142.94,88.55,145.99,88.55z M149.6,95.66c-0.3-1.28-0.48-2.55-0.9-3.73
		c-0.4-1.15-1.26-1.91-2.6-1.94c-1.39-0.04-2.28,0.69-2.77,1.88c-1.03,2.49-1.08,5.05-0.14,7.57c0.44,1.18,1.33,2,2.7,2.03
		c1.32,0.02,2.24-0.75,2.68-1.87C149.06,98.36,149.26,97.01,149.6,95.66z"/>
	<path class="st1" d="M231.93,95.31c-0.02,3.83-1.61,6.35-4.45,7.26c-3.82,1.22-7.34-0.66-8.07-4.58c-0.3-1.62-0.22-3.44,0.18-5.05
		c0.77-3.14,3.45-4.69,6.89-4.35c2.93,0.29,5.08,2.54,5.39,5.64C231.92,94.66,231.92,95.1,231.93,95.31z M221.89,95.83
		c0.32,1.34,0.51,2.6,0.95,3.78c0.41,1.09,1.29,1.82,2.54,1.86c1.25,0.04,2.15-0.63,2.66-1.7c1.25-2.65,1.29-5.38,0.14-8.07
		c-0.46-1.07-1.34-1.74-2.63-1.72c-1.28,0.02-2.18,0.66-2.58,1.77C222.48,93.08,222.23,94.48,221.89,95.83z"/>
	<path class="st1" d="M239.94,95.95c1.2,2.25,2.35,4.42,3.53,6.63c-1.04,0-2.12,0-3.25,0c-1.01-1.91-2.04-3.86-3.23-6.11
		c0,2.23,0,4.13,0,6.11c-0.99,0-1.89,0-2.87,0c0-4.51,0-9.06,0-13.73c1.47,0,2.98,0,4.48,0c2.18-0.01,3.46,0.83,3.81,2.52
		C242.84,93.45,242.05,94.98,239.94,95.95z M236.93,95.24c1.09,0.04,2-0.09,2.43-1.1c0.47-1.11,0.61-2.35-0.19-3.27
		c-0.44-0.5-1.4-0.54-2.23-0.83C236.93,91.97,236.93,93.56,236.93,95.24z"/>
	<path class="st1" d="M60.69,95.94c1.17,2.21,2.33,4.41,3.52,6.65c-1.06,0-2.11,0-3.22,0c-1.03-1.93-2.08-3.92-3.3-6.21
		c0,2.27,0,4.2,0,6.2c-0.98,0-1.91,0-2.87,0c0-4.52,0-9.05,0-13.72c1.78,0,3.6-0.07,5.42,0.02c1.71,0.08,2.71,1.13,2.99,2.88
		C63.52,93.6,62.67,95.05,60.69,95.94z M57.65,89.9c0,2.03,0,3.64,0,5.29c1.01,0.15,1.9,0.01,2.4-0.92c0.57-1.07,0.7-2.32-0.04-3.28
		C59.58,90.44,58.59,90.31,57.65,89.9z"/>
	<path class="st1" d="M163.03,97.95c0-3.22,0-6.07,0-9c0.51,0,1.04,0,1.56,0c0,4.5,0,9.03,0,13.52c-1.5,0.43-2.26-0.19-3.02-1.35
		c-1.66-2.55-3.53-4.96-5.55-7.33c0,2.91,0,5.81,0,8.77c-0.48,0-0.97,0-1.5,0c0-4.53,0-9.04,0-13.55c1.4-0.39,2.28,0.02,3.09,1.29
		C159.23,92.84,161.08,95.23,163.03,97.95z"/>
	<path class="st1" d="M199.24,102.57c-0.56,0-1.05,0-1.52,0c0-4.56,0-9.08,0-13.58c1.57-0.4,2.42,0.2,3.22,1.46
		c1.58,2.48,3.38,4.81,5.27,7.45c0-3.15,0-6.01,0-8.94c0.52,0,1.05,0,1.57,0c0,4.49,0,9.01,0,13.59c-0.69,0-1.31,0-1.9,0
		c-2.15-2.97-4.3-5.95-6.65-9.19C199.24,96.62,199.24,99.54,199.24,102.57z"/>
	<path class="st1" d="M31.53,89.72c-0.2,0.82-0.39,1.58-0.62,2.51c-0.22-0.3-0.36-0.49-0.5-0.68c-1.5-2.1-4.37-2.1-5.67,0.14
		c-1.55,2.67-1.49,5.51-0.05,8.22c0.88,1.65,2.4,2,4.2,1.25c0-1.58,0-3.16,0-4.76c0.91,0,1.81,0,2.78,0c0,1.81,0,3.63,0,5.45
		c-4.06,1.8-7.67,1.28-9.64-1.41c-1.98-2.71-1.75-7.37,0.47-9.8C24.63,88.31,28.35,87.9,31.53,89.72z"/>
	<path class="st1" d="M69.26,86.74c2.42,0,4.8,0,7.25,0c0,0.59,0,1.17,0,1.92c-1.34-0.07-2.75-0.15-4.24-0.23c0,1.7,0,3.32,0,5
		c1.36,0,2.73,0,4.16,0c0,0.57,0,1.18,0,1.87c-1.39-0.07-2.77-0.14-4.2-0.21c0,2.02,0,3.96,0,6.01c1.44-0.09,2.82-0.18,4.26-0.27
		c0,0.62,0,1.24,0,1.89c-2.38,0-4.77,0-7.23,0C69.26,97.38,69.26,92.07,69.26,86.74z"/>
	<path class="st1" d="M267.88,88.92c0.7,0,1.28,0,1.62,0c0,3.16,0.18,6.3-0.04,9.41c-0.28,3.89-4.11,5.82-7.6,3.99
		c-1.74-0.91-2.17-2.56-2.19-4.34c-0.04-2.98-0.01-5.97-0.01-9.03c0.84,0,1.81,0,2.78,0c0,1.22-0.01,2.47,0,3.72
		c0.03,1.91,0.01,3.82,0.14,5.72c0.12,1.76,1.12,2.73,2.57,2.75c1.38,0.02,2.59-1.02,2.68-2.68c0.15-2.9,0.11-5.81,0.14-8.71
		C267.96,89.52,267.92,89.28,267.88,88.92z"/>
	<path class="st1" d="M94.47,88.93c0,3.27-0.1,6.45,0.04,9.62c0.09,1.99,1.86,3.1,3.51,2.41c1.16-0.48,1.68-1.5,1.73-2.66
		c0.11-2.66,0.11-5.33,0.15-8c0.01-0.43-0.06-0.86-0.1-1.36c0.63,0,1.21,0,1.94,0c-0.06,1.12-0.13,2.29-0.17,3.45
		c-0.06,1.83-0.04,3.67-0.14,5.49c-0.22,4-3.38,6.03-7.16,4.65c-1.93-0.7-2.57-2.28-2.67-4.13c-0.09-1.59-0.03-3.19-0.04-4.78
		c0-1.54,0-3.09,0-4.7C92.43,88.93,93.4,88.93,94.47,88.93z"/>
	<path class="st1" d="M141.61,59.53c1.32,0,2.55,0,3.82,0c0,6.19,0,12.42,0,18.62c-1.3,0-2.56,0-3.82,0
		C141.61,71.95,141.61,65.75,141.61,59.53z"/>
	<path class="st1" d="M249.04,59.53c1.31,0,2.54,0,3.82,0c0,6.19,0,12.41,0,18.62c-1.29,0-2.55,0-3.82,0
		C249.04,71.96,249.04,65.76,249.04,59.53z"/>
	<path class="st1" d="M49.35,90.48c0,1.44,0,2.7,0,4.05c1.14,0,2.31,0,3.53,0c0,0.56,0,1.09,0,1.67c-1.16,0-2.3,0-3.51,0
		c0,1.57,0,3.1,0,4.81c1.19-0.08,2.35-0.15,3.56-0.23c0,0.6,0,1.18,0,1.78c-2.18,0-4.35,0-6.54,0c0-4.52,0-9.07,0-13.64
		c2.21,0,4.38,0,6.58,0c0,0.56,0,1.13,0,1.71C51.78,90.59,50.64,90.53,49.35,90.48z"/>
	<path class="st1" d="M117.28,98.66c-0.35,1.34-0.68,2.6-1.03,3.9c-0.52,0-1.05,0-1.68,0c1.53-4.63,3.04-9.18,4.56-13.79
		c0.48,0,1.02,0,1.59,0c1.45,4.55,2.92,9.15,4.41,13.8c-1.05,0-2.07,0-3.18,0c-0.27-0.99-0.6-2.01-0.82-3.04
		c-0.15-0.68-0.49-0.91-1.15-0.88C119.1,98.68,118.22,98.66,117.28,98.66z M120.46,97.19c-0.43-1.4-0.83-2.7-1.33-4.32
		c-0.53,1.68-0.94,2.97-1.36,4.32C118.71,97.19,119.53,97.19,120.46,97.19z"/>
	<path class="st1" d="M113.85,99.92c-0.17,2.1-0.43,2.42-2.2,2.8c-4.42,0.95-7.77-1.7-8-6.46c-0.13-2.71,0.6-5.19,3.07-6.72
		c2.39-1.48,4.86-1.16,7.34,0.01c-0.16,0.8-0.32,1.56-0.52,2.55c-0.29-0.4-0.47-0.68-0.67-0.93c-1.27-1.61-3.7-1.6-4.97,0.03
		c-1.62,2.08-1.68,6.7-0.12,8.83c1.14,1.56,3.21,1.89,4.88,0.75C113.04,100.53,113.4,100.25,113.85,99.92z"/>
	<path class="st1" d="M209.94,101.89c0.12-0.88,0.24-1.77,0.42-3.04c0.31,0.67,0.46,1.04,0.65,1.39c0.53,0.97,1.73,1.52,2.74,1.21
		c1.03-0.31,1.51-1.09,1.34-2.1c-0.08-0.48-0.45-1.01-0.84-1.34c-0.54-0.45-1.23-0.73-1.85-1.09c-2.3-1.34-3.07-4.06-1.81-6.4
		c1.14-2.11,4.04-2.52,6.41-0.88c-0.18,0.74-0.36,1.51-0.59,2.48c-0.24-0.43-0.41-0.7-0.55-0.99c-0.46-0.92-1.28-1.3-2.18-1.04
		c-0.55,0.16-1.18,0.7-1.39,1.23c-0.35,0.86,0.11,1.62,0.92,2.1c0.48,0.28,0.95,0.6,1.47,0.8c3.27,1.23,3.19,4.9,2.06,6.81
		C215.5,103.12,212.33,103.53,209.94,101.89z"/>
	<path class="st1" d="M246.79,90.54c-0.97,0.04-1.87,0.09-2.85,0.13c0-0.57,0-1.14,0-1.73c2.85,0,5.74,0,8.67,0
		c0,0.52,0,1.06,0,1.73c-0.88-0.04-1.77-0.08-2.81-0.13c0,4.05,0,8.03,0,12.04c-1.08,0-2.01,0-3.02,0
		C246.79,98.59,246.79,94.62,246.79,90.54z"/>
	<path class="st1" d="M127.29,90.52c-1.03,0.06-1.94,0.11-2.92,0.16c0-0.58,0-1.15,0-1.74c2.88,0,5.76,0,8.68,0
		c0,0.55,0,1.12,0,1.73c-0.95-0.05-1.85-0.09-2.83-0.14c0,4.06,0,8.03,0,12.04c-1.01,0-1.94,0-2.93,0
		C127.29,98.58,127.29,94.62,127.29,90.52z"/>
	<path class="st1" d="M42.51,5.74c-1.49,0-2.9,0-4.34,0c0,1.55,0,3,0,4.51c-0.75,0-1.49,0-2.34,0c0-3.08,0-6.14,0-9.28
		c0.64,0,1.38,0,2.22,0c0,1.09,0,2.27,0,3.52c1.5,0,2.91,0,4.37,0c0-1.23,0-2.41,0-3.67c0.74,0,1.48,0,2.33,0c0,3.06,0,6.15,0,9.31
		c-0.69,0-1.42,0-2.24,0C42.51,8.68,42.51,7.22,42.51,5.74z"/>
	<path class="st1" d="M137.47,102.58c-1.01,0-1.92,0-2.89,0c0-4.55,0-9.1,0-13.68c0.98,0,1.91,0,2.89,0
		C137.47,93.46,137.47,97.97,137.47,102.58z"/>
	<path class="st1" d="M254.14,88.91c0.94,0,1.84,0,2.84,0c0,4.51,0,9.05,0,13.66c-0.89,0-1.83,0-2.84,0
		C254.14,98.04,254.14,93.49,254.14,88.91z"/>
	<path class="st1" d="M15.77,88.9c0.97,0,1.88,0,2.86,0c0,4.53,0,9.08,0,13.67c-0.93,0-1.86,0-2.86,0
		C15.77,98.04,15.77,93.53,15.77,88.9z"/>
	<path class="st1" d="M8.48,31.96c-0.2,0.38-0.4,0.76-0.63,1.19c-2.2-2.68-4.35-5.28-6.5-7.88c0.15-0.87,0.59-1.09,1.49-1.01
		c2.82,0.27,5.64,0.4,8.47,0.59c0.23,0.02,0.46,0.05,0.74,0.09c-0.37,0.73-0.71,1.4-1.04,2.07c-0.09,0.03-0.16,0.09-0.23,0.09
		c-3.01-0.21-3.01-0.21-4.27,2.77C7.15,30.54,7.8,31.23,8.48,31.96z M3.83,26.67c0.7,0.82,1.36,1.58,2.09,2.44
		c0.4-0.82,0.76-1.53,1.2-2.44C5.92,26.67,4.93,26.67,3.83,26.67z"/>
	<path class="st1" d="M61.93,10.99c0.97,0.61,1.88,1.17,2.8,1.75c-0.22,0.33-0.41,0.62-0.62,0.94c-0.87-0.6-1.72-1.18-2.69-1.85
		c-0.62,0.94-1.22,1.86-1.9,2.89c0.98,0.59,1.89,1.13,2.86,1.71c-0.18,0.29-0.36,0.58-0.51,0.82c-0.1,0.05-0.14,0.08-0.16,0.07
		c-1.54-0.99-3.07-1.99-4.59-2.97c1.7-2.62,3.38-5.21,5.11-7.87c1.49,0.97,3.01,1.96,4.62,3c-0.18,0.29-0.36,0.6-0.58,0.97
		C65.37,9.8,64.52,9.2,63.6,8.55C63.05,9.35,62.52,10.13,61.93,10.99z"/>
	<path class="st1" d="M81.4,29.19c-0.45,0.11-0.89,0.22-1.1,0.27c-0.23-1.13-0.27-2.25-0.71-3.17c-0.28-0.58-1.09-1.07-1.76-1.28
		c-1.8-0.59-4.49,0.71-5.27,2.41c-0.8,1.74-0.08,3.42,2.15,4.92c-0.8,0.42-1.47,0.4-1.93-0.37c-0.6-1.02-1.28-2.03-1.63-3.14
		c-0.74-2.31,0.14-4.32,2.14-5.38c2.26-1.2,4.58-0.82,6.17,1.03C80.61,25.79,81.32,27.3,81.4,29.19z"/>
	<path class="st1" d="M16.02,8.36c0.67-0.43,1.26-0.82,1.88-1.22c1.69,2.61,3.36,5.2,5.08,7.86c-0.56,0.37-1.17,0.78-1.86,1.25
		C19.43,13.65,17.75,11.04,16.02,8.36z"/>
	<path class="st1" d="M39.48,11.28c-0.12-0.01-0.24-0.01-0.36-0.02c0-0.58,0-1.16,0-1.75c0.12,0,0.24,0,0.36,0.01
		C39.48,10.11,39.48,10.7,39.48,11.28z"/>
	<path class="st1" d="M39.33,86.44c0.05-0.03,0.11-0.03,0.17-0.02c-0.02,0.07-0.03,0.13-0.05,0.2
		C39.41,86.56,39.37,86.5,39.33,86.44z"/>
	<path class="st0" d="M38.33,18.44c-0.41,2.03-0.78,4.06-1.24,6.07c-0.14,0.61-0.34,1.31-0.76,1.73c-1.09,1.11-0.93,2.36-0.7,3.67
		c0.49,2.78,1,5.56,1.41,8.36c0.12,0.85,0.04,1.75-0.13,2.6c-0.21,1.1-0.95,1.56-1.93,1.09c-0.89-0.43-1.83-1.06-2.38-1.86
		c-1.13-1.63-2-3.44-2.99-5.16c-1.82-3.16-3.07-3.26-4.96-0.17c-2.86,4.68-4.28,9.76-3.54,15.29c0.44,3.31,2.55,5.59,5.43,5.95
		c-1.82-2.26-2.79-4.62-1.23-7.37c0.76,2.55,1.11,5.31,3.62,6.89c0.7,0.44,1.59,0.59,2.71,0.98c-1.96-3.34-3.54-6.36-1.33-9.96
		c2.63,1.51,3.57,3.77,3.74,6.44c0.2,3.15-0.5,6.18-1.44,9.15c-0.57,1.82-1.28,3.6-1.92,5.39c-3.96-1.53-7.26-3.98-9.96-7.22
		c-4.8-5.76-6.73-12.43-5.77-19.82c0.88-6.77,4.1-12.35,9.46-16.62C28.48,20.64,33.11,18.76,38.33,18.44z"/>
	<path class="st0" d="M29.07,71.42c-9.35-4.12-15.42-11.08-17.61-21.07C9.39,40.95,11.58,32.4,17.78,25
		c5.06-6.05,11.65-9.38,19.46-10.34c0.51-0.06,1.04-0.03,1.55-0.04c-0.08,0.72-0.15,1.44-0.23,2.17c-1.76,0.31-3.57,0.47-5.29,0.95
		c-13.94,3.9-22.3,17.13-19.55,31.31c1.84,9.47,7.45,16.12,16.36,19.93C29.75,69.79,29.41,70.61,29.07,71.42z"/>
	<path class="st1" d="M30.09,68.97c-8.91-3.81-14.52-10.46-16.36-19.93c-2.75-14.18,5.62-27.4,19.55-31.31
		c1.72-0.48,3.52-0.64,5.29-0.95c-0.08,0.55-0.15,1.1-0.23,1.65c-5.23,0.32-9.85,2.2-13.92,5.44c-5.36,4.27-8.58,9.85-9.46,16.62
		c-0.96,7.39,0.97,14.06,5.77,19.82c2.7,3.24,6.01,5.69,9.96,7.22C30.48,68.02,30.29,68.49,30.09,68.97z"/>
	<path class="st0" d="M50.09,67.57c-1.95-4.86-3.74-9.75-3.33-15.12c0.19-2.43,1.21-4.43,3.37-5.73c2.17,1.56,1.86,4.99-0.82,9.4
		c3.51,0.25,5.2-2.91,5.97-7.52c1.6,1.57,1.2,4.49-0.98,7.3c1.31,0.07,2.87-0.82,3.89-2.23c1.4-1.94,1.74-4.18,1.66-6.48
		c-0.15-4.21-1.27-8.17-3.37-11.83c-0.39-0.69-0.87-1.34-1.4-1.93c-1.1-1.25-2.08-1.24-3.02,0.13c-0.83,1.21-1.49,2.54-2.23,3.81
		c-0.5,0.86-0.98,1.74-1.52,2.57c-0.3,0.46-0.63,1.03-1.09,1.25c-0.81,0.39-1.82,0.89-2.58,0.69c-0.5-0.13-1.02-1.45-0.95-2.18
		c0.3-2.96,0.81-5.9,1.25-8.85c0.1-0.67,0.35-1.35,0.3-2c-0.06-0.74-0.39-1.46-0.61-2.18c-0.64-2.04-1.31-4.07-1.91-6.12
		c-0.2-0.68-0.19-1.41-0.27-2.12c6.68,0.49,12.31,3.25,16.78,8.14c5.41,5.92,7.68,12.98,6.48,20.94
		C64.26,57.05,58.89,63.67,50.09,67.57z"/>
	<path class="st0" d="M41.97,14.59c11.73,0.89,20.38,6.62,25.27,17.21c4.98,10.8,3.46,21.22-3.73,30.7
		c-2.82,3.71-6.48,6.45-10.73,8.41c-0.36,0.17-0.71,0.36-1.06,0.55c-0.36-0.82-0.72-1.65-1.09-2.47
		c10.77-4.27,17.91-15.56,16.8-27.4c-0.62-6.63-3.25-12.28-7.94-16.95c-4.77-4.75-10.6-7.25-17.28-7.83
		C42.13,16.06,42.05,15.33,41.97,14.59z"/>
	<path class="st1" d="M42.21,16.8c6.68,0.58,12.51,3.09,17.28,7.83c4.69,4.67,7.32,10.32,7.94,16.95
		c1.11,11.85-6.03,23.13-16.8,27.4c-0.18-0.47-0.36-0.95-0.55-1.42c8.8-3.89,14.17-10.52,15.62-20.06
		c1.2-7.96-1.07-15.02-6.48-20.94c-4.47-4.89-10.1-7.66-16.78-8.14C42.37,17.89,42.29,17.34,42.21,16.8z"/>
	<path class="st0" d="M235.03,75.97c0-0.94,0-1.93,0-2.92c0.01-3.47,0.05-6.93,0.01-10.4c-0.01-0.95,0.38-1.26,1.26-1.3
		c2.43-0.12,4.12,0.9,4.85,3.22c0.95,3.02,0.85,6.06-0.35,8.99C239.88,75.82,237.64,76.74,235.03,75.97z"/>
	<path class="st0" d="M130.21,61.46c2.9-0.44,4.2,1.27,3.54,4.37c-0.36,1.67-1.48,2.45-3.54,2.27c0-1.07,0-2.16,0-3.26
		C130.21,63.74,130.21,62.63,130.21,61.46z"/>
	<path class="st0" d="M82.15,62.58c0.69,2.34,1.39,4.67,2.13,7.16c-1.62,0-3.09,0-4.72,0c0.77-2.44,1.52-4.81,2.27-7.17
		C81.94,62.57,82.05,62.57,82.15,62.58z"/>
	<path class="st0" d="M259.57,70.79c0.58-1.83,1.1-3.5,1.63-5.17c0.11,0,0.21,0,0.32,0.01c0.5,1.69,1,3.37,1.53,5.17
		C261.9,70.79,260.85,70.79,259.57,70.79z"/>
	<path class="st0" d="M168.1,70.81c0.6-1.92,1.15-3.69,1.79-5.74c0.6,2.07,1.12,3.85,1.67,5.74
		C170.33,70.81,169.28,70.81,168.1,70.81z"/>
	<path class="st0" d="M81.37,101.05c0-3.6,0-7.13,0-10.64c2.9-0.47,4.52,0.52,4.85,3.32c0.19,1.61,0.01,3.34-0.37,4.93
		C85.34,100.79,83.62,101.6,81.37,101.05z"/>
	<path class="st0" d="M192.94,95.87c-0.45,1.42-0.69,2.91-1.38,4.16c-1.12,2.05-3.72,2.01-4.79-0.07c-1.48-2.87-1.38-5.87,0.2-8.66
		c1.11-1.97,3.84-1.8,4.82,0.29C192.4,92.87,192.56,94.36,192.94,95.87z"/>
	<path class="st0" d="M149.6,95.66c-0.34,1.34-0.54,2.69-1.03,3.93c-0.44,1.12-1.35,1.9-2.68,1.87c-1.37-0.02-2.25-0.84-2.7-2.03
		c-0.95-2.52-0.9-5.08,0.14-7.57c0.49-1.19,1.38-1.92,2.77-1.88c1.34,0.04,2.19,0.79,2.6,1.94C149.12,93.12,149.3,94.38,149.6,95.66
		z"/>
	<path class="st0" d="M221.89,95.83c0.34-1.35,0.6-2.76,1.08-4.08c0.4-1.11,1.31-1.75,2.58-1.77c1.29-0.02,2.17,0.65,2.63,1.72
		c1.15,2.69,1.12,5.42-0.14,8.07c-0.51,1.07-1.4,1.74-2.66,1.7c-1.25-0.04-2.14-0.77-2.54-1.86
		C222.4,98.44,222.21,97.17,221.89,95.83z"/>
	<path class="st0" d="M236.93,95.24c0-1.68,0-3.26,0-5.2c0.83,0.28,1.8,0.33,2.23,0.83c0.8,0.92,0.67,2.17,0.19,3.27
		C238.93,95.14,238.02,95.28,236.93,95.24z"/>
	<path class="st0" d="M57.65,89.9c0.94,0.41,1.93,0.54,2.36,1.1c0.74,0.95,0.61,2.2,0.04,3.28c-0.5,0.93-1.39,1.07-2.4,0.92
		C57.65,93.54,57.65,91.93,57.65,89.9z"/>
	<path class="st0" d="M120.46,97.19c-0.93,0-1.75,0-2.7,0c0.42-1.35,0.83-2.64,1.36-4.32C119.63,94.49,120.03,95.79,120.46,97.19z"
		/>
	<path class="st0" d="M3.83,26.67c1.1,0,2.09,0,3.29,0c-0.45,0.91-0.8,1.62-1.2,2.44C5.19,28.25,4.53,27.49,3.83,26.67z"/>
</g>
</svg>
