<svg xmlns="http://www.w3.org/2000/svg" width="214.97" height="55.043" viewBox="0 0 214.97 55.043">
  <g id="Group_78" data-name="Group 78" transform="translate(0 0)">
    <path id="Path_524" data-name="Path 524" d="M73,13.634a1.862,1.862,0,0,1,.141-.744,1.363,1.363,0,0,1,.387-.5,1.488,1.488,0,0,1,.58-.268,3.332,3.332,0,0,1,1.4,0,1.484,1.484,0,0,1,.573.268,1.345,1.345,0,0,1,.394.506,1.8,1.8,0,0,1,.141.744,1.849,1.849,0,0,1-.141.744,1.375,1.375,0,0,1-.394.513,1.484,1.484,0,0,1-.573.268,3.022,3.022,0,0,1-1.4,0,1.488,1.488,0,0,1-.58-.268,1.362,1.362,0,0,1-.387-.513A1.846,1.846,0,0,1,73,13.634Zm3.466,15.33H73.141V16.788h3.325Z" transform="translate(-18.7 -3.087)" fill="rgba(0,0,0,0.7)"/>
    <path id="Path_525" data-name="Path 525" d="M92.35,30.517H89V23.406a3.873,3.873,0,0,0-.372-1.979,1.376,1.376,0,0,0-1.272-.662,2.112,2.112,0,0,0-1.086.26,1.871,1.871,0,0,0-.692.744,4.123,4.123,0,0,0-.364,1.257,11.956,11.956,0,0,0-.112,1.726V30.48H81.75V18.34h2.544L84.74,19.9h.171a3.081,3.081,0,0,1,.632-.8,3.588,3.588,0,0,1,.855-.558,3.826,3.826,0,0,1,.945-.32,4.71,4.71,0,0,1,1.026-.1,4.862,4.862,0,0,1,1.622.253,3.147,3.147,0,0,1,1.257.8,3.586,3.586,0,0,1,.8,1.391,6.218,6.218,0,0,1,.3,2.016Z" transform="translate(-20.942 -4.639)" fill="rgba(0,0,0,0.7)"/>
    <path id="Path_526" data-name="Path 526" d="M104.887,30.753a7.3,7.3,0,0,1-2.358-.364,4.534,4.534,0,0,1-1.8-1.116,4.9,4.9,0,0,1-1.138-1.941,8.813,8.813,0,0,1-.4-2.827,9.859,9.859,0,0,1,.409-3.042,4.964,4.964,0,0,1,1.153-1.934,4.346,4.346,0,0,1,1.8-1.056,8.185,8.185,0,0,1,2.336-.312,7.6,7.6,0,0,1,1.867.231,7.973,7.973,0,0,1,1.741.64l-.96,2.529a10.95,10.95,0,0,0-1.384-.521,4.366,4.366,0,0,0-1.265-.2,1.867,1.867,0,0,0-1.748.922,5.5,5.5,0,0,0-.55,2.76,5.208,5.208,0,0,0,.55,2.7,1.851,1.851,0,0,0,1.711.878,5.626,5.626,0,0,0,1.718-.245,11.782,11.782,0,0,0,1.577-.632v2.722c-.268.126-.528.245-.744.35a7.633,7.633,0,0,1-.744.245,5.653,5.653,0,0,1-.811.149A8.627,8.627,0,0,1,104.887,30.753Z" transform="translate(-25.408 -4.652)" fill="rgba(0,0,0,0.7)"/>
    <path id="Path_527" data-name="Path 527" d="M117.855,28.952H114.53V12h3.325Z" transform="translate(-29.339 -3.074)" fill="rgba(0,0,0,0.7)"/>
    <path id="Path_528" data-name="Path 528" d="M131.05,30.6l-.446-1.555h-.156a3.288,3.288,0,0,1-.647.8,3.576,3.576,0,0,1-.826.55,4.169,4.169,0,0,1-.945.327,5.23,5.23,0,0,1-1.026.1,4.847,4.847,0,0,1-1.622-.26,3.147,3.147,0,0,1-1.257-.8,3.5,3.5,0,0,1-.8-1.384,6.192,6.192,0,0,1-.283-2.016V18.42h3.317v7.126a3.875,3.875,0,0,0,.4,1.979,1.361,1.361,0,0,0,1.265.662,2.053,2.053,0,0,0,1.093-.268,1.812,1.812,0,0,0,.692-.744,4.19,4.19,0,0,0,.364-1.265,11.746,11.746,0,0,0,.112-1.718V18.465H133.6V30.6Z" transform="translate(-31.518 -4.719)" fill="rgba(0,0,0,0.7)"/>
    <path id="Path_529" data-name="Path 529" d="M149.462,26.892a3.852,3.852,0,0,1-.35,1.681,3.278,3.278,0,0,1-.989,1.2,4.459,4.459,0,0,1-1.562.744,7.934,7.934,0,0,1-2.046.245q-.6,0-1.116-.045a9.376,9.376,0,0,1-.967-.119,8.239,8.239,0,0,1-.885-.223,6.254,6.254,0,0,1-.863-.327V27.271a9.4,9.4,0,0,0,.967.417q.5.185,1.012.32a9.688,9.688,0,0,0,.974.216,5.343,5.343,0,0,0,.878.074,3.167,3.167,0,0,0,.744-.082,1.538,1.538,0,0,0,.521-.231.861.861,0,0,0,.29-.35,1.045,1.045,0,0,0,.1-.424,1.014,1.014,0,0,0-.074-.409,1.028,1.028,0,0,0-.32-.387,5.383,5.383,0,0,0-.744-.454c-.327-.171-.744-.379-1.3-.625a15.514,15.514,0,0,1-1.376-.744,3.856,3.856,0,0,1-.96-.8,2.873,2.873,0,0,1-.565-1,4.384,4.384,0,0,1-.186-1.331,3.248,3.248,0,0,1,.327-1.488,2.978,2.978,0,0,1,.93-1.064,4.065,4.065,0,0,1,1.443-.632,7.334,7.334,0,0,1,1.874-.216,8.2,8.2,0,0,1,2.075.253,10.523,10.523,0,0,1,2.016.744l-.96,2.388a13.8,13.8,0,0,0-1.577-.64,4.666,4.666,0,0,0-1.488-.253,1.6,1.6,0,0,0-.974.238.8.8,0,0,0-.3.655.908.908,0,0,0,.074.387,1.051,1.051,0,0,0,.3.35,4.381,4.381,0,0,0,.647.394c.275.141.632.312,1.079.513s.982.454,1.391.669a4.91,4.91,0,0,1,1.071.744,2.878,2.878,0,0,1,.684,1A3.422,3.422,0,0,1,149.462,26.892Z" transform="translate(-36.027 -4.629)" fill="rgba(0,0,0,0.7)"/>
    <path id="Path_530" data-name="Path 530" d="M155.35,13.634a1.977,1.977,0,0,1,.141-.744,1.488,1.488,0,0,1,.387-.5,1.543,1.543,0,0,1,.58-.268,3.055,3.055,0,0,1,.707-.074,2.964,2.964,0,0,1,.692.074,1.484,1.484,0,0,1,.573.268,1.385,1.385,0,0,1,.394.5,2.1,2.1,0,0,1,0,1.555,1.3,1.3,0,0,1-.394.506,1.489,1.489,0,0,1-.573.275,2.971,2.971,0,0,1-.692.082,3.094,3.094,0,0,1-.707-.082,1.4,1.4,0,0,1-.58-.275,1.345,1.345,0,0,1-.387-.506A1.975,1.975,0,0,1,155.35,13.634Zm3.459,15.33h-3.325V16.788h3.325Z" transform="translate(-39.795 -3.087)" fill="rgba(0,0,0,0.7)"/>
    <path id="Path_531" data-name="Path 531" d="M166.519,30.6l-4.3-12.177h3.474l2.016,6.94a12.952,12.952,0,0,1,.32,1.287,9.271,9.271,0,0,1,.171,1.205h.067a7.676,7.676,0,0,1,.171-1.227c.089-.431.193-.855.32-1.265l2-6.94h3.489L169.941,30.6Z" transform="translate(-41.555 -4.719)" fill="rgba(0,0,0,0.7)"/>
    <path id="Path_532" data-name="Path 532" d="M185.15,30.74a7.376,7.376,0,0,1-2.41-.387,4.939,4.939,0,0,1-3.132-3.087,7.875,7.875,0,0,1-.439-2.752,8.8,8.8,0,0,1,.4-2.8,5.566,5.566,0,0,1,1.131-2,4.535,4.535,0,0,1,1.741-1.205,6.116,6.116,0,0,1,2.232-.4,6.187,6.187,0,0,1,2.187.364,4.459,4.459,0,0,1,1.681,1.041,4.812,4.812,0,0,1,1.049,1.741,6.978,6.978,0,0,1,.364,2.358v1.614h-7.438a4.11,4.11,0,0,0,.223,1.257,2.708,2.708,0,0,0,.565.945,2.42,2.42,0,0,0,.885.6,3.074,3.074,0,0,0,1.183.208,9.322,9.322,0,0,0,1.049-.06,7.9,7.9,0,0,0,.967-.179,7.05,7.05,0,0,0,.922-.3,10.038,10.038,0,0,0,.937-.417v2.574a6.985,6.985,0,0,1-.878.387,8.044,8.044,0,0,1-.93.268,8.427,8.427,0,0,1-1.056.156A7.936,7.936,0,0,1,185.15,30.74Zm-.424-10.265a1.912,1.912,0,0,0-1.488.617,3.068,3.068,0,0,0-.669,1.949h4.24a4.365,4.365,0,0,0-.141-1.019,2.43,2.43,0,0,0-.394-.811,1.925,1.925,0,0,0-.655-.543A1.979,1.979,0,0,0,184.726,20.475Z" transform="translate(-45.897 -4.639)" fill="rgba(0,0,0,0.7)"/>
    <path id="Path_533" data-name="Path 533" d="M204.612,29.175a3.592,3.592,0,0,1-3.02-1.6,6.139,6.139,0,0,1-.87-1.964,10.715,10.715,0,0,1-.312-2.73,10.763,10.763,0,0,1,.312-2.745,6.043,6.043,0,0,1,.87-1.986,3.721,3.721,0,0,1,1.369-1.205,3.833,3.833,0,0,1,1.755-.4,4.121,4.121,0,0,1,1.079.134,3.109,3.109,0,0,1,.878.387,3.476,3.476,0,0,1,.707.565,4.667,4.667,0,0,1,.55.7h.1c-.045-.283-.082-.573-.119-.863s-.067-.506-.089-.788a7.3,7.3,0,0,1,0-.744V12h3.318V28.952h-2.536l-.64-1.577h-.141a4.773,4.773,0,0,1-.528.7,2.972,2.972,0,0,1-.677.573,3.549,3.549,0,0,1-.87.387A4.141,4.141,0,0,1,204.612,29.175Zm1.212-2.648a2.288,2.288,0,0,0,1-.2,1.7,1.7,0,0,0,.669-.61,3.091,3.091,0,0,0,.379-1.019,7.931,7.931,0,0,0,.134-1.428V22.9a9.986,9.986,0,0,0-.1-1.569,3.718,3.718,0,0,0-.364-1.153,1.767,1.767,0,0,0-.677-.744,2.229,2.229,0,0,0-1.071-.238,1.614,1.614,0,0,0-1.525.982,6.066,6.066,0,0,0-.491,2.737,5.809,5.809,0,0,0,.491,2.7A1.667,1.667,0,0,0,205.825,26.527Z" transform="translate(-51.338 -3.074)" fill="rgba(0,0,0,0.7)"/>
    <path id="Path_534" data-name="Path 534" d="M224.09,30.738a7.29,7.29,0,0,1-2.4-.387,5.011,5.011,0,0,1-1.9-1.168,5.206,5.206,0,0,1-1.235-1.941,7.7,7.7,0,0,1-.446-2.752,8.575,8.575,0,0,1,.409-2.8,5.55,5.55,0,0,1,1.123-2,4.55,4.55,0,0,1,1.748-1.205,6.624,6.624,0,0,1,4.463,0,4.468,4.468,0,0,1,1.636,1.026,4.812,4.812,0,0,1,1.049,1.741,7.171,7.171,0,0,1,.364,2.358v1.614h-7.438a3.894,3.894,0,0,0,.223,1.257,2.6,2.6,0,0,0,.565.945,2.325,2.325,0,0,0,.878.6,3.134,3.134,0,0,0,1.183.208,9.455,9.455,0,0,0,1.056-.06,8.1,8.1,0,0,0,.96-.179,7.151,7.151,0,0,0,.93-.3,10.035,10.035,0,0,0,.937-.417v2.574a6.985,6.985,0,0,1-.878.387,7.633,7.633,0,0,1-1.986.424A7.972,7.972,0,0,1,224.09,30.738Zm-.424-10.265a1.919,1.919,0,0,0-1.488.617,3.109,3.109,0,0,0-.669,1.949h4.24a4,4,0,0,0-.141-1.019,2.3,2.3,0,0,0-.394-.811,1.827,1.827,0,0,0-.647-.543,2.033,2.033,0,0,0-.9-.193Z" transform="translate(-55.872 -4.636)" fill="rgba(0,0,0,0.7)"/>
    <path id="Path_535" data-name="Path 535" d="M243.961,26.892a3.86,3.86,0,0,1-.342,1.681,3.3,3.3,0,0,1-1,1.2,4.337,4.337,0,0,1-1.555.744,7.93,7.93,0,0,1-2.053.245,8.962,8.962,0,0,1-1.108-.045,9.376,9.376,0,0,1-.967-.119,8.241,8.241,0,0,1-.885-.223,6.256,6.256,0,0,1-.863-.327V27.271a8.952,8.952,0,0,0,.967.417,10.5,10.5,0,0,0,1,.32c.335.089.662.164.982.216a5.254,5.254,0,0,0,.87.074,3.253,3.253,0,0,0,.744-.082,1.612,1.612,0,0,0,.521-.231.925.925,0,0,0,.29-.35,1.028,1.028,0,0,0,.089-.424,1.16,1.16,0,0,0-.067-.409,1.028,1.028,0,0,0-.32-.387,5.34,5.34,0,0,0-.744-.454c-.327-.171-.744-.379-1.3-.625a9.058,9.058,0,0,1-1.384-.744,3.96,3.96,0,0,1-.952-.8,2.873,2.873,0,0,1-.565-1,4.162,4.162,0,0,1-.186-1.331,3.248,3.248,0,0,1,.327-1.488,2.9,2.9,0,0,1,.93-1.064,4.064,4.064,0,0,1,1.443-.632,7.334,7.334,0,0,1,1.874-.216,8.2,8.2,0,0,1,2.075.253,10.624,10.624,0,0,1,2.016.744l-1,2.351a13.333,13.333,0,0,0-1.584-.64,4.582,4.582,0,0,0-1.488-.253,1.6,1.6,0,0,0-.974.238.8.8,0,0,0-.3.655.908.908,0,0,0,.074.387,1.052,1.052,0,0,0,.3.35,4.075,4.075,0,0,0,.647.394c.275.141.632.312,1.079.513s.974.454,1.391.669a4.91,4.91,0,0,1,1.071.744,2.98,2.98,0,0,1,.684,1A3.545,3.545,0,0,1,243.961,26.892Z" transform="translate(-60.235 -4.629)" fill="rgba(0,0,0,0.7)"/>
    <path id="Path_536" data-name="Path 536" d="M249.88,13.634a1.976,1.976,0,0,1,.141-.744,1.363,1.363,0,0,1,.387-.5,1.488,1.488,0,0,1,.58-.268,3.069,3.069,0,0,1,.7-.074,2.987,2.987,0,0,1,.7.074,1.479,1.479,0,0,1,.573.268,1.385,1.385,0,0,1,.394.5,2.1,2.1,0,0,1,0,1.555,1.294,1.294,0,0,1-.394.506,1.488,1.488,0,0,1-.573.275,2.95,2.95,0,0,1-.7.082,3.029,3.029,0,0,1-.7-.082,1.4,1.4,0,0,1-.58-.275,1.275,1.275,0,0,1-.387-.506A1.975,1.975,0,0,1,249.88,13.634Zm3.466,15.33h-3.325V16.788h3.325Z" transform="translate(-64.01 -3.087)" fill="rgba(0,0,0,0.7)"/>
    <path id="Path_537" data-name="Path 537" d="M268.281,18.352v1.815l-1.778.55a2.859,2.859,0,0,1,.3.744,3.844,3.844,0,0,1,.089.855,4.706,4.706,0,0,1-.3,1.689,3.459,3.459,0,0,1-.87,1.317,3.871,3.871,0,0,1-1.451.885,6.211,6.211,0,0,1-2.031.3h-.543a2.908,2.908,0,0,1-.431-.06,1.633,1.633,0,0,0-.342.387.858.858,0,0,0-.126.483.469.469,0,0,0,.141.364,1.1,1.1,0,0,0,.365.223,2.224,2.224,0,0,0,.536.1,5.975,5.975,0,0,0,.632,0h1.867a5.784,5.784,0,0,1,1.584.2,3.208,3.208,0,0,1,1.183.617,2.771,2.771,0,0,1,.744,1.049,4.047,4.047,0,0,1,.26,1.488,4.181,4.181,0,0,1-.417,1.874,3.784,3.784,0,0,1-1.235,1.413,6.159,6.159,0,0,1-2.046.893,11.384,11.384,0,0,1-2.819.312,8.933,8.933,0,0,1-2.172-.238,4.693,4.693,0,0,1-1.547-.669,2.978,2.978,0,0,1-.93-1.064,3.107,3.107,0,0,1-.312-1.406,2.789,2.789,0,0,1,.268-1.146,2.653,2.653,0,0,1,.61-.833,3.161,3.161,0,0,1,.878-.58,5.816,5.816,0,0,1,1-.335,1.95,1.95,0,0,1-.454-.275,2.056,2.056,0,0,1-.4-.4,2.233,2.233,0,0,1-.3-.506,1.536,1.536,0,0,1-.112-.58,1.885,1.885,0,0,1,.1-.632,1.851,1.851,0,0,1,.3-.528,2.988,2.988,0,0,1,.491-.469c.193-.141.417-.29.662-.446a3.274,3.274,0,0,1-1.488-1.324,4.066,4.066,0,0,1-.558-2.157,4.654,4.654,0,0,1,.3-1.755,3.507,3.507,0,0,1,.893-1.317,3.86,3.86,0,0,1,1.488-.818,6.359,6.359,0,0,1,2.008-.283h.483l.543.067.5.082.357.074ZM259.563,32.24a1.332,1.332,0,0,0,.112.528,1.077,1.077,0,0,0,.379.446,1.89,1.89,0,0,0,.684.312,4.15,4.15,0,0,0,1.049.119,5.382,5.382,0,0,0,2.559-.483,1.442,1.442,0,0,0,.855-1.287.893.893,0,0,0-.528-.915,4.566,4.566,0,0,0-1.659-.231h-1.54a2.874,2.874,0,0,0-.632.074,1.785,1.785,0,0,0-.617.245,1.492,1.492,0,0,0-.476.461A1.314,1.314,0,0,0,259.563,32.24Zm1.2-9.915a2.657,2.657,0,0,0,.372,1.532,1.257,1.257,0,0,0,1.123.543,1.234,1.234,0,0,0,1.131-.543,2.844,2.844,0,0,0,.35-1.532,3.119,3.119,0,0,0-.342-1.562,1.211,1.211,0,0,0-1.138-.573C261.259,20.19,260.761,20.9,260.761,22.325Z" transform="translate(-65.742 -4.636)" fill="rgba(0,0,0,0.7)"/>
    <path id="Path_538" data-name="Path 538" d="M285.36,30.517h-3.325V23.406a3.962,3.962,0,0,0-.394-1.979,1.384,1.384,0,0,0-1.272-.662,2.112,2.112,0,0,0-1.086.26,1.871,1.871,0,0,0-.692.744,3.926,3.926,0,0,0-.364,1.257,11.953,11.953,0,0,0-.112,1.726V30.48H274.79V18.34h2.536l.454,1.555h.178a3.275,3.275,0,0,1,.64-.8,3.59,3.59,0,0,1,.826-.558,3.717,3.717,0,0,1,.945-.32,4.71,4.71,0,0,1,1.026-.1,4.862,4.862,0,0,1,1.622.253,3.2,3.2,0,0,1,1.257.8,3.72,3.72,0,0,1,.8,1.391,6.422,6.422,0,0,1,.283,2.016v7.944Z" transform="translate(-70.392 -4.639)" fill="rgba(0,0,0,0.7)"/>
    <path id="Path_539" data-name="Path 539" d="M78.327,52.33h.744a5.065,5.065,0,0,1,.677.082l-.26,1.83-.632-.1a6.036,6.036,0,0,0-.6-.037,2.759,2.759,0,0,0-2.232,1.071,3.909,3.909,0,0,0-.632,1.242,5.462,5.462,0,0,0-.223,1.607v6.456H73.15V52.546h1.614L75,54.777h.082c.186-.312.379-.617.588-.907a4.584,4.584,0,0,1,.692-.744,3.268,3.268,0,0,1,.87-.536A2.821,2.821,0,0,1,78.327,52.33Z" transform="translate(-18.739 -13.405)" fill="rgba(0,0,0,0.7)"/>
    <path id="Path_540" data-name="Path 540" d="M88.87,64.736a5.744,5.744,0,0,1-2.187-.4,4.726,4.726,0,0,1-1.711-1.175,5.4,5.4,0,0,1-1.108-1.919,8.124,8.124,0,0,1-.394-2.618,9.052,9.052,0,0,1,.394-2.648A6,6,0,0,1,84.883,54a4.338,4.338,0,0,1,1.562-1.235,5.011,5.011,0,0,1,3.95,0,4.225,4.225,0,0,1,1.488,1.086,4.971,4.971,0,0,1,.922,1.7,6.963,6.963,0,0,1,.32,2.179v1.235h-7.6a4.962,4.962,0,0,0,.893,3.094,3.036,3.036,0,0,0,2.477.989,8.762,8.762,0,0,0,1.026-.052,8.277,8.277,0,0,0,.915-.156,6.393,6.393,0,0,0,.855-.327c.275-.1.558-.223.841-.35v1.763a7.411,7.411,0,0,1-.855.357,6.715,6.715,0,0,1-.855.253,7.31,7.31,0,0,1-.915.141A5.107,5.107,0,0,1,88.87,64.736ZM88.379,53.98a2.448,2.448,0,0,0-1.964.848,4.26,4.26,0,0,0-.848,2.47H90.93a5.882,5.882,0,0,0-.149-1.354,3.032,3.032,0,0,0-.454-1.056,2.187,2.187,0,0,0-.8-.677A2.585,2.585,0,0,0,88.379,53.98Z" transform="translate(-21.382 -13.412)" fill="rgba(0,0,0,0.7)"/>
    <path id="Path_541" data-name="Path 541" d="M106.833,61.218a3.513,3.513,0,0,1-.312,1.488,2.9,2.9,0,0,1-.878,1.131,4.081,4.081,0,0,1-1.428.662,7.773,7.773,0,0,1-1.889.216,9.471,9.471,0,0,1-2.038-.193,5.249,5.249,0,0,1-1.488-.558V62.155c.223.112.476.231.744.342a9,9,0,0,0,1.815.513,6.01,6.01,0,0,0,.96.082,5.464,5.464,0,0,0,1.205-.119,2.329,2.329,0,0,0,.811-.35,1.3,1.3,0,0,0,.446-.543,1.727,1.727,0,0,0,.141-.744,1.777,1.777,0,0,0-.1-.61,1.58,1.58,0,0,0-.4-.536,4.094,4.094,0,0,0-.788-.543,13.676,13.676,0,0,0-1.287-.61c-.543-.223-.989-.446-1.406-.662a4.934,4.934,0,0,1-1.064-.744A2.784,2.784,0,0,1,99.2,56.7a3.326,3.326,0,0,1,.06-2.611,2.812,2.812,0,0,1,.848-1,3.8,3.8,0,0,1,1.309-.61,6.3,6.3,0,0,1,1.7-.208,7.432,7.432,0,0,1,1.934.231,9.456,9.456,0,0,1,1.666.6l-.692,1.607a12.176,12.176,0,0,0-1.488-.55,5.05,5.05,0,0,0-1.488-.238,3.024,3.024,0,0,0-1.651.364,1.191,1.191,0,0,0-.528,1.041,1.7,1.7,0,0,0,.119.669,1.554,1.554,0,0,0,.431.528,4.343,4.343,0,0,0,.818.513c.342.171.744.357,1.279.573a14.864,14.864,0,0,1,1.4.647,5.214,5.214,0,0,1,1.049.744,2.972,2.972,0,0,1,.669.93A3.2,3.2,0,0,1,106.833,61.218Z" transform="translate(-25.309 -13.39)" fill="rgba(0,0,0,0.7)"/>
    <path id="Path_542" data-name="Path 542" d="M117.562,64.729a5.773,5.773,0,0,1-2.187-.4,4.726,4.726,0,0,1-1.711-1.175,5.4,5.4,0,0,1-1.1-1.919,8.124,8.124,0,0,1-.394-2.618,9.056,9.056,0,0,1,.357-2.648,6,6,0,0,1,1-1.979,4.338,4.338,0,0,1,1.562-1.235,5.016,5.016,0,0,1,3.95-.037A4.225,4.225,0,0,1,120.53,53.8a4.971,4.971,0,0,1,.922,1.7,6.964,6.964,0,0,1,.32,2.179v1.235h-7.557a4.962,4.962,0,0,0,.893,3.094,3.036,3.036,0,0,0,2.477.989,8.759,8.759,0,0,0,1.026-.052,8.276,8.276,0,0,0,.915-.156,6.367,6.367,0,0,0,.855-.268c.275-.1.558-.223.841-.35v1.763a7.413,7.413,0,0,1-.855.357,6.717,6.717,0,0,1-.855.253,7.31,7.31,0,0,1-.915.141A7.622,7.622,0,0,1,117.562,64.729Zm-.491-10.756a2.448,2.448,0,0,0-1.964.848,4.265,4.265,0,0,0-.833,2.47h5.363a5.882,5.882,0,0,0-.149-1.354,3.032,3.032,0,0,0-.454-1.056,2.187,2.187,0,0,0-.8-.677A2.588,2.588,0,0,0,117.072,53.974Z" transform="translate(-28.734 -13.405)" fill="rgba(0,0,0,0.7)"/>
    <path id="Path_543" data-name="Path 543" d="M134.913,64.514l-.394-1.659h-.089a6.5,6.5,0,0,1-.744.848,3.68,3.68,0,0,1-.781.58,3.464,3.464,0,0,1-.945.335,5.843,5.843,0,0,1-1.16.112,4.366,4.366,0,0,1-1.384-.216,2.876,2.876,0,0,1-1.093-.647,3.1,3.1,0,0,1-.744-1.116,4.423,4.423,0,0,1-.26-1.584,3.242,3.242,0,0,1,1.25-2.745,6.694,6.694,0,0,1,3.831-1.049l2.008-.074v-.751a4.028,4.028,0,0,0-.164-1.22,1.849,1.849,0,0,0-.469-.788,1.653,1.653,0,0,0-.744-.431,3.449,3.449,0,0,0-1-.134,5.377,5.377,0,0,0-1.689.26,11.232,11.232,0,0,0-1.488.632l-.7-1.488a9.207,9.207,0,0,1,1.8-.744,7.109,7.109,0,0,1,2.083-.3,7.29,7.29,0,0,1,1.919.223,3.2,3.2,0,0,1,1.339.707,2.971,2.971,0,0,1,.8,1.235,5.69,5.69,0,0,1,.26,1.822V64.5Zm-3.637-1.384a3.613,3.613,0,0,0,1.227-.208,2.71,2.71,0,0,0,.982-.625,2.978,2.978,0,0,0,.647-1.056,4.362,4.362,0,0,0,.238-1.488V58.66l-1.562.074a7.858,7.858,0,0,0-1.644.223,2.826,2.826,0,0,0-1.064.483,1.818,1.818,0,0,0-.573.744,2.81,2.81,0,0,0-.171,1,1.851,1.851,0,0,0,.528,1.488A2.016,2.016,0,0,0,131.275,63.13Z" transform="translate(-32.613 -13.405)" fill="rgba(0,0,0,0.7)"/>
    <path id="Path_544" data-name="Path 544" d="M148.917,52.33h.744a5.05,5.05,0,0,1,.677.082l-.26,1.83-.625-.1a5.965,5.965,0,0,0-.61-.037,2.9,2.9,0,0,0-1.25.275,2.785,2.785,0,0,0-.974.8,3.762,3.762,0,0,0-.632,1.242,5.2,5.2,0,0,0-.268,1.614v6.456H143.74V52.546h1.614l.238,2.232h.089a10.416,10.416,0,0,1,.58-.907,4.329,4.329,0,0,1,.7-.744,3.122,3.122,0,0,1,.863-.536A2.821,2.821,0,0,1,148.917,52.33Z" transform="translate(-36.821 -13.405)" fill="rgba(0,0,0,0.7)"/>
    <path id="Path_545" data-name="Path 545" d="M159.343,64.73a6.015,6.015,0,0,1-2.06-.342,4.221,4.221,0,0,1-1.666-1.093,5.2,5.2,0,0,1-1.108-1.9,8.574,8.574,0,0,1-.409-2.8,8.92,8.92,0,0,1,.417-2.9,5.161,5.161,0,0,1,1.138-1.941,4.267,4.267,0,0,1,1.7-1.079,6.145,6.145,0,0,1,2.083-.342,7.239,7.239,0,0,1,1.659.186,6.246,6.246,0,0,1,1.354.454l-.588,1.681c-.164-.074-.35-.141-.55-.216a9.258,9.258,0,0,0-1.279-.312,4.313,4.313,0,0,0-.6-.052,2.848,2.848,0,0,0-2.5,1.1,5.9,5.9,0,0,0-.744,3.4,5.653,5.653,0,0,0,.788,3.362A2.782,2.782,0,0,0,159.38,63a5.84,5.84,0,0,0,1.592-.2,8.089,8.089,0,0,0,1.3-.476v1.77a5.4,5.4,0,0,1-1.257.476A6.881,6.881,0,0,1,159.343,64.73Z" transform="translate(-39.474 -13.405)" fill="rgba(0,0,0,0.7)"/>
    <path id="Path_546" data-name="Path 546" d="M175.753,62.869V55.163a3.316,3.316,0,0,0-.573-2.127,2.171,2.171,0,0,0-1.793-.744,3.5,3.5,0,0,0-1.488.283,2.326,2.326,0,0,0-.96.841,3.716,3.716,0,0,0-.528,1.361,9.913,9.913,0,0,0-.156,1.852v6.2H168.27V45.91H170.3v5.036l-.089,1.569h.089a3.3,3.3,0,0,1,.647-.811,3.909,3.909,0,0,1,.826-.573,3.489,3.489,0,0,1,.945-.335,4.717,4.717,0,0,1,1.027-.112,4,4,0,0,1,2.975,1.041,4.618,4.618,0,0,1,1.019,3.325v7.818Z" transform="translate(-43.105 -11.761)" fill="rgba(0,0,0,0.7)"/>
    <path id="Path_547" data-name="Path 547" d="M195.593,64.8a6.205,6.205,0,0,1-2.06-.342,4.221,4.221,0,0,1-1.666-1.093,5.245,5.245,0,0,1-1.116-1.9,8.591,8.591,0,0,1-.4-2.8,8.94,8.94,0,0,1,.417-2.9,5.161,5.161,0,0,1,1.138-1.941,4.363,4.363,0,0,1,1.7-1.086,6.308,6.308,0,0,1,2.075-.335,7.3,7.3,0,0,1,1.666.186,5.991,5.991,0,0,1,1.354.454l-.588,1.681c-.164-.074-.35-.141-.558-.216s-.409-.126-.632-.186a5.388,5.388,0,0,0-.64-.126,3.4,3.4,0,0,0-.6-.052,2.842,2.842,0,0,0-2.492,1.1,5.891,5.891,0,0,0-.788,3.4,5.673,5.673,0,0,0,.8,3.362,2.789,2.789,0,0,0,2.4,1.064,5.84,5.84,0,0,0,1.592-.2,8.088,8.088,0,0,0,1.3-.476v1.763a5.118,5.118,0,0,1-1.257.483A6.879,6.879,0,0,1,195.593,64.8Z" transform="translate(-48.76 -13.423)" fill="rgba(0,0,0,0.7)"/>
    <path id="Path_548" data-name="Path 548" d="M208.835,64.8a5.8,5.8,0,0,1-2.232-.4,4.629,4.629,0,0,1-1.7-1.183,5.307,5.307,0,0,1-1.034-1.912,8.121,8.121,0,0,1-.387-2.618,9.006,9.006,0,0,1,.357-2.648,5.854,5.854,0,0,1,1.012-1.979,4.383,4.383,0,0,1,1.562-1.235,4.709,4.709,0,0,1,2.008-.424,4.645,4.645,0,0,1,1.941.387,4.083,4.083,0,0,1,1.488,1.086,4.931,4.931,0,0,1,.922,1.688,7.029,7.029,0,0,1,.32,2.187v1.235h-7.6a4.96,4.96,0,0,0,.885,3.094,3.08,3.08,0,0,0,2.477.989,6.356,6.356,0,0,0,1.034-.052,7.344,7.344,0,0,0,.915-.164,6.713,6.713,0,0,0,.855-.26c.275-.1.55-.223.841-.357V64c-.3.134-.58.26-.855.357a7.115,7.115,0,0,1-.863.253,7.308,7.308,0,0,1-.915.141Q209.385,64.8,208.835,64.8Zm-.506-10.756a2.456,2.456,0,0,0-1.971.848,4.172,4.172,0,0,0-.841,2.477h5.356a5.985,5.985,0,0,0-.141-1.361,3.082,3.082,0,0,0-.461-1.049,2.164,2.164,0,0,0-.788-.677A2.612,2.612,0,0,0,208.329,54.044Z" transform="translate(-52.124 -13.423)" fill="rgba(0,0,0,0.7)"/>
    <path id="Path_549" data-name="Path 549" d="M227.313,64.581V56.875a3.359,3.359,0,0,0-.573-2.127A2.187,2.187,0,0,0,224.948,54a3.477,3.477,0,0,0-1.488.283,2.346,2.346,0,0,0-.967.841,3.712,3.712,0,0,0-.521,1.361,9.153,9.153,0,0,0-.164,1.852v6.2H219.83V52.612h1.614l.283,1.614h.1a3.743,3.743,0,0,1,.647-.811,3.634,3.634,0,0,1,.826-.573,3.78,3.78,0,0,1,.945-.342,5.229,5.229,0,0,1,1.026-.1,3.987,3.987,0,0,1,2.975,1.041,4.657,4.657,0,0,1,1,3.325v7.81Z" transform="translate(-56.313 -13.42)" fill="rgba(0,0,0,0.7)"/>
    <path id="Path_550" data-name="Path 550" d="M240.085,62.307h.439l.476-.06a2.925,2.925,0,0,0,.417-.074l.29-.074v1.488a2.545,2.545,0,0,1-.357.134,3.83,3.83,0,0,1-.483.112c-.171,0-.35.06-.543.074a4.531,4.531,0,0,1-.55,0,4.257,4.257,0,0,1-1.257-.179,2.282,2.282,0,0,1-1-.6,2.923,2.923,0,0,1-.662-1.153,5.945,5.945,0,0,1-.238-1.822V53.24H234.93v-.885l1.689-.848L237.474,49h1.138v2.745h3.013v1.488h-3.013v6.925a2.971,2.971,0,0,0,.35,1.592A1.227,1.227,0,0,0,240.085,62.307Z" transform="translate(-60.181 -12.552)" fill="rgba(0,0,0,0.7)"/>
    <path id="Path_551" data-name="Path 551" d="M251.957,52.4h.707a4.178,4.178,0,0,1,.677.074l-.268,1.86-.625-.1q-.3-.033-.6-.037a2.805,2.805,0,0,0-1.257.275,2.936,2.936,0,0,0-.974.8,3.909,3.909,0,0,0-.632,1.242,5.462,5.462,0,0,0-.223,1.607v6.449H246.78V52.616h1.607l.245,2.231h.082c.186-.312.379-.617.588-.907a4.05,4.05,0,0,1,.692-.744,3.268,3.268,0,0,1,.87-.536A2.821,2.821,0,0,1,251.957,52.4Z" transform="translate(-63.217 -13.423)" fill="rgba(0,0,0,0.7)"/>
    <path id="Path_552" data-name="Path 552" d="M262.5,64.814a5.744,5.744,0,0,1-2.187-.4,4.653,4.653,0,0,1-1.711-1.183,5.292,5.292,0,0,1-1.1-1.912,8.123,8.123,0,0,1-.394-2.618,9.006,9.006,0,0,1,.357-2.648,5.942,5.942,0,0,1,1.049-1.979,4.339,4.339,0,0,1,1.532-1.212,5.011,5.011,0,0,1,3.95,0,4.136,4.136,0,0,1,1.488,1.086,4.931,4.931,0,0,1,.922,1.688,7.237,7.237,0,0,1,.32,2.187v1.235h-7.572a4.962,4.962,0,0,0,.893,3.094,3.056,3.056,0,0,0,2.477.989,6.215,6.215,0,0,0,1.026-.052,6.952,6.952,0,0,0,.915-.164,6.265,6.265,0,0,0,.855-.26c.275-.1.558-.223.841-.357v1.711a9.145,9.145,0,0,1-.855.357,6.717,6.717,0,0,1-.855.253,7.288,7.288,0,0,1-.922.141Q263.06,64.814,262.5,64.814Zm-.491-10.756a2.448,2.448,0,0,0-1.964.848,4.225,4.225,0,0,0-.848,2.477h5.363a5.941,5.941,0,0,0-.149-1.361,3.066,3.066,0,0,0-.454-1.049,2.187,2.187,0,0,0-.8-.677,2.59,2.59,0,0,0-1.153-.238Z" transform="translate(-65.863 -13.437)" fill="rgba(0,0,0,0.7)"/>
    <path id="Path_553" data-name="Path 553" d="M19.9,10.971c4.738,7.758,10.674,17.48,14.311,25.752,1.956-2.284,5.043-5.683,7.773-8.435V9H18.7Z" transform="translate(-4.79 -2.305)" fill="rgba(0,0,0,0.7)"/>
    <path id="Path_554" data-name="Path 554" d="M30.393,39.029A33.538,33.538,0,0,1,32.625,46.8c.342,2.566-.141,4.813-1.324,6.159a3.5,3.5,0,0,1-2.678,1.25,3.72,3.72,0,0,1-2.648-1.324,7.179,7.179,0,0,1-1.711-5.452,17.041,17.041,0,0,1,3.57-8.777c-3.5-8.279-9.714-18.5-14.631-26.525L11.3,9H0V57.349H37.192V31.486C34.559,34.238,31.873,37.266,30.393,39.029Z" transform="translate(0 -2.305)" fill="rgba(0,0,0,0.7)"/>
    <path id="Path_555" data-name="Path 555" d="M36.715,62.478a1.666,1.666,0,0,0,1.026.617,1.311,1.311,0,0,0,1-.5c.744-.833,1.034-2.522.788-4.4a28.613,28.613,0,0,0-1.607-5.951A14.069,14.069,0,0,0,35.6,58.706,5.06,5.06,0,0,0,36.715,62.478Z" transform="translate(-9.111 -13.385)" fill="rgba(0,0,0,0.7)"/>
    <ellipse id="Ellipse_2" data-name="Ellipse 2" cx="1.86" cy="1.86" rx="1.86" ry="1.86" transform="translate(39.423 23.803)" fill="rgba(0,0,0,0.7)"/>
    <path id="Path_556" data-name="Path 556" d="M16.463,2.232A2.232,2.232,0,1,1,14.232,0,2.231,2.231,0,0,1,16.463,2.232Z" transform="translate(-3.074)" fill="rgba(0,0,0,0.7)"/>
  </g>
</svg>
