<svg version="1.1" id="Layer_1" xmlns="http://www.w3.org/2000/svg" x="0" y="0" viewBox="0 0 63 54" xml:space="preserve"><style>.st0{fill:#1f2b43}</style><switch><g><path class="st0" d="M27.83 46.61a12.38 12.38 0 0 0-5.17-1.98c-3.97-.59-7.66.39-11.22 2.03a36.39 36.39 0 0 0-7.67 4.88c-.17.13-.39.3-.57.28a.9.9 0 0 1-.59-.38c-.07-.14.02-.49.16-.61 3.89-3.2 7.99-6.02 13.01-7.15a16.85 16.85 0 0 1 13.52 2.38c.05.03.1.06.2.03l-.51-.42a15.55 15.55 0 0 0-10.36-3.14 21.57 21.57 0 0 0-9.68 2.9c-2.17 1.22-4.22 2.67-6.33 4-.22.13-.62.3-.77.2-.21-.13-.35-.52-.36-.79-.03-2.55-.02-5.1-.02-7.65L1.46 8.64c0-.62.19-1.01.7-1.37 3.01-2.14 6.11-4.11 9.58-5.45A20.95 20.95 0 0 1 19.46.29a16.5 16.5 0 0 1 11.72 4.68l.19.18c.5-.43.98-.88 1.5-1.28A16.44 16.44 0 0 1 42.78.31c4.1-.13 7.85 1.09 11.44 2.93a51.65 51.65 0 0 1 6.69 4.23c.35.25.44.58.44.98v40.01c0 .21.02.42-.01.62-.1.63-.51.78-1.05.43-1.82-1.2-3.61-2.46-5.48-3.57a23.95 23.95 0 0 0-8.33-3.16c-4.61-.77-8.87.04-12.66 2.89l-.3.24c-.04.03-.06.07-.06.17l.41-.25a16.73 16.73 0 0 1 10.74-2.53c3.76.34 7.14 1.75 10.27 3.77 1.74 1.12 3.36 2.42 5.04 3.64.32.23.5.5.23.87-.24.33-.61.34-1 .05-1.41-1.02-2.78-2.1-4.25-3.03a26.22 26.22 0 0 0-9.22-3.82c-3.5-.67-6.86-.34-10.03 1.37-.14.07-.27.16-.38.29.7-.22 1.39-.46 2.11-.64 3.67-.9 7.28-.55 10.84.6a32.14 32.14 0 0 1 9.46 5.03c.08.06.16.11.22.18.28.3.28.64.03.95-.26.31-.54.2-.84 0-1.22-.82-2.41-1.69-3.67-2.44a25.29 25.29 0 0 0-9-3.36c-4.19-.65-8.09.09-11.63 2.48-.17.11-.33.25-.49.37-.56.44-1.06.49-1.65.08a16.88 16.88 0 0 0-5.24-2.59c-3.49-.96-6.92-.64-10.32.43a31.15 31.15 0 0 0-9.33 4.96c-.44.33-.72.33-.95.03-.26-.35-.18-.72.2-1.03l.04-.03c1.74-1.1 3.42-2.28 5.22-3.26a23.7 23.7 0 0 1 8.52-2.76 17.1 17.1 0 0 1 9.04 1.17zm3.19-33.27l-.03-.39c0-2.01.01-4.02-.01-6.03a1 1 0 0 0-.22-.63 15.2 15.2 0 0 0-10.92-4.77c-2.56-.08-5.03.46-7.42 1.34-3.47 1.28-6.56 3.25-9.54 5.41-.14.1-.23.37-.23.56l-.01 38.62.03.44c.23-.15.39-.28.56-.38 1.61-1 3.18-2.08 4.84-2.99 3.62-1.99 7.45-3.28 11.65-3.22a16.5 16.5 0 0 1 10.64 3.91l.41.31v-.6-6.13c0-.5.28-.82.68-.77.45.05.58.35.58.77v6.67h.11l.29-.23a16.18 16.18 0 0 1 4.45-2.69c4.41-1.76 8.84-1.55 13.27-.06 3.46 1.17 6.56 3.03 9.54 5.11l.47.32v-.67-38.2c0-.1.03-.2-.01-.28-.07-.18-.12-.41-.26-.51a44.21 44.21 0 0 0-7.45-4.53c-3.58-1.64-7.29-2.59-11.27-2.05a15.16 15.16 0 0 0-9.03 4.5c-.27.27-.36.55-.36.92.02 1.92.01 3.83.01 5.75v.5h-.77z"/><path class="st0" d="M31.41 16.54c.79-1.02 1.55-2.05 2.37-3.03a9.56 9.56 0 0 1 2.9-2.35 5 5 0 0 1 4.7-.19 10.04 10.04 0 0 1 5.67 6.9c.46 1.91-.08 3.7-.97 5.39a26.05 26.05 0 0 1-4.16 5.52c-.64.7-1.34 1.34-2.04 1.99a15.9 15.9 0 0 1-4.41 2.83c-.7.31-1.39.7-2.02 1.14-.35.25-.61.65-.86 1.02-.27.41-.59.68-1.1.7-.53.02-.98-.2-1.15-.68a2.45 2.45 0 0 0-1.12-1.23c-.62-.38-1.25-.76-1.91-1.04a17.21 17.21 0 0 1-5.51-3.88 32.25 32.25 0 0 1-4.38-5.36 9.59 9.59 0 0 1-1.69-4.82 6.8 6.8 0 0 1 .8-3.51 10.82 10.82 0 0 1 4.92-4.97 4.98 4.98 0 0 1 4.61.08c1.73.87 3.02 2.23 4.16 3.75.41.57.8 1.17 1.19 1.74zm.08 16.72c.8-.46 1.65-.97 2.52-1.45.75-.41 1.55-.72 2.26-1.19a23.34 23.34 0 0 0 7.76-8.43c.64-1.18.88-2.47.66-3.81a6.76 6.76 0 0 0-3.01-4.48c-2.03-1.45-3.17-1.39-5.09.22a15.2 15.2 0 0 0-4.02 5.28c-.23.49-.59.7-1.13.7-.54 0-.89-.21-1.13-.69-.3-.61-.61-1.22-.98-1.79a13.4 13.4 0 0 0-4.19-4.32 2.59 2.59 0 0 0-2.79-.08c-.58.33-1.15.67-1.66 1.09-2.73 2.19-3.34 5.38-1.56 8.38.72 1.2 1.54 2.36 2.44 3.44a19.75 19.75 0 0 0 6.4 5.26c1.19.57 2.34 1.23 3.52 1.87z"/><path d="M31.45 33.26c.8-.46 1.65-.97 2.52-1.45.75-.41 1.55-.72 2.26-1.19a23.34 23.34 0 0 0 7.76-8.43c.64-1.18.88-2.47.66-3.81a6.76 6.76 0 0 0-3.01-4.48c-2.03-1.45-3.17-1.39-5.09.22a15.2 15.2 0 0 0-4.02 5.28c-.23.49-.59.7-1.13.7-.54 0-.89-.21-1.13-.69-.3-.61-.61-1.22-.98-1.79a13.4 13.4 0 0 0-4.19-4.32 2.59 2.59 0 0 0-2.79-.08c-.58.33-1.15.67-1.66 1.09-2.73 2.19-3.34 5.38-1.56 8.38.72 1.2 1.54 2.36 2.44 3.44a19.75 19.75 0 0 0 6.4 5.26c1.19.57 2.33 1.23 3.52 1.87z" fill="none"/><path d="M31.45 34.22c.88-.5 1.81-1.06 2.76-1.58.82-.45 1.7-.79 2.47-1.3a25.42 25.42 0 0 0 8.48-9.21c.7-1.29.96-2.69.72-4.16-.35-2.13-1.58-3.68-3.29-4.89-2.22-1.59-3.46-1.52-5.56.24a16.63 16.63 0 0 0-4.39 5.76c-.25.54-.64.76-1.23.76s-.97-.23-1.24-.76c-.33-.66-.67-1.33-1.07-1.95a14.65 14.65 0 0 0-4.58-4.72 2.83 2.83 0 0 0-3.05-.09c-.63.36-1.26.74-1.82 1.19-2.98 2.39-3.65 5.87-1.71 9.15a28.24 28.24 0 0 0 2.66 3.75 21.5 21.5 0 0 0 6.99 5.75c1.32.63 2.57 1.36 3.86 2.06z" fill="#9cc"/></g></switch></svg>