<?xml version="1.0" encoding="utf-8"?>
<!-- Generator: Adobe Illustrator 21.1.0, SVG Export Plug-In . SVG Version: 6.00 Build 0)  -->
<svg version="1.1" id="Layer_1" xmlns="http://www.w3.org/2000/svg" xmlns:xlink="http://www.w3.org/1999/xlink" x="0px" y="0px"
	 viewBox="0 0 1096.1 529.5" style="enable-background:new 0 0 1096.1 529.5;" xml:space="preserve">
<style type="text/css">
	.st0{opacity:0.5;fill:#C1272D;enable-background:new    ;}
	.st1{fill:none;stroke:#000000;stroke-width:4;stroke-miterlimit:10;}
	.st2{fill:none;stroke:#000000;stroke-width:4;stroke-linecap:round;stroke-miterlimit:10;}
	.st3{opacity:0.65;fill:#C1272D;enable-background:new    ;}
	.st4{stroke:#000000;stroke-width:3.0991;stroke-miterlimit:10;}
	.st5{fill:#C7B299;stroke:#000000;stroke-width:2;stroke-miterlimit:10;}
	.st6{fill:none;stroke:#000000;stroke-width:2;stroke-miterlimit:10;}
	.st7{fill:#FFFFFF;stroke:#000000;stroke-miterlimit:10;}
	.st8{stroke:#000000;stroke-miterlimit:10;}
	.st9{fill:#C1272D;fill-opacity:0.4;stroke:#000000;stroke-width:2;stroke-miterlimit:10;}
	.st10{fill:#F4F1ED;}
	.st11{fill:none;stroke:#000000;stroke-miterlimit:10;}
	.st12{fill:#D34B16;fill-opacity:0.2;stroke:#000000;stroke-width:2;stroke-miterlimit:10;}
	.st13{stroke:#000000;stroke-width:1.1447;stroke-miterlimit:10;}
	.st14{fill:#8C6239;stroke:#000000;stroke-width:2;stroke-miterlimit:10;}
	.st15{fill:#8C6239;stroke:#000000;stroke-miterlimit:10;}
	.st16{fill:#C1272D;fill-opacity:0.4;stroke:#000000;stroke-miterlimit:10;}
</style>
<g>
	<path class="st0" d="M666.1,351.5c-3.3-36.3-20.4-70.7-45.5-97.1c-6.8-7.1-14.3-13.7-23-18.2c-7.3-3.7-15.3-5.7-23.5-7.1
		c-8.9,5.7-17.6,12-24.5,20.1c-8,9.4-13.1,20.8-18.2,32.1c-9.3,20.8-18.8,42.4-18.3,65.1c0.3,13.8,4.4,27.2,9.3,40.1
		c7.8,20.4,18,40,32.2,56.6c13,15.2,29.5,27.7,48.3,34.4c11.5-6.7,22-15.1,30.9-25C658.2,425.6,669.4,387.8,666.1,351.5z"/>
	<path class="st1" d="M666.1,353.2c-3.3-36.3-20.4-70.7-45.5-97.1c-6.8-7.1-14.3-13.7-23-18.2c-10.8-5.4-22.9-7.3-34.9-8.6
		c-11.3-1.2-22.7-2-34.1-1.4c-30.8,1.8-60.4,14.4-84.8,33.1s-43.9,43.5-59,70.3c-8.5,15.1-15.8,31.7-15.8,49l-1.6,2.5
		c-10.5,8.7-22.1,16-34.4,21.8c-4.1,1.9-8.2,3.6-12.2,5.7c-3.8,2-7.5,4.2-11.1,6.7c3.2-2.3,13.5-1.5,17.5-1.9
		c6.5-0.7,12.9-1.4,19.4-2.2c6.5-0.7,12.9-1.4,19.4-2.1c6.8-0.7,9.4-2.6,12,4.1c7.8,19.7,21.6,36.8,38.3,49.7
		c18.4,14.2,40.3,23.6,62.9,29.1c27.2,6.7,55.9,7.9,83.1,1.6c27.2-6.3,53-20.2,71.6-41C658.2,427.3,669.4,389.4,666.1,353.2z"/>
	<path class="st1" d="M835.9,413.5c0.7,0,1.3,0,2-0.1c-12.6-4.7-24.9-10.2-36.9-16.4c-3.3-1.7-6.6-4.1-9-6.9
		c3.4-42.3-10.1-85.8-36.9-118.7s-66.7-54.9-108.9-60c-13.3-1.6-27-1.6-39.9,2.2c-10.4,3.1-19.9,8.6-29.1,14.4
		c-10,6.3-19.9,13.1-27.5,22.1c-8,9.4-13.1,20.8-18.2,32.1c-9.3,20.8-18.8,42.4-18.3,65.1c0.3,13.8,4.4,27.2,9.3,40.1
		c7.8,20.4,18,40,32.2,56.6s32.6,30,53.5,36.2c27.6,8.2,57.5,3.5,85.3-4c26.4-7.1,53-17.1,72.5-36.2c8.6-8.4,15.6-18.4,24.6-26.5
		C806.7,413.7,819.8,412.9,835.9,413.5z"/>
	<path class="st3" d="M566.8,304.9c-1.6,0.2-3.2,0.5-4.5,1.4c-1.4,1-2.2,2.5-2.9,4c-3,7.5-1,16.1,2.9,23.2c3.9,7,9.6,12.9,14.6,19.2
		c6.7,8.5,12.1,18,16.1,28c12.4-19.1,25.3-39.6,25.8-62.4c0.1-3.8-0.2-7.7-2.1-11c-1.8-3.3-5.5-5.8-9.3-5.1c-2.8,0.5-5,2.5-6.9,4.6
		c-5.6,6.2-6.9,15.1-14.2,8.1C580.6,309.3,575.8,304.1,566.8,304.9z"/>
	<g>
		<path class="st4" d="M877.2,257.3c-3.9-2.9-8.2-5.2-12.6-7.1c-1.6,8.5-1.9,17.2-0.8,25.8c-3.9-0.2-7.7,0.3-11.5,1.3
			c2.9,2.1,5.8,4.2,8.7,6.3c-4.8,1.8-9.4,4.2-13.6,7.2c-1,0.7-2,1.6-1.9,2.8c0.1,0.7,0.5,1.2,0.9,1.8c1.7,2.1,3.3,4.1,5,6.2
			c-5.2,2.3-8.8,8-8.4,13.7c2.5,0.5,5,0.6,7.5,0.5"/>
		<path class="st5" d="M877.5,259.2c-6.6,7.6-11.8,16.4-16.6,25.2c-4.5,8.2-8.7,16.5-11.8,25.4s-4.9,18.1-5.8,27.5
			c-2.7,28.7,4.1,58.2,19.3,82.6c15.3,24.4,39,43.5,66.2,52.8c8.7,3,17.9,5,27.1,5c21.2,0.1,41.8-10.7,55.3-27.1
			c13.5-16.4,20.2-37.8,20.3-59.1c6.8-0.7,13.5-2.8,18.9-7c5.3-4.2,9.1-10.6,9.2-17.4c0-4.4-1.4-8.7-3.6-12.5
			c-4.2-7.5-11.7-10.3-10.9-19.3c0.9-9.7,0.6-19.3-1.3-28.8c-3.7-19-12.9-37-26.1-51.3c-17.3-18.7-42.2-31.5-67.6-29.7
			C924.2,227.1,894.7,239.5,877.5,259.2z"/>
		<path class="st6" d="M1038.8,346.4c2.8,1.9,4.6,5,6.1,8c1.1,2.3,2.1,4.7,2.1,7.2c0,2.3-0.8,4.4-1.8,6.5
			c-2.5,5.3-6.3,10.2-11.6,12.6c0.8,0,1.5-0.4,2-1"/>
		<path class="st7" d="M961.5,318.7c-0.3,1.8-0.1,3.8,1.1,5.2c1.1,1.2,2.9,1.6,4.5,1.7c8.2,0.9,16.6-0.8,23.8-4.9
			c1.9-1.1,3.9-2.6,4.5-4.7c0.7-2.5-0.7-5.2-2.7-6.7s-4.7-2.1-7.2-2.5C975.6,305.3,963.2,306.2,961.5,318.7z"/>
		<path class="st7" d="M874.7,316.5c-2.3,1.2-3.8,3.5-4.8,5.9c-1.2,2.9-1.8,6.6,0.3,9c1.7,1.9,4.6,2.2,7.1,2.4
			c7,0.5,27.2,1.6,23.6-11C898.5,313.9,881.5,313,874.7,316.5z"/>
		<path class="st8" d="M871.2,319.3c-1.6,2.4-2.1,5.2-2.5,8c-0.3,1.8-0.3,4,1.1,5.1c0.6,0.5,1.4,0.8,2.2,1c3.8,1,8.4,1.9,11.1-1
			c1.9-2,2-5.1,1.9-7.9c0-2.3-0.1-4.7-1.6-6.4C879.9,314.1,873.9,315.1,871.2,319.3z"/>
		<path class="st8" d="M965.1,310.6c-2.2,2.5-2.9,6-3,9.3c0,1.3,0,2.7,0.7,3.8c1,1.6,3,2.2,4.9,2.5c1.7,0.3,3.6,0.5,5.2-0.3
			c2.3-1.1,3.4-3.8,3.7-6.3C977.3,312.8,972.3,302.3,965.1,310.6z"/>
		<path class="st6" d="M859.1,386.8c0.6,0.6,1.1,1.3,1.7,1.9c3.3,3.8,8.1,6.2,13.1,6.7s10.2-1,14.1-4.1c0.2-0.2,0.4-0.4,0.3-0.6
			c-0.1-0.2-0.6,0-0.4,0.1"/>
		<path class="st6" d="M975.3,385.2c5.8,1.6,11.7,3,17.7,2.4c5.9-0.7,11.9-3.8,14.4-9.3"/>
		<path class="st6" d="M892.2,287.5c1.9-1.4,4.5-0.8,6.7-0.1c3.9,1.4,7.7,3.1,11.4,5.1"/>
		<path class="st6" d="M983.7,287.7c4.5-1.5,9.5-0.6,13.9,1.1c3.3,1.3,6.8,3.2,7.9,6.6"/>
		<path class="st6" d="M925.5,327.5c-2.7,10.9-5.4,21.7-8,32.6c-1.1,4.5-2.2,9.2-0.6,13.5c2,5.5,8.2,8.7,14.1,8.4
			c5.8-0.3,11.2-3.4,15.4-7.5c-3.9,12.9-12.8,24.2-24.4,31"/>
		<path class="st9" d="M928.3,426.8c2,2.9,4.1,5.8,6.9,8c2.3,1.9,5.1,3.1,7.9,4c3.1,1,6.8,1.5,9.5-0.3c3-2.1,3.5-6.4,3.7-10.1
			c0.4-7.2,0.7-14.6-2.2-21.2c-0.1-0.3-28.7,1-31.2,1.4c-4.8,0.8-4.8,1.7-2.6,5.8C922.6,418.8,925.5,422.8,928.3,426.8z"/>
		<path class="st4" d="M866.3,263.2c10.9-2.2,21.5-6.3,31.3-12.1c3.9-2.3,7.9-5,12.4-5.3c4.5-0.4,9.6,2.5,10.1,7.3
			c4.8-3,9.7-6,14.5-9c1.8-1.1,4-2.3,6-1.7c2.3,0.8,3.4,3.5,5.1,5.4c4.2,4.5,11.3,2.8,16.6-0.1s10.7-6.8,16.6-5.9
			c5.2,0.8,9.5,5.9,9.7,11.6c6.6-1.9,13.4-3,20.3-3.5c-0.5,5.6-0.5,11.2,0.2,16.8c0.2,1.5,0.5,3.2,1.6,4.1c0.9,0.7,2,0.7,3.1,0.8
			c6.1,0.2,12.2,0.4,18.2,0.6c0.9,8.9-1.3,18.1-6.2,25.4c4.2-0.3,8.4-0.6,12.6-0.9c-3.3,6.1-6.7,12.2-10,18.3c5,0.2,10,0.4,15.1,0.6
			c-3.8,6.8-6.8,14.1-8.9,21.7c-0.3,1-0.5,2.1,0,2.9c0.6,0.9,1.8,0.9,2.8,0.8c5.8-0.4,11.5-2.4,16.4-5.8c1.1-0.8,2.2-1.6,2.8-2.9
			c0.6-1.4,0.3-3,0-4.5c-1.2-5.8-2.8-11.4-4.8-16.9c-1.9-5.2-4.2-10.7-3.5-16.2c0.7-6.2,5-11.7,4.5-17.9c-4,2.8-9,4-13.7,3.4
			c1-8.8,1.7-18.7-3.6-25.5c-3.9-4.9-10-6.9-15.6-9c-10.3-4-21.6-11.5-22.1-23.2c-4.6,1.2-7.5,8.3-12,6.9c-1.5-0.5-2.6-1.9-3.6-3.2
			c-4.5-6.1-9-12.2-13.5-18.3c-4.7,3.1-4.7,11.6-9.8,13.8c-2.2,1-4.8,0.3-7-0.4c-9.3-3.2-17.8-9-27.3-11.2c-2.8-0.7-6.2-0.8-7.9,1.7
			c-0.8,1.2-1,2.7-1.1,4.1c-0.4,4.5-0.4,9,0,13.6c-9.6-2.3-19.2-4.5-28.8-6.8c-1.6,4.9-1.3,10.5,1,15.1c-3.2,0.4-8.7-0.8-11.5,0.4
			c-4.1,1.7-2.9,1.7-4.4,6.7C870.6,246.9,867,263.1,866.3,263.2z"/>
		<path class="st10" d="M954.7,433.2c-1.1,0.6-2.3,0.6-3.6,0.7c-4.2,0.2-8.5,0.5-12.7,0.7c2.5,2.5,5.9,3.2,9.2,3.3
			c1.8,0,3.6-0.3,5.1-1.5C953.6,435.5,954.6,434.7,954.7,433.2z"/>
	</g>
	<g>
		<path class="st11" d="M109.7,353.4c-0.4-2-2.4-3.4-4.4-3.2c-3.8,0.4-4.9,5.6-3.8,9.3c0.8,2.7,2.2,5.3,4.6,6.8s5.8,1.5,7.8-0.5"/>
		<path class="st12" d="M224.6,212.8c-16.8-5.3-34.2-10.5-51.6-8.3c-14.8,1.8-28.5,8.9-40.3,17.9c-18.6,14.2-33.5,34.1-38.6,56.9
			s0.8,48.6,17.6,64.8c-3.4-3.7-9.8-2.9-13.4,0.5s-4.9,8.7-5,13.7c-0.2,7.5,2.1,15.3,7.6,20.3s14.5,6.5,20.5,2
			c16.8,35.4,42.9,66.3,74.9,88.8c11.6,8.2,25,15.4,39.1,14.8c15.6-0.8,29.4-11.3,38.1-24.4c8.7-13,13-28.3,17.3-43.4
			c6.3-22.3,12.6-44.8,13.3-67.9c0.6-21.2-3.6-42.2-7.8-63c-1.9-9.6-3.9-19.3-8.5-27.9c-5.1-9.5-13.7-25.6-22.3-31.8
			C255.4,218.8,236.3,216.5,224.6,212.8z"/>
		<g>
			<path class="st7" d="M256.7,300.1c-5.7-6.5-17.5-6.1-22.8,0.8c-1,1.3-1.8,2.8-2,4.4c-0.5,4.9,4.6,8.5,9.4,9.7
				c4.1,1,8.4,0.9,12.5-0.1"/>
			<path class="st13" d="M258.9,302.7c-1.1-4.8-8.2-5.9-11.5-2s-2.2,10.4,1.7,13.1c1.3,0.9,2.8,1.4,4.3,1.4c3.6-0.1,7-3.6,7.3-7.4
				s-2.2-7.3-5.5-8.6"/>
		</g>
		<path class="st6" d="M158.4,292.4c6.6-0.4,13.2-2.6,18.8-6.2"/>
		<path class="st6" d="M232.7,283.8c6.3-1.9,12.4-4.4,18.2-7.6"/>
		<g>
			<path class="st7" d="M178.7,303.3c-3.4-2.1-7.8-3-11.7-2.6c-4,0.5-7.4,2.3-9.4,5c-0.6,0.8-1.1,1.7-1.2,2.7
				c-0.4,2.3,1,4.8,2.7,6.9c0.9,1.1,1.9,2.3,3.1,3.2c2.3,1.7,5.4,2.5,8.4,2.6s5.8-0.5,8.5-1.2c0.3-0.1,0.7-0.2,0.9,0.1
				c0.2,0.2-0.3,0.5-0.4,0.3"/>
			<path class="st13" d="M183.4,307.5c-1.2-4.8-8.4-5.6-11.6-1.6c-3.2,4-1.8,10.4,2.2,13c1.3,0.8,2.8,1.3,4.4,1.3
				c3.6-0.2,6.8-3.9,7-7.7c0.2-3.8-2.4-7.3-5.8-8.4"/>
		</g>
		<path class="st0" d="M153.5,363.4c-1.4,4.6-0.9,9.9,1.9,13.8c2.8,3.9,8.1,6.1,12.7,4.7c3.1-0.9,5.7-3.3,7.3-6.1
			c3.7-6.5,4.8-18.8-3.5-22.5C164.5,350.1,155.6,356.4,153.5,363.4z"/>
		<path class="st0" d="M260,356.4c0.9,1.9,2.7,3.2,4.6,4.2c3.4,1.8,7.2,2.7,11,2.8c1.6,0,3.3-0.1,4.8-0.8c2.8-1.4,4.2-4.6,4.6-7.7
			c0.8-5.4-1-11.2-5.1-14.7C269.7,331.5,254.5,344.7,260,356.4z"/>
		<path class="st11" d="M216.1,302.7c-0.3,8.1,4.5,15.5,9,22.3c4.3,6.5,8.7,12.9,13,19.4c0.9,1.4,1.9,2.8,1.9,4.4c0,2.4-2,4.3-4,5.7
			c-8.8,6.3-20,9.1-30.7,7.8c7.7,11.8,21.6,19.3,35.7,19.3"/>
		<path class="st14" d="M259.6,216.6c3.5,1.9,7.2,3.9,9.4,7.2c1,1.6,1,4.4,1.2,6.3c-13.8-8-32.1,2.7-47-3.1c-2.6-1-5.1-2.7-5.8-5.4
			c-1.2,10.5-10.7,17.8-19.8,23.2c-14.3,8.4-29.8,14.8-45.8,19.2c-4.5,1.2-9.1,2.3-13,4.8c-3,1.8-5.4,4.4-7.8,6.9
			c-5.3,5.5-10.7,11.1-14.7,17.6c-8.9,14.3-11.8,32.1-6.9,48.2c-2.5-1.9-5.1-3.8-7.6-5.8c-0.1-0.1-0.3-0.2-0.3-0.4s0.3-0.2,0.3-0.1
			l0.3,0.1c-15.9-18.8-18-47-8.5-69.7c9.4-22.8,28.8-40.4,50.8-51.6c36-18.4,82.3-20,115.6,3"/>
		<path class="st15" d="M84.5,256.3c9.1-10.1,21.9-15.8,33-23.6s21.4-19.5,20.7-33c-0.3-4.4-1.7-8.6-3.6-12.5
			c-7-13.8-21.2-23.5-36.5-26S66.7,163,54,172c-17.1,12-28.1,33.6-24.4,54.1s24.3,37.7,44.9,34.5c8.4-1.3,16-5.5,23.1-10.1
			c5.4-3.5,10.7-7.3,14.7-12.3c6-7.4,8.7-16.9,10.2-26.3c0.9-5.7,1.3-11.7-0.7-17.1c-3.9-10.5-16.2-15.9-27.3-15.2
			c-11.2,0.7-21.4,6.1-31.1,11.6c-10.9,6.2-22.7,14.3-24.6,26.7c-2.1,14.2,11.4,27.2,25.6,28.8c14.3,1.6,28.2-5.6,39.2-14.7
			c6.9-5.7,13.3-12.7,15.1-21.5c1.6-8.3-1.5-17.4-7.9-22.9s-15.9-7.2-23.8-4.2c-6.2,2.3-11.1,7-15.3,12c-4.5,5.3-8.4,11-11.6,17.2
			c-2.3,4.3-4.2,9.5-2.1,13.9c1.2,2.3,3.3,4,5.7,5.1c9.5,4.4,21.3-0.7,27.9-8.9c3.2-3.9,5.6-8.8,4.8-13.8
			c-1.2-7.9-10.7-12.7-18.4-10.6s-13.1,9.6-14.8,17.4c-0.3,1.2-0.4,2.5,0,3.7c0.8,2.2,3.5,3,5.8,3.2c5.1,0.4,10.8-1.3,13.5-5.7
			s0.8-11.3-4.2-12.5s-9.7,6.2-5.8,9.6c0.9,0.4,1.9,0.8,2.8,1.2c1.4-1.7-0.6-4.7-2.6-4.1"/>
		<path class="st11" d="M214.3,215.1c-2,0.6-2.9,2.9-3.9,4.7c-2.9,5.2-8.7,8-14.3,10.2c-19,7.4-39.8,10.8-57.2,21.5
			c-11.8,7.3-21.7,17.9-27.7,30.4s-8,27-5.3,40.6"/>
		<path class="st11" d="M204.3,209.1c-7,9.8-20.1,12.1-31.6,15.6c-18.2,5.5-34.7,15.5-49.4,27.5c-5.3,4.4-10.5,9.2-14,15.1
			c-3.3,5.6-4.8,12-6.1,18.4c-1.5,7.6-3.4,16-2.5,23.7c-2.4-10.9-2.7-22.3-1.1-33.3c0.6-4.6,1.7-9.2,3.9-13.2
			c2.1-3.7,5.2-6.8,8.3-9.7c14.2-13.1,30.7-23.8,48.5-31.3c9.9-4.2,20.5-7.6,28.8-14.6"/>
		<path class="st11" d="M219.8,212.1c3.1,1.6,5.7,4,8.7,5.5c8.4,4.3,19.1,2,27,7.2c-1.1-0.7-2.2-1.5-3.3-2.2"/>
		<path class="st11" d="M213.9,204c14.6,2.3,28.7,7.7,41.1,15.7"/>
		<path class="st16" d="M247.3,384.1c-2.1,1.2-4.5,1.7-6.8,2.1c-15.5,2.9-31.2,4.3-46.9,4.4c0,0.1-2-1.1-2-1
			c3.1-0.2,6.1,1.6,8.1,4.1c2,2.4,3.2,5.4,4.5,8.3c4.1,9.2,10.3,18.4,19.9,21.4c3.1,1,6.5,1.2,9.8,1.2c2.3,0,4.7-0.1,6.7-1.2
			c4.7-2.5,5.6-8.8,5.4-14.2c-0.1-3.9-0.5-7.8-1.2-11.6c-0.4-2.5-1-5.1-0.6-7.7s2-5.1,4.4-5.8C248.3,383.6,247.6,384.7,247.3,384.1z
			"/>
		<path class="st3" d="M244.7,404.9c-0.2,0.2-0.3-0.5,0-0.4s0.4,0.5,0.4,0.8c0,2.1,0,4.1,0.1,6.2c0,2.5,0,5.1-1.1,7.3
			c-1.3,2.4-3.8,4-6.5,4.9c-7,2.5-15.3,1-21.1-3.8c-2-1.7-3.8-3.8-4.1-6.4l0.1,0.7c9.2-7,21.2-10.3,32.7-8.9"/>
	</g>
</g>
</svg>
