<svg version="1.1" id="Layer_1" xmlns="http://www.w3.org/2000/svg" x="0" y="0" viewBox="0 0 1096.1 529.5" xml:space="preserve"><style>.st0{opacity:.5;fill:#c1272d;enable-background:new}.st1{fill:none;stroke:#000;stroke-width:4;stroke-miterlimit:10}.st3{opacity:.65;fill:#c1272d;enable-background:new}.st4{stroke-width:3.0991}.st4,.st6,.st7{stroke:#000;stroke-miterlimit:10}.st6{stroke-width:2;fill:none}.st7{fill:#fff}.st11,.st13,.st8{stroke:#000;stroke-miterlimit:10}.st11{fill:none}.st13{stroke-width:1.1447}</style><path class="st0" d="M666.1 351.5c-3.3-36.3-20.4-70.7-45.5-97.1-6.8-7.1-14.3-13.7-23-18.2-7.3-3.7-15.3-5.7-23.5-7.1-8.9 5.7-17.6 12-24.5 20.1-8 9.4-13.1 20.8-18.2 32.1-9.3 20.8-18.8 42.4-18.3 65.1.3 13.8 4.4 27.2 9.3 40.1 7.8 20.4 18 40 32.2 56.6 13 15.2 29.5 27.7 48.3 34.4 11.5-6.7 22-15.1 30.9-25 24.4-26.9 35.6-64.7 32.3-101z"/><path class="st1" d="M666.1 353.2c-3.3-36.3-20.4-70.7-45.5-97.1-6.8-7.1-14.3-13.7-23-18.2-10.8-5.4-22.9-7.3-34.9-8.6-11.3-1.2-22.7-2-34.1-1.4-30.8 1.8-60.4 14.4-84.8 33.1s-43.9 43.5-59 70.3c-8.5 15.1-15.8 31.7-15.8 49l-1.6 2.5c-10.5 8.7-22.1 16-34.4 21.8-4.1 1.9-8.2 3.6-12.2 5.7-3.8 2-7.5 4.2-11.1 6.7 3.2-2.3 13.5-1.5 17.5-1.9 6.5-.7 12.9-1.4 19.4-2.2l19.4-2.1c6.8-.7 9.4-2.6 12 4.1 7.8 19.7 21.6 36.8 38.3 49.7 18.4 14.2 40.3 23.6 62.9 29.1 27.2 6.7 55.9 7.9 83.1 1.6 27.2-6.3 53-20.2 71.6-41 24.3-27 35.5-64.9 32.2-101.1z"/><path class="st1" d="M835.9 413.5c.7 0 1.3 0 2-.1-12.6-4.7-24.9-10.2-36.9-16.4-3.3-1.7-6.6-4.1-9-6.9 3.4-42.3-10.1-85.8-36.9-118.7s-66.7-54.9-108.9-60c-13.3-1.6-27-1.6-39.9 2.2-10.4 3.1-19.9 8.6-29.1 14.4-10 6.3-19.9 13.1-27.5 22.1-8 9.4-13.1 20.8-18.2 32.1-9.3 20.8-18.8 42.4-18.3 65.1.3 13.8 4.4 27.2 9.3 40.1 7.8 20.4 18 40 32.2 56.6s32.6 30 53.5 36.2c27.6 8.2 57.5 3.5 85.3-4 26.4-7.1 53-17.1 72.5-36.2 8.6-8.4 15.6-18.4 24.6-26.5 16.1.2 29.2-.6 45.3 0z"/><path class="st3" d="M566.8 304.9c-1.6.2-3.2.5-4.5 1.4-1.4 1-2.2 2.5-2.9 4-3 7.5-1 16.1 2.9 23.2 3.9 7 9.6 12.9 14.6 19.2 6.7 8.5 12.1 18 16.1 28 12.4-19.1 25.3-39.6 25.8-62.4.1-3.8-.2-7.7-2.1-11-1.8-3.3-5.5-5.8-9.3-5.1-2.8.5-5 2.5-6.9 4.6-5.6 6.2-6.9 15.1-14.2 8.1-5.7-5.6-10.5-10.8-19.5-10z"/><path class="st4" d="M877.2 257.3c-3.9-2.9-8.2-5.2-12.6-7.1a82.7 82.7 0 0 0-.8 25.8c-3.9-.2-7.7.3-11.5 1.3l8.7 6.3a59.1 59.1 0 0 0-13.6 7.2c-1 .7-2 1.6-1.9 2.8.1.7.5 1.2.9 1.8l5 6.2c-5.2 2.3-8.8 8-8.4 13.7 2.5.5 5 .6 7.5.5"/><path d="M877.5 259.2c-6.6 7.6-11.8 16.4-16.6 25.2-4.5 8.2-8.7 16.5-11.8 25.4s-4.9 18.1-5.8 27.5c-2.7 28.7 4.1 58.2 19.3 82.6 15.3 24.4 39 43.5 66.2 52.8 8.7 3 17.9 5 27.1 5 21.2.1 41.8-10.7 55.3-27.1 13.5-16.4 20.2-37.8 20.3-59.1 6.8-.7 13.5-2.8 18.9-7 5.3-4.2 9.1-10.6 9.2-17.4 0-4.4-1.4-8.7-3.6-12.5-4.2-7.5-11.7-10.3-10.9-19.3.9-9.7.6-19.3-1.3-28.8-3.7-19-12.9-37-26.1-51.3-17.3-18.7-42.2-31.5-67.6-29.7-25.9 1.6-55.4 14-72.6 33.7z" fill="#c7b299" stroke="#000" stroke-width="2" stroke-miterlimit="10"/><path class="st6" d="M1038.8 346.4c2.8 1.9 4.6 5 6.1 8 1.1 2.3 2.1 4.7 2.1 7.2 0 2.3-.8 4.4-1.8 6.5-2.5 5.3-6.3 10.2-11.6 12.6.8 0 1.5-.4 2-1"/><path class="st7" d="M961.5 318.7c-.3 1.8-.1 3.8 1.1 5.2 1.1 1.2 2.9 1.6 4.5 1.7 8.2.9 16.6-.8 23.8-4.9 1.9-1.1 3.9-2.6 4.5-4.7.7-2.5-.7-5.2-2.7-6.7s-4.7-2.1-7.2-2.5c-9.9-1.5-22.3-.6-24 11.9zM874.7 316.5c-2.3 1.2-3.8 3.5-4.8 5.9-1.2 2.9-1.8 6.6.3 9 1.7 1.9 4.6 2.2 7.1 2.4 7 .5 27.2 1.6 23.6-11-2.4-8.9-19.4-9.8-26.2-6.3z"/><path class="st8" d="M871.2 319.3c-1.6 2.4-2.1 5.2-2.5 8-.3 1.8-.3 4 1.1 5.1.6.5 1.4.8 2.2 1 3.8 1 8.4 1.9 11.1-1 1.9-2 2-5.1 1.9-7.9 0-2.3-.1-4.7-1.6-6.4-3.5-4-9.5-3-12.2 1.2zM965.1 310.6c-2.2 2.5-2.9 6-3 9.3 0 1.3 0 2.7.7 3.8 1 1.6 3 2.2 4.9 2.5 1.7.3 3.6.5 5.2-.3 2.3-1.1 3.4-3.8 3.7-6.3.7-6.8-4.3-17.3-11.5-9z"/><path class="st6" d="M859.1 386.8c.6.6 1.1 1.3 1.7 1.9 3.3 3.8 8.1 6.2 13.1 6.7s10.2-1 14.1-4.1c.2-.2.4-.4.3-.6-.1-.2-.6 0-.4.1M975.3 385.2c5.8 1.6 11.7 3 17.7 2.4 5.9-.7 11.9-3.8 14.4-9.3M892.2 287.5c1.9-1.4 4.5-.8 6.7-.1 3.9 1.4 7.7 3.1 11.4 5.1M983.7 287.7c4.5-1.5 9.5-.6 13.9 1.1 3.3 1.3 6.8 3.2 7.9 6.6M925.5 327.5c-2.7 10.9-5.4 21.7-8 32.6-1.1 4.5-2.2 9.2-.6 13.5 2 5.5 8.2 8.7 14.1 8.4 5.8-.3 11.2-3.4 15.4-7.5a54.65 54.65 0 0 1-24.4 31"/><path d="M928.3 426.8c2 2.9 4.1 5.8 6.9 8 2.3 1.9 5.1 3.1 7.9 4 3.1 1 6.8 1.5 9.5-.3 3-2.1 3.5-6.4 3.7-10.1.4-7.2.7-14.6-2.2-21.2-.1-.3-28.7 1-31.2 1.4-4.8.8-4.8 1.7-2.6 5.8 2.3 4.4 5.2 8.4 8 12.4z" fill="#c1272d" fill-opacity=".4" stroke="#000" stroke-width="2" stroke-miterlimit="10"/><path class="st4" d="M866.3 263.2c10.9-2.2 21.5-6.3 31.3-12.1 3.9-2.3 7.9-5 12.4-5.3 4.5-.4 9.6 2.5 10.1 7.3 4.8-3 9.7-6 14.5-9 1.8-1.1 4-2.3 6-1.7 2.3.8 3.4 3.5 5.1 5.4 4.2 4.5 11.3 2.8 16.6-.1s10.7-6.8 16.6-5.9c5.2.8 9.5 5.9 9.7 11.6 6.6-1.9 13.4-3 20.3-3.5-.5 5.6-.5 11.2.2 16.8.2 1.5.5 3.2 1.6 4.1.9.7 2 .7 3.1.8l18.2.6c.9 8.9-1.3 18.1-6.2 25.4l12.6-.9c-3.3 6.1-6.7 12.2-10 18.3l15.1.6c-3.8 6.8-6.8 14.1-8.9 21.7-.3 1-.5 2.1 0 2.9.6.9 1.8.9 2.8.8 5.8-.4 11.5-2.4 16.4-5.8 1.1-.8 2.2-1.6 2.8-2.9.6-1.4.3-3 0-4.5-1.2-5.8-2.8-11.4-4.8-16.9-1.9-5.2-4.2-10.7-3.5-16.2.7-6.2 5-11.7 4.5-17.9-4 2.8-9 4-13.7 3.4 1-8.8 1.7-18.7-3.6-25.5-3.9-4.9-10-6.9-15.6-9-10.3-4-21.6-11.5-22.1-23.2-4.6 1.2-7.5 8.3-12 6.9-1.5-.5-2.6-1.9-3.6-3.2l-13.5-18.3c-4.7 3.1-4.7 11.6-9.8 13.8-2.2 1-4.8.3-7-.4-9.3-3.2-17.8-9-27.3-11.2-2.8-.7-6.2-.8-7.9 1.7-.8 1.2-1 2.7-1.1 4.1-.4 4.5-.4 9 0 13.6-9.6-2.3-19.2-4.5-28.8-6.8-1.6 4.9-1.3 10.5 1 15.1-3.2.4-8.7-.8-11.5.4-4.1 1.7-2.9 1.7-4.4 6.7-1.3 2-4.9 18.2-5.6 18.3z"/><path d="M954.7 433.2c-1.1.6-2.3.6-3.6.7-4.2.2-8.5.5-12.7.7 2.5 2.5 5.9 3.2 9.2 3.3 1.8 0 3.6-.3 5.1-1.5.9-.9 1.9-1.7 2-3.2z" fill="#f4f1ed"/><g><path class="st11" d="M109.7 353.4c-.4-2-2.4-3.4-4.4-3.2-3.8.4-4.9 5.6-3.8 9.3.8 2.7 2.2 5.3 4.6 6.8s5.8 1.5 7.8-.5"/><path d="M224.6 212.8c-16.8-5.3-34.2-10.5-51.6-8.3-14.8 1.8-28.5 8.9-40.3 17.9-18.6 14.2-33.5 34.1-38.6 56.9s.8 48.6 17.6 64.8c-3.4-3.7-9.8-2.9-13.4.5s-4.9 8.7-5 13.7c-.2 7.5 2.1 15.3 7.6 20.3s14.5 6.5 20.5 2c16.8 35.4 42.9 66.3 74.9 88.8 11.6 8.2 25 15.4 39.1 14.8 15.6-.8 29.4-11.3 38.1-24.4 8.7-13 13-28.3 17.3-43.4 6.3-22.3 12.6-44.8 13.3-67.9.6-21.2-3.6-42.2-7.8-63-1.9-9.6-3.9-19.3-8.5-27.9-5.1-9.5-13.7-25.6-22.3-31.8-10.1-7-29.2-9.3-40.9-13z" fill="#d34b16" fill-opacity=".2" stroke="#000" stroke-width="2" stroke-miterlimit="10"/><path class="st7" d="M256.7 300.1c-5.7-6.5-17.5-6.1-22.8.8a9.3 9.3 0 0 0-2 4.4c-.5 4.9 4.6 8.5 9.4 9.7 4.1 1 8.4.9 12.5-.1"/><path class="st13" d="M258.9 302.7c-1.1-4.8-8.2-5.9-11.5-2s-2.2 10.4 1.7 13.1c1.3.9 2.8 1.4 4.3 1.4 3.6-.1 7-3.6 7.3-7.4s-2.2-7.3-5.5-8.6"/><path class="st6" d="M158.4 292.4c6.6-.4 13.2-2.6 18.8-6.2M232.7 283.8a93.4 93.4 0 0 0 18.2-7.6"/><path class="st7" d="M178.7 303.3c-3.4-2.1-7.8-3-11.7-2.6-4 .5-7.4 2.3-9.4 5-.6.8-1.1 1.7-1.2 2.7-.4 2.3 1 4.8 2.7 6.9.9 1.1 1.9 2.3 3.1 3.2 2.3 1.7 5.4 2.5 8.4 2.6s5.8-.5 8.5-1.2c.3-.1.7-.2.9.1.2.2-.3.5-.4.3"/><path class="st13" d="M183.4 307.5c-1.2-4.8-8.4-5.6-11.6-1.6-3.2 4-1.8 10.4 2.2 13 1.3.8 2.8 1.3 4.4 1.3 3.6-.2 6.8-3.9 7-7.7.2-3.8-2.4-7.3-5.8-8.4"/><path class="st0" d="M153.5 363.4c-1.4 4.6-.9 9.9 1.9 13.8 2.8 3.9 8.1 6.1 12.7 4.7 3.1-.9 5.7-3.3 7.3-6.1 3.7-6.5 4.8-18.8-3.5-22.5-7.4-3.2-16.3 3.1-18.4 10.1zM260 356.4c.9 1.9 2.7 3.2 4.6 4.2 3.4 1.8 7.2 2.7 11 2.8 1.6 0 3.3-.1 4.8-.8 2.8-1.4 4.2-4.6 4.6-7.7.8-5.4-1-11.2-5.1-14.7-10.2-8.7-25.4 4.5-19.9 16.2z"/><path class="st11" d="M216.1 302.7c-.3 8.1 4.5 15.5 9 22.3 4.3 6.5 8.7 12.9 13 19.4.9 1.4 1.9 2.8 1.9 4.4 0 2.4-2 4.3-4 5.7-8.8 6.3-20 9.1-30.7 7.8a43.41 43.41 0 0 0 35.7 19.3"/><path d="M259.6 216.6c3.5 1.9 7.2 3.9 9.4 7.2 1 1.6 1 4.4 1.2 6.3-13.8-8-32.1 2.7-47-3.1-2.6-1-5.1-2.7-5.8-5.4-1.2 10.5-10.7 17.8-19.8 23.2-14.3 8.4-29.8 14.8-45.8 19.2-4.5 1.2-9.1 2.3-13 4.8-3 1.8-5.4 4.4-7.8 6.9-5.3 5.5-10.7 11.1-14.7 17.6-8.9 14.3-11.8 32.1-6.9 48.2-2.5-1.9-5.1-3.8-7.6-5.8-.1-.1-.3-.2-.3-.4s.3-.2.3-.1l.3.1c-15.9-18.8-18-47-8.5-69.7 9.4-22.8 28.8-40.4 50.8-51.6 36-18.4 82.3-20 115.6 3" fill="#8c6239" stroke="#000" stroke-width="2" stroke-miterlimit="10"/><path d="M84.5 256.3c9.1-10.1 21.9-15.8 33-23.6s21.4-19.5 20.7-33c-.3-4.4-1.7-8.6-3.6-12.5-7-13.8-21.2-23.5-36.5-26S66.7 163 54 172c-17.1 12-28.1 33.6-24.4 54.1s24.3 37.7 44.9 34.5c8.4-1.3 16-5.5 23.1-10.1 5.4-3.5 10.7-7.3 14.7-12.3 6-7.4 8.7-16.9 10.2-26.3.9-5.7 1.3-11.7-.7-17.1-3.9-10.5-16.2-15.9-27.3-15.2-11.2.7-21.4 6.1-31.1 11.6-10.9 6.2-22.7 14.3-24.6 26.7-2.1 14.2 11.4 27.2 25.6 28.8 14.3 1.6 28.2-5.6 39.2-14.7 6.9-5.7 13.3-12.7 15.1-21.5 1.6-8.3-1.5-17.4-7.9-22.9s-15.9-7.2-23.8-4.2c-6.2 2.3-11.1 7-15.3 12-4.5 5.3-8.4 11-11.6 17.2-2.3 4.3-4.2 9.5-2.1 13.9 1.2 2.3 3.3 4 5.7 5.1 9.5 4.4 21.3-.7 27.9-8.9 3.2-3.9 5.6-8.8 4.8-13.8-1.2-7.9-10.7-12.7-18.4-10.6s-13.1 9.6-14.8 17.4c-.3 1.2-.4 2.5 0 3.7.8 2.2 3.5 3 5.8 3.2 5.1.4 10.8-1.3 13.5-5.7s.8-11.3-4.2-12.5-9.7 6.2-5.8 9.6c.9.4 1.9.8 2.8 1.2 1.4-1.7-.6-4.7-2.6-4.1" fill="#8c6239" stroke="#000" stroke-miterlimit="10"/><path class="st11" d="M214.3 215.1c-2 .6-2.9 2.9-3.9 4.7-2.9 5.2-8.7 8-14.3 10.2-19 7.4-39.8 10.8-57.2 21.5-11.8 7.3-21.7 17.9-27.7 30.4s-8 27-5.3 40.6"/><path class="st11" d="M204.3 209.1c-7 9.8-20.1 12.1-31.6 15.6-18.2 5.5-34.7 15.5-49.4 27.5-5.3 4.4-10.5 9.2-14 15.1-3.3 5.6-4.8 12-6.1 18.4-1.5 7.6-3.4 16-2.5 23.7a93.23 93.23 0 0 1-1.1-33.3c.6-4.6 1.7-9.2 3.9-13.2 2.1-3.7 5.2-6.8 8.3-9.7 14.2-13.1 30.7-23.8 48.5-31.3 9.9-4.2 20.5-7.6 28.8-14.6M219.8 212.1c3.1 1.6 5.7 4 8.7 5.5 8.4 4.3 19.1 2 27 7.2-1.1-.7-2.2-1.5-3.3-2.2M213.9 204c14.6 2.3 28.7 7.7 41.1 15.7"/><path d="M247.3 384.1c-2.1 1.2-4.5 1.7-6.8 2.1-15.5 2.9-31.2 4.3-46.9 4.4 0 .1-2-1.1-2-1 3.1-.2 6.1 1.6 8.1 4.1 2 2.4 3.2 5.4 4.5 8.3 4.1 9.2 10.3 18.4 19.9 21.4 3.1 1 6.5 1.2 9.8 1.2 2.3 0 4.7-.1 6.7-1.2 4.7-2.5 5.6-8.8 5.4-14.2-.1-3.9-.5-7.8-1.2-11.6-.4-2.5-1-5.1-.6-7.7s2-5.1 4.4-5.8c-.3-.5-1 .6-1.3 0z" fill="#c1272d" fill-opacity=".4" stroke="#000" stroke-miterlimit="10"/><path class="st3" d="M244.7 404.9c-.2.2-.3-.5 0-.4s.4.5.4.8c0 2.1 0 4.1.1 6.2 0 2.5 0 5.1-1.1 7.3-1.3 2.4-3.8 4-6.5 4.9-7 2.5-15.3 1-21.1-3.8-2-1.7-3.8-3.8-4.1-6.4l.1.7c9.2-7 21.2-10.3 32.7-8.9"/></g></svg>